%TF.GenerationSoftware,KiCad,Pcbnew,8.0.3*%
%TF.CreationDate,2025-02-02T19:27:09+01:00*%
%TF.ProjectId,BBARIII,42424152-4949-4492-9e6b-696361645f70,rev?*%
%TF.SameCoordinates,Original*%
%TF.FileFunction,Paste,Top*%
%TF.FilePolarity,Positive*%
%FSLAX46Y46*%
G04 Gerber Fmt 4.6, Leading zero omitted, Abs format (unit mm)*
G04 Created by KiCad (PCBNEW 8.0.3) date 2025-02-02 19:27:09*
%MOMM*%
%LPD*%
G01*
G04 APERTURE LIST*
G04 Aperture macros list*
%AMRoundRect*
0 Rectangle with rounded corners*
0 $1 Rounding radius*
0 $2 $3 $4 $5 $6 $7 $8 $9 X,Y pos of 4 corners*
0 Add a 4 corners polygon primitive as box body*
4,1,4,$2,$3,$4,$5,$6,$7,$8,$9,$2,$3,0*
0 Add four circle primitives for the rounded corners*
1,1,$1+$1,$2,$3*
1,1,$1+$1,$4,$5*
1,1,$1+$1,$6,$7*
1,1,$1+$1,$8,$9*
0 Add four rect primitives between the rounded corners*
20,1,$1+$1,$2,$3,$4,$5,0*
20,1,$1+$1,$4,$5,$6,$7,0*
20,1,$1+$1,$6,$7,$8,$9,0*
20,1,$1+$1,$8,$9,$2,$3,0*%
G04 Aperture macros list end*
%ADD10RoundRect,0.250000X0.400000X0.625000X-0.400000X0.625000X-0.400000X-0.625000X0.400000X-0.625000X0*%
%ADD11RoundRect,0.150000X0.150000X0.587500X-0.150000X0.587500X-0.150000X-0.587500X0.150000X-0.587500X0*%
%ADD12RoundRect,0.150000X0.587500X0.150000X-0.587500X0.150000X-0.587500X-0.150000X0.587500X-0.150000X0*%
%ADD13R,0.700000X1.925000*%
%ADD14R,1.925000X0.700000*%
%ADD15RoundRect,0.250000X-0.625000X0.400000X-0.625000X-0.400000X0.625000X-0.400000X0.625000X0.400000X0*%
%ADD16RoundRect,0.250000X0.650000X-0.412500X0.650000X0.412500X-0.650000X0.412500X-0.650000X-0.412500X0*%
%ADD17R,1.981200X0.457200*%
%ADD18RoundRect,0.250000X0.625000X-0.400000X0.625000X0.400000X-0.625000X0.400000X-0.625000X-0.400000X0*%
%ADD19RoundRect,0.250000X-0.412500X-0.650000X0.412500X-0.650000X0.412500X0.650000X-0.412500X0.650000X0*%
%ADD20RoundRect,0.150000X0.150000X-1.350000X0.150000X1.350000X-0.150000X1.350000X-0.150000X-1.350000X0*%
%ADD21RoundRect,0.150000X0.825000X0.150000X-0.825000X0.150000X-0.825000X-0.150000X0.825000X-0.150000X0*%
%ADD22RoundRect,0.250001X-0.624999X0.462499X-0.624999X-0.462499X0.624999X-0.462499X0.624999X0.462499X0*%
G04 APERTURE END LIST*
D10*
%TO.C,R16*%
X99640000Y-103130000D03*
X96540000Y-103130000D03*
%TD*%
%TO.C,R14*%
X99640000Y-108130000D03*
X96540000Y-108130000D03*
%TD*%
D11*
%TO.C,U9*%
X157459200Y-72245000D03*
X158729200Y-72245000D03*
X159999200Y-72245000D03*
X161269200Y-72245000D03*
D12*
X163021700Y-70487500D03*
X163021700Y-69217500D03*
X163021700Y-67947500D03*
X163021700Y-66677500D03*
X163021700Y-65407500D03*
X163021700Y-64137500D03*
X163021700Y-62867500D03*
X163021700Y-61597500D03*
X163021700Y-60327500D03*
D11*
X161269200Y-58570000D03*
X159999200Y-58570000D03*
X158729200Y-58570000D03*
X157459200Y-58570000D03*
X156189200Y-58570000D03*
X154919200Y-58570000D03*
X153649200Y-58570000D03*
D12*
X151896700Y-60327500D03*
X151896700Y-61597500D03*
X151896700Y-62867500D03*
X151896700Y-64137500D03*
X151896700Y-65407500D03*
X151896700Y-66677500D03*
X151896700Y-67947500D03*
X151896700Y-69217500D03*
X151896700Y-70487500D03*
D11*
X153649200Y-72245000D03*
X154919200Y-72245000D03*
X156189200Y-72245000D03*
%TD*%
D10*
%TO.C,R17*%
X99640000Y-100630000D03*
X96540000Y-100630000D03*
%TD*%
D13*
%TO.C,U4*%
X168940000Y-102207500D03*
X170210000Y-102207500D03*
X171480000Y-102207500D03*
D14*
X172992500Y-100695000D03*
X172992500Y-99425000D03*
X172992500Y-98155000D03*
X172992500Y-96885000D03*
X172992500Y-95615000D03*
D13*
X171480000Y-94102500D03*
X170210000Y-94102500D03*
X168940000Y-94102500D03*
X167670000Y-94102500D03*
X166400000Y-94102500D03*
D14*
X164887500Y-95615000D03*
X164887500Y-96885000D03*
X164887500Y-98155000D03*
X164887500Y-99425000D03*
X164887500Y-100695000D03*
D13*
X166400000Y-102207500D03*
X167670000Y-102207500D03*
%TD*%
D15*
%TO.C,R3*%
X108115000Y-83980000D03*
X108115000Y-87080000D03*
%TD*%
D16*
%TO.C,C2*%
X189040000Y-65117500D03*
X189040000Y-61992500D03*
%TD*%
D10*
%TO.C,R9*%
X99640000Y-120730000D03*
X96540000Y-120730000D03*
%TD*%
%TO.C,R12*%
X99640000Y-113230000D03*
X96540000Y-113230000D03*
%TD*%
D17*
%TO.C,U8*%
X142915000Y-71585000D03*
X142915000Y-70315000D03*
X142915000Y-69045000D03*
X142915000Y-67775000D03*
X142915000Y-66505000D03*
X142915000Y-65235000D03*
X142915000Y-63965000D03*
X142915000Y-62695000D03*
X142915000Y-61425000D03*
X142915000Y-60155000D03*
X142915000Y-58885000D03*
X142915000Y-57615000D03*
X142915000Y-56345000D03*
X142915000Y-55075000D03*
X132069200Y-55075000D03*
X132069200Y-56345000D03*
X132069200Y-57615000D03*
X132069200Y-58885000D03*
X132069200Y-60155000D03*
X132069200Y-61425000D03*
X132069200Y-62695000D03*
X132069200Y-63965000D03*
X132069200Y-65235000D03*
X132069200Y-66505000D03*
X132069200Y-67775000D03*
X132069200Y-69045000D03*
X132069200Y-70315000D03*
X132069200Y-71585000D03*
%TD*%
D18*
%TO.C,R1*%
X137290000Y-125155000D03*
X137290000Y-122055000D03*
%TD*%
D10*
%TO.C,R8*%
X99640000Y-123380000D03*
X96540000Y-123380000D03*
%TD*%
%TO.C,R20*%
X99640000Y-92930000D03*
X96540000Y-92930000D03*
%TD*%
%TO.C,R18*%
X99640000Y-98080000D03*
X96540000Y-98080000D03*
%TD*%
D19*
%TO.C,C4*%
X132977500Y-106205000D03*
X136102500Y-106205000D03*
%TD*%
D10*
%TO.C,R22*%
X99640000Y-87880000D03*
X96540000Y-87880000D03*
%TD*%
D18*
%TO.C,R6*%
X199390000Y-84630000D03*
X199390000Y-81530000D03*
%TD*%
D10*
%TO.C,R13*%
X99640000Y-110630000D03*
X96540000Y-110630000D03*
%TD*%
D13*
%TO.C,U3*%
X149940000Y-102157500D03*
X151210000Y-102157500D03*
X152480000Y-102157500D03*
D14*
X153992500Y-100645000D03*
X153992500Y-99375000D03*
X153992500Y-98105000D03*
X153992500Y-96835000D03*
X153992500Y-95565000D03*
D13*
X152480000Y-94052500D03*
X151210000Y-94052500D03*
X149940000Y-94052500D03*
X148670000Y-94052500D03*
X147400000Y-94052500D03*
D14*
X145887500Y-95565000D03*
X145887500Y-96835000D03*
X145887500Y-98105000D03*
X145887500Y-99375000D03*
X145887500Y-100645000D03*
D13*
X147400000Y-102157500D03*
X148670000Y-102157500D03*
%TD*%
%TO.C,U1*%
X113194200Y-102147500D03*
X114464200Y-102147500D03*
X115734200Y-102147500D03*
D14*
X117246700Y-100635000D03*
X117246700Y-99365000D03*
X117246700Y-98095000D03*
X117246700Y-96825000D03*
X117246700Y-95555000D03*
D13*
X115734200Y-94042500D03*
X114464200Y-94042500D03*
X113194200Y-94042500D03*
X111924200Y-94042500D03*
X110654200Y-94042500D03*
D14*
X109141700Y-95555000D03*
X109141700Y-96825000D03*
X109141700Y-98095000D03*
X109141700Y-99365000D03*
X109141700Y-100635000D03*
D13*
X110654200Y-102147500D03*
X111924200Y-102147500D03*
%TD*%
D10*
%TO.C,R15*%
X99640000Y-105630000D03*
X96540000Y-105630000D03*
%TD*%
D13*
%TO.C,U5*%
X187360000Y-102235000D03*
X188630000Y-102235000D03*
X189900000Y-102235000D03*
D14*
X191412500Y-100722500D03*
X191412500Y-99452500D03*
X191412500Y-98182500D03*
X191412500Y-96912500D03*
X191412500Y-95642500D03*
D13*
X189900000Y-94130000D03*
X188630000Y-94130000D03*
X187360000Y-94130000D03*
X186090000Y-94130000D03*
X184820000Y-94130000D03*
D14*
X183307500Y-95642500D03*
X183307500Y-96912500D03*
X183307500Y-98182500D03*
X183307500Y-99452500D03*
X183307500Y-100722500D03*
D13*
X184820000Y-102235000D03*
X186090000Y-102235000D03*
%TD*%
D16*
%TO.C,C3*%
X108140000Y-70592500D03*
X108140000Y-67467500D03*
%TD*%
D20*
%TO.C,U6*%
X171540000Y-123605000D03*
X172810000Y-123605000D03*
X174080000Y-123605000D03*
X175350000Y-123605000D03*
X176620000Y-123605000D03*
X177890000Y-123605000D03*
X179160000Y-123605000D03*
X179160000Y-117705000D03*
X177890000Y-117705000D03*
X176620000Y-117705000D03*
X175350000Y-117705000D03*
X174080000Y-117705000D03*
X172810000Y-117705000D03*
X171540000Y-117705000D03*
%TD*%
D21*
%TO.C,U11*%
X199815000Y-72240000D03*
X199815000Y-70970000D03*
X199815000Y-69700000D03*
X199815000Y-68430000D03*
X194865000Y-68430000D03*
X194865000Y-69700000D03*
X194865000Y-70970000D03*
X194865000Y-72240000D03*
%TD*%
D10*
%TO.C,R11*%
X99640000Y-115880000D03*
X96540000Y-115880000D03*
%TD*%
D18*
%TO.C,R7*%
X203240000Y-84630000D03*
X203240000Y-81530000D03*
%TD*%
D22*
%TO.C,D3*%
X191740000Y-81592500D03*
X191740000Y-84567500D03*
%TD*%
D18*
%TO.C,R4*%
X108140000Y-77555000D03*
X108140000Y-74455000D03*
%TD*%
D10*
%TO.C,R10*%
X99640000Y-118230000D03*
X96540000Y-118230000D03*
%TD*%
%TO.C,R19*%
X99640000Y-95480000D03*
X96540000Y-95480000D03*
%TD*%
D18*
%TO.C,R2*%
X141215000Y-125155000D03*
X141215000Y-122055000D03*
%TD*%
D11*
%TO.C,U7*%
X118304200Y-72045000D03*
X119574200Y-72045000D03*
X120844200Y-72045000D03*
X122114200Y-72045000D03*
D12*
X123866700Y-70287500D03*
X123866700Y-69017500D03*
X123866700Y-67747500D03*
X123866700Y-66477500D03*
X123866700Y-65207500D03*
X123866700Y-63937500D03*
X123866700Y-62667500D03*
X123866700Y-61397500D03*
X123866700Y-60127500D03*
D11*
X122114200Y-58370000D03*
X120844200Y-58370000D03*
X119574200Y-58370000D03*
X118304200Y-58370000D03*
X117034200Y-58370000D03*
X115764200Y-58370000D03*
X114494200Y-58370000D03*
D12*
X112741700Y-60127500D03*
X112741700Y-61397500D03*
X112741700Y-62667500D03*
X112741700Y-63937500D03*
X112741700Y-65207500D03*
X112741700Y-66477500D03*
X112741700Y-67747500D03*
X112741700Y-69017500D03*
X112741700Y-70287500D03*
D11*
X114494200Y-72045000D03*
X115764200Y-72045000D03*
X117034200Y-72045000D03*
%TD*%
D13*
%TO.C,U2*%
X131621700Y-102172500D03*
X132891700Y-102172500D03*
X134161700Y-102172500D03*
D14*
X135674200Y-100660000D03*
X135674200Y-99390000D03*
X135674200Y-98120000D03*
X135674200Y-96850000D03*
X135674200Y-95580000D03*
D13*
X134161700Y-94067500D03*
X132891700Y-94067500D03*
X131621700Y-94067500D03*
X130351700Y-94067500D03*
X129081700Y-94067500D03*
D14*
X127569200Y-95580000D03*
X127569200Y-96850000D03*
X127569200Y-98120000D03*
X127569200Y-99390000D03*
X127569200Y-100660000D03*
D13*
X129081700Y-102172500D03*
X130351700Y-102172500D03*
%TD*%
D19*
%TO.C,C5*%
X200977500Y-127955000D03*
X204102500Y-127955000D03*
%TD*%
D10*
%TO.C,R21*%
X99640000Y-90330000D03*
X96540000Y-90330000D03*
%TD*%
D17*
%TO.C,U10*%
X182840000Y-71615000D03*
X182840000Y-70345000D03*
X182840000Y-69075000D03*
X182840000Y-67805000D03*
X182840000Y-66535000D03*
X182840000Y-65265000D03*
X182840000Y-63995000D03*
X182840000Y-62725000D03*
X182840000Y-61455000D03*
X182840000Y-60185000D03*
X182840000Y-58915000D03*
X182840000Y-57645000D03*
X182840000Y-56375000D03*
X182840000Y-55105000D03*
X171994200Y-55105000D03*
X171994200Y-56375000D03*
X171994200Y-57645000D03*
X171994200Y-58915000D03*
X171994200Y-60185000D03*
X171994200Y-61455000D03*
X171994200Y-62725000D03*
X171994200Y-63995000D03*
X171994200Y-65265000D03*
X171994200Y-66535000D03*
X171994200Y-67805000D03*
X171994200Y-69075000D03*
X171994200Y-70345000D03*
X171994200Y-71615000D03*
%TD*%
D18*
%TO.C,R5*%
X195640000Y-84630000D03*
X195640000Y-81530000D03*
%TD*%
D10*
%TO.C,R23*%
X99640000Y-85380000D03*
X96540000Y-85380000D03*
%TD*%
M02*
