%TF.GenerationSoftware,KiCad,Pcbnew,8.0.3*%
%TF.CreationDate,2025-02-02T19:27:15+01:00*%
%TF.ProjectId,BBARIII,42424152-4949-4492-9e6b-696361645f70,rev?*%
%TF.SameCoordinates,Original*%
%TF.FileFunction,Drillmap*%
%TF.FilePolarity,Positive*%
%FSLAX45Y45*%
G04 Gerber Fmt 4.5, Leading zero omitted, Abs format (unit mm)*
G04 Created by KiCad (PCBNEW 8.0.3) date 2025-02-02 19:27:15*
%MOMM*%
%LPD*%
G01*
G04 APERTURE LIST*
%ADD10C,0.050000*%
%ADD11C,0.200000*%
G04 APERTURE END LIST*
D10*
X20567000Y-13958004D02*
G75*
G02*
X20690424Y-13857350I107530J-5856D01*
G01*
X20567000Y-13958004D02*
X20567000Y-14675996D01*
X20690425Y-13857343D02*
X20690425Y-11475500D01*
X9515500Y-14775502D02*
G75*
G02*
X9415999Y-14675991I-2000J97502D01*
G01*
X9292575Y-11175500D02*
X9292575Y-4375500D01*
X20567000Y-14675996D02*
G75*
G02*
X20467500Y-14775500I-97490J-2014D01*
G01*
X9292575Y-13857339D02*
X9292575Y-11175500D01*
X9292575Y-13857339D02*
G75*
G02*
X9416000Y-13958000I15885J-106521D01*
G01*
X20690425Y-4375500D02*
X9292575Y-4375500D01*
X20467500Y-14775506D02*
X9515500Y-14775502D01*
X20690425Y-11475500D02*
X20690425Y-4375500D01*
X9416000Y-13958000D02*
X9416000Y-14675991D01*
D11*
X9550852Y-15089506D02*
X9550852Y-14889506D01*
X9550852Y-14889506D02*
X9598471Y-14889506D01*
X9598471Y-14889506D02*
X9627042Y-14899030D01*
X9627042Y-14899030D02*
X9646090Y-14918077D01*
X9646090Y-14918077D02*
X9655613Y-14937125D01*
X9655613Y-14937125D02*
X9665137Y-14975220D01*
X9665137Y-14975220D02*
X9665137Y-15003792D01*
X9665137Y-15003792D02*
X9655613Y-15041887D01*
X9655613Y-15041887D02*
X9646090Y-15060934D01*
X9646090Y-15060934D02*
X9627042Y-15079982D01*
X9627042Y-15079982D02*
X9598471Y-15089506D01*
X9598471Y-15089506D02*
X9550852Y-15089506D01*
X9750852Y-15089506D02*
X9750852Y-14956172D01*
X9750852Y-14994268D02*
X9760375Y-14975220D01*
X9760375Y-14975220D02*
X9769899Y-14965696D01*
X9769899Y-14965696D02*
X9788947Y-14956172D01*
X9788947Y-14956172D02*
X9807994Y-14956172D01*
X9874661Y-15089506D02*
X9874661Y-14956172D01*
X9874661Y-14889506D02*
X9865137Y-14899030D01*
X9865137Y-14899030D02*
X9874661Y-14908553D01*
X9874661Y-14908553D02*
X9884185Y-14899030D01*
X9884185Y-14899030D02*
X9874661Y-14889506D01*
X9874661Y-14889506D02*
X9874661Y-14908553D01*
X9998471Y-15089506D02*
X9979423Y-15079982D01*
X9979423Y-15079982D02*
X9969899Y-15060934D01*
X9969899Y-15060934D02*
X9969899Y-14889506D01*
X10103232Y-15089506D02*
X10084185Y-15079982D01*
X10084185Y-15079982D02*
X10074661Y-15060934D01*
X10074661Y-15060934D02*
X10074661Y-14889506D01*
X10331804Y-15089506D02*
X10331804Y-14889506D01*
X10331804Y-14889506D02*
X10398471Y-15032363D01*
X10398471Y-15032363D02*
X10465137Y-14889506D01*
X10465137Y-14889506D02*
X10465137Y-15089506D01*
X10646090Y-15089506D02*
X10646090Y-14984744D01*
X10646090Y-14984744D02*
X10636566Y-14965696D01*
X10636566Y-14965696D02*
X10617518Y-14956172D01*
X10617518Y-14956172D02*
X10579423Y-14956172D01*
X10579423Y-14956172D02*
X10560375Y-14965696D01*
X10646090Y-15079982D02*
X10627042Y-15089506D01*
X10627042Y-15089506D02*
X10579423Y-15089506D01*
X10579423Y-15089506D02*
X10560375Y-15079982D01*
X10560375Y-15079982D02*
X10550852Y-15060934D01*
X10550852Y-15060934D02*
X10550852Y-15041887D01*
X10550852Y-15041887D02*
X10560375Y-15022839D01*
X10560375Y-15022839D02*
X10579423Y-15013315D01*
X10579423Y-15013315D02*
X10627042Y-15013315D01*
X10627042Y-15013315D02*
X10646090Y-15003792D01*
X10741328Y-14956172D02*
X10741328Y-15156172D01*
X10741328Y-14965696D02*
X10760375Y-14956172D01*
X10760375Y-14956172D02*
X10798471Y-14956172D01*
X10798471Y-14956172D02*
X10817518Y-14965696D01*
X10817518Y-14965696D02*
X10827042Y-14975220D01*
X10827042Y-14975220D02*
X10836566Y-14994268D01*
X10836566Y-14994268D02*
X10836566Y-15051411D01*
X10836566Y-15051411D02*
X10827042Y-15070458D01*
X10827042Y-15070458D02*
X10817518Y-15079982D01*
X10817518Y-15079982D02*
X10798471Y-15089506D01*
X10798471Y-15089506D02*
X10760375Y-15089506D01*
X10760375Y-15089506D02*
X10741328Y-15079982D01*
X10922280Y-15070458D02*
X10931804Y-15079982D01*
X10931804Y-15079982D02*
X10922280Y-15089506D01*
X10922280Y-15089506D02*
X10912756Y-15079982D01*
X10912756Y-15079982D02*
X10922280Y-15070458D01*
X10922280Y-15070458D02*
X10922280Y-15089506D01*
X10922280Y-14965696D02*
X10931804Y-14975220D01*
X10931804Y-14975220D02*
X10922280Y-14984744D01*
X10922280Y-14984744D02*
X10912756Y-14975220D01*
X10912756Y-14975220D02*
X10922280Y-14965696D01*
X10922280Y-14965696D02*
X10922280Y-14984744D01*
M02*
