%TF.GenerationSoftware,KiCad,Pcbnew,8.0.3*%
%TF.CreationDate,2025-02-02T19:27:15+01:00*%
%TF.ProjectId,BBARIII,42424152-4949-4492-9e6b-696361645f70,rev?*%
%TF.SameCoordinates,Original*%
%TF.FileFunction,Drillmap*%
%TF.FilePolarity,Positive*%
%FSLAX45Y45*%
G04 Gerber Fmt 4.5, Leading zero omitted, Abs format (unit mm)*
G04 Created by KiCad (PCBNEW 8.0.3) date 2025-02-02 19:27:15*
%MOMM*%
%LPD*%
G01*
G04 APERTURE LIST*
%ADD10C,0.050000*%
%ADD11C,0.200000*%
%ADD12C,0.100000*%
%ADD13C,0.109000*%
G04 APERTURE END LIST*
D10*
X20567000Y-13958004D02*
G75*
G02*
X20690424Y-13857350I107530J-5856D01*
G01*
X20567000Y-13958004D02*
X20567000Y-14675996D01*
X20690425Y-13857343D02*
X20690425Y-11475500D01*
X9515500Y-14775502D02*
G75*
G02*
X9415999Y-14675991I-2000J97502D01*
G01*
X9292575Y-11175500D02*
X9292575Y-4375500D01*
X20567000Y-14675996D02*
G75*
G02*
X20467500Y-14775500I-97490J-2014D01*
G01*
X9292575Y-13857339D02*
X9292575Y-11175500D01*
X9292575Y-13857339D02*
G75*
G02*
X9416000Y-13958000I15885J-106521D01*
G01*
X20690425Y-4375500D02*
X9292575Y-4375500D01*
X20467500Y-14775506D02*
X9515500Y-14775502D01*
X20690425Y-11475500D02*
X20690425Y-4375500D01*
X9416000Y-13958000D02*
X9416000Y-14675991D01*
D11*
D12*
X9519000Y-8025000D02*
X9549000Y-8055000D01*
X9549000Y-8025000D02*
X9519000Y-8055000D01*
X9688000Y-7204000D02*
X9718000Y-7234000D01*
X9718000Y-7204000D02*
X9688000Y-7234000D01*
X9770000Y-12962000D02*
X9800000Y-12992000D01*
X9800000Y-12962000D02*
X9770000Y-12992000D01*
X9798000Y-9272000D02*
X9828000Y-9302000D01*
X9828000Y-9272000D02*
X9798000Y-9302000D01*
X9802000Y-4918000D02*
X9832000Y-4948000D01*
X9832000Y-4918000D02*
X9802000Y-4948000D01*
X9806000Y-10051000D02*
X9836000Y-10081000D01*
X9836000Y-10051000D02*
X9806000Y-10081000D01*
X9909000Y-5457000D02*
X9939000Y-5487000D01*
X9939000Y-5457000D02*
X9909000Y-5487000D01*
X10022000Y-5011000D02*
X10052000Y-5041000D01*
X10052000Y-5011000D02*
X10022000Y-5041000D01*
X10024000Y-12573000D02*
X10054000Y-12603000D01*
X10054000Y-12573000D02*
X10024000Y-12603000D01*
X10169000Y-5365000D02*
X10199000Y-5395000D01*
X10199000Y-5365000D02*
X10169000Y-5395000D01*
X10169000Y-9533000D02*
X10199000Y-9563000D01*
X10199000Y-9533000D02*
X10169000Y-9563000D01*
X10230000Y-10301000D02*
X10260000Y-10331000D01*
X10260000Y-10301000D02*
X10230000Y-10331000D01*
X10283000Y-12952000D02*
X10313000Y-12982000D01*
X10313000Y-12952000D02*
X10283000Y-12982000D01*
X10293000Y-6890000D02*
X10323000Y-6920000D01*
X10323000Y-6890000D02*
X10293000Y-6920000D01*
X10293000Y-9668000D02*
X10323000Y-9698000D01*
X10323000Y-9668000D02*
X10293000Y-9698000D01*
X10322000Y-12209000D02*
X10352000Y-12239000D01*
X10352000Y-12209000D02*
X10322000Y-12239000D01*
X10404000Y-5274000D02*
X10434000Y-5304000D01*
X10434000Y-5274000D02*
X10404000Y-5304000D01*
X10404000Y-9825000D02*
X10434000Y-9855000D01*
X10434000Y-9825000D02*
X10404000Y-9855000D01*
X10535000Y-7965000D02*
X10565000Y-7995000D01*
X10565000Y-7965000D02*
X10535000Y-7995000D01*
X10535000Y-10799000D02*
X10565000Y-10829000D01*
X10565000Y-10799000D02*
X10535000Y-10829000D01*
X10550000Y-4491000D02*
X10580000Y-4521000D01*
X10580000Y-4491000D02*
X10550000Y-4521000D01*
X10550000Y-7740000D02*
X10580000Y-7770000D01*
X10580000Y-7740000D02*
X10550000Y-7770000D01*
X10650000Y-5191000D02*
X10680000Y-5221000D01*
X10680000Y-5191000D02*
X10650000Y-5221000D01*
X10650000Y-9160000D02*
X10680000Y-9190000D01*
X10680000Y-9160000D02*
X10650000Y-9190000D01*
X10658000Y-11574000D02*
X10688000Y-11604000D01*
X10688000Y-11574000D02*
X10658000Y-11604000D01*
X10658000Y-12540000D02*
X10688000Y-12570000D01*
X10688000Y-12540000D02*
X10658000Y-12570000D01*
X10764000Y-9036000D02*
X10794000Y-9066000D01*
X10794000Y-9036000D02*
X10764000Y-9066000D01*
X10777000Y-8151000D02*
X10807000Y-8181000D01*
X10807000Y-8151000D02*
X10777000Y-8181000D01*
X10913000Y-12423000D02*
X10943000Y-12453000D01*
X10943000Y-12423000D02*
X10913000Y-12453000D01*
X10944000Y-9390000D02*
X10974000Y-9420000D01*
X10974000Y-9390000D02*
X10944000Y-9420000D01*
X10955000Y-6252000D02*
X10985000Y-6282000D01*
X10985000Y-6252000D02*
X10955000Y-6282000D01*
X10962000Y-4919000D02*
X10992000Y-4949000D01*
X10992000Y-4919000D02*
X10962000Y-4949000D01*
X10965000Y-5997000D02*
X10995000Y-6027000D01*
X10995000Y-5997000D02*
X10965000Y-6027000D01*
X10989000Y-7740000D02*
X11019000Y-7770000D01*
X11019000Y-7740000D02*
X10989000Y-7770000D01*
X10990000Y-8674000D02*
X11020000Y-8704000D01*
X11020000Y-8674000D02*
X10990000Y-8704000D01*
X11030000Y-6760000D02*
X11060000Y-6790000D01*
X11060000Y-6760000D02*
X11030000Y-6790000D01*
X11039000Y-10865000D02*
X11069000Y-10895000D01*
X11069000Y-10865000D02*
X11039000Y-10895000D01*
X11046000Y-6124000D02*
X11076000Y-6154000D01*
X11076000Y-6124000D02*
X11046000Y-6154000D01*
X11094000Y-7431000D02*
X11124000Y-7461000D01*
X11124000Y-7431000D02*
X11094000Y-7461000D01*
X11094000Y-7641000D02*
X11124000Y-7671000D01*
X11124000Y-7641000D02*
X11094000Y-7671000D01*
X11095000Y-8383000D02*
X11125000Y-8413000D01*
X11125000Y-8383000D02*
X11095000Y-8413000D01*
X11095000Y-9900000D02*
X11125000Y-9930000D01*
X11125000Y-9900000D02*
X11095000Y-9930000D01*
X11162000Y-12097000D02*
X11192000Y-12127000D01*
X11192000Y-12097000D02*
X11162000Y-12127000D01*
X11167000Y-12329000D02*
X11197000Y-12359000D01*
X11197000Y-12329000D02*
X11167000Y-12359000D01*
X11182000Y-9794000D02*
X11212000Y-9824000D01*
X11212000Y-9794000D02*
X11182000Y-9824000D01*
X11203000Y-9597000D02*
X11233000Y-9627000D01*
X11233000Y-9597000D02*
X11203000Y-9627000D01*
X11241000Y-5011000D02*
X11271000Y-5041000D01*
X11271000Y-5011000D02*
X11241000Y-5041000D01*
X11241000Y-5822000D02*
X11271000Y-5852000D01*
X11271000Y-5822000D02*
X11241000Y-5852000D01*
X11296000Y-11856000D02*
X11326000Y-11886000D01*
X11326000Y-11856000D02*
X11296000Y-11886000D01*
X11305000Y-9986000D02*
X11335000Y-10016000D01*
X11335000Y-9986000D02*
X11305000Y-10016000D01*
X11307000Y-7523000D02*
X11337000Y-7553000D01*
X11337000Y-7523000D02*
X11307000Y-7553000D01*
X11433000Y-9668000D02*
X11463000Y-9698000D01*
X11463000Y-9668000D02*
X11433000Y-9698000D01*
X11434000Y-8105000D02*
X11464000Y-8135000D01*
X11464000Y-8105000D02*
X11434000Y-8135000D01*
X11436000Y-9984000D02*
X11466000Y-10014000D01*
X11466000Y-9984000D02*
X11436000Y-10014000D01*
X11438000Y-12935000D02*
X11468000Y-12965000D01*
X11468000Y-12935000D02*
X11438000Y-12965000D01*
X11467000Y-5457000D02*
X11497000Y-5487000D01*
X11497000Y-5457000D02*
X11467000Y-5487000D01*
X11468000Y-6151000D02*
X11498000Y-6181000D01*
X11498000Y-6151000D02*
X11468000Y-6181000D01*
X11560000Y-7536000D02*
X11590000Y-7566000D01*
X11590000Y-7536000D02*
X11560000Y-7566000D01*
X11560000Y-11229000D02*
X11590000Y-11259000D01*
X11590000Y-11229000D02*
X11560000Y-11259000D01*
X11563000Y-5102000D02*
X11593000Y-5132000D01*
X11593000Y-5102000D02*
X11563000Y-5132000D01*
X11563000Y-6062000D02*
X11593000Y-6092000D01*
X11593000Y-6062000D02*
X11563000Y-6092000D01*
X11567000Y-6889000D02*
X11597000Y-6919000D01*
X11597000Y-6889000D02*
X11567000Y-6919000D01*
X11622000Y-13900000D02*
X11652000Y-13930000D01*
X11652000Y-13900000D02*
X11622000Y-13930000D01*
X11675000Y-11412000D02*
X11705000Y-11442000D01*
X11705000Y-11412000D02*
X11675000Y-11442000D01*
X11675000Y-11729000D02*
X11705000Y-11759000D01*
X11705000Y-11729000D02*
X11675000Y-11759000D01*
X11675000Y-13498000D02*
X11705000Y-13528000D01*
X11705000Y-13498000D02*
X11675000Y-13528000D01*
X11682000Y-9299000D02*
X11712000Y-9329000D01*
X11712000Y-9299000D02*
X11682000Y-9329000D01*
X11687000Y-7641000D02*
X11717000Y-7671000D01*
X11717000Y-7641000D02*
X11687000Y-7671000D01*
X11687000Y-8905000D02*
X11717000Y-8935000D01*
X11717000Y-8905000D02*
X11687000Y-8935000D01*
X11687000Y-9181000D02*
X11717000Y-9211000D01*
X11717000Y-9181000D02*
X11687000Y-9211000D01*
X11689000Y-7386000D02*
X11719000Y-7416000D01*
X11719000Y-7386000D02*
X11689000Y-7416000D01*
X11706000Y-4715000D02*
X11736000Y-4745000D01*
X11736000Y-4715000D02*
X11706000Y-4745000D01*
X11706000Y-6380000D02*
X11736000Y-6410000D01*
X11736000Y-6380000D02*
X11706000Y-6410000D01*
X11761000Y-6632000D02*
X11791000Y-6662000D01*
X11791000Y-6632000D02*
X11761000Y-6662000D01*
X11803000Y-10772000D02*
X11833000Y-10802000D01*
X11833000Y-10772000D02*
X11803000Y-10802000D01*
X11817000Y-5364000D02*
X11847000Y-5394000D01*
X11847000Y-5364000D02*
X11817000Y-5394000D01*
X11817000Y-6026000D02*
X11847000Y-6056000D01*
X11847000Y-6026000D02*
X11817000Y-6056000D01*
X11850000Y-6504000D02*
X11880000Y-6534000D01*
X11880000Y-6504000D02*
X11850000Y-6534000D01*
X11850000Y-9404000D02*
X11880000Y-9434000D01*
X11880000Y-9404000D02*
X11850000Y-9434000D01*
X11928000Y-7958000D02*
X11958000Y-7988000D01*
X11958000Y-7958000D02*
X11928000Y-7988000D01*
X11928000Y-11965000D02*
X11958000Y-11995000D01*
X11958000Y-11965000D02*
X11928000Y-11995000D01*
X11942000Y-5274000D02*
X11972000Y-5304000D01*
X11972000Y-5274000D02*
X11942000Y-5304000D01*
X11943000Y-6074000D02*
X11973000Y-6104000D01*
X11973000Y-6074000D02*
X11943000Y-6104000D01*
X11950000Y-7740000D02*
X11980000Y-7770000D01*
X11980000Y-7740000D02*
X11950000Y-7770000D01*
X11951000Y-6583000D02*
X11981000Y-6613000D01*
X11981000Y-6583000D02*
X11951000Y-6613000D01*
X12044000Y-9921000D02*
X12074000Y-9951000D01*
X12074000Y-9921000D02*
X12044000Y-9951000D01*
X12044000Y-11313000D02*
X12074000Y-11343000D01*
X12074000Y-11313000D02*
X12044000Y-11343000D01*
X12055000Y-11737000D02*
X12085000Y-11767000D01*
X12085000Y-11737000D02*
X12055000Y-11767000D01*
X12066000Y-7883000D02*
X12096000Y-7913000D01*
X12096000Y-7883000D02*
X12066000Y-7913000D01*
X12066000Y-9671000D02*
X12096000Y-9701000D01*
X12096000Y-9671000D02*
X12066000Y-9701000D01*
X12067000Y-6125000D02*
X12097000Y-6155000D01*
X12097000Y-6125000D02*
X12067000Y-6155000D01*
X12143000Y-11222000D02*
X12173000Y-11252000D01*
X12173000Y-11222000D02*
X12143000Y-11252000D01*
X12144000Y-10050000D02*
X12174000Y-10080000D01*
X12174000Y-10050000D02*
X12144000Y-10080000D01*
X12166000Y-6954000D02*
X12196000Y-6984000D01*
X12196000Y-6954000D02*
X12166000Y-6984000D01*
X12166000Y-7474000D02*
X12196000Y-7504000D01*
X12196000Y-7474000D02*
X12166000Y-7504000D01*
X12167000Y-9794000D02*
X12197000Y-9824000D01*
X12197000Y-9794000D02*
X12167000Y-9824000D01*
X12183000Y-11970000D02*
X12213000Y-12000000D01*
X12213000Y-11970000D02*
X12183000Y-12000000D01*
X12183000Y-12841000D02*
X12213000Y-12871000D01*
X12213000Y-12841000D02*
X12183000Y-12871000D01*
X12238000Y-10675000D02*
X12268000Y-10705000D01*
X12268000Y-10675000D02*
X12238000Y-10705000D01*
X12239000Y-9924000D02*
X12269000Y-9954000D01*
X12269000Y-9924000D02*
X12239000Y-9954000D01*
X12324000Y-10202000D02*
X12354000Y-10232000D01*
X12354000Y-10202000D02*
X12324000Y-10232000D01*
X12324000Y-12208000D02*
X12354000Y-12238000D01*
X12354000Y-12208000D02*
X12324000Y-12238000D01*
X12325000Y-9222000D02*
X12355000Y-9252000D01*
X12355000Y-9222000D02*
X12325000Y-9252000D01*
X12325000Y-10051000D02*
X12355000Y-10081000D01*
X12355000Y-10051000D02*
X12325000Y-10081000D01*
X12436000Y-12849000D02*
X12466000Y-12879000D01*
X12466000Y-12849000D02*
X12436000Y-12879000D01*
X12444000Y-5746000D02*
X12474000Y-5776000D01*
X12474000Y-5746000D02*
X12444000Y-5776000D01*
X12444000Y-12713000D02*
X12474000Y-12743000D01*
X12474000Y-12713000D02*
X12444000Y-12743000D01*
X12445000Y-8507000D02*
X12475000Y-8537000D01*
X12475000Y-8507000D02*
X12445000Y-8537000D01*
X12540000Y-10560000D02*
X12570000Y-10590000D01*
X12570000Y-10560000D02*
X12540000Y-10590000D01*
X12542000Y-9798000D02*
X12572000Y-9828000D01*
X12572000Y-9798000D02*
X12542000Y-9828000D01*
X12554000Y-11525000D02*
X12584000Y-11555000D01*
X12584000Y-11525000D02*
X12554000Y-11555000D01*
X12574000Y-7244000D02*
X12604000Y-7274000D01*
X12604000Y-7244000D02*
X12574000Y-7274000D01*
X12574000Y-9007000D02*
X12604000Y-9037000D01*
X12604000Y-9007000D02*
X12574000Y-9037000D01*
X12644000Y-9427000D02*
X12674000Y-9457000D01*
X12674000Y-9427000D02*
X12644000Y-9457000D01*
X12644000Y-11637000D02*
X12674000Y-11667000D01*
X12674000Y-11637000D02*
X12644000Y-11667000D01*
X12666000Y-5103000D02*
X12696000Y-5133000D01*
X12696000Y-5103000D02*
X12666000Y-5133000D01*
X12666000Y-5744000D02*
X12696000Y-5774000D01*
X12696000Y-5744000D02*
X12666000Y-5774000D01*
X12666000Y-8216000D02*
X12696000Y-8246000D01*
X12696000Y-8216000D02*
X12666000Y-8246000D01*
X12743000Y-10201000D02*
X12773000Y-10231000D01*
X12773000Y-10201000D02*
X12743000Y-10231000D01*
X12744000Y-11537000D02*
X12774000Y-11567000D01*
X12774000Y-11537000D02*
X12744000Y-11567000D01*
X12750000Y-6599000D02*
X12780000Y-6629000D01*
X12780000Y-6599000D02*
X12750000Y-6629000D01*
X12750000Y-7324000D02*
X12780000Y-7354000D01*
X12780000Y-7324000D02*
X12750000Y-7354000D01*
X12826000Y-5872000D02*
X12856000Y-5902000D01*
X12856000Y-5872000D02*
X12826000Y-5902000D01*
X12827000Y-5011000D02*
X12857000Y-5041000D01*
X12857000Y-5011000D02*
X12827000Y-5041000D01*
X12829000Y-5997000D02*
X12859000Y-6027000D01*
X12859000Y-5997000D02*
X12829000Y-6027000D01*
X12830000Y-12583000D02*
X12860000Y-12613000D01*
X12860000Y-12583000D02*
X12830000Y-12613000D01*
X12903000Y-4792000D02*
X12933000Y-4822000D01*
X12933000Y-4792000D02*
X12903000Y-4822000D01*
X12903000Y-6255000D02*
X12933000Y-6285000D01*
X12933000Y-6255000D02*
X12903000Y-6285000D01*
X12930000Y-7144000D02*
X12960000Y-7174000D01*
X12960000Y-7144000D02*
X12930000Y-7174000D01*
X12930000Y-10014000D02*
X12960000Y-10044000D01*
X12960000Y-10014000D02*
X12930000Y-10044000D01*
X12931000Y-8242000D02*
X12961000Y-8272000D01*
X12961000Y-8242000D02*
X12931000Y-8272000D01*
X12944000Y-12097000D02*
X12974000Y-12127000D01*
X12974000Y-12097000D02*
X12944000Y-12127000D01*
X12983000Y-11737000D02*
X13013000Y-11767000D01*
X13013000Y-11737000D02*
X12983000Y-11767000D01*
X12993000Y-7017000D02*
X13023000Y-7047000D01*
X13023000Y-7017000D02*
X12993000Y-7047000D01*
X13001000Y-6635000D02*
X13031000Y-6665000D01*
X13031000Y-6635000D02*
X13001000Y-6665000D01*
X13003000Y-5004000D02*
X13033000Y-5034000D01*
X13033000Y-5004000D02*
X13003000Y-5034000D01*
X13072000Y-12208000D02*
X13102000Y-12238000D01*
X13102000Y-12208000D02*
X13072000Y-12238000D01*
X13145000Y-10945000D02*
X13175000Y-10975000D01*
X13175000Y-10945000D02*
X13145000Y-10975000D01*
X13146000Y-9608000D02*
X13176000Y-9638000D01*
X13176000Y-9608000D02*
X13146000Y-9638000D01*
X13200000Y-12935000D02*
X13230000Y-12965000D01*
X13230000Y-12935000D02*
X13200000Y-12965000D01*
X13247000Y-12426000D02*
X13277000Y-12456000D01*
X13277000Y-12426000D02*
X13247000Y-12456000D01*
X13253000Y-9020000D02*
X13283000Y-9050000D01*
X13283000Y-9020000D02*
X13253000Y-9050000D01*
X13253000Y-9696000D02*
X13283000Y-9726000D01*
X13283000Y-9696000D02*
X13253000Y-9726000D01*
X13270000Y-7881000D02*
X13300000Y-7911000D01*
X13300000Y-7881000D02*
X13270000Y-7911000D01*
X13282750Y-10605500D02*
X13312750Y-10635500D01*
X13312750Y-10605500D02*
X13282750Y-10635500D01*
X13329000Y-11222000D02*
X13359000Y-11252000D01*
X13359000Y-11222000D02*
X13329000Y-11252000D01*
X13334000Y-8887000D02*
X13364000Y-8917000D01*
X13364000Y-8887000D02*
X13334000Y-8917000D01*
X13334000Y-9797000D02*
X13364000Y-9827000D01*
X13364000Y-9797000D02*
X13334000Y-9827000D01*
X13346000Y-9926000D02*
X13376000Y-9956000D01*
X13376000Y-9926000D02*
X13346000Y-9956000D01*
X13372000Y-7144000D02*
X13402000Y-7174000D01*
X13402000Y-7144000D02*
X13372000Y-7174000D01*
X13374000Y-7641000D02*
X13404000Y-7671000D01*
X13404000Y-7641000D02*
X13374000Y-7671000D01*
X13439000Y-4922000D02*
X13469000Y-4952000D01*
X13469000Y-4922000D02*
X13439000Y-4952000D01*
X13440000Y-5913000D02*
X13470000Y-5943000D01*
X13470000Y-5913000D02*
X13440000Y-5943000D01*
X13453000Y-12501000D02*
X13483000Y-12531000D01*
X13483000Y-12501000D02*
X13453000Y-12531000D01*
X13485000Y-6957000D02*
X13515000Y-6987000D01*
X13515000Y-6957000D02*
X13485000Y-6987000D01*
X13485000Y-7739000D02*
X13515000Y-7769000D01*
X13515000Y-7739000D02*
X13485000Y-7769000D01*
X13488000Y-6393000D02*
X13518000Y-6423000D01*
X13518000Y-6393000D02*
X13488000Y-6423000D01*
X13488000Y-6573000D02*
X13518000Y-6603000D01*
X13518000Y-6573000D02*
X13488000Y-6603000D01*
X13564000Y-6304000D02*
X13594000Y-6334000D01*
X13594000Y-6304000D02*
X13564000Y-6334000D01*
X13564000Y-8886000D02*
X13594000Y-8916000D01*
X13594000Y-8886000D02*
X13564000Y-8916000D01*
X13579000Y-11036000D02*
X13609000Y-11066000D01*
X13609000Y-11036000D02*
X13579000Y-11066000D01*
X13641000Y-9022000D02*
X13671000Y-9052000D01*
X13671000Y-9022000D02*
X13641000Y-9052000D01*
X13654000Y-6141000D02*
X13684000Y-6171000D01*
X13684000Y-6141000D02*
X13654000Y-6171000D01*
X13707000Y-12748000D02*
X13737000Y-12778000D01*
X13737000Y-12748000D02*
X13707000Y-12778000D01*
X13714000Y-6459000D02*
X13744000Y-6489000D01*
X13744000Y-6459000D02*
X13714000Y-6489000D01*
X13714000Y-10240000D02*
X13744000Y-10270000D01*
X13744000Y-10240000D02*
X13714000Y-10270000D01*
X13718000Y-4591000D02*
X13748000Y-4621000D01*
X13748000Y-4591000D02*
X13718000Y-4621000D01*
X13718000Y-6001000D02*
X13748000Y-6031000D01*
X13748000Y-6001000D02*
X13718000Y-6031000D01*
X13792000Y-9023000D02*
X13822000Y-9053000D01*
X13822000Y-9023000D02*
X13792000Y-9053000D01*
X13792000Y-11212000D02*
X13822000Y-11242000D01*
X13822000Y-11212000D02*
X13792000Y-11242000D01*
X13803000Y-7083000D02*
X13833000Y-7113000D01*
X13833000Y-7083000D02*
X13803000Y-7113000D01*
X13804000Y-8241000D02*
X13834000Y-8271000D01*
X13834000Y-8241000D02*
X13804000Y-8271000D01*
X13805000Y-6547000D02*
X13835000Y-6577000D01*
X13835000Y-6547000D02*
X13805000Y-6577000D01*
X13805000Y-6957000D02*
X13835000Y-6987000D01*
X13835000Y-6957000D02*
X13805000Y-6987000D01*
X13838000Y-11313000D02*
X13868000Y-11343000D01*
X13868000Y-11313000D02*
X13838000Y-11343000D01*
X13870000Y-9900000D02*
X13900000Y-9930000D01*
X13900000Y-9900000D02*
X13870000Y-9930000D01*
X13870000Y-10689000D02*
X13900000Y-10719000D01*
X13900000Y-10689000D02*
X13870000Y-10719000D01*
X13875000Y-4870000D02*
X13905000Y-4900000D01*
X13905000Y-4870000D02*
X13875000Y-4900000D01*
X13875000Y-6128000D02*
X13905000Y-6158000D01*
X13905000Y-6128000D02*
X13875000Y-6158000D01*
X13875000Y-9669000D02*
X13905000Y-9699000D01*
X13905000Y-9669000D02*
X13875000Y-9699000D01*
X13955000Y-6762000D02*
X13985000Y-6792000D01*
X13985000Y-6762000D02*
X13955000Y-6792000D01*
X13955000Y-10239000D02*
X13985000Y-10269000D01*
X13985000Y-10239000D02*
X13955000Y-10269000D01*
X14019000Y-6396000D02*
X14049000Y-6426000D01*
X14049000Y-6396000D02*
X14019000Y-6426000D01*
X14022000Y-5302000D02*
X14052000Y-5332000D01*
X14052000Y-5302000D02*
X14022000Y-5332000D01*
X14042000Y-6612000D02*
X14072000Y-6642000D01*
X14072000Y-6612000D02*
X14042000Y-6642000D01*
X14043000Y-10066000D02*
X14073000Y-10096000D01*
X14073000Y-10066000D02*
X14043000Y-10096000D01*
X14091000Y-5747000D02*
X14121000Y-5777000D01*
X14121000Y-5747000D02*
X14091000Y-5777000D01*
X14121000Y-9190000D02*
X14151000Y-9220000D01*
X14151000Y-9190000D02*
X14121000Y-9220000D01*
X14121000Y-10522000D02*
X14151000Y-10552000D01*
X14151000Y-10522000D02*
X14121000Y-10552000D01*
X14134000Y-8192000D02*
X14164000Y-8222000D01*
X14164000Y-8192000D02*
X14134000Y-8222000D01*
X14214000Y-8732000D02*
X14244000Y-8762000D01*
X14244000Y-8732000D02*
X14214000Y-8762000D01*
X14214000Y-9542000D02*
X14244000Y-9572000D01*
X14244000Y-9542000D02*
X14214000Y-9572000D01*
X14214000Y-10865000D02*
X14244000Y-10895000D01*
X14244000Y-10865000D02*
X14214000Y-10895000D01*
X14278000Y-5387000D02*
X14308000Y-5417000D01*
X14308000Y-5387000D02*
X14278000Y-5417000D01*
X14281000Y-5125000D02*
X14311000Y-5155000D01*
X14311000Y-5125000D02*
X14281000Y-5155000D01*
X14315000Y-11313000D02*
X14345000Y-11343000D01*
X14345000Y-11313000D02*
X14315000Y-11343000D01*
X14315000Y-12748000D02*
X14345000Y-12778000D01*
X14345000Y-12748000D02*
X14315000Y-12778000D01*
X14352000Y-9668000D02*
X14382000Y-9698000D01*
X14382000Y-9668000D02*
X14352000Y-9698000D01*
X14352000Y-10863000D02*
X14382000Y-10893000D01*
X14382000Y-10863000D02*
X14352000Y-10893000D01*
X14365000Y-8961000D02*
X14395000Y-8991000D01*
X14395000Y-8961000D02*
X14365000Y-8991000D01*
X14365000Y-9452000D02*
X14395000Y-9482000D01*
X14395000Y-9452000D02*
X14365000Y-9482000D01*
X14382000Y-4714000D02*
X14412000Y-4744000D01*
X14412000Y-4714000D02*
X14382000Y-4744000D01*
X14390000Y-8505000D02*
X14420000Y-8535000D01*
X14420000Y-8505000D02*
X14390000Y-8535000D01*
X14452000Y-8656000D02*
X14482000Y-8686000D01*
X14482000Y-8656000D02*
X14452000Y-8686000D01*
X14452000Y-9366000D02*
X14482000Y-9396000D01*
X14482000Y-9366000D02*
X14452000Y-9396000D01*
X14456000Y-10178000D02*
X14486000Y-10208000D01*
X14486000Y-10178000D02*
X14456000Y-10208000D01*
X14456000Y-10609000D02*
X14486000Y-10639000D01*
X14486000Y-10609000D02*
X14456000Y-10639000D01*
X14469000Y-11123000D02*
X14499000Y-11153000D01*
X14499000Y-11123000D02*
X14469000Y-11153000D01*
X14477000Y-8270000D02*
X14507000Y-8300000D01*
X14507000Y-8270000D02*
X14477000Y-8300000D01*
X14478000Y-6398000D02*
X14508000Y-6428000D01*
X14508000Y-6398000D02*
X14478000Y-6428000D01*
X14538000Y-5417000D02*
X14568000Y-5447000D01*
X14568000Y-5417000D02*
X14538000Y-5447000D01*
X14539000Y-5004000D02*
X14569000Y-5034000D01*
X14569000Y-5004000D02*
X14539000Y-5034000D01*
X14544000Y-10772000D02*
X14574000Y-10802000D01*
X14574000Y-10772000D02*
X14544000Y-10802000D01*
X14545000Y-9114000D02*
X14575000Y-9144000D01*
X14575000Y-9114000D02*
X14545000Y-9144000D01*
X14569000Y-8492000D02*
X14599000Y-8522000D01*
X14599000Y-8492000D02*
X14569000Y-8522000D01*
X14570000Y-5873000D02*
X14600000Y-5903000D01*
X14600000Y-5873000D02*
X14570000Y-5903000D01*
X14607000Y-12935000D02*
X14637000Y-12965000D01*
X14637000Y-12935000D02*
X14607000Y-12965000D01*
X14608000Y-12476000D02*
X14638000Y-12506000D01*
X14638000Y-12476000D02*
X14608000Y-12506000D01*
X14631000Y-11537000D02*
X14661000Y-11567000D01*
X14661000Y-11537000D02*
X14631000Y-11567000D01*
X14651000Y-7324000D02*
X14681000Y-7354000D01*
X14681000Y-7324000D02*
X14651000Y-7354000D01*
X14652000Y-6556000D02*
X14682000Y-6586000D01*
X14682000Y-6556000D02*
X14652000Y-6586000D01*
X14653000Y-4790000D02*
X14683000Y-4820000D01*
X14683000Y-4790000D02*
X14653000Y-4820000D01*
X14653000Y-6242000D02*
X14683000Y-6272000D01*
X14683000Y-6242000D02*
X14653000Y-6272000D01*
X14683000Y-8884000D02*
X14713000Y-8914000D01*
X14713000Y-8884000D02*
X14683000Y-8914000D01*
X14723000Y-11737000D02*
X14753000Y-11767000D01*
X14753000Y-11737000D02*
X14723000Y-11767000D01*
X14723000Y-12673000D02*
X14753000Y-12703000D01*
X14753000Y-12673000D02*
X14723000Y-12703000D01*
X14744000Y-5494000D02*
X14774000Y-5524000D01*
X14774000Y-5494000D02*
X14744000Y-5524000D01*
X14744000Y-7554000D02*
X14774000Y-7584000D01*
X14774000Y-7554000D02*
X14744000Y-7584000D01*
X14751000Y-9795000D02*
X14781000Y-9825000D01*
X14781000Y-9795000D02*
X14751000Y-9825000D01*
X14758000Y-9982000D02*
X14788000Y-10012000D01*
X14788000Y-9982000D02*
X14758000Y-10012000D01*
X14772000Y-9036000D02*
X14802000Y-9066000D01*
X14802000Y-9036000D02*
X14772000Y-9066000D01*
X14772000Y-9597000D02*
X14802000Y-9627000D01*
X14802000Y-9597000D02*
X14772000Y-9627000D01*
X14844000Y-6145000D02*
X14874000Y-6175000D01*
X14874000Y-6145000D02*
X14844000Y-6175000D01*
X14844000Y-6970000D02*
X14874000Y-7000000D01*
X14874000Y-6970000D02*
X14844000Y-7000000D01*
X14845000Y-7474000D02*
X14875000Y-7504000D01*
X14875000Y-7474000D02*
X14845000Y-7504000D01*
X14850000Y-12927000D02*
X14880000Y-12957000D01*
X14880000Y-12927000D02*
X14850000Y-12957000D01*
X14931000Y-5621000D02*
X14961000Y-5651000D01*
X14961000Y-5621000D02*
X14931000Y-5651000D01*
X14933000Y-11412000D02*
X14963000Y-11442000D01*
X14963000Y-11412000D02*
X14933000Y-11442000D01*
X14937000Y-12757000D02*
X14967000Y-12787000D01*
X14967000Y-12757000D02*
X14937000Y-12787000D01*
X15016000Y-12326000D02*
X15046000Y-12356000D01*
X15046000Y-12326000D02*
X15016000Y-12356000D01*
X15029000Y-4695000D02*
X15059000Y-4725000D01*
X15059000Y-4695000D02*
X15029000Y-4725000D01*
X15029000Y-5835000D02*
X15059000Y-5865000D01*
X15059000Y-5835000D02*
X15029000Y-5865000D01*
X15105000Y-12815000D02*
X15135000Y-12845000D01*
X15135000Y-12815000D02*
X15105000Y-12845000D01*
X15106000Y-10016000D02*
X15136000Y-10046000D01*
X15136000Y-10016000D02*
X15106000Y-10046000D01*
X15107000Y-11036000D02*
X15137000Y-11066000D01*
X15137000Y-11036000D02*
X15107000Y-11066000D01*
X15109000Y-7246000D02*
X15139000Y-7276000D01*
X15139000Y-7246000D02*
X15109000Y-7276000D01*
X15109000Y-7558000D02*
X15139000Y-7588000D01*
X15139000Y-7558000D02*
X15109000Y-7588000D01*
X15175000Y-7791000D02*
X15205000Y-7821000D01*
X15205000Y-7791000D02*
X15175000Y-7821000D01*
X15201000Y-7142000D02*
X15231000Y-7172000D01*
X15231000Y-7142000D02*
X15201000Y-7172000D01*
X15210000Y-4943000D02*
X15240000Y-4973000D01*
X15240000Y-4943000D02*
X15210000Y-4973000D01*
X15211000Y-5842000D02*
X15241000Y-5872000D01*
X15241000Y-5842000D02*
X15211000Y-5872000D01*
X15250000Y-8104000D02*
X15280000Y-8134000D01*
X15280000Y-8104000D02*
X15250000Y-8134000D01*
X15323000Y-10860000D02*
X15353000Y-10890000D01*
X15353000Y-10860000D02*
X15323000Y-10890000D01*
X15336000Y-5417000D02*
X15366000Y-5447000D01*
X15366000Y-5417000D02*
X15336000Y-5447000D01*
X15339000Y-9262000D02*
X15369000Y-9292000D01*
X15369000Y-9262000D02*
X15339000Y-9292000D01*
X15342000Y-7955000D02*
X15372000Y-7985000D01*
X15372000Y-7955000D02*
X15342000Y-7985000D01*
X15342000Y-8270000D02*
X15372000Y-8300000D01*
X15372000Y-8270000D02*
X15342000Y-8300000D01*
X15343000Y-10306000D02*
X15373000Y-10336000D01*
X15373000Y-10306000D02*
X15343000Y-10336000D01*
X15343000Y-10522000D02*
X15373000Y-10552000D01*
X15373000Y-10522000D02*
X15343000Y-10552000D01*
X15353000Y-6672000D02*
X15383000Y-6702000D01*
X15383000Y-6672000D02*
X15353000Y-6702000D01*
X15375000Y-6078000D02*
X15405000Y-6108000D01*
X15405000Y-6078000D02*
X15375000Y-6108000D01*
X15386000Y-6906000D02*
X15416000Y-6936000D01*
X15416000Y-6906000D02*
X15386000Y-6936000D01*
X15386000Y-9405000D02*
X15416000Y-9435000D01*
X15416000Y-9405000D02*
X15386000Y-9435000D01*
X15415000Y-11637000D02*
X15445000Y-11667000D01*
X15445000Y-11637000D02*
X15415000Y-11667000D01*
X15428000Y-6293000D02*
X15458000Y-6323000D01*
X15458000Y-6293000D02*
X15428000Y-6323000D01*
X15476000Y-5018000D02*
X15506000Y-5048000D01*
X15506000Y-5018000D02*
X15476000Y-5048000D01*
X15476000Y-6028000D02*
X15506000Y-6058000D01*
X15506000Y-6028000D02*
X15476000Y-6058000D01*
X15485000Y-8264000D02*
X15515000Y-8294000D01*
X15515000Y-8264000D02*
X15485000Y-8294000D01*
X15488000Y-8031000D02*
X15518000Y-8061000D01*
X15518000Y-8031000D02*
X15488000Y-8061000D01*
X15553000Y-6128000D02*
X15583000Y-6158000D01*
X15583000Y-6128000D02*
X15553000Y-6158000D01*
X15581000Y-6672000D02*
X15611000Y-6702000D01*
X15611000Y-6672000D02*
X15581000Y-6702000D01*
X15581000Y-12364000D02*
X15611000Y-12394000D01*
X15611000Y-12364000D02*
X15581000Y-12394000D01*
X15609000Y-5304000D02*
X15639000Y-5334000D01*
X15639000Y-5304000D02*
X15609000Y-5334000D01*
X15619000Y-13032000D02*
X15649000Y-13062000D01*
X15649000Y-13032000D02*
X15619000Y-13062000D01*
X15657000Y-6526000D02*
X15687000Y-6556000D01*
X15687000Y-6526000D02*
X15657000Y-6556000D01*
X15668000Y-11127000D02*
X15698000Y-11157000D01*
X15698000Y-11127000D02*
X15668000Y-11157000D01*
X15669000Y-7029000D02*
X15699000Y-7059000D01*
X15699000Y-7029000D02*
X15669000Y-7059000D01*
X15669000Y-7641000D02*
X15699000Y-7671000D01*
X15699000Y-7641000D02*
X15669000Y-7671000D01*
X15669000Y-9922000D02*
X15699000Y-9952000D01*
X15699000Y-9922000D02*
X15669000Y-9952000D01*
X15681000Y-8570000D02*
X15711000Y-8600000D01*
X15711000Y-8570000D02*
X15681000Y-8600000D01*
X15732000Y-6044000D02*
X15762000Y-6074000D01*
X15762000Y-6044000D02*
X15732000Y-6074000D01*
X15734000Y-5495500D02*
X15764000Y-5525500D01*
X15764000Y-5495500D02*
X15734000Y-5525500D01*
X15745000Y-10216000D02*
X15775000Y-10246000D01*
X15775000Y-10216000D02*
X15745000Y-10246000D01*
X15745000Y-11856000D02*
X15775000Y-11886000D01*
X15775000Y-11856000D02*
X15745000Y-11886000D01*
X15751000Y-10054000D02*
X15781000Y-10084000D01*
X15781000Y-10054000D02*
X15751000Y-10084000D01*
X15812000Y-7639000D02*
X15842000Y-7669000D01*
X15842000Y-7639000D02*
X15812000Y-7669000D01*
X15818000Y-6601000D02*
X15848000Y-6631000D01*
X15848000Y-6601000D02*
X15818000Y-6631000D01*
X15820000Y-6780000D02*
X15850000Y-6810000D01*
X15850000Y-6780000D02*
X15820000Y-6810000D01*
X15837000Y-9670000D02*
X15867000Y-9700000D01*
X15867000Y-9670000D02*
X15837000Y-9700000D01*
X15838000Y-8571000D02*
X15868000Y-8601000D01*
X15868000Y-8571000D02*
X15838000Y-8601000D01*
X15858000Y-5125000D02*
X15888000Y-5155000D01*
X15888000Y-5125000D02*
X15858000Y-5155000D01*
X15858000Y-6040000D02*
X15888000Y-6070000D01*
X15888000Y-6040000D02*
X15858000Y-6070000D01*
X15913000Y-6361000D02*
X15943000Y-6391000D01*
X15943000Y-6361000D02*
X15913000Y-6391000D01*
X15954000Y-13032000D02*
X15984000Y-13062000D01*
X15984000Y-13032000D02*
X15954000Y-13062000D01*
X15981000Y-5233000D02*
X16011000Y-5263000D01*
X16011000Y-5233000D02*
X15981000Y-5263000D01*
X15981000Y-6039000D02*
X16011000Y-6069000D01*
X16011000Y-6039000D02*
X15981000Y-6069000D01*
X15998000Y-8491000D02*
X16028000Y-8521000D01*
X16028000Y-8491000D02*
X15998000Y-8521000D01*
X15998000Y-9927000D02*
X16028000Y-9957000D01*
X16028000Y-9927000D02*
X15998000Y-9957000D01*
X16038000Y-6430000D02*
X16068000Y-6460000D01*
X16068000Y-6430000D02*
X16038000Y-6460000D01*
X16038000Y-6653000D02*
X16068000Y-6683000D01*
X16068000Y-6653000D02*
X16038000Y-6683000D01*
X16048000Y-6954000D02*
X16078000Y-6984000D01*
X16078000Y-6954000D02*
X16048000Y-6984000D01*
X16076000Y-12364000D02*
X16106000Y-12394000D01*
X16106000Y-12364000D02*
X16076000Y-12394000D01*
X16076000Y-13027000D02*
X16106000Y-13057000D01*
X16106000Y-13027000D02*
X16076000Y-13057000D01*
X16088000Y-9674000D02*
X16118000Y-9704000D01*
X16118000Y-9674000D02*
X16088000Y-9704000D01*
X16090000Y-9800000D02*
X16120000Y-9830000D01*
X16120000Y-9800000D02*
X16090000Y-9830000D01*
X16090000Y-11212000D02*
X16120000Y-11242000D01*
X16120000Y-11212000D02*
X16090000Y-11242000D01*
X16118000Y-13458000D02*
X16148000Y-13488000D01*
X16148000Y-13458000D02*
X16118000Y-13488000D01*
X16221000Y-5394000D02*
X16251000Y-5424000D01*
X16251000Y-5394000D02*
X16221000Y-5424000D01*
X16221000Y-5841000D02*
X16251000Y-5871000D01*
X16251000Y-5841000D02*
X16221000Y-5871000D01*
X16277000Y-8655000D02*
X16307000Y-8685000D01*
X16307000Y-8655000D02*
X16277000Y-8685000D01*
X16277000Y-9480000D02*
X16307000Y-9510000D01*
X16307000Y-9480000D02*
X16277000Y-9510000D01*
X16287000Y-7186000D02*
X16317000Y-7216000D01*
X16317000Y-7186000D02*
X16287000Y-7216000D01*
X16289000Y-8343000D02*
X16319000Y-8373000D01*
X16319000Y-8343000D02*
X16289000Y-8373000D01*
X16333000Y-10962000D02*
X16363000Y-10992000D01*
X16363000Y-10962000D02*
X16333000Y-10992000D01*
X16341000Y-10217000D02*
X16371000Y-10247000D01*
X16371000Y-10217000D02*
X16341000Y-10247000D01*
X16369000Y-9038000D02*
X16399000Y-9068000D01*
X16399000Y-9038000D02*
X16369000Y-9068000D01*
X16404000Y-7286000D02*
X16434000Y-7316000D01*
X16434000Y-7286000D02*
X16404000Y-7316000D01*
X16404000Y-7515000D02*
X16434000Y-7545000D01*
X16434000Y-7515000D02*
X16404000Y-7545000D01*
X16407000Y-10339000D02*
X16437000Y-10369000D01*
X16437000Y-10339000D02*
X16407000Y-10369000D01*
X16407000Y-11226000D02*
X16437000Y-11256000D01*
X16437000Y-11226000D02*
X16407000Y-11256000D01*
X16445000Y-8345000D02*
X16475000Y-8375000D01*
X16475000Y-8345000D02*
X16445000Y-8375000D01*
X16503000Y-5018000D02*
X16533000Y-5048000D01*
X16533000Y-5018000D02*
X16503000Y-5048000D01*
X16503000Y-5750000D02*
X16533000Y-5780000D01*
X16533000Y-5750000D02*
X16503000Y-5780000D01*
X16503000Y-7867000D02*
X16533000Y-7897000D01*
X16533000Y-7867000D02*
X16503000Y-7897000D01*
X16517000Y-9391000D02*
X16547000Y-9421000D01*
X16547000Y-9391000D02*
X16517000Y-9421000D01*
X16521000Y-8961000D02*
X16551000Y-8991000D01*
X16551000Y-8961000D02*
X16521000Y-8991000D01*
X16522000Y-9262000D02*
X16552000Y-9292000D01*
X16552000Y-9262000D02*
X16522000Y-9292000D01*
X16581000Y-7717000D02*
X16611000Y-7747000D01*
X16611000Y-7717000D02*
X16581000Y-7747000D01*
X16582000Y-8104000D02*
X16612000Y-8134000D01*
X16612000Y-8104000D02*
X16582000Y-8134000D01*
X16594000Y-7535000D02*
X16624000Y-7565000D01*
X16624000Y-7535000D02*
X16594000Y-7565000D01*
X16628000Y-6191000D02*
X16658000Y-6221000D01*
X16658000Y-6191000D02*
X16628000Y-6221000D01*
X16629000Y-6398000D02*
X16659000Y-6428000D01*
X16659000Y-6398000D02*
X16629000Y-6428000D01*
X16673000Y-11970000D02*
X16703000Y-12000000D01*
X16703000Y-11970000D02*
X16673000Y-12000000D01*
X16706000Y-4943000D02*
X16736000Y-4973000D01*
X16736000Y-4943000D02*
X16706000Y-4973000D01*
X16706000Y-5876000D02*
X16736000Y-5906000D01*
X16736000Y-5876000D02*
X16706000Y-5906000D01*
X16755000Y-7624000D02*
X16785000Y-7654000D01*
X16785000Y-7624000D02*
X16755000Y-7654000D01*
X16782000Y-7285000D02*
X16812000Y-7315000D01*
X16812000Y-7285000D02*
X16782000Y-7315000D01*
X16791000Y-4591000D02*
X16821000Y-4621000D01*
X16821000Y-4591000D02*
X16791000Y-4621000D01*
X16791000Y-6000000D02*
X16821000Y-6030000D01*
X16821000Y-6000000D02*
X16791000Y-6030000D01*
X16833000Y-8417000D02*
X16863000Y-8447000D01*
X16863000Y-8417000D02*
X16833000Y-8447000D01*
X16833000Y-9606000D02*
X16863000Y-9636000D01*
X16863000Y-9606000D02*
X16833000Y-9636000D01*
X16869000Y-6978000D02*
X16899000Y-7008000D01*
X16899000Y-6978000D02*
X16869000Y-7008000D01*
X16884000Y-4792000D02*
X16914000Y-4822000D01*
X16914000Y-4792000D02*
X16884000Y-4822000D01*
X16884000Y-6259000D02*
X16914000Y-6289000D01*
X16914000Y-6259000D02*
X16884000Y-6289000D01*
X16912000Y-8112000D02*
X16942000Y-8142000D01*
X16942000Y-8112000D02*
X16912000Y-8142000D01*
X16918000Y-6640000D02*
X16948000Y-6670000D01*
X16948000Y-6640000D02*
X16918000Y-6670000D01*
X16971000Y-4695000D02*
X17001000Y-4725000D01*
X17001000Y-4695000D02*
X16971000Y-4725000D01*
X16971000Y-6004000D02*
X17001000Y-6034000D01*
X17001000Y-6004000D02*
X16971000Y-6034000D01*
X16986000Y-8937000D02*
X17016000Y-8967000D01*
X17016000Y-8937000D02*
X16986000Y-8967000D01*
X16986000Y-9598000D02*
X17016000Y-9628000D01*
X17016000Y-9598000D02*
X16986000Y-9628000D01*
X17005000Y-7956000D02*
X17035000Y-7986000D01*
X17035000Y-7956000D02*
X17005000Y-7986000D01*
X17010000Y-6384000D02*
X17040000Y-6414000D01*
X17040000Y-6384000D02*
X17010000Y-6414000D01*
X17019000Y-7019000D02*
X17049000Y-7049000D01*
X17049000Y-7019000D02*
X17019000Y-7049000D01*
X17019000Y-7356000D02*
X17049000Y-7386000D01*
X17049000Y-7356000D02*
X17019000Y-7386000D01*
X17097000Y-5311000D02*
X17127000Y-5341000D01*
X17127000Y-5311000D02*
X17097000Y-5341000D01*
X17100000Y-7535000D02*
X17130000Y-7565000D01*
X17130000Y-7535000D02*
X17100000Y-7565000D01*
X17100000Y-8491000D02*
X17130000Y-8521000D01*
X17130000Y-8491000D02*
X17100000Y-8521000D01*
X17113000Y-9919000D02*
X17143000Y-9949000D01*
X17143000Y-9919000D02*
X17113000Y-9949000D01*
X17113000Y-10026000D02*
X17143000Y-10056000D01*
X17143000Y-10026000D02*
X17113000Y-10056000D01*
X17114000Y-11035000D02*
X17144000Y-11065000D01*
X17144000Y-11035000D02*
X17114000Y-11065000D01*
X17116000Y-9788000D02*
X17146000Y-9818000D01*
X17146000Y-9788000D02*
X17116000Y-9818000D01*
X17164000Y-4491000D02*
X17194000Y-4521000D01*
X17194000Y-4491000D02*
X17164000Y-4521000D01*
X17164000Y-4995000D02*
X17194000Y-5025000D01*
X17194000Y-4995000D02*
X17164000Y-5025000D01*
X17239000Y-11540000D02*
X17269000Y-11570000D01*
X17269000Y-11540000D02*
X17239000Y-11570000D01*
X17252000Y-8846000D02*
X17282000Y-8876000D01*
X17282000Y-8846000D02*
X17252000Y-8876000D01*
X17344000Y-10438000D02*
X17374000Y-10468000D01*
X17374000Y-10438000D02*
X17344000Y-10468000D01*
X17344000Y-12017000D02*
X17374000Y-12047000D01*
X17374000Y-12017000D02*
X17344000Y-12047000D01*
X17354000Y-8491000D02*
X17384000Y-8521000D01*
X17384000Y-8491000D02*
X17354000Y-8521000D01*
X17393000Y-12586000D02*
X17423000Y-12616000D01*
X17423000Y-12586000D02*
X17393000Y-12616000D01*
X17393000Y-12855000D02*
X17423000Y-12885000D01*
X17423000Y-12855000D02*
X17393000Y-12885000D01*
X17443000Y-6766000D02*
X17473000Y-6796000D01*
X17473000Y-6766000D02*
X17443000Y-6796000D01*
X17443000Y-8346000D02*
X17473000Y-8376000D01*
X17473000Y-8346000D02*
X17443000Y-8376000D01*
X17453000Y-5999000D02*
X17483000Y-6029000D01*
X17483000Y-5999000D02*
X17453000Y-6029000D01*
X17454000Y-4870000D02*
X17484000Y-4900000D01*
X17484000Y-4870000D02*
X17454000Y-4900000D01*
X17454000Y-6386000D02*
X17484000Y-6416000D01*
X17484000Y-6386000D02*
X17454000Y-6416000D01*
X17504000Y-9036000D02*
X17534000Y-9066000D01*
X17534000Y-9036000D02*
X17504000Y-9066000D01*
X17504000Y-9800000D02*
X17534000Y-9830000D01*
X17534000Y-9800000D02*
X17504000Y-9830000D01*
X17528000Y-6638000D02*
X17558000Y-6668000D01*
X17558000Y-6638000D02*
X17528000Y-6668000D01*
X17598000Y-12584000D02*
X17628000Y-12614000D01*
X17628000Y-12584000D02*
X17598000Y-12614000D01*
X17610000Y-6765000D02*
X17640000Y-6795000D01*
X17640000Y-6765000D02*
X17610000Y-6795000D01*
X17610000Y-8114000D02*
X17640000Y-8144000D01*
X17640000Y-8114000D02*
X17610000Y-8144000D01*
X17640000Y-5749000D02*
X17670000Y-5779000D01*
X17670000Y-5749000D02*
X17640000Y-5779000D01*
X17642000Y-5394000D02*
X17672000Y-5424000D01*
X17672000Y-5394000D02*
X17642000Y-5424000D01*
X17644000Y-11491000D02*
X17674000Y-11521000D01*
X17674000Y-11491000D02*
X17644000Y-11521000D01*
X17688000Y-6383000D02*
X17718000Y-6413000D01*
X17718000Y-6383000D02*
X17688000Y-6413000D01*
X17772000Y-6517000D02*
X17802000Y-6547000D01*
X17802000Y-6517000D02*
X17772000Y-6547000D01*
X17800000Y-11226000D02*
X17830000Y-11256000D01*
X17830000Y-11226000D02*
X17800000Y-11256000D01*
X17870000Y-9676000D02*
X17900000Y-9706000D01*
X17900000Y-9676000D02*
X17870000Y-9706000D01*
X17870000Y-11491000D02*
X17900000Y-11521000D01*
X17900000Y-11491000D02*
X17870000Y-11521000D01*
X17922000Y-6129000D02*
X17952000Y-6159000D01*
X17952000Y-6129000D02*
X17922000Y-6159000D01*
X17950000Y-7147000D02*
X17980000Y-7177000D01*
X17980000Y-7147000D02*
X17950000Y-7177000D01*
X17950000Y-7791000D02*
X17980000Y-7821000D01*
X17980000Y-7791000D02*
X17950000Y-7821000D01*
X17955000Y-12788000D02*
X17985000Y-12818000D01*
X17985000Y-12788000D02*
X17955000Y-12818000D01*
X17978000Y-8683000D02*
X18008000Y-8713000D01*
X18008000Y-8683000D02*
X17978000Y-8713000D01*
X17980000Y-9532000D02*
X18010000Y-9562000D01*
X18010000Y-9532000D02*
X17980000Y-9562000D01*
X18025000Y-5877000D02*
X18055000Y-5907000D01*
X18055000Y-5877000D02*
X18025000Y-5907000D01*
X18026000Y-10356000D02*
X18056000Y-10386000D01*
X18056000Y-10356000D02*
X18026000Y-10386000D01*
X18027000Y-8030000D02*
X18057000Y-8060000D01*
X18057000Y-8030000D02*
X18027000Y-8060000D01*
X18028000Y-9803000D02*
X18058000Y-9833000D01*
X18058000Y-9803000D02*
X18028000Y-9833000D01*
X18029000Y-10760000D02*
X18059000Y-10790000D01*
X18059000Y-10760000D02*
X18029000Y-10790000D01*
X18120000Y-9931000D02*
X18150000Y-9961000D01*
X18150000Y-9931000D02*
X18120000Y-9961000D01*
X18120000Y-10860000D02*
X18150000Y-10890000D01*
X18150000Y-10860000D02*
X18120000Y-10890000D01*
X18204000Y-12855000D02*
X18234000Y-12885000D01*
X18234000Y-12855000D02*
X18204000Y-12885000D01*
X18205000Y-11557000D02*
X18235000Y-11587000D01*
X18235000Y-11557000D02*
X18205000Y-11587000D01*
X18206000Y-9150000D02*
X18236000Y-9180000D01*
X18236000Y-9150000D02*
X18206000Y-9180000D01*
X18206000Y-11127000D02*
X18236000Y-11157000D01*
X18236000Y-11127000D02*
X18206000Y-11157000D01*
X18265000Y-8191000D02*
X18295000Y-8221000D01*
X18295000Y-8191000D02*
X18265000Y-8221000D01*
X18276000Y-9357000D02*
X18306000Y-9387000D01*
X18306000Y-9357000D02*
X18276000Y-9387000D01*
X18281000Y-11405000D02*
X18311000Y-11435000D01*
X18311000Y-11405000D02*
X18281000Y-11435000D01*
X18364000Y-10356000D02*
X18394000Y-10386000D01*
X18394000Y-10356000D02*
X18364000Y-10386000D01*
X18393000Y-8264000D02*
X18423000Y-8294000D01*
X18423000Y-8264000D02*
X18393000Y-8294000D01*
X18394000Y-7442000D02*
X18424000Y-7472000D01*
X18424000Y-7442000D02*
X18394000Y-7472000D01*
X18398000Y-10548000D02*
X18428000Y-10578000D01*
X18428000Y-10548000D02*
X18398000Y-10578000D01*
X18398000Y-12017000D02*
X18428000Y-12047000D01*
X18428000Y-12017000D02*
X18398000Y-12047000D01*
X18440000Y-6384000D02*
X18470000Y-6414000D01*
X18470000Y-6384000D02*
X18440000Y-6414000D01*
X18446000Y-7019000D02*
X18476000Y-7049000D01*
X18476000Y-7019000D02*
X18446000Y-7049000D01*
X18470000Y-10434000D02*
X18500000Y-10464000D01*
X18500000Y-10434000D02*
X18470000Y-10464000D01*
X18490000Y-13033000D02*
X18520000Y-13063000D01*
X18520000Y-13033000D02*
X18490000Y-13063000D01*
X18515000Y-5495000D02*
X18545000Y-5525000D01*
X18545000Y-5495000D02*
X18515000Y-5525000D01*
X18530000Y-6003000D02*
X18560000Y-6033000D01*
X18560000Y-6003000D02*
X18530000Y-6033000D01*
X18530000Y-7626000D02*
X18560000Y-7656000D01*
X18560000Y-7626000D02*
X18530000Y-7656000D01*
X18531000Y-9803000D02*
X18561000Y-9833000D01*
X18561000Y-9803000D02*
X18531000Y-9833000D01*
X18532000Y-8759000D02*
X18562000Y-8789000D01*
X18562000Y-8759000D02*
X18532000Y-8789000D01*
X18557000Y-9953000D02*
X18587000Y-9983000D01*
X18587000Y-9953000D02*
X18557000Y-9983000D01*
X18557000Y-12911000D02*
X18587000Y-12941000D01*
X18587000Y-12911000D02*
X18557000Y-12941000D01*
X18631000Y-4895000D02*
X18661000Y-4925000D01*
X18661000Y-4895000D02*
X18631000Y-4925000D01*
X18631000Y-6497000D02*
X18661000Y-6527000D01*
X18661000Y-6497000D02*
X18631000Y-6527000D01*
X18663000Y-6909000D02*
X18693000Y-6939000D01*
X18693000Y-6909000D02*
X18663000Y-6939000D01*
X18663000Y-13463000D02*
X18693000Y-13493000D01*
X18693000Y-13463000D02*
X18663000Y-13493000D01*
X18704000Y-4790000D02*
X18734000Y-4820000D01*
X18734000Y-4790000D02*
X18704000Y-4820000D01*
X18758000Y-7717000D02*
X18788000Y-7747000D01*
X18788000Y-7717000D02*
X18758000Y-7747000D01*
X18759000Y-7004000D02*
X18789000Y-7034000D01*
X18789000Y-7004000D02*
X18759000Y-7034000D01*
X18788000Y-9604000D02*
X18818000Y-9634000D01*
X18818000Y-9604000D02*
X18788000Y-9634000D01*
X18788000Y-11313000D02*
X18818000Y-11343000D01*
X18818000Y-11313000D02*
X18788000Y-11343000D01*
X18849000Y-10024000D02*
X18879000Y-10054000D01*
X18879000Y-10024000D02*
X18849000Y-10054000D01*
X18863000Y-7356000D02*
X18893000Y-7386000D01*
X18893000Y-7356000D02*
X18863000Y-7386000D01*
X18866000Y-12706000D02*
X18896000Y-12736000D01*
X18896000Y-12706000D02*
X18866000Y-12736000D01*
X18956000Y-8442000D02*
X18986000Y-8472000D01*
X18986000Y-8442000D02*
X18956000Y-8472000D01*
X18956000Y-9931000D02*
X18986000Y-9961000D01*
X18986000Y-9931000D02*
X18956000Y-9961000D01*
X18957000Y-6698000D02*
X18987000Y-6728000D01*
X18987000Y-6698000D02*
X18957000Y-6728000D01*
X18959000Y-7209000D02*
X18989000Y-7239000D01*
X18989000Y-7209000D02*
X18959000Y-7239000D01*
X18959000Y-8298000D02*
X18989000Y-8328000D01*
X18989000Y-8298000D02*
X18959000Y-8328000D01*
X18979000Y-10861000D02*
X19009000Y-10891000D01*
X19009000Y-10861000D02*
X18979000Y-10891000D01*
X18979000Y-12453000D02*
X19009000Y-12483000D01*
X19009000Y-12453000D02*
X18979000Y-12483000D01*
X18980000Y-10492000D02*
X19010000Y-10522000D01*
X19010000Y-10492000D02*
X18980000Y-10522000D01*
X19077000Y-7702000D02*
X19107000Y-7732000D01*
X19107000Y-7702000D02*
X19077000Y-7732000D01*
X19161000Y-6955000D02*
X19191000Y-6985000D01*
X19191000Y-6955000D02*
X19161000Y-6985000D01*
X19208000Y-10962000D02*
X19238000Y-10992000D01*
X19238000Y-10962000D02*
X19208000Y-10992000D01*
X19208000Y-12582000D02*
X19238000Y-12612000D01*
X19238000Y-12582000D02*
X19208000Y-12612000D01*
X19325000Y-10232000D02*
X19355000Y-10262000D01*
X19355000Y-10232000D02*
X19325000Y-10262000D01*
X19325000Y-12017000D02*
X19355000Y-12047000D01*
X19355000Y-12017000D02*
X19325000Y-12047000D01*
X19355000Y-7338000D02*
X19385000Y-7368000D01*
X19385000Y-7338000D02*
X19355000Y-7368000D01*
X19355000Y-8138000D02*
X19385000Y-8168000D01*
X19385000Y-8138000D02*
X19355000Y-8168000D01*
X19436000Y-11556000D02*
X19466000Y-11586000D01*
X19466000Y-11556000D02*
X19436000Y-11586000D01*
X19437000Y-9676000D02*
X19467000Y-9706000D01*
X19467000Y-9676000D02*
X19437000Y-9706000D01*
X19537000Y-7799000D02*
X19567000Y-7829000D01*
X19567000Y-7799000D02*
X19537000Y-7829000D01*
X19538000Y-8845000D02*
X19568000Y-8875000D01*
X19568000Y-8845000D02*
X19538000Y-8875000D01*
X19538000Y-12147000D02*
X19568000Y-12177000D01*
X19568000Y-12147000D02*
X19538000Y-12177000D01*
X19638000Y-7702000D02*
X19668000Y-7732000D01*
X19668000Y-7702000D02*
X19638000Y-7732000D01*
X19638000Y-10057000D02*
X19668000Y-10087000D01*
X19668000Y-10057000D02*
X19638000Y-10087000D01*
X19680000Y-12781000D02*
X19710000Y-12811000D01*
X19710000Y-12781000D02*
X19680000Y-12811000D01*
X19801000Y-7081000D02*
X19831000Y-7111000D01*
X19831000Y-7081000D02*
X19801000Y-7111000D01*
X19805000Y-12781000D02*
X19835000Y-12811000D01*
X19835000Y-12781000D02*
X19805000Y-12811000D01*
X19925000Y-6698000D02*
X19955000Y-6728000D01*
X19955000Y-6698000D02*
X19925000Y-6728000D01*
X20179000Y-6953000D02*
X20209000Y-6983000D01*
X20209000Y-6953000D02*
X20179000Y-6983000D01*
X20181000Y-8709000D02*
X20211000Y-8739000D01*
X20211000Y-8709000D02*
X20181000Y-8739000D01*
X20223000Y-10961000D02*
X20253000Y-10991000D01*
X20253000Y-10961000D02*
X20223000Y-10991000D01*
X20326000Y-7799000D02*
X20356000Y-7829000D01*
X20356000Y-7799000D02*
X20326000Y-7829000D01*
X20332000Y-7208000D02*
X20362000Y-7238000D01*
X20362000Y-7208000D02*
X20332000Y-7238000D01*
X17438500Y-4553000D02*
G75*
G02*
X17358500Y-4553000I-40000J0D01*
G01*
X17358500Y-4553000D02*
G75*
G02*
X17438500Y-4553000I40000J0D01*
G01*
X17692500Y-4553000D02*
G75*
G02*
X17612500Y-4553000I-40000J0D01*
G01*
X17612500Y-4553000D02*
G75*
G02*
X17692500Y-4553000I40000J0D01*
G01*
X17946500Y-4553000D02*
G75*
G02*
X17866500Y-4553000I-40000J0D01*
G01*
X17866500Y-4553000D02*
G75*
G02*
X17946500Y-4553000I40000J0D01*
G01*
X18951500Y-4646011D02*
G75*
G02*
X18871500Y-4646011I-40000J0D01*
G01*
X18871500Y-4646011D02*
G75*
G02*
X18951500Y-4646011I40000J0D01*
G01*
X18951500Y-4896011D02*
G75*
G02*
X18871500Y-4896011I-40000J0D01*
G01*
X18871500Y-4896011D02*
G75*
G02*
X18951500Y-4896011I40000J0D01*
G01*
X19876500Y-10246500D02*
G75*
G02*
X19796500Y-10246500I-40000J0D01*
G01*
X19796500Y-10246500D02*
G75*
G02*
X19876500Y-10246500I40000J0D01*
G01*
X19876500Y-10500500D02*
G75*
G02*
X19796500Y-10500500I-40000J0D01*
G01*
X19796500Y-10500500D02*
G75*
G02*
X19876500Y-10500500I40000J0D01*
G01*
X19876500Y-10754500D02*
G75*
G02*
X19796500Y-10754500I-40000J0D01*
G01*
X19796500Y-10754500D02*
G75*
G02*
X19876500Y-10754500I40000J0D01*
G01*
X20130489Y-8950500D02*
G75*
G02*
X20050489Y-8950500I-40000J0D01*
G01*
X20050489Y-8950500D02*
G75*
G02*
X20130489Y-8950500I40000J0D01*
G01*
X20279000Y-10246500D02*
G75*
G02*
X20199000Y-10246500I-40000J0D01*
G01*
X20199000Y-10246500D02*
G75*
G02*
X20279000Y-10246500I40000J0D01*
G01*
X20279000Y-10500500D02*
G75*
G02*
X20199000Y-10500500I-40000J0D01*
G01*
X20199000Y-10500500D02*
G75*
G02*
X20279000Y-10500500I40000J0D01*
G01*
X20279000Y-10754500D02*
G75*
G02*
X20199000Y-10754500I-40000J0D01*
G01*
X20199000Y-10754500D02*
G75*
G02*
X20279000Y-10754500I40000J0D01*
G01*
X20380489Y-8950500D02*
G75*
G02*
X20300489Y-8950500I-40000J0D01*
G01*
X20300489Y-8950500D02*
G75*
G02*
X20380489Y-8950500I40000J0D01*
G01*
X19940000Y-4809000D02*
X19940000Y-4909000D01*
X19890000Y-4859000D02*
X19990000Y-4859000D01*
X19940000Y-5063000D02*
X19940000Y-5163000D01*
X19890000Y-5113000D02*
X19990000Y-5113000D01*
X19940000Y-5317000D02*
X19940000Y-5417000D01*
X19890000Y-5367000D02*
X19990000Y-5367000D01*
X19940000Y-5571000D02*
X19940000Y-5671000D01*
X19890000Y-5621000D02*
X19990000Y-5621000D01*
X19940000Y-5825000D02*
X19940000Y-5925000D01*
X19890000Y-5875000D02*
X19990000Y-5875000D01*
X20194000Y-4809000D02*
X20194000Y-4909000D01*
X20144000Y-4859000D02*
X20244000Y-4859000D01*
X20194000Y-5063000D02*
X20194000Y-5163000D01*
X20144000Y-5113000D02*
X20244000Y-5113000D01*
X20194000Y-5317000D02*
X20194000Y-5417000D01*
X20144000Y-5367000D02*
X20244000Y-5367000D01*
X20194000Y-5571000D02*
X20194000Y-5671000D01*
X20144000Y-5621000D02*
X20244000Y-5621000D01*
X20194000Y-5825000D02*
X20194000Y-5925000D01*
X20144000Y-5875000D02*
X20244000Y-5875000D01*
D13*
X9696538Y-13265538D02*
X9696538Y-13188462D01*
X9619462Y-13188462D01*
X9619462Y-13265538D01*
X9696538Y-13265538D01*
X9696538Y-13773538D02*
X9696538Y-13696462D01*
X9619462Y-13696462D01*
X9619462Y-13773538D01*
X9696538Y-13773538D01*
X9950538Y-13265538D02*
X9950538Y-13188462D01*
X9873462Y-13188462D01*
X9873462Y-13265538D01*
X9950538Y-13265538D01*
X9950538Y-13773538D02*
X9950538Y-13696462D01*
X9873462Y-13696462D01*
X9873462Y-13773538D01*
X9950538Y-13773538D01*
X10204538Y-13265538D02*
X10204538Y-13188462D01*
X10127462Y-13188462D01*
X10127462Y-13265538D01*
X10204538Y-13265538D01*
X10204538Y-13773538D02*
X10204538Y-13696462D01*
X10127462Y-13696462D01*
X10127462Y-13773538D01*
X10204538Y-13773538D01*
X10458538Y-13265538D02*
X10458538Y-13188462D01*
X10381462Y-13188462D01*
X10381462Y-13265538D01*
X10458538Y-13265538D01*
X10458538Y-13773538D02*
X10458538Y-13696462D01*
X10381462Y-13696462D01*
X10381462Y-13773538D01*
X10458538Y-13773538D01*
X10712538Y-13265538D02*
X10712538Y-13188462D01*
X10635462Y-13188462D01*
X10635462Y-13265538D01*
X10712538Y-13265538D01*
X10712538Y-13773538D02*
X10712538Y-13696462D01*
X10635462Y-13696462D01*
X10635462Y-13773538D01*
X10712538Y-13773538D01*
X10966538Y-13265538D02*
X10966538Y-13188462D01*
X10889462Y-13188462D01*
X10889462Y-13265538D01*
X10966538Y-13265538D01*
X10966538Y-13773538D02*
X10966538Y-13696462D01*
X10889462Y-13696462D01*
X10889462Y-13773538D01*
X10966538Y-13773538D01*
X11220538Y-13265538D02*
X11220538Y-13188462D01*
X11143462Y-13188462D01*
X11143462Y-13265538D01*
X11220538Y-13265538D01*
X11220538Y-13773538D02*
X11220538Y-13696462D01*
X11143462Y-13696462D01*
X11143462Y-13773538D01*
X11220538Y-13773538D01*
X11474538Y-13265538D02*
X11474538Y-13188462D01*
X11397462Y-13188462D01*
X11397462Y-13265538D01*
X11474538Y-13265538D01*
X11474538Y-13773538D02*
X11474538Y-13696462D01*
X11397462Y-13696462D01*
X11397462Y-13773538D01*
X11474538Y-13773538D01*
X11728538Y-13265538D02*
X11728538Y-13188462D01*
X11651462Y-13188462D01*
X11651462Y-13265538D01*
X11728538Y-13265538D01*
X11728538Y-13773538D02*
X11728538Y-13696462D01*
X11651462Y-13696462D01*
X11651462Y-13773538D01*
X11728538Y-13773538D01*
X11982538Y-13265538D02*
X11982538Y-13188462D01*
X11905462Y-13188462D01*
X11905462Y-13265538D01*
X11982538Y-13265538D01*
X11982538Y-13773538D02*
X11982538Y-13696462D01*
X11905462Y-13696462D01*
X11905462Y-13773538D01*
X11982538Y-13773538D01*
X12236538Y-13265538D02*
X12236538Y-13188462D01*
X12159462Y-13188462D01*
X12159462Y-13265538D01*
X12236538Y-13265538D01*
X12236538Y-13773538D02*
X12236538Y-13696462D01*
X12159462Y-13696462D01*
X12159462Y-13773538D01*
X12236538Y-13773538D01*
X12490538Y-13265538D02*
X12490538Y-13188462D01*
X12413462Y-13188462D01*
X12413462Y-13265538D01*
X12490538Y-13265538D01*
X12490538Y-13773538D02*
X12490538Y-13696462D01*
X12413462Y-13696462D01*
X12413462Y-13773538D01*
X12490538Y-13773538D01*
X12744538Y-13265538D02*
X12744538Y-13188462D01*
X12667462Y-13188462D01*
X12667462Y-13265538D01*
X12744538Y-13265538D01*
X12744538Y-13773538D02*
X12744538Y-13696462D01*
X12667462Y-13696462D01*
X12667462Y-13773538D01*
X12744538Y-13773538D01*
X12998538Y-13265538D02*
X12998538Y-13188462D01*
X12921462Y-13188462D01*
X12921462Y-13265538D01*
X12998538Y-13265538D01*
X12998538Y-13773538D02*
X12998538Y-13696462D01*
X12921462Y-13696462D01*
X12921462Y-13773538D01*
X12998538Y-13773538D01*
X13252538Y-13265538D02*
X13252538Y-13188462D01*
X13175462Y-13188462D01*
X13175462Y-13265538D01*
X13252538Y-13265538D01*
X13252538Y-13773538D02*
X13252538Y-13696462D01*
X13175462Y-13696462D01*
X13175462Y-13773538D01*
X13252538Y-13773538D01*
X13506538Y-13265538D02*
X13506538Y-13188462D01*
X13429462Y-13188462D01*
X13429462Y-13265538D01*
X13506538Y-13265538D01*
X13506538Y-13773538D02*
X13506538Y-13696462D01*
X13429462Y-13696462D01*
X13429462Y-13773538D01*
X13506538Y-13773538D01*
X13760538Y-13265538D02*
X13760538Y-13188462D01*
X13683462Y-13188462D01*
X13683462Y-13265538D01*
X13760538Y-13265538D01*
X13760538Y-13773538D02*
X13760538Y-13696462D01*
X13683462Y-13696462D01*
X13683462Y-13773538D01*
X13760538Y-13773538D01*
X14014538Y-13265538D02*
X14014538Y-13188462D01*
X13937462Y-13188462D01*
X13937462Y-13265538D01*
X14014538Y-13265538D01*
X14014538Y-13773538D02*
X14014538Y-13696462D01*
X13937462Y-13696462D01*
X13937462Y-13773538D01*
X14014538Y-13773538D01*
X14268538Y-13265538D02*
X14268538Y-13188462D01*
X14191462Y-13188462D01*
X14191462Y-13265538D01*
X14268538Y-13265538D01*
X14268538Y-13773538D02*
X14268538Y-13696462D01*
X14191462Y-13696462D01*
X14191462Y-13773538D01*
X14268538Y-13773538D01*
X14522538Y-13265538D02*
X14522538Y-13188462D01*
X14445462Y-13188462D01*
X14445462Y-13265538D01*
X14522538Y-13265538D01*
X14522538Y-13773538D02*
X14522538Y-13696462D01*
X14445462Y-13696462D01*
X14445462Y-13773538D01*
X14522538Y-13773538D01*
X14776538Y-13265538D02*
X14776538Y-13188462D01*
X14699462Y-13188462D01*
X14699462Y-13265538D01*
X14776538Y-13265538D01*
X14776538Y-13773538D02*
X14776538Y-13696462D01*
X14699462Y-13696462D01*
X14699462Y-13773538D01*
X14776538Y-13773538D01*
X15030538Y-13265538D02*
X15030538Y-13188462D01*
X14953462Y-13188462D01*
X14953462Y-13265538D01*
X15030538Y-13265538D01*
X15030538Y-13773538D02*
X15030538Y-13696462D01*
X14953462Y-13696462D01*
X14953462Y-13773538D01*
X15030538Y-13773538D01*
X15284538Y-13265538D02*
X15284538Y-13188462D01*
X15207462Y-13188462D01*
X15207462Y-13265538D01*
X15284538Y-13265538D01*
X15284538Y-13773538D02*
X15284538Y-13696462D01*
X15207462Y-13696462D01*
X15207462Y-13773538D01*
X15284538Y-13773538D01*
X15538538Y-13265538D02*
X15538538Y-13188462D01*
X15461462Y-13188462D01*
X15461462Y-13265538D01*
X15538538Y-13265538D01*
X15538538Y-13773538D02*
X15538538Y-13696462D01*
X15461462Y-13696462D01*
X15461462Y-13773538D01*
X15538538Y-13773538D01*
X15792538Y-13265538D02*
X15792538Y-13188462D01*
X15715462Y-13188462D01*
X15715462Y-13265538D01*
X15792538Y-13265538D01*
X15792538Y-13773538D02*
X15792538Y-13696462D01*
X15715462Y-13696462D01*
X15715462Y-13773538D01*
X15792538Y-13773538D01*
X16046538Y-13265538D02*
X16046538Y-13188462D01*
X15969462Y-13188462D01*
X15969462Y-13265538D01*
X16046538Y-13265538D01*
X16046538Y-13773538D02*
X16046538Y-13696462D01*
X15969462Y-13696462D01*
X15969462Y-13773538D01*
X16046538Y-13773538D01*
X16300538Y-13265538D02*
X16300538Y-13188462D01*
X16223462Y-13188462D01*
X16223462Y-13265538D01*
X16300538Y-13265538D01*
X16300538Y-13773538D02*
X16300538Y-13696462D01*
X16223462Y-13696462D01*
X16223462Y-13773538D01*
X16300538Y-13773538D01*
X16554538Y-13265538D02*
X16554538Y-13188462D01*
X16477462Y-13188462D01*
X16477462Y-13265538D01*
X16554538Y-13265538D01*
X16554538Y-13773538D02*
X16554538Y-13696462D01*
X16477462Y-13696462D01*
X16477462Y-13773538D01*
X16554538Y-13773538D01*
X16808538Y-13265538D02*
X16808538Y-13188462D01*
X16731462Y-13188462D01*
X16731462Y-13265538D01*
X16808538Y-13265538D01*
X16808538Y-13773538D02*
X16808538Y-13696462D01*
X16731462Y-13696462D01*
X16731462Y-13773538D01*
X16808538Y-13773538D01*
X17062538Y-13265538D02*
X17062538Y-13188462D01*
X16985462Y-13188462D01*
X16985462Y-13265538D01*
X17062538Y-13265538D01*
X17062538Y-13773538D02*
X17062538Y-13696462D01*
X16985462Y-13696462D01*
X16985462Y-13773538D01*
X17062538Y-13773538D01*
X17316538Y-13265538D02*
X17316538Y-13188462D01*
X17239462Y-13188462D01*
X17239462Y-13265538D01*
X17316538Y-13265538D01*
X17316538Y-13773538D02*
X17316538Y-13696462D01*
X17239462Y-13696462D01*
X17239462Y-13773538D01*
X17316538Y-13773538D01*
X17570538Y-13265538D02*
X17570538Y-13188462D01*
X17493462Y-13188462D01*
X17493462Y-13265538D01*
X17570538Y-13265538D01*
X17570538Y-13773538D02*
X17570538Y-13696462D01*
X17493462Y-13696462D01*
X17493462Y-13773538D01*
X17570538Y-13773538D01*
X17824538Y-13265538D02*
X17824538Y-13188462D01*
X17747462Y-13188462D01*
X17747462Y-13265538D01*
X17824538Y-13265538D01*
X17824538Y-13773538D02*
X17824538Y-13696462D01*
X17747462Y-13696462D01*
X17747462Y-13773538D01*
X17824538Y-13773538D01*
X18078538Y-13265538D02*
X18078538Y-13188462D01*
X18001462Y-13188462D01*
X18001462Y-13265538D01*
X18078538Y-13265538D01*
X18078538Y-13773538D02*
X18078538Y-13696462D01*
X18001462Y-13696462D01*
X18001462Y-13773538D01*
X18078538Y-13773538D01*
X18332538Y-13265538D02*
X18332538Y-13188462D01*
X18255462Y-13188462D01*
X18255462Y-13265538D01*
X18332538Y-13265538D01*
X18332538Y-13773538D02*
X18332538Y-13696462D01*
X18255462Y-13696462D01*
X18255462Y-13773538D01*
X18332538Y-13773538D01*
X18586538Y-13265538D02*
X18586538Y-13188462D01*
X18509462Y-13188462D01*
X18509462Y-13265538D01*
X18586538Y-13265538D01*
X18586538Y-13773538D02*
X18586538Y-13696462D01*
X18509462Y-13696462D01*
X18509462Y-13773538D01*
X18586538Y-13773538D01*
X18840538Y-13265538D02*
X18840538Y-13188462D01*
X18763462Y-13188462D01*
X18763462Y-13265538D01*
X18840538Y-13265538D01*
X18840538Y-13773538D02*
X18840538Y-13696462D01*
X18763462Y-13696462D01*
X18763462Y-13773538D01*
X18840538Y-13773538D01*
X19094538Y-13265538D02*
X19094538Y-13188462D01*
X19017462Y-13188462D01*
X19017462Y-13265538D01*
X19094538Y-13265538D01*
X19094538Y-13773538D02*
X19094538Y-13696462D01*
X19017462Y-13696462D01*
X19017462Y-13773538D01*
X19094538Y-13773538D01*
X19348538Y-13265538D02*
X19348538Y-13188462D01*
X19271462Y-13188462D01*
X19271462Y-13265538D01*
X19348538Y-13265538D01*
X19348538Y-13773538D02*
X19348538Y-13696462D01*
X19271462Y-13696462D01*
X19271462Y-13773538D01*
X19348538Y-13773538D01*
X19602538Y-13265538D02*
X19602538Y-13188462D01*
X19525462Y-13188462D01*
X19525462Y-13265538D01*
X19602538Y-13265538D01*
X19602538Y-13773538D02*
X19602538Y-13696462D01*
X19525462Y-13696462D01*
X19525462Y-13773538D01*
X19602538Y-13773538D01*
X19856538Y-13265538D02*
X19856538Y-13188462D01*
X19779462Y-13188462D01*
X19779462Y-13265538D01*
X19856538Y-13265538D01*
X19856538Y-13773538D02*
X19856538Y-13696462D01*
X19779462Y-13696462D01*
X19779462Y-13773538D01*
X19856538Y-13773538D01*
X20110538Y-13265538D02*
X20110538Y-13188462D01*
X20033462Y-13188462D01*
X20033462Y-13265538D01*
X20110538Y-13265538D01*
X20110538Y-13773538D02*
X20110538Y-13696462D01*
X20033462Y-13696462D01*
X20033462Y-13773538D01*
X20110538Y-13773538D01*
X20364538Y-13265538D02*
X20364538Y-13188462D01*
X20287462Y-13188462D01*
X20287462Y-13265538D01*
X20364538Y-13265538D01*
X20364538Y-13773538D02*
X20364538Y-13696462D01*
X20287462Y-13696462D01*
X20287462Y-13773538D01*
X20364538Y-13773538D01*
D11*
X9550852Y-15089506D02*
X9550852Y-14889506D01*
X9550852Y-14889506D02*
X9598471Y-14889506D01*
X9598471Y-14889506D02*
X9627042Y-14899030D01*
X9627042Y-14899030D02*
X9646090Y-14918077D01*
X9646090Y-14918077D02*
X9655613Y-14937125D01*
X9655613Y-14937125D02*
X9665137Y-14975220D01*
X9665137Y-14975220D02*
X9665137Y-15003792D01*
X9665137Y-15003792D02*
X9655613Y-15041887D01*
X9655613Y-15041887D02*
X9646090Y-15060934D01*
X9646090Y-15060934D02*
X9627042Y-15079982D01*
X9627042Y-15079982D02*
X9598471Y-15089506D01*
X9598471Y-15089506D02*
X9550852Y-15089506D01*
X9750852Y-15089506D02*
X9750852Y-14956172D01*
X9750852Y-14994268D02*
X9760375Y-14975220D01*
X9760375Y-14975220D02*
X9769899Y-14965696D01*
X9769899Y-14965696D02*
X9788947Y-14956172D01*
X9788947Y-14956172D02*
X9807994Y-14956172D01*
X9874661Y-15089506D02*
X9874661Y-14956172D01*
X9874661Y-14889506D02*
X9865137Y-14899030D01*
X9865137Y-14899030D02*
X9874661Y-14908553D01*
X9874661Y-14908553D02*
X9884185Y-14899030D01*
X9884185Y-14899030D02*
X9874661Y-14889506D01*
X9874661Y-14889506D02*
X9874661Y-14908553D01*
X9998471Y-15089506D02*
X9979423Y-15079982D01*
X9979423Y-15079982D02*
X9969899Y-15060934D01*
X9969899Y-15060934D02*
X9969899Y-14889506D01*
X10103232Y-15089506D02*
X10084185Y-15079982D01*
X10084185Y-15079982D02*
X10074661Y-15060934D01*
X10074661Y-15060934D02*
X10074661Y-14889506D01*
X10331804Y-15089506D02*
X10331804Y-14889506D01*
X10331804Y-14889506D02*
X10398471Y-15032363D01*
X10398471Y-15032363D02*
X10465137Y-14889506D01*
X10465137Y-14889506D02*
X10465137Y-15089506D01*
X10646090Y-15089506D02*
X10646090Y-14984744D01*
X10646090Y-14984744D02*
X10636566Y-14965696D01*
X10636566Y-14965696D02*
X10617518Y-14956172D01*
X10617518Y-14956172D02*
X10579423Y-14956172D01*
X10579423Y-14956172D02*
X10560375Y-14965696D01*
X10646090Y-15079982D02*
X10627042Y-15089506D01*
X10627042Y-15089506D02*
X10579423Y-15089506D01*
X10579423Y-15089506D02*
X10560375Y-15079982D01*
X10560375Y-15079982D02*
X10550852Y-15060934D01*
X10550852Y-15060934D02*
X10550852Y-15041887D01*
X10550852Y-15041887D02*
X10560375Y-15022839D01*
X10560375Y-15022839D02*
X10579423Y-15013315D01*
X10579423Y-15013315D02*
X10627042Y-15013315D01*
X10627042Y-15013315D02*
X10646090Y-15003792D01*
X10741328Y-14956172D02*
X10741328Y-15156172D01*
X10741328Y-14965696D02*
X10760375Y-14956172D01*
X10760375Y-14956172D02*
X10798471Y-14956172D01*
X10798471Y-14956172D02*
X10817518Y-14965696D01*
X10817518Y-14965696D02*
X10827042Y-14975220D01*
X10827042Y-14975220D02*
X10836566Y-14994268D01*
X10836566Y-14994268D02*
X10836566Y-15051411D01*
X10836566Y-15051411D02*
X10827042Y-15070458D01*
X10827042Y-15070458D02*
X10817518Y-15079982D01*
X10817518Y-15079982D02*
X10798471Y-15089506D01*
X10798471Y-15089506D02*
X10760375Y-15089506D01*
X10760375Y-15089506D02*
X10741328Y-15079982D01*
X10922280Y-15070458D02*
X10931804Y-15079982D01*
X10931804Y-15079982D02*
X10922280Y-15089506D01*
X10922280Y-15089506D02*
X10912756Y-15079982D01*
X10912756Y-15079982D02*
X10922280Y-15070458D01*
X10922280Y-15070458D02*
X10922280Y-15089506D01*
X10922280Y-14965696D02*
X10931804Y-14975220D01*
X10931804Y-14975220D02*
X10922280Y-14984744D01*
X10922280Y-14984744D02*
X10912756Y-14975220D01*
X10912756Y-14975220D02*
X10922280Y-14965696D01*
X10922280Y-14965696D02*
X10922280Y-14984744D01*
D12*
X9260075Y-15403022D02*
X9290075Y-15433022D01*
X9290075Y-15403022D02*
X9260075Y-15433022D01*
D11*
X9588947Y-15309506D02*
X9607994Y-15309506D01*
X9607994Y-15309506D02*
X9627042Y-15319030D01*
X9627042Y-15319030D02*
X9636566Y-15328553D01*
X9636566Y-15328553D02*
X9646090Y-15347601D01*
X9646090Y-15347601D02*
X9655613Y-15385696D01*
X9655613Y-15385696D02*
X9655613Y-15433315D01*
X9655613Y-15433315D02*
X9646090Y-15471411D01*
X9646090Y-15471411D02*
X9636566Y-15490458D01*
X9636566Y-15490458D02*
X9627042Y-15499982D01*
X9627042Y-15499982D02*
X9607994Y-15509506D01*
X9607994Y-15509506D02*
X9588947Y-15509506D01*
X9588947Y-15509506D02*
X9569899Y-15499982D01*
X9569899Y-15499982D02*
X9560375Y-15490458D01*
X9560375Y-15490458D02*
X9550852Y-15471411D01*
X9550852Y-15471411D02*
X9541328Y-15433315D01*
X9541328Y-15433315D02*
X9541328Y-15385696D01*
X9541328Y-15385696D02*
X9550852Y-15347601D01*
X9550852Y-15347601D02*
X9560375Y-15328553D01*
X9560375Y-15328553D02*
X9569899Y-15319030D01*
X9569899Y-15319030D02*
X9588947Y-15309506D01*
X9741328Y-15490458D02*
X9750852Y-15499982D01*
X9750852Y-15499982D02*
X9741328Y-15509506D01*
X9741328Y-15509506D02*
X9731804Y-15499982D01*
X9731804Y-15499982D02*
X9741328Y-15490458D01*
X9741328Y-15490458D02*
X9741328Y-15509506D01*
X9817518Y-15309506D02*
X9941328Y-15309506D01*
X9941328Y-15309506D02*
X9874661Y-15385696D01*
X9874661Y-15385696D02*
X9903233Y-15385696D01*
X9903233Y-15385696D02*
X9922280Y-15395220D01*
X9922280Y-15395220D02*
X9931804Y-15404744D01*
X9931804Y-15404744D02*
X9941328Y-15423792D01*
X9941328Y-15423792D02*
X9941328Y-15471411D01*
X9941328Y-15471411D02*
X9931804Y-15490458D01*
X9931804Y-15490458D02*
X9922280Y-15499982D01*
X9922280Y-15499982D02*
X9903233Y-15509506D01*
X9903233Y-15509506D02*
X9846090Y-15509506D01*
X9846090Y-15509506D02*
X9827042Y-15499982D01*
X9827042Y-15499982D02*
X9817518Y-15490458D01*
X10065137Y-15309506D02*
X10084185Y-15309506D01*
X10084185Y-15309506D02*
X10103233Y-15319030D01*
X10103233Y-15319030D02*
X10112756Y-15328553D01*
X10112756Y-15328553D02*
X10122280Y-15347601D01*
X10122280Y-15347601D02*
X10131804Y-15385696D01*
X10131804Y-15385696D02*
X10131804Y-15433315D01*
X10131804Y-15433315D02*
X10122280Y-15471411D01*
X10122280Y-15471411D02*
X10112756Y-15490458D01*
X10112756Y-15490458D02*
X10103233Y-15499982D01*
X10103233Y-15499982D02*
X10084185Y-15509506D01*
X10084185Y-15509506D02*
X10065137Y-15509506D01*
X10065137Y-15509506D02*
X10046090Y-15499982D01*
X10046090Y-15499982D02*
X10036566Y-15490458D01*
X10036566Y-15490458D02*
X10027042Y-15471411D01*
X10027042Y-15471411D02*
X10017518Y-15433315D01*
X10017518Y-15433315D02*
X10017518Y-15385696D01*
X10017518Y-15385696D02*
X10027042Y-15347601D01*
X10027042Y-15347601D02*
X10036566Y-15328553D01*
X10036566Y-15328553D02*
X10046090Y-15319030D01*
X10046090Y-15319030D02*
X10065137Y-15309506D01*
X10255613Y-15309506D02*
X10274661Y-15309506D01*
X10274661Y-15309506D02*
X10293709Y-15319030D01*
X10293709Y-15319030D02*
X10303233Y-15328553D01*
X10303233Y-15328553D02*
X10312756Y-15347601D01*
X10312756Y-15347601D02*
X10322280Y-15385696D01*
X10322280Y-15385696D02*
X10322280Y-15433315D01*
X10322280Y-15433315D02*
X10312756Y-15471411D01*
X10312756Y-15471411D02*
X10303233Y-15490458D01*
X10303233Y-15490458D02*
X10293709Y-15499982D01*
X10293709Y-15499982D02*
X10274661Y-15509506D01*
X10274661Y-15509506D02*
X10255613Y-15509506D01*
X10255613Y-15509506D02*
X10236566Y-15499982D01*
X10236566Y-15499982D02*
X10227042Y-15490458D01*
X10227042Y-15490458D02*
X10217518Y-15471411D01*
X10217518Y-15471411D02*
X10207994Y-15433315D01*
X10207994Y-15433315D02*
X10207994Y-15385696D01*
X10207994Y-15385696D02*
X10217518Y-15347601D01*
X10217518Y-15347601D02*
X10227042Y-15328553D01*
X10227042Y-15328553D02*
X10236566Y-15319030D01*
X10236566Y-15319030D02*
X10255613Y-15309506D01*
X10407994Y-15509506D02*
X10407994Y-15376172D01*
X10407994Y-15395220D02*
X10417518Y-15385696D01*
X10417518Y-15385696D02*
X10436566Y-15376172D01*
X10436566Y-15376172D02*
X10465137Y-15376172D01*
X10465137Y-15376172D02*
X10484185Y-15385696D01*
X10484185Y-15385696D02*
X10493709Y-15404744D01*
X10493709Y-15404744D02*
X10493709Y-15509506D01*
X10493709Y-15404744D02*
X10503233Y-15385696D01*
X10503233Y-15385696D02*
X10522280Y-15376172D01*
X10522280Y-15376172D02*
X10550852Y-15376172D01*
X10550852Y-15376172D02*
X10569899Y-15385696D01*
X10569899Y-15385696D02*
X10579423Y-15404744D01*
X10579423Y-15404744D02*
X10579423Y-15509506D01*
X10674661Y-15509506D02*
X10674661Y-15376172D01*
X10674661Y-15395220D02*
X10684185Y-15385696D01*
X10684185Y-15385696D02*
X10703233Y-15376172D01*
X10703233Y-15376172D02*
X10731804Y-15376172D01*
X10731804Y-15376172D02*
X10750852Y-15385696D01*
X10750852Y-15385696D02*
X10760375Y-15404744D01*
X10760375Y-15404744D02*
X10760375Y-15509506D01*
X10760375Y-15404744D02*
X10769899Y-15385696D01*
X10769899Y-15385696D02*
X10788947Y-15376172D01*
X10788947Y-15376172D02*
X10817518Y-15376172D01*
X10817518Y-15376172D02*
X10836566Y-15385696D01*
X10836566Y-15385696D02*
X10846090Y-15404744D01*
X10846090Y-15404744D02*
X10846090Y-15509506D01*
X11236566Y-15299982D02*
X11065137Y-15557125D01*
X11493709Y-15309506D02*
X11512756Y-15309506D01*
X11512756Y-15309506D02*
X11531804Y-15319030D01*
X11531804Y-15319030D02*
X11541328Y-15328553D01*
X11541328Y-15328553D02*
X11550852Y-15347601D01*
X11550852Y-15347601D02*
X11560375Y-15385696D01*
X11560375Y-15385696D02*
X11560375Y-15433315D01*
X11560375Y-15433315D02*
X11550852Y-15471411D01*
X11550852Y-15471411D02*
X11541328Y-15490458D01*
X11541328Y-15490458D02*
X11531804Y-15499982D01*
X11531804Y-15499982D02*
X11512756Y-15509506D01*
X11512756Y-15509506D02*
X11493709Y-15509506D01*
X11493709Y-15509506D02*
X11474661Y-15499982D01*
X11474661Y-15499982D02*
X11465137Y-15490458D01*
X11465137Y-15490458D02*
X11455614Y-15471411D01*
X11455614Y-15471411D02*
X11446090Y-15433315D01*
X11446090Y-15433315D02*
X11446090Y-15385696D01*
X11446090Y-15385696D02*
X11455614Y-15347601D01*
X11455614Y-15347601D02*
X11465137Y-15328553D01*
X11465137Y-15328553D02*
X11474661Y-15319030D01*
X11474661Y-15319030D02*
X11493709Y-15309506D01*
X11646090Y-15490458D02*
X11655614Y-15499982D01*
X11655614Y-15499982D02*
X11646090Y-15509506D01*
X11646090Y-15509506D02*
X11636566Y-15499982D01*
X11636566Y-15499982D02*
X11646090Y-15490458D01*
X11646090Y-15490458D02*
X11646090Y-15509506D01*
X11779423Y-15309506D02*
X11798471Y-15309506D01*
X11798471Y-15309506D02*
X11817518Y-15319030D01*
X11817518Y-15319030D02*
X11827042Y-15328553D01*
X11827042Y-15328553D02*
X11836566Y-15347601D01*
X11836566Y-15347601D02*
X11846090Y-15385696D01*
X11846090Y-15385696D02*
X11846090Y-15433315D01*
X11846090Y-15433315D02*
X11836566Y-15471411D01*
X11836566Y-15471411D02*
X11827042Y-15490458D01*
X11827042Y-15490458D02*
X11817518Y-15499982D01*
X11817518Y-15499982D02*
X11798471Y-15509506D01*
X11798471Y-15509506D02*
X11779423Y-15509506D01*
X11779423Y-15509506D02*
X11760375Y-15499982D01*
X11760375Y-15499982D02*
X11750852Y-15490458D01*
X11750852Y-15490458D02*
X11741328Y-15471411D01*
X11741328Y-15471411D02*
X11731804Y-15433315D01*
X11731804Y-15433315D02*
X11731804Y-15385696D01*
X11731804Y-15385696D02*
X11741328Y-15347601D01*
X11741328Y-15347601D02*
X11750852Y-15328553D01*
X11750852Y-15328553D02*
X11760375Y-15319030D01*
X11760375Y-15319030D02*
X11779423Y-15309506D01*
X12036566Y-15509506D02*
X11922280Y-15509506D01*
X11979423Y-15509506D02*
X11979423Y-15309506D01*
X11979423Y-15309506D02*
X11960375Y-15338077D01*
X11960375Y-15338077D02*
X11941328Y-15357125D01*
X11941328Y-15357125D02*
X11922280Y-15366649D01*
X12227042Y-15509506D02*
X12112756Y-15509506D01*
X12169899Y-15509506D02*
X12169899Y-15309506D01*
X12169899Y-15309506D02*
X12150852Y-15338077D01*
X12150852Y-15338077D02*
X12131804Y-15357125D01*
X12131804Y-15357125D02*
X12112756Y-15366649D01*
X12341328Y-15395220D02*
X12322280Y-15385696D01*
X12322280Y-15385696D02*
X12312756Y-15376172D01*
X12312756Y-15376172D02*
X12303233Y-15357125D01*
X12303233Y-15357125D02*
X12303233Y-15347601D01*
X12303233Y-15347601D02*
X12312756Y-15328553D01*
X12312756Y-15328553D02*
X12322280Y-15319030D01*
X12322280Y-15319030D02*
X12341328Y-15309506D01*
X12341328Y-15309506D02*
X12379423Y-15309506D01*
X12379423Y-15309506D02*
X12398471Y-15319030D01*
X12398471Y-15319030D02*
X12407995Y-15328553D01*
X12407995Y-15328553D02*
X12417518Y-15347601D01*
X12417518Y-15347601D02*
X12417518Y-15357125D01*
X12417518Y-15357125D02*
X12407995Y-15376172D01*
X12407995Y-15376172D02*
X12398471Y-15385696D01*
X12398471Y-15385696D02*
X12379423Y-15395220D01*
X12379423Y-15395220D02*
X12341328Y-15395220D01*
X12341328Y-15395220D02*
X12322280Y-15404744D01*
X12322280Y-15404744D02*
X12312756Y-15414268D01*
X12312756Y-15414268D02*
X12303233Y-15433315D01*
X12303233Y-15433315D02*
X12303233Y-15471411D01*
X12303233Y-15471411D02*
X12312756Y-15490458D01*
X12312756Y-15490458D02*
X12322280Y-15499982D01*
X12322280Y-15499982D02*
X12341328Y-15509506D01*
X12341328Y-15509506D02*
X12379423Y-15509506D01*
X12379423Y-15509506D02*
X12398471Y-15499982D01*
X12398471Y-15499982D02*
X12407995Y-15490458D01*
X12407995Y-15490458D02*
X12417518Y-15471411D01*
X12417518Y-15471411D02*
X12417518Y-15433315D01*
X12417518Y-15433315D02*
X12407995Y-15414268D01*
X12407995Y-15414268D02*
X12398471Y-15404744D01*
X12398471Y-15404744D02*
X12379423Y-15395220D01*
X12493709Y-15309506D02*
X12493709Y-15347601D01*
X12569899Y-15309506D02*
X12569899Y-15347601D01*
X12865138Y-15585696D02*
X12855614Y-15576172D01*
X12855614Y-15576172D02*
X12836566Y-15547601D01*
X12836566Y-15547601D02*
X12827042Y-15528553D01*
X12827042Y-15528553D02*
X12817518Y-15499982D01*
X12817518Y-15499982D02*
X12807995Y-15452363D01*
X12807995Y-15452363D02*
X12807995Y-15414268D01*
X12807995Y-15414268D02*
X12817518Y-15366649D01*
X12817518Y-15366649D02*
X12827042Y-15338077D01*
X12827042Y-15338077D02*
X12836566Y-15319030D01*
X12836566Y-15319030D02*
X12855614Y-15290458D01*
X12855614Y-15290458D02*
X12865138Y-15280934D01*
X13027042Y-15376172D02*
X13027042Y-15509506D01*
X12979423Y-15299982D02*
X12931804Y-15442839D01*
X12931804Y-15442839D02*
X13055614Y-15442839D01*
X13217518Y-15309506D02*
X13179423Y-15309506D01*
X13179423Y-15309506D02*
X13160376Y-15319030D01*
X13160376Y-15319030D02*
X13150852Y-15328553D01*
X13150852Y-15328553D02*
X13131804Y-15357125D01*
X13131804Y-15357125D02*
X13122280Y-15395220D01*
X13122280Y-15395220D02*
X13122280Y-15471411D01*
X13122280Y-15471411D02*
X13131804Y-15490458D01*
X13131804Y-15490458D02*
X13141328Y-15499982D01*
X13141328Y-15499982D02*
X13160376Y-15509506D01*
X13160376Y-15509506D02*
X13198471Y-15509506D01*
X13198471Y-15509506D02*
X13217518Y-15499982D01*
X13217518Y-15499982D02*
X13227042Y-15490458D01*
X13227042Y-15490458D02*
X13236566Y-15471411D01*
X13236566Y-15471411D02*
X13236566Y-15423792D01*
X13236566Y-15423792D02*
X13227042Y-15404744D01*
X13227042Y-15404744D02*
X13217518Y-15395220D01*
X13217518Y-15395220D02*
X13198471Y-15385696D01*
X13198471Y-15385696D02*
X13160376Y-15385696D01*
X13160376Y-15385696D02*
X13141328Y-15395220D01*
X13141328Y-15395220D02*
X13131804Y-15404744D01*
X13131804Y-15404744D02*
X13122280Y-15423792D01*
X13331804Y-15509506D02*
X13369899Y-15509506D01*
X13369899Y-15509506D02*
X13388947Y-15499982D01*
X13388947Y-15499982D02*
X13398471Y-15490458D01*
X13398471Y-15490458D02*
X13417518Y-15461887D01*
X13417518Y-15461887D02*
X13427042Y-15423792D01*
X13427042Y-15423792D02*
X13427042Y-15347601D01*
X13427042Y-15347601D02*
X13417518Y-15328553D01*
X13417518Y-15328553D02*
X13407995Y-15319030D01*
X13407995Y-15319030D02*
X13388947Y-15309506D01*
X13388947Y-15309506D02*
X13350852Y-15309506D01*
X13350852Y-15309506D02*
X13331804Y-15319030D01*
X13331804Y-15319030D02*
X13322280Y-15328553D01*
X13322280Y-15328553D02*
X13312757Y-15347601D01*
X13312757Y-15347601D02*
X13312757Y-15395220D01*
X13312757Y-15395220D02*
X13322280Y-15414268D01*
X13322280Y-15414268D02*
X13331804Y-15423792D01*
X13331804Y-15423792D02*
X13350852Y-15433315D01*
X13350852Y-15433315D02*
X13388947Y-15433315D01*
X13388947Y-15433315D02*
X13407995Y-15423792D01*
X13407995Y-15423792D02*
X13417518Y-15414268D01*
X13417518Y-15414268D02*
X13427042Y-15395220D01*
X13665138Y-15509506D02*
X13665138Y-15309506D01*
X13750852Y-15509506D02*
X13750852Y-15404744D01*
X13750852Y-15404744D02*
X13741328Y-15385696D01*
X13741328Y-15385696D02*
X13722280Y-15376172D01*
X13722280Y-15376172D02*
X13693709Y-15376172D01*
X13693709Y-15376172D02*
X13674661Y-15385696D01*
X13674661Y-15385696D02*
X13665138Y-15395220D01*
X13874661Y-15509506D02*
X13855614Y-15499982D01*
X13855614Y-15499982D02*
X13846090Y-15490458D01*
X13846090Y-15490458D02*
X13836566Y-15471411D01*
X13836566Y-15471411D02*
X13836566Y-15414268D01*
X13836566Y-15414268D02*
X13846090Y-15395220D01*
X13846090Y-15395220D02*
X13855614Y-15385696D01*
X13855614Y-15385696D02*
X13874661Y-15376172D01*
X13874661Y-15376172D02*
X13903233Y-15376172D01*
X13903233Y-15376172D02*
X13922280Y-15385696D01*
X13922280Y-15385696D02*
X13931804Y-15395220D01*
X13931804Y-15395220D02*
X13941328Y-15414268D01*
X13941328Y-15414268D02*
X13941328Y-15471411D01*
X13941328Y-15471411D02*
X13931804Y-15490458D01*
X13931804Y-15490458D02*
X13922280Y-15499982D01*
X13922280Y-15499982D02*
X13903233Y-15509506D01*
X13903233Y-15509506D02*
X13874661Y-15509506D01*
X14055614Y-15509506D02*
X14036566Y-15499982D01*
X14036566Y-15499982D02*
X14027042Y-15480934D01*
X14027042Y-15480934D02*
X14027042Y-15309506D01*
X14207995Y-15499982D02*
X14188947Y-15509506D01*
X14188947Y-15509506D02*
X14150852Y-15509506D01*
X14150852Y-15509506D02*
X14131804Y-15499982D01*
X14131804Y-15499982D02*
X14122280Y-15480934D01*
X14122280Y-15480934D02*
X14122280Y-15404744D01*
X14122280Y-15404744D02*
X14131804Y-15385696D01*
X14131804Y-15385696D02*
X14150852Y-15376172D01*
X14150852Y-15376172D02*
X14188947Y-15376172D01*
X14188947Y-15376172D02*
X14207995Y-15385696D01*
X14207995Y-15385696D02*
X14217519Y-15404744D01*
X14217519Y-15404744D02*
X14217519Y-15423792D01*
X14217519Y-15423792D02*
X14122280Y-15442839D01*
X14293709Y-15499982D02*
X14312757Y-15509506D01*
X14312757Y-15509506D02*
X14350852Y-15509506D01*
X14350852Y-15509506D02*
X14369900Y-15499982D01*
X14369900Y-15499982D02*
X14379423Y-15480934D01*
X14379423Y-15480934D02*
X14379423Y-15471411D01*
X14379423Y-15471411D02*
X14369900Y-15452363D01*
X14369900Y-15452363D02*
X14350852Y-15442839D01*
X14350852Y-15442839D02*
X14322280Y-15442839D01*
X14322280Y-15442839D02*
X14303233Y-15433315D01*
X14303233Y-15433315D02*
X14293709Y-15414268D01*
X14293709Y-15414268D02*
X14293709Y-15404744D01*
X14293709Y-15404744D02*
X14303233Y-15385696D01*
X14303233Y-15385696D02*
X14322280Y-15376172D01*
X14322280Y-15376172D02*
X14350852Y-15376172D01*
X14350852Y-15376172D02*
X14369900Y-15385696D01*
X14446090Y-15585696D02*
X14455614Y-15576172D01*
X14455614Y-15576172D02*
X14474661Y-15547601D01*
X14474661Y-15547601D02*
X14484185Y-15528553D01*
X14484185Y-15528553D02*
X14493709Y-15499982D01*
X14493709Y-15499982D02*
X14503233Y-15452363D01*
X14503233Y-15452363D02*
X14503233Y-15414268D01*
X14503233Y-15414268D02*
X14493709Y-15366649D01*
X14493709Y-15366649D02*
X14484185Y-15338077D01*
X14484185Y-15338077D02*
X14474661Y-15319030D01*
X14474661Y-15319030D02*
X14455614Y-15290458D01*
X14455614Y-15290458D02*
X14446090Y-15280934D01*
D12*
X9290075Y-15682022D02*
G75*
G02*
X9210075Y-15682022I-40000J0D01*
G01*
X9210075Y-15682022D02*
G75*
G02*
X9290075Y-15682022I40000J0D01*
G01*
D11*
X9588947Y-15573506D02*
X9607994Y-15573506D01*
X9607994Y-15573506D02*
X9627042Y-15583030D01*
X9627042Y-15583030D02*
X9636566Y-15592553D01*
X9636566Y-15592553D02*
X9646090Y-15611601D01*
X9646090Y-15611601D02*
X9655613Y-15649696D01*
X9655613Y-15649696D02*
X9655613Y-15697315D01*
X9655613Y-15697315D02*
X9646090Y-15735411D01*
X9646090Y-15735411D02*
X9636566Y-15754458D01*
X9636566Y-15754458D02*
X9627042Y-15763982D01*
X9627042Y-15763982D02*
X9607994Y-15773506D01*
X9607994Y-15773506D02*
X9588947Y-15773506D01*
X9588947Y-15773506D02*
X9569899Y-15763982D01*
X9569899Y-15763982D02*
X9560375Y-15754458D01*
X9560375Y-15754458D02*
X9550852Y-15735411D01*
X9550852Y-15735411D02*
X9541328Y-15697315D01*
X9541328Y-15697315D02*
X9541328Y-15649696D01*
X9541328Y-15649696D02*
X9550852Y-15611601D01*
X9550852Y-15611601D02*
X9560375Y-15592553D01*
X9560375Y-15592553D02*
X9569899Y-15583030D01*
X9569899Y-15583030D02*
X9588947Y-15573506D01*
X9741328Y-15754458D02*
X9750852Y-15763982D01*
X9750852Y-15763982D02*
X9741328Y-15773506D01*
X9741328Y-15773506D02*
X9731804Y-15763982D01*
X9731804Y-15763982D02*
X9741328Y-15754458D01*
X9741328Y-15754458D02*
X9741328Y-15773506D01*
X9865137Y-15659220D02*
X9846090Y-15649696D01*
X9846090Y-15649696D02*
X9836566Y-15640172D01*
X9836566Y-15640172D02*
X9827042Y-15621125D01*
X9827042Y-15621125D02*
X9827042Y-15611601D01*
X9827042Y-15611601D02*
X9836566Y-15592553D01*
X9836566Y-15592553D02*
X9846090Y-15583030D01*
X9846090Y-15583030D02*
X9865137Y-15573506D01*
X9865137Y-15573506D02*
X9903233Y-15573506D01*
X9903233Y-15573506D02*
X9922280Y-15583030D01*
X9922280Y-15583030D02*
X9931804Y-15592553D01*
X9931804Y-15592553D02*
X9941328Y-15611601D01*
X9941328Y-15611601D02*
X9941328Y-15621125D01*
X9941328Y-15621125D02*
X9931804Y-15640172D01*
X9931804Y-15640172D02*
X9922280Y-15649696D01*
X9922280Y-15649696D02*
X9903233Y-15659220D01*
X9903233Y-15659220D02*
X9865137Y-15659220D01*
X9865137Y-15659220D02*
X9846090Y-15668744D01*
X9846090Y-15668744D02*
X9836566Y-15678268D01*
X9836566Y-15678268D02*
X9827042Y-15697315D01*
X9827042Y-15697315D02*
X9827042Y-15735411D01*
X9827042Y-15735411D02*
X9836566Y-15754458D01*
X9836566Y-15754458D02*
X9846090Y-15763982D01*
X9846090Y-15763982D02*
X9865137Y-15773506D01*
X9865137Y-15773506D02*
X9903233Y-15773506D01*
X9903233Y-15773506D02*
X9922280Y-15763982D01*
X9922280Y-15763982D02*
X9931804Y-15754458D01*
X9931804Y-15754458D02*
X9941328Y-15735411D01*
X9941328Y-15735411D02*
X9941328Y-15697315D01*
X9941328Y-15697315D02*
X9931804Y-15678268D01*
X9931804Y-15678268D02*
X9922280Y-15668744D01*
X9922280Y-15668744D02*
X9903233Y-15659220D01*
X10065137Y-15573506D02*
X10084185Y-15573506D01*
X10084185Y-15573506D02*
X10103233Y-15583030D01*
X10103233Y-15583030D02*
X10112756Y-15592553D01*
X10112756Y-15592553D02*
X10122280Y-15611601D01*
X10122280Y-15611601D02*
X10131804Y-15649696D01*
X10131804Y-15649696D02*
X10131804Y-15697315D01*
X10131804Y-15697315D02*
X10122280Y-15735411D01*
X10122280Y-15735411D02*
X10112756Y-15754458D01*
X10112756Y-15754458D02*
X10103233Y-15763982D01*
X10103233Y-15763982D02*
X10084185Y-15773506D01*
X10084185Y-15773506D02*
X10065137Y-15773506D01*
X10065137Y-15773506D02*
X10046090Y-15763982D01*
X10046090Y-15763982D02*
X10036566Y-15754458D01*
X10036566Y-15754458D02*
X10027042Y-15735411D01*
X10027042Y-15735411D02*
X10017518Y-15697315D01*
X10017518Y-15697315D02*
X10017518Y-15649696D01*
X10017518Y-15649696D02*
X10027042Y-15611601D01*
X10027042Y-15611601D02*
X10036566Y-15592553D01*
X10036566Y-15592553D02*
X10046090Y-15583030D01*
X10046090Y-15583030D02*
X10065137Y-15573506D01*
X10255613Y-15573506D02*
X10274661Y-15573506D01*
X10274661Y-15573506D02*
X10293709Y-15583030D01*
X10293709Y-15583030D02*
X10303233Y-15592553D01*
X10303233Y-15592553D02*
X10312756Y-15611601D01*
X10312756Y-15611601D02*
X10322280Y-15649696D01*
X10322280Y-15649696D02*
X10322280Y-15697315D01*
X10322280Y-15697315D02*
X10312756Y-15735411D01*
X10312756Y-15735411D02*
X10303233Y-15754458D01*
X10303233Y-15754458D02*
X10293709Y-15763982D01*
X10293709Y-15763982D02*
X10274661Y-15773506D01*
X10274661Y-15773506D02*
X10255613Y-15773506D01*
X10255613Y-15773506D02*
X10236566Y-15763982D01*
X10236566Y-15763982D02*
X10227042Y-15754458D01*
X10227042Y-15754458D02*
X10217518Y-15735411D01*
X10217518Y-15735411D02*
X10207994Y-15697315D01*
X10207994Y-15697315D02*
X10207994Y-15649696D01*
X10207994Y-15649696D02*
X10217518Y-15611601D01*
X10217518Y-15611601D02*
X10227042Y-15592553D01*
X10227042Y-15592553D02*
X10236566Y-15583030D01*
X10236566Y-15583030D02*
X10255613Y-15573506D01*
X10407994Y-15773506D02*
X10407994Y-15640172D01*
X10407994Y-15659220D02*
X10417518Y-15649696D01*
X10417518Y-15649696D02*
X10436566Y-15640172D01*
X10436566Y-15640172D02*
X10465137Y-15640172D01*
X10465137Y-15640172D02*
X10484185Y-15649696D01*
X10484185Y-15649696D02*
X10493709Y-15668744D01*
X10493709Y-15668744D02*
X10493709Y-15773506D01*
X10493709Y-15668744D02*
X10503233Y-15649696D01*
X10503233Y-15649696D02*
X10522280Y-15640172D01*
X10522280Y-15640172D02*
X10550852Y-15640172D01*
X10550852Y-15640172D02*
X10569899Y-15649696D01*
X10569899Y-15649696D02*
X10579423Y-15668744D01*
X10579423Y-15668744D02*
X10579423Y-15773506D01*
X10674661Y-15773506D02*
X10674661Y-15640172D01*
X10674661Y-15659220D02*
X10684185Y-15649696D01*
X10684185Y-15649696D02*
X10703233Y-15640172D01*
X10703233Y-15640172D02*
X10731804Y-15640172D01*
X10731804Y-15640172D02*
X10750852Y-15649696D01*
X10750852Y-15649696D02*
X10760375Y-15668744D01*
X10760375Y-15668744D02*
X10760375Y-15773506D01*
X10760375Y-15668744D02*
X10769899Y-15649696D01*
X10769899Y-15649696D02*
X10788947Y-15640172D01*
X10788947Y-15640172D02*
X10817518Y-15640172D01*
X10817518Y-15640172D02*
X10836566Y-15649696D01*
X10836566Y-15649696D02*
X10846090Y-15668744D01*
X10846090Y-15668744D02*
X10846090Y-15773506D01*
X11236566Y-15563982D02*
X11065137Y-15821125D01*
X11493709Y-15573506D02*
X11512756Y-15573506D01*
X11512756Y-15573506D02*
X11531804Y-15583030D01*
X11531804Y-15583030D02*
X11541328Y-15592553D01*
X11541328Y-15592553D02*
X11550852Y-15611601D01*
X11550852Y-15611601D02*
X11560375Y-15649696D01*
X11560375Y-15649696D02*
X11560375Y-15697315D01*
X11560375Y-15697315D02*
X11550852Y-15735411D01*
X11550852Y-15735411D02*
X11541328Y-15754458D01*
X11541328Y-15754458D02*
X11531804Y-15763982D01*
X11531804Y-15763982D02*
X11512756Y-15773506D01*
X11512756Y-15773506D02*
X11493709Y-15773506D01*
X11493709Y-15773506D02*
X11474661Y-15763982D01*
X11474661Y-15763982D02*
X11465137Y-15754458D01*
X11465137Y-15754458D02*
X11455614Y-15735411D01*
X11455614Y-15735411D02*
X11446090Y-15697315D01*
X11446090Y-15697315D02*
X11446090Y-15649696D01*
X11446090Y-15649696D02*
X11455614Y-15611601D01*
X11455614Y-15611601D02*
X11465137Y-15592553D01*
X11465137Y-15592553D02*
X11474661Y-15583030D01*
X11474661Y-15583030D02*
X11493709Y-15573506D01*
X11646090Y-15754458D02*
X11655614Y-15763982D01*
X11655614Y-15763982D02*
X11646090Y-15773506D01*
X11646090Y-15773506D02*
X11636566Y-15763982D01*
X11636566Y-15763982D02*
X11646090Y-15754458D01*
X11646090Y-15754458D02*
X11646090Y-15773506D01*
X11779423Y-15573506D02*
X11798471Y-15573506D01*
X11798471Y-15573506D02*
X11817518Y-15583030D01*
X11817518Y-15583030D02*
X11827042Y-15592553D01*
X11827042Y-15592553D02*
X11836566Y-15611601D01*
X11836566Y-15611601D02*
X11846090Y-15649696D01*
X11846090Y-15649696D02*
X11846090Y-15697315D01*
X11846090Y-15697315D02*
X11836566Y-15735411D01*
X11836566Y-15735411D02*
X11827042Y-15754458D01*
X11827042Y-15754458D02*
X11817518Y-15763982D01*
X11817518Y-15763982D02*
X11798471Y-15773506D01*
X11798471Y-15773506D02*
X11779423Y-15773506D01*
X11779423Y-15773506D02*
X11760375Y-15763982D01*
X11760375Y-15763982D02*
X11750852Y-15754458D01*
X11750852Y-15754458D02*
X11741328Y-15735411D01*
X11741328Y-15735411D02*
X11731804Y-15697315D01*
X11731804Y-15697315D02*
X11731804Y-15649696D01*
X11731804Y-15649696D02*
X11741328Y-15611601D01*
X11741328Y-15611601D02*
X11750852Y-15592553D01*
X11750852Y-15592553D02*
X11760375Y-15583030D01*
X11760375Y-15583030D02*
X11779423Y-15573506D01*
X11912756Y-15573506D02*
X12036566Y-15573506D01*
X12036566Y-15573506D02*
X11969899Y-15649696D01*
X11969899Y-15649696D02*
X11998471Y-15649696D01*
X11998471Y-15649696D02*
X12017518Y-15659220D01*
X12017518Y-15659220D02*
X12027042Y-15668744D01*
X12027042Y-15668744D02*
X12036566Y-15687792D01*
X12036566Y-15687792D02*
X12036566Y-15735411D01*
X12036566Y-15735411D02*
X12027042Y-15754458D01*
X12027042Y-15754458D02*
X12017518Y-15763982D01*
X12017518Y-15763982D02*
X11998471Y-15773506D01*
X11998471Y-15773506D02*
X11941328Y-15773506D01*
X11941328Y-15773506D02*
X11922280Y-15763982D01*
X11922280Y-15763982D02*
X11912756Y-15754458D01*
X12227042Y-15773506D02*
X12112756Y-15773506D01*
X12169899Y-15773506D02*
X12169899Y-15573506D01*
X12169899Y-15573506D02*
X12150852Y-15602077D01*
X12150852Y-15602077D02*
X12131804Y-15621125D01*
X12131804Y-15621125D02*
X12112756Y-15630649D01*
X12407995Y-15573506D02*
X12312756Y-15573506D01*
X12312756Y-15573506D02*
X12303233Y-15668744D01*
X12303233Y-15668744D02*
X12312756Y-15659220D01*
X12312756Y-15659220D02*
X12331804Y-15649696D01*
X12331804Y-15649696D02*
X12379423Y-15649696D01*
X12379423Y-15649696D02*
X12398471Y-15659220D01*
X12398471Y-15659220D02*
X12407995Y-15668744D01*
X12407995Y-15668744D02*
X12417518Y-15687792D01*
X12417518Y-15687792D02*
X12417518Y-15735411D01*
X12417518Y-15735411D02*
X12407995Y-15754458D01*
X12407995Y-15754458D02*
X12398471Y-15763982D01*
X12398471Y-15763982D02*
X12379423Y-15773506D01*
X12379423Y-15773506D02*
X12331804Y-15773506D01*
X12331804Y-15773506D02*
X12312756Y-15763982D01*
X12312756Y-15763982D02*
X12303233Y-15754458D01*
X12493709Y-15573506D02*
X12493709Y-15611601D01*
X12569899Y-15573506D02*
X12569899Y-15611601D01*
X12865138Y-15849696D02*
X12855614Y-15840172D01*
X12855614Y-15840172D02*
X12836566Y-15811601D01*
X12836566Y-15811601D02*
X12827042Y-15792553D01*
X12827042Y-15792553D02*
X12817518Y-15763982D01*
X12817518Y-15763982D02*
X12807995Y-15716363D01*
X12807995Y-15716363D02*
X12807995Y-15678268D01*
X12807995Y-15678268D02*
X12817518Y-15630649D01*
X12817518Y-15630649D02*
X12827042Y-15602077D01*
X12827042Y-15602077D02*
X12836566Y-15583030D01*
X12836566Y-15583030D02*
X12855614Y-15554458D01*
X12855614Y-15554458D02*
X12865138Y-15544934D01*
X13046090Y-15773506D02*
X12931804Y-15773506D01*
X12988947Y-15773506D02*
X12988947Y-15573506D01*
X12988947Y-15573506D02*
X12969899Y-15602077D01*
X12969899Y-15602077D02*
X12950852Y-15621125D01*
X12950852Y-15621125D02*
X12931804Y-15630649D01*
X13112757Y-15573506D02*
X13236566Y-15573506D01*
X13236566Y-15573506D02*
X13169899Y-15649696D01*
X13169899Y-15649696D02*
X13198471Y-15649696D01*
X13198471Y-15649696D02*
X13217518Y-15659220D01*
X13217518Y-15659220D02*
X13227042Y-15668744D01*
X13227042Y-15668744D02*
X13236566Y-15687792D01*
X13236566Y-15687792D02*
X13236566Y-15735411D01*
X13236566Y-15735411D02*
X13227042Y-15754458D01*
X13227042Y-15754458D02*
X13217518Y-15763982D01*
X13217518Y-15763982D02*
X13198471Y-15773506D01*
X13198471Y-15773506D02*
X13141328Y-15773506D01*
X13141328Y-15773506D02*
X13122280Y-15763982D01*
X13122280Y-15763982D02*
X13112757Y-15754458D01*
X13474661Y-15773506D02*
X13474661Y-15573506D01*
X13560376Y-15773506D02*
X13560376Y-15668744D01*
X13560376Y-15668744D02*
X13550852Y-15649696D01*
X13550852Y-15649696D02*
X13531804Y-15640172D01*
X13531804Y-15640172D02*
X13503233Y-15640172D01*
X13503233Y-15640172D02*
X13484185Y-15649696D01*
X13484185Y-15649696D02*
X13474661Y-15659220D01*
X13684185Y-15773506D02*
X13665138Y-15763982D01*
X13665138Y-15763982D02*
X13655614Y-15754458D01*
X13655614Y-15754458D02*
X13646090Y-15735411D01*
X13646090Y-15735411D02*
X13646090Y-15678268D01*
X13646090Y-15678268D02*
X13655614Y-15659220D01*
X13655614Y-15659220D02*
X13665138Y-15649696D01*
X13665138Y-15649696D02*
X13684185Y-15640172D01*
X13684185Y-15640172D02*
X13712757Y-15640172D01*
X13712757Y-15640172D02*
X13731804Y-15649696D01*
X13731804Y-15649696D02*
X13741328Y-15659220D01*
X13741328Y-15659220D02*
X13750852Y-15678268D01*
X13750852Y-15678268D02*
X13750852Y-15735411D01*
X13750852Y-15735411D02*
X13741328Y-15754458D01*
X13741328Y-15754458D02*
X13731804Y-15763982D01*
X13731804Y-15763982D02*
X13712757Y-15773506D01*
X13712757Y-15773506D02*
X13684185Y-15773506D01*
X13865138Y-15773506D02*
X13846090Y-15763982D01*
X13846090Y-15763982D02*
X13836566Y-15744934D01*
X13836566Y-15744934D02*
X13836566Y-15573506D01*
X14017519Y-15763982D02*
X13998471Y-15773506D01*
X13998471Y-15773506D02*
X13960376Y-15773506D01*
X13960376Y-15773506D02*
X13941328Y-15763982D01*
X13941328Y-15763982D02*
X13931804Y-15744934D01*
X13931804Y-15744934D02*
X13931804Y-15668744D01*
X13931804Y-15668744D02*
X13941328Y-15649696D01*
X13941328Y-15649696D02*
X13960376Y-15640172D01*
X13960376Y-15640172D02*
X13998471Y-15640172D01*
X13998471Y-15640172D02*
X14017519Y-15649696D01*
X14017519Y-15649696D02*
X14027042Y-15668744D01*
X14027042Y-15668744D02*
X14027042Y-15687792D01*
X14027042Y-15687792D02*
X13931804Y-15706839D01*
X14103233Y-15763982D02*
X14122280Y-15773506D01*
X14122280Y-15773506D02*
X14160376Y-15773506D01*
X14160376Y-15773506D02*
X14179423Y-15763982D01*
X14179423Y-15763982D02*
X14188947Y-15744934D01*
X14188947Y-15744934D02*
X14188947Y-15735411D01*
X14188947Y-15735411D02*
X14179423Y-15716363D01*
X14179423Y-15716363D02*
X14160376Y-15706839D01*
X14160376Y-15706839D02*
X14131804Y-15706839D01*
X14131804Y-15706839D02*
X14112757Y-15697315D01*
X14112757Y-15697315D02*
X14103233Y-15678268D01*
X14103233Y-15678268D02*
X14103233Y-15668744D01*
X14103233Y-15668744D02*
X14112757Y-15649696D01*
X14112757Y-15649696D02*
X14131804Y-15640172D01*
X14131804Y-15640172D02*
X14160376Y-15640172D01*
X14160376Y-15640172D02*
X14179423Y-15649696D01*
X14255614Y-15849696D02*
X14265138Y-15840172D01*
X14265138Y-15840172D02*
X14284185Y-15811601D01*
X14284185Y-15811601D02*
X14293709Y-15792553D01*
X14293709Y-15792553D02*
X14303233Y-15763982D01*
X14303233Y-15763982D02*
X14312757Y-15716363D01*
X14312757Y-15716363D02*
X14312757Y-15678268D01*
X14312757Y-15678268D02*
X14303233Y-15630649D01*
X14303233Y-15630649D02*
X14293709Y-15602077D01*
X14293709Y-15602077D02*
X14284185Y-15583030D01*
X14284185Y-15583030D02*
X14265138Y-15554458D01*
X14265138Y-15554458D02*
X14255614Y-15544934D01*
D12*
X9240075Y-15896022D02*
X9240075Y-15996022D01*
X9190075Y-15946022D02*
X9290075Y-15946022D01*
D11*
X9655613Y-16037506D02*
X9541328Y-16037506D01*
X9598471Y-16037506D02*
X9598471Y-15837506D01*
X9598471Y-15837506D02*
X9579423Y-15866077D01*
X9579423Y-15866077D02*
X9560375Y-15885125D01*
X9560375Y-15885125D02*
X9541328Y-15894649D01*
X9741328Y-16018458D02*
X9750852Y-16027982D01*
X9750852Y-16027982D02*
X9741328Y-16037506D01*
X9741328Y-16037506D02*
X9731804Y-16027982D01*
X9731804Y-16027982D02*
X9741328Y-16018458D01*
X9741328Y-16018458D02*
X9741328Y-16037506D01*
X9874661Y-15837506D02*
X9893709Y-15837506D01*
X9893709Y-15837506D02*
X9912756Y-15847030D01*
X9912756Y-15847030D02*
X9922280Y-15856553D01*
X9922280Y-15856553D02*
X9931804Y-15875601D01*
X9931804Y-15875601D02*
X9941328Y-15913696D01*
X9941328Y-15913696D02*
X9941328Y-15961315D01*
X9941328Y-15961315D02*
X9931804Y-15999411D01*
X9931804Y-15999411D02*
X9922280Y-16018458D01*
X9922280Y-16018458D02*
X9912756Y-16027982D01*
X9912756Y-16027982D02*
X9893709Y-16037506D01*
X9893709Y-16037506D02*
X9874661Y-16037506D01*
X9874661Y-16037506D02*
X9855613Y-16027982D01*
X9855613Y-16027982D02*
X9846090Y-16018458D01*
X9846090Y-16018458D02*
X9836566Y-15999411D01*
X9836566Y-15999411D02*
X9827042Y-15961315D01*
X9827042Y-15961315D02*
X9827042Y-15913696D01*
X9827042Y-15913696D02*
X9836566Y-15875601D01*
X9836566Y-15875601D02*
X9846090Y-15856553D01*
X9846090Y-15856553D02*
X9855613Y-15847030D01*
X9855613Y-15847030D02*
X9874661Y-15837506D01*
X10065137Y-15837506D02*
X10084185Y-15837506D01*
X10084185Y-15837506D02*
X10103233Y-15847030D01*
X10103233Y-15847030D02*
X10112756Y-15856553D01*
X10112756Y-15856553D02*
X10122280Y-15875601D01*
X10122280Y-15875601D02*
X10131804Y-15913696D01*
X10131804Y-15913696D02*
X10131804Y-15961315D01*
X10131804Y-15961315D02*
X10122280Y-15999411D01*
X10122280Y-15999411D02*
X10112756Y-16018458D01*
X10112756Y-16018458D02*
X10103233Y-16027982D01*
X10103233Y-16027982D02*
X10084185Y-16037506D01*
X10084185Y-16037506D02*
X10065137Y-16037506D01*
X10065137Y-16037506D02*
X10046090Y-16027982D01*
X10046090Y-16027982D02*
X10036566Y-16018458D01*
X10036566Y-16018458D02*
X10027042Y-15999411D01*
X10027042Y-15999411D02*
X10017518Y-15961315D01*
X10017518Y-15961315D02*
X10017518Y-15913696D01*
X10017518Y-15913696D02*
X10027042Y-15875601D01*
X10027042Y-15875601D02*
X10036566Y-15856553D01*
X10036566Y-15856553D02*
X10046090Y-15847030D01*
X10046090Y-15847030D02*
X10065137Y-15837506D01*
X10255613Y-15837506D02*
X10274661Y-15837506D01*
X10274661Y-15837506D02*
X10293709Y-15847030D01*
X10293709Y-15847030D02*
X10303233Y-15856553D01*
X10303233Y-15856553D02*
X10312756Y-15875601D01*
X10312756Y-15875601D02*
X10322280Y-15913696D01*
X10322280Y-15913696D02*
X10322280Y-15961315D01*
X10322280Y-15961315D02*
X10312756Y-15999411D01*
X10312756Y-15999411D02*
X10303233Y-16018458D01*
X10303233Y-16018458D02*
X10293709Y-16027982D01*
X10293709Y-16027982D02*
X10274661Y-16037506D01*
X10274661Y-16037506D02*
X10255613Y-16037506D01*
X10255613Y-16037506D02*
X10236566Y-16027982D01*
X10236566Y-16027982D02*
X10227042Y-16018458D01*
X10227042Y-16018458D02*
X10217518Y-15999411D01*
X10217518Y-15999411D02*
X10207994Y-15961315D01*
X10207994Y-15961315D02*
X10207994Y-15913696D01*
X10207994Y-15913696D02*
X10217518Y-15875601D01*
X10217518Y-15875601D02*
X10227042Y-15856553D01*
X10227042Y-15856553D02*
X10236566Y-15847030D01*
X10236566Y-15847030D02*
X10255613Y-15837506D01*
X10407994Y-16037506D02*
X10407994Y-15904172D01*
X10407994Y-15923220D02*
X10417518Y-15913696D01*
X10417518Y-15913696D02*
X10436566Y-15904172D01*
X10436566Y-15904172D02*
X10465137Y-15904172D01*
X10465137Y-15904172D02*
X10484185Y-15913696D01*
X10484185Y-15913696D02*
X10493709Y-15932744D01*
X10493709Y-15932744D02*
X10493709Y-16037506D01*
X10493709Y-15932744D02*
X10503233Y-15913696D01*
X10503233Y-15913696D02*
X10522280Y-15904172D01*
X10522280Y-15904172D02*
X10550852Y-15904172D01*
X10550852Y-15904172D02*
X10569899Y-15913696D01*
X10569899Y-15913696D02*
X10579423Y-15932744D01*
X10579423Y-15932744D02*
X10579423Y-16037506D01*
X10674661Y-16037506D02*
X10674661Y-15904172D01*
X10674661Y-15923220D02*
X10684185Y-15913696D01*
X10684185Y-15913696D02*
X10703233Y-15904172D01*
X10703233Y-15904172D02*
X10731804Y-15904172D01*
X10731804Y-15904172D02*
X10750852Y-15913696D01*
X10750852Y-15913696D02*
X10760375Y-15932744D01*
X10760375Y-15932744D02*
X10760375Y-16037506D01*
X10760375Y-15932744D02*
X10769899Y-15913696D01*
X10769899Y-15913696D02*
X10788947Y-15904172D01*
X10788947Y-15904172D02*
X10817518Y-15904172D01*
X10817518Y-15904172D02*
X10836566Y-15913696D01*
X10836566Y-15913696D02*
X10846090Y-15932744D01*
X10846090Y-15932744D02*
X10846090Y-16037506D01*
X11236566Y-15827982D02*
X11065137Y-16085125D01*
X11493709Y-15837506D02*
X11512756Y-15837506D01*
X11512756Y-15837506D02*
X11531804Y-15847030D01*
X11531804Y-15847030D02*
X11541328Y-15856553D01*
X11541328Y-15856553D02*
X11550852Y-15875601D01*
X11550852Y-15875601D02*
X11560375Y-15913696D01*
X11560375Y-15913696D02*
X11560375Y-15961315D01*
X11560375Y-15961315D02*
X11550852Y-15999411D01*
X11550852Y-15999411D02*
X11541328Y-16018458D01*
X11541328Y-16018458D02*
X11531804Y-16027982D01*
X11531804Y-16027982D02*
X11512756Y-16037506D01*
X11512756Y-16037506D02*
X11493709Y-16037506D01*
X11493709Y-16037506D02*
X11474661Y-16027982D01*
X11474661Y-16027982D02*
X11465137Y-16018458D01*
X11465137Y-16018458D02*
X11455614Y-15999411D01*
X11455614Y-15999411D02*
X11446090Y-15961315D01*
X11446090Y-15961315D02*
X11446090Y-15913696D01*
X11446090Y-15913696D02*
X11455614Y-15875601D01*
X11455614Y-15875601D02*
X11465137Y-15856553D01*
X11465137Y-15856553D02*
X11474661Y-15847030D01*
X11474661Y-15847030D02*
X11493709Y-15837506D01*
X11646090Y-16018458D02*
X11655614Y-16027982D01*
X11655614Y-16027982D02*
X11646090Y-16037506D01*
X11646090Y-16037506D02*
X11636566Y-16027982D01*
X11636566Y-16027982D02*
X11646090Y-16018458D01*
X11646090Y-16018458D02*
X11646090Y-16037506D01*
X11779423Y-15837506D02*
X11798471Y-15837506D01*
X11798471Y-15837506D02*
X11817518Y-15847030D01*
X11817518Y-15847030D02*
X11827042Y-15856553D01*
X11827042Y-15856553D02*
X11836566Y-15875601D01*
X11836566Y-15875601D02*
X11846090Y-15913696D01*
X11846090Y-15913696D02*
X11846090Y-15961315D01*
X11846090Y-15961315D02*
X11836566Y-15999411D01*
X11836566Y-15999411D02*
X11827042Y-16018458D01*
X11827042Y-16018458D02*
X11817518Y-16027982D01*
X11817518Y-16027982D02*
X11798471Y-16037506D01*
X11798471Y-16037506D02*
X11779423Y-16037506D01*
X11779423Y-16037506D02*
X11760375Y-16027982D01*
X11760375Y-16027982D02*
X11750852Y-16018458D01*
X11750852Y-16018458D02*
X11741328Y-15999411D01*
X11741328Y-15999411D02*
X11731804Y-15961315D01*
X11731804Y-15961315D02*
X11731804Y-15913696D01*
X11731804Y-15913696D02*
X11741328Y-15875601D01*
X11741328Y-15875601D02*
X11750852Y-15856553D01*
X11750852Y-15856553D02*
X11760375Y-15847030D01*
X11760375Y-15847030D02*
X11779423Y-15837506D01*
X11912756Y-15837506D02*
X12036566Y-15837506D01*
X12036566Y-15837506D02*
X11969899Y-15913696D01*
X11969899Y-15913696D02*
X11998471Y-15913696D01*
X11998471Y-15913696D02*
X12017518Y-15923220D01*
X12017518Y-15923220D02*
X12027042Y-15932744D01*
X12027042Y-15932744D02*
X12036566Y-15951792D01*
X12036566Y-15951792D02*
X12036566Y-15999411D01*
X12036566Y-15999411D02*
X12027042Y-16018458D01*
X12027042Y-16018458D02*
X12017518Y-16027982D01*
X12017518Y-16027982D02*
X11998471Y-16037506D01*
X11998471Y-16037506D02*
X11941328Y-16037506D01*
X11941328Y-16037506D02*
X11922280Y-16027982D01*
X11922280Y-16027982D02*
X11912756Y-16018458D01*
X12131804Y-16037506D02*
X12169899Y-16037506D01*
X12169899Y-16037506D02*
X12188947Y-16027982D01*
X12188947Y-16027982D02*
X12198471Y-16018458D01*
X12198471Y-16018458D02*
X12217518Y-15989887D01*
X12217518Y-15989887D02*
X12227042Y-15951792D01*
X12227042Y-15951792D02*
X12227042Y-15875601D01*
X12227042Y-15875601D02*
X12217518Y-15856553D01*
X12217518Y-15856553D02*
X12207995Y-15847030D01*
X12207995Y-15847030D02*
X12188947Y-15837506D01*
X12188947Y-15837506D02*
X12150852Y-15837506D01*
X12150852Y-15837506D02*
X12131804Y-15847030D01*
X12131804Y-15847030D02*
X12122280Y-15856553D01*
X12122280Y-15856553D02*
X12112756Y-15875601D01*
X12112756Y-15875601D02*
X12112756Y-15923220D01*
X12112756Y-15923220D02*
X12122280Y-15942268D01*
X12122280Y-15942268D02*
X12131804Y-15951792D01*
X12131804Y-15951792D02*
X12150852Y-15961315D01*
X12150852Y-15961315D02*
X12188947Y-15961315D01*
X12188947Y-15961315D02*
X12207995Y-15951792D01*
X12207995Y-15951792D02*
X12217518Y-15942268D01*
X12217518Y-15942268D02*
X12227042Y-15923220D01*
X12398471Y-15904172D02*
X12398471Y-16037506D01*
X12350852Y-15827982D02*
X12303233Y-15970839D01*
X12303233Y-15970839D02*
X12427042Y-15970839D01*
X12493709Y-15837506D02*
X12493709Y-15875601D01*
X12569899Y-15837506D02*
X12569899Y-15875601D01*
X12865138Y-16113696D02*
X12855614Y-16104172D01*
X12855614Y-16104172D02*
X12836566Y-16075601D01*
X12836566Y-16075601D02*
X12827042Y-16056553D01*
X12827042Y-16056553D02*
X12817518Y-16027982D01*
X12817518Y-16027982D02*
X12807995Y-15980363D01*
X12807995Y-15980363D02*
X12807995Y-15942268D01*
X12807995Y-15942268D02*
X12817518Y-15894649D01*
X12817518Y-15894649D02*
X12827042Y-15866077D01*
X12827042Y-15866077D02*
X12836566Y-15847030D01*
X12836566Y-15847030D02*
X12855614Y-15818458D01*
X12855614Y-15818458D02*
X12865138Y-15808934D01*
X13046090Y-16037506D02*
X12931804Y-16037506D01*
X12988947Y-16037506D02*
X12988947Y-15837506D01*
X12988947Y-15837506D02*
X12969899Y-15866077D01*
X12969899Y-15866077D02*
X12950852Y-15885125D01*
X12950852Y-15885125D02*
X12931804Y-15894649D01*
X13169899Y-15837506D02*
X13188947Y-15837506D01*
X13188947Y-15837506D02*
X13207995Y-15847030D01*
X13207995Y-15847030D02*
X13217518Y-15856553D01*
X13217518Y-15856553D02*
X13227042Y-15875601D01*
X13227042Y-15875601D02*
X13236566Y-15913696D01*
X13236566Y-15913696D02*
X13236566Y-15961315D01*
X13236566Y-15961315D02*
X13227042Y-15999411D01*
X13227042Y-15999411D02*
X13217518Y-16018458D01*
X13217518Y-16018458D02*
X13207995Y-16027982D01*
X13207995Y-16027982D02*
X13188947Y-16037506D01*
X13188947Y-16037506D02*
X13169899Y-16037506D01*
X13169899Y-16037506D02*
X13150852Y-16027982D01*
X13150852Y-16027982D02*
X13141328Y-16018458D01*
X13141328Y-16018458D02*
X13131804Y-15999411D01*
X13131804Y-15999411D02*
X13122280Y-15961315D01*
X13122280Y-15961315D02*
X13122280Y-15913696D01*
X13122280Y-15913696D02*
X13131804Y-15875601D01*
X13131804Y-15875601D02*
X13141328Y-15856553D01*
X13141328Y-15856553D02*
X13150852Y-15847030D01*
X13150852Y-15847030D02*
X13169899Y-15837506D01*
X13474661Y-16037506D02*
X13474661Y-15837506D01*
X13560376Y-16037506D02*
X13560376Y-15932744D01*
X13560376Y-15932744D02*
X13550852Y-15913696D01*
X13550852Y-15913696D02*
X13531804Y-15904172D01*
X13531804Y-15904172D02*
X13503233Y-15904172D01*
X13503233Y-15904172D02*
X13484185Y-15913696D01*
X13484185Y-15913696D02*
X13474661Y-15923220D01*
X13684185Y-16037506D02*
X13665138Y-16027982D01*
X13665138Y-16027982D02*
X13655614Y-16018458D01*
X13655614Y-16018458D02*
X13646090Y-15999411D01*
X13646090Y-15999411D02*
X13646090Y-15942268D01*
X13646090Y-15942268D02*
X13655614Y-15923220D01*
X13655614Y-15923220D02*
X13665138Y-15913696D01*
X13665138Y-15913696D02*
X13684185Y-15904172D01*
X13684185Y-15904172D02*
X13712757Y-15904172D01*
X13712757Y-15904172D02*
X13731804Y-15913696D01*
X13731804Y-15913696D02*
X13741328Y-15923220D01*
X13741328Y-15923220D02*
X13750852Y-15942268D01*
X13750852Y-15942268D02*
X13750852Y-15999411D01*
X13750852Y-15999411D02*
X13741328Y-16018458D01*
X13741328Y-16018458D02*
X13731804Y-16027982D01*
X13731804Y-16027982D02*
X13712757Y-16037506D01*
X13712757Y-16037506D02*
X13684185Y-16037506D01*
X13865138Y-16037506D02*
X13846090Y-16027982D01*
X13846090Y-16027982D02*
X13836566Y-16008934D01*
X13836566Y-16008934D02*
X13836566Y-15837506D01*
X14017519Y-16027982D02*
X13998471Y-16037506D01*
X13998471Y-16037506D02*
X13960376Y-16037506D01*
X13960376Y-16037506D02*
X13941328Y-16027982D01*
X13941328Y-16027982D02*
X13931804Y-16008934D01*
X13931804Y-16008934D02*
X13931804Y-15932744D01*
X13931804Y-15932744D02*
X13941328Y-15913696D01*
X13941328Y-15913696D02*
X13960376Y-15904172D01*
X13960376Y-15904172D02*
X13998471Y-15904172D01*
X13998471Y-15904172D02*
X14017519Y-15913696D01*
X14017519Y-15913696D02*
X14027042Y-15932744D01*
X14027042Y-15932744D02*
X14027042Y-15951792D01*
X14027042Y-15951792D02*
X13931804Y-15970839D01*
X14103233Y-16027982D02*
X14122280Y-16037506D01*
X14122280Y-16037506D02*
X14160376Y-16037506D01*
X14160376Y-16037506D02*
X14179423Y-16027982D01*
X14179423Y-16027982D02*
X14188947Y-16008934D01*
X14188947Y-16008934D02*
X14188947Y-15999411D01*
X14188947Y-15999411D02*
X14179423Y-15980363D01*
X14179423Y-15980363D02*
X14160376Y-15970839D01*
X14160376Y-15970839D02*
X14131804Y-15970839D01*
X14131804Y-15970839D02*
X14112757Y-15961315D01*
X14112757Y-15961315D02*
X14103233Y-15942268D01*
X14103233Y-15942268D02*
X14103233Y-15932744D01*
X14103233Y-15932744D02*
X14112757Y-15913696D01*
X14112757Y-15913696D02*
X14131804Y-15904172D01*
X14131804Y-15904172D02*
X14160376Y-15904172D01*
X14160376Y-15904172D02*
X14179423Y-15913696D01*
X14255614Y-16113696D02*
X14265138Y-16104172D01*
X14265138Y-16104172D02*
X14284185Y-16075601D01*
X14284185Y-16075601D02*
X14293709Y-16056553D01*
X14293709Y-16056553D02*
X14303233Y-16027982D01*
X14303233Y-16027982D02*
X14312757Y-15980363D01*
X14312757Y-15980363D02*
X14312757Y-15942268D01*
X14312757Y-15942268D02*
X14303233Y-15894649D01*
X14303233Y-15894649D02*
X14293709Y-15866077D01*
X14293709Y-15866077D02*
X14284185Y-15847030D01*
X14284185Y-15847030D02*
X14265138Y-15818458D01*
X14265138Y-15818458D02*
X14255614Y-15808934D01*
D13*
X9274112Y-16248560D02*
X9274112Y-16171484D01*
X9197037Y-16171484D01*
X9197037Y-16248560D01*
X9274112Y-16248560D01*
D11*
X9655613Y-16301506D02*
X9541328Y-16301506D01*
X9598471Y-16301506D02*
X9598471Y-16101506D01*
X9598471Y-16101506D02*
X9579423Y-16130077D01*
X9579423Y-16130077D02*
X9560375Y-16149125D01*
X9560375Y-16149125D02*
X9541328Y-16158649D01*
X9741328Y-16282458D02*
X9750852Y-16291982D01*
X9750852Y-16291982D02*
X9741328Y-16301506D01*
X9741328Y-16301506D02*
X9731804Y-16291982D01*
X9731804Y-16291982D02*
X9741328Y-16282458D01*
X9741328Y-16282458D02*
X9741328Y-16301506D01*
X9874661Y-16101506D02*
X9893709Y-16101506D01*
X9893709Y-16101506D02*
X9912756Y-16111030D01*
X9912756Y-16111030D02*
X9922280Y-16120553D01*
X9922280Y-16120553D02*
X9931804Y-16139601D01*
X9931804Y-16139601D02*
X9941328Y-16177696D01*
X9941328Y-16177696D02*
X9941328Y-16225315D01*
X9941328Y-16225315D02*
X9931804Y-16263411D01*
X9931804Y-16263411D02*
X9922280Y-16282458D01*
X9922280Y-16282458D02*
X9912756Y-16291982D01*
X9912756Y-16291982D02*
X9893709Y-16301506D01*
X9893709Y-16301506D02*
X9874661Y-16301506D01*
X9874661Y-16301506D02*
X9855613Y-16291982D01*
X9855613Y-16291982D02*
X9846090Y-16282458D01*
X9846090Y-16282458D02*
X9836566Y-16263411D01*
X9836566Y-16263411D02*
X9827042Y-16225315D01*
X9827042Y-16225315D02*
X9827042Y-16177696D01*
X9827042Y-16177696D02*
X9836566Y-16139601D01*
X9836566Y-16139601D02*
X9846090Y-16120553D01*
X9846090Y-16120553D02*
X9855613Y-16111030D01*
X9855613Y-16111030D02*
X9874661Y-16101506D01*
X10036566Y-16301506D02*
X10074661Y-16301506D01*
X10074661Y-16301506D02*
X10093709Y-16291982D01*
X10093709Y-16291982D02*
X10103233Y-16282458D01*
X10103233Y-16282458D02*
X10122280Y-16253887D01*
X10122280Y-16253887D02*
X10131804Y-16215792D01*
X10131804Y-16215792D02*
X10131804Y-16139601D01*
X10131804Y-16139601D02*
X10122280Y-16120553D01*
X10122280Y-16120553D02*
X10112756Y-16111030D01*
X10112756Y-16111030D02*
X10093709Y-16101506D01*
X10093709Y-16101506D02*
X10055613Y-16101506D01*
X10055613Y-16101506D02*
X10036566Y-16111030D01*
X10036566Y-16111030D02*
X10027042Y-16120553D01*
X10027042Y-16120553D02*
X10017518Y-16139601D01*
X10017518Y-16139601D02*
X10017518Y-16187220D01*
X10017518Y-16187220D02*
X10027042Y-16206268D01*
X10027042Y-16206268D02*
X10036566Y-16215792D01*
X10036566Y-16215792D02*
X10055613Y-16225315D01*
X10055613Y-16225315D02*
X10093709Y-16225315D01*
X10093709Y-16225315D02*
X10112756Y-16215792D01*
X10112756Y-16215792D02*
X10122280Y-16206268D01*
X10122280Y-16206268D02*
X10131804Y-16187220D01*
X10255613Y-16101506D02*
X10274661Y-16101506D01*
X10274661Y-16101506D02*
X10293709Y-16111030D01*
X10293709Y-16111030D02*
X10303233Y-16120553D01*
X10303233Y-16120553D02*
X10312756Y-16139601D01*
X10312756Y-16139601D02*
X10322280Y-16177696D01*
X10322280Y-16177696D02*
X10322280Y-16225315D01*
X10322280Y-16225315D02*
X10312756Y-16263411D01*
X10312756Y-16263411D02*
X10303233Y-16282458D01*
X10303233Y-16282458D02*
X10293709Y-16291982D01*
X10293709Y-16291982D02*
X10274661Y-16301506D01*
X10274661Y-16301506D02*
X10255613Y-16301506D01*
X10255613Y-16301506D02*
X10236566Y-16291982D01*
X10236566Y-16291982D02*
X10227042Y-16282458D01*
X10227042Y-16282458D02*
X10217518Y-16263411D01*
X10217518Y-16263411D02*
X10207994Y-16225315D01*
X10207994Y-16225315D02*
X10207994Y-16177696D01*
X10207994Y-16177696D02*
X10217518Y-16139601D01*
X10217518Y-16139601D02*
X10227042Y-16120553D01*
X10227042Y-16120553D02*
X10236566Y-16111030D01*
X10236566Y-16111030D02*
X10255613Y-16101506D01*
X10407994Y-16301506D02*
X10407994Y-16168172D01*
X10407994Y-16187220D02*
X10417518Y-16177696D01*
X10417518Y-16177696D02*
X10436566Y-16168172D01*
X10436566Y-16168172D02*
X10465137Y-16168172D01*
X10465137Y-16168172D02*
X10484185Y-16177696D01*
X10484185Y-16177696D02*
X10493709Y-16196744D01*
X10493709Y-16196744D02*
X10493709Y-16301506D01*
X10493709Y-16196744D02*
X10503233Y-16177696D01*
X10503233Y-16177696D02*
X10522280Y-16168172D01*
X10522280Y-16168172D02*
X10550852Y-16168172D01*
X10550852Y-16168172D02*
X10569899Y-16177696D01*
X10569899Y-16177696D02*
X10579423Y-16196744D01*
X10579423Y-16196744D02*
X10579423Y-16301506D01*
X10674661Y-16301506D02*
X10674661Y-16168172D01*
X10674661Y-16187220D02*
X10684185Y-16177696D01*
X10684185Y-16177696D02*
X10703233Y-16168172D01*
X10703233Y-16168172D02*
X10731804Y-16168172D01*
X10731804Y-16168172D02*
X10750852Y-16177696D01*
X10750852Y-16177696D02*
X10760375Y-16196744D01*
X10760375Y-16196744D02*
X10760375Y-16301506D01*
X10760375Y-16196744D02*
X10769899Y-16177696D01*
X10769899Y-16177696D02*
X10788947Y-16168172D01*
X10788947Y-16168172D02*
X10817518Y-16168172D01*
X10817518Y-16168172D02*
X10836566Y-16177696D01*
X10836566Y-16177696D02*
X10846090Y-16196744D01*
X10846090Y-16196744D02*
X10846090Y-16301506D01*
X11236566Y-16091982D02*
X11065137Y-16349125D01*
X11493709Y-16101506D02*
X11512756Y-16101506D01*
X11512756Y-16101506D02*
X11531804Y-16111030D01*
X11531804Y-16111030D02*
X11541328Y-16120553D01*
X11541328Y-16120553D02*
X11550852Y-16139601D01*
X11550852Y-16139601D02*
X11560375Y-16177696D01*
X11560375Y-16177696D02*
X11560375Y-16225315D01*
X11560375Y-16225315D02*
X11550852Y-16263411D01*
X11550852Y-16263411D02*
X11541328Y-16282458D01*
X11541328Y-16282458D02*
X11531804Y-16291982D01*
X11531804Y-16291982D02*
X11512756Y-16301506D01*
X11512756Y-16301506D02*
X11493709Y-16301506D01*
X11493709Y-16301506D02*
X11474661Y-16291982D01*
X11474661Y-16291982D02*
X11465137Y-16282458D01*
X11465137Y-16282458D02*
X11455614Y-16263411D01*
X11455614Y-16263411D02*
X11446090Y-16225315D01*
X11446090Y-16225315D02*
X11446090Y-16177696D01*
X11446090Y-16177696D02*
X11455614Y-16139601D01*
X11455614Y-16139601D02*
X11465137Y-16120553D01*
X11465137Y-16120553D02*
X11474661Y-16111030D01*
X11474661Y-16111030D02*
X11493709Y-16101506D01*
X11646090Y-16282458D02*
X11655614Y-16291982D01*
X11655614Y-16291982D02*
X11646090Y-16301506D01*
X11646090Y-16301506D02*
X11636566Y-16291982D01*
X11636566Y-16291982D02*
X11646090Y-16282458D01*
X11646090Y-16282458D02*
X11646090Y-16301506D01*
X11779423Y-16101506D02*
X11798471Y-16101506D01*
X11798471Y-16101506D02*
X11817518Y-16111030D01*
X11817518Y-16111030D02*
X11827042Y-16120553D01*
X11827042Y-16120553D02*
X11836566Y-16139601D01*
X11836566Y-16139601D02*
X11846090Y-16177696D01*
X11846090Y-16177696D02*
X11846090Y-16225315D01*
X11846090Y-16225315D02*
X11836566Y-16263411D01*
X11836566Y-16263411D02*
X11827042Y-16282458D01*
X11827042Y-16282458D02*
X11817518Y-16291982D01*
X11817518Y-16291982D02*
X11798471Y-16301506D01*
X11798471Y-16301506D02*
X11779423Y-16301506D01*
X11779423Y-16301506D02*
X11760375Y-16291982D01*
X11760375Y-16291982D02*
X11750852Y-16282458D01*
X11750852Y-16282458D02*
X11741328Y-16263411D01*
X11741328Y-16263411D02*
X11731804Y-16225315D01*
X11731804Y-16225315D02*
X11731804Y-16177696D01*
X11731804Y-16177696D02*
X11741328Y-16139601D01*
X11741328Y-16139601D02*
X11750852Y-16120553D01*
X11750852Y-16120553D02*
X11760375Y-16111030D01*
X11760375Y-16111030D02*
X11779423Y-16101506D01*
X12017518Y-16168172D02*
X12017518Y-16301506D01*
X11969899Y-16091982D02*
X11922280Y-16234839D01*
X11922280Y-16234839D02*
X12046090Y-16234839D01*
X12112756Y-16120553D02*
X12122280Y-16111030D01*
X12122280Y-16111030D02*
X12141328Y-16101506D01*
X12141328Y-16101506D02*
X12188947Y-16101506D01*
X12188947Y-16101506D02*
X12207995Y-16111030D01*
X12207995Y-16111030D02*
X12217518Y-16120553D01*
X12217518Y-16120553D02*
X12227042Y-16139601D01*
X12227042Y-16139601D02*
X12227042Y-16158649D01*
X12227042Y-16158649D02*
X12217518Y-16187220D01*
X12217518Y-16187220D02*
X12103233Y-16301506D01*
X12103233Y-16301506D02*
X12227042Y-16301506D01*
X12322280Y-16301506D02*
X12360375Y-16301506D01*
X12360375Y-16301506D02*
X12379423Y-16291982D01*
X12379423Y-16291982D02*
X12388947Y-16282458D01*
X12388947Y-16282458D02*
X12407995Y-16253887D01*
X12407995Y-16253887D02*
X12417518Y-16215792D01*
X12417518Y-16215792D02*
X12417518Y-16139601D01*
X12417518Y-16139601D02*
X12407995Y-16120553D01*
X12407995Y-16120553D02*
X12398471Y-16111030D01*
X12398471Y-16111030D02*
X12379423Y-16101506D01*
X12379423Y-16101506D02*
X12341328Y-16101506D01*
X12341328Y-16101506D02*
X12322280Y-16111030D01*
X12322280Y-16111030D02*
X12312756Y-16120553D01*
X12312756Y-16120553D02*
X12303233Y-16139601D01*
X12303233Y-16139601D02*
X12303233Y-16187220D01*
X12303233Y-16187220D02*
X12312756Y-16206268D01*
X12312756Y-16206268D02*
X12322280Y-16215792D01*
X12322280Y-16215792D02*
X12341328Y-16225315D01*
X12341328Y-16225315D02*
X12379423Y-16225315D01*
X12379423Y-16225315D02*
X12398471Y-16215792D01*
X12398471Y-16215792D02*
X12407995Y-16206268D01*
X12407995Y-16206268D02*
X12417518Y-16187220D01*
X12493709Y-16101506D02*
X12493709Y-16139601D01*
X12569899Y-16101506D02*
X12569899Y-16139601D01*
X12865138Y-16377696D02*
X12855614Y-16368172D01*
X12855614Y-16368172D02*
X12836566Y-16339601D01*
X12836566Y-16339601D02*
X12827042Y-16320553D01*
X12827042Y-16320553D02*
X12817518Y-16291982D01*
X12817518Y-16291982D02*
X12807995Y-16244363D01*
X12807995Y-16244363D02*
X12807995Y-16206268D01*
X12807995Y-16206268D02*
X12817518Y-16158649D01*
X12817518Y-16158649D02*
X12827042Y-16130077D01*
X12827042Y-16130077D02*
X12836566Y-16111030D01*
X12836566Y-16111030D02*
X12855614Y-16082458D01*
X12855614Y-16082458D02*
X12865138Y-16072934D01*
X12969899Y-16187220D02*
X12950852Y-16177696D01*
X12950852Y-16177696D02*
X12941328Y-16168172D01*
X12941328Y-16168172D02*
X12931804Y-16149125D01*
X12931804Y-16149125D02*
X12931804Y-16139601D01*
X12931804Y-16139601D02*
X12941328Y-16120553D01*
X12941328Y-16120553D02*
X12950852Y-16111030D01*
X12950852Y-16111030D02*
X12969899Y-16101506D01*
X12969899Y-16101506D02*
X13007995Y-16101506D01*
X13007995Y-16101506D02*
X13027042Y-16111030D01*
X13027042Y-16111030D02*
X13036566Y-16120553D01*
X13036566Y-16120553D02*
X13046090Y-16139601D01*
X13046090Y-16139601D02*
X13046090Y-16149125D01*
X13046090Y-16149125D02*
X13036566Y-16168172D01*
X13036566Y-16168172D02*
X13027042Y-16177696D01*
X13027042Y-16177696D02*
X13007995Y-16187220D01*
X13007995Y-16187220D02*
X12969899Y-16187220D01*
X12969899Y-16187220D02*
X12950852Y-16196744D01*
X12950852Y-16196744D02*
X12941328Y-16206268D01*
X12941328Y-16206268D02*
X12931804Y-16225315D01*
X12931804Y-16225315D02*
X12931804Y-16263411D01*
X12931804Y-16263411D02*
X12941328Y-16282458D01*
X12941328Y-16282458D02*
X12950852Y-16291982D01*
X12950852Y-16291982D02*
X12969899Y-16301506D01*
X12969899Y-16301506D02*
X13007995Y-16301506D01*
X13007995Y-16301506D02*
X13027042Y-16291982D01*
X13027042Y-16291982D02*
X13036566Y-16282458D01*
X13036566Y-16282458D02*
X13046090Y-16263411D01*
X13046090Y-16263411D02*
X13046090Y-16225315D01*
X13046090Y-16225315D02*
X13036566Y-16206268D01*
X13036566Y-16206268D02*
X13027042Y-16196744D01*
X13027042Y-16196744D02*
X13007995Y-16187220D01*
X13217518Y-16101506D02*
X13179423Y-16101506D01*
X13179423Y-16101506D02*
X13160376Y-16111030D01*
X13160376Y-16111030D02*
X13150852Y-16120553D01*
X13150852Y-16120553D02*
X13131804Y-16149125D01*
X13131804Y-16149125D02*
X13122280Y-16187220D01*
X13122280Y-16187220D02*
X13122280Y-16263411D01*
X13122280Y-16263411D02*
X13131804Y-16282458D01*
X13131804Y-16282458D02*
X13141328Y-16291982D01*
X13141328Y-16291982D02*
X13160376Y-16301506D01*
X13160376Y-16301506D02*
X13198471Y-16301506D01*
X13198471Y-16301506D02*
X13217518Y-16291982D01*
X13217518Y-16291982D02*
X13227042Y-16282458D01*
X13227042Y-16282458D02*
X13236566Y-16263411D01*
X13236566Y-16263411D02*
X13236566Y-16215792D01*
X13236566Y-16215792D02*
X13227042Y-16196744D01*
X13227042Y-16196744D02*
X13217518Y-16187220D01*
X13217518Y-16187220D02*
X13198471Y-16177696D01*
X13198471Y-16177696D02*
X13160376Y-16177696D01*
X13160376Y-16177696D02*
X13141328Y-16187220D01*
X13141328Y-16187220D02*
X13131804Y-16196744D01*
X13131804Y-16196744D02*
X13122280Y-16215792D01*
X13474661Y-16301506D02*
X13474661Y-16101506D01*
X13560376Y-16301506D02*
X13560376Y-16196744D01*
X13560376Y-16196744D02*
X13550852Y-16177696D01*
X13550852Y-16177696D02*
X13531804Y-16168172D01*
X13531804Y-16168172D02*
X13503233Y-16168172D01*
X13503233Y-16168172D02*
X13484185Y-16177696D01*
X13484185Y-16177696D02*
X13474661Y-16187220D01*
X13684185Y-16301506D02*
X13665138Y-16291982D01*
X13665138Y-16291982D02*
X13655614Y-16282458D01*
X13655614Y-16282458D02*
X13646090Y-16263411D01*
X13646090Y-16263411D02*
X13646090Y-16206268D01*
X13646090Y-16206268D02*
X13655614Y-16187220D01*
X13655614Y-16187220D02*
X13665138Y-16177696D01*
X13665138Y-16177696D02*
X13684185Y-16168172D01*
X13684185Y-16168172D02*
X13712757Y-16168172D01*
X13712757Y-16168172D02*
X13731804Y-16177696D01*
X13731804Y-16177696D02*
X13741328Y-16187220D01*
X13741328Y-16187220D02*
X13750852Y-16206268D01*
X13750852Y-16206268D02*
X13750852Y-16263411D01*
X13750852Y-16263411D02*
X13741328Y-16282458D01*
X13741328Y-16282458D02*
X13731804Y-16291982D01*
X13731804Y-16291982D02*
X13712757Y-16301506D01*
X13712757Y-16301506D02*
X13684185Y-16301506D01*
X13865138Y-16301506D02*
X13846090Y-16291982D01*
X13846090Y-16291982D02*
X13836566Y-16272934D01*
X13836566Y-16272934D02*
X13836566Y-16101506D01*
X14017519Y-16291982D02*
X13998471Y-16301506D01*
X13998471Y-16301506D02*
X13960376Y-16301506D01*
X13960376Y-16301506D02*
X13941328Y-16291982D01*
X13941328Y-16291982D02*
X13931804Y-16272934D01*
X13931804Y-16272934D02*
X13931804Y-16196744D01*
X13931804Y-16196744D02*
X13941328Y-16177696D01*
X13941328Y-16177696D02*
X13960376Y-16168172D01*
X13960376Y-16168172D02*
X13998471Y-16168172D01*
X13998471Y-16168172D02*
X14017519Y-16177696D01*
X14017519Y-16177696D02*
X14027042Y-16196744D01*
X14027042Y-16196744D02*
X14027042Y-16215792D01*
X14027042Y-16215792D02*
X13931804Y-16234839D01*
X14103233Y-16291982D02*
X14122280Y-16301506D01*
X14122280Y-16301506D02*
X14160376Y-16301506D01*
X14160376Y-16301506D02*
X14179423Y-16291982D01*
X14179423Y-16291982D02*
X14188947Y-16272934D01*
X14188947Y-16272934D02*
X14188947Y-16263411D01*
X14188947Y-16263411D02*
X14179423Y-16244363D01*
X14179423Y-16244363D02*
X14160376Y-16234839D01*
X14160376Y-16234839D02*
X14131804Y-16234839D01*
X14131804Y-16234839D02*
X14112757Y-16225315D01*
X14112757Y-16225315D02*
X14103233Y-16206268D01*
X14103233Y-16206268D02*
X14103233Y-16196744D01*
X14103233Y-16196744D02*
X14112757Y-16177696D01*
X14112757Y-16177696D02*
X14131804Y-16168172D01*
X14131804Y-16168172D02*
X14160376Y-16168172D01*
X14160376Y-16168172D02*
X14179423Y-16177696D01*
X14255614Y-16377696D02*
X14265138Y-16368172D01*
X14265138Y-16368172D02*
X14284185Y-16339601D01*
X14284185Y-16339601D02*
X14293709Y-16320553D01*
X14293709Y-16320553D02*
X14303233Y-16291982D01*
X14303233Y-16291982D02*
X14312757Y-16244363D01*
X14312757Y-16244363D02*
X14312757Y-16206268D01*
X14312757Y-16206268D02*
X14303233Y-16158649D01*
X14303233Y-16158649D02*
X14293709Y-16130077D01*
X14293709Y-16130077D02*
X14284185Y-16111030D01*
X14284185Y-16111030D02*
X14265138Y-16082458D01*
X14265138Y-16082458D02*
X14255614Y-16072934D01*
M02*
