%TF.GenerationSoftware,KiCad,Pcbnew,8.0.3*%
%TF.CreationDate,2025-02-02T19:27:09+01:00*%
%TF.ProjectId,BBARIII,42424152-4949-4492-9e6b-696361645f70,rev?*%
%TF.SameCoordinates,Original*%
%TF.FileFunction,Soldermask,Bot*%
%TF.FilePolarity,Negative*%
%FSLAX46Y46*%
G04 Gerber Fmt 4.6, Leading zero omitted, Abs format (unit mm)*
G04 Created by KiCad (PCBNEW 8.0.3) date 2025-02-02 19:27:09*
%MOMM*%
%LPD*%
G01*
G04 APERTURE LIST*
%ADD10C,0.100000*%
%ADD11R,1.500000X1.500000*%
%ADD12C,1.600000*%
%ADD13C,1.500000*%
%ADD14R,1.600000X1.600000*%
%ADD15R,1.524000X7.500000*%
%ADD16C,1.635000*%
%ADD17R,1.700000X1.700000*%
%ADD18O,1.700000X1.700000*%
G04 APERTURE END LIST*
D10*
%TO.C,CN2*%
X207100000Y-148810000D02*
X93020000Y-148810000D01*
X93020000Y-139920000D01*
X207100000Y-139920000D01*
X207100000Y-148810000D01*
G36*
X207100000Y-148810000D02*
G01*
X93020000Y-148810000D01*
X93020000Y-139920000D01*
X207100000Y-139920000D01*
X207100000Y-148810000D01*
G37*
%TD*%
D11*
%TO.C,SW1*%
X176525000Y-45530000D03*
D12*
X173985000Y-45530000D03*
X179065000Y-45530000D03*
%TD*%
D11*
%TO.C,Q2*%
X202390000Y-107545000D03*
D13*
X202390000Y-105005000D03*
X202390000Y-102465000D03*
%TD*%
D14*
%TO.C,C1*%
X189115000Y-48960113D03*
D12*
X189115000Y-46460113D03*
%TD*%
D11*
%TO.C,Q1*%
X198365000Y-107545000D03*
D13*
X198365000Y-105005000D03*
X198365000Y-102465000D03*
%TD*%
D15*
%TO.C,CN2*%
X203290000Y-143730000D03*
X200750000Y-143730000D03*
X198210000Y-143730000D03*
X195670000Y-143730000D03*
X193130000Y-143730000D03*
X190590000Y-143730000D03*
X188050000Y-143730000D03*
X185510000Y-143730000D03*
X182970000Y-143730000D03*
X180430000Y-143730000D03*
X177890000Y-143730000D03*
X175350000Y-143730000D03*
X172810000Y-143730000D03*
X170270000Y-143730000D03*
X167730000Y-143730000D03*
X165190000Y-143730000D03*
X162650000Y-143730000D03*
X160110000Y-143730000D03*
X157570000Y-143730000D03*
X155030000Y-143730000D03*
X152490000Y-143730000D03*
X149950000Y-143730000D03*
X147410000Y-143730000D03*
X144870000Y-143730000D03*
X142330000Y-143730000D03*
X139790000Y-143730000D03*
X137250000Y-143730000D03*
X134710000Y-143730000D03*
X132170000Y-143730000D03*
X129630000Y-143730000D03*
X127090000Y-143730000D03*
X124550000Y-143730000D03*
X122010000Y-143730000D03*
X119470000Y-143730000D03*
X116930000Y-143730000D03*
X114390000Y-143730000D03*
X111850000Y-143730000D03*
X109310000Y-143730000D03*
X106770000Y-143730000D03*
X104230000Y-143730000D03*
X101690000Y-143730000D03*
X99150000Y-143730000D03*
X96610000Y-143730000D03*
%TD*%
D16*
%TO.C,CN1*%
X203260000Y-132270000D03*
X203260000Y-137350000D03*
X200720000Y-132270000D03*
X200720000Y-137350000D03*
X198180000Y-132270000D03*
X198180000Y-137350000D03*
X195640000Y-132270000D03*
X195640000Y-137350000D03*
X193100000Y-132270000D03*
X193100000Y-137350000D03*
X190560000Y-132270000D03*
X190560000Y-137350000D03*
X188020000Y-132270000D03*
X188020000Y-137350000D03*
X185480000Y-132270000D03*
X185480000Y-137350000D03*
X182940000Y-132270000D03*
X182940000Y-137350000D03*
X180400000Y-132270000D03*
X180400000Y-137350000D03*
X177860000Y-132270000D03*
X177860000Y-137350000D03*
X175320000Y-132270000D03*
X175320000Y-137350000D03*
X172780000Y-132270000D03*
X172780000Y-137350000D03*
X170240000Y-132270000D03*
X170240000Y-137350000D03*
X167700000Y-132270000D03*
X167700000Y-137350000D03*
X165160000Y-132270000D03*
X165160000Y-137350000D03*
X162620000Y-132270000D03*
X162620000Y-137350000D03*
X160080000Y-132270000D03*
X160080000Y-137350000D03*
X157540000Y-132270000D03*
X157540000Y-137350000D03*
X155000000Y-132270000D03*
X155000000Y-137350000D03*
X152460000Y-132270000D03*
X152460000Y-137350000D03*
X149920000Y-132270000D03*
X149920000Y-137350000D03*
X147380000Y-132270000D03*
X147380000Y-137350000D03*
X144840000Y-132270000D03*
X144840000Y-137350000D03*
X142300000Y-132270000D03*
X142300000Y-137350000D03*
X139760000Y-132270000D03*
X139760000Y-137350000D03*
X137220000Y-132270000D03*
X137220000Y-137350000D03*
X134680000Y-132270000D03*
X134680000Y-137350000D03*
X132140000Y-132270000D03*
X132140000Y-137350000D03*
X129600000Y-132270000D03*
X129600000Y-137350000D03*
X127060000Y-132270000D03*
X127060000Y-137350000D03*
X124520000Y-132270000D03*
X124520000Y-137350000D03*
X121980000Y-132270000D03*
X121980000Y-137350000D03*
X119440000Y-132270000D03*
X119440000Y-137350000D03*
X116900000Y-132270000D03*
X116900000Y-137350000D03*
X114360000Y-132270000D03*
X114360000Y-137350000D03*
X111820000Y-132270000D03*
X111820000Y-137350000D03*
X109280000Y-132270000D03*
X109280000Y-137350000D03*
X106740000Y-132270000D03*
X106740000Y-137350000D03*
X104200000Y-132270000D03*
X104200000Y-137350000D03*
X101660000Y-132270000D03*
X101660000Y-137350000D03*
X99120000Y-132270000D03*
X99120000Y-137350000D03*
X96580000Y-132270000D03*
X96580000Y-137350000D03*
%TD*%
D14*
%TO.C,C6*%
X200904887Y-89505000D03*
D12*
X203404887Y-89505000D03*
%TD*%
D17*
%TO.C,J1*%
X199400000Y-48590000D03*
D18*
X201940000Y-48590000D03*
X199400000Y-51130000D03*
X201940000Y-51130000D03*
X199400000Y-53670000D03*
X201940000Y-53670000D03*
X199400000Y-56210000D03*
X201940000Y-56210000D03*
X199400000Y-58750000D03*
X201940000Y-58750000D03*
%TD*%
M02*
