M48
; DRILL file {KiCad 8.0.3} date 2025-02-02T19:27:13+0100
; FORMAT={-:-/ absolute / inch / decimal}
; #@! TF.CreationDate,2025-02-02T19:27:13+01:00
; #@! TF.GenerationSoftware,Kicad,Pcbnew,8.0.3
; #@! TF.FileFunction,Plated,1,2,PTH
FMAT,2
INCH
; #@! TA.AperFunction,Plated,PTH,ViaDrill
T1C0.0118
; #@! TA.AperFunction,Plated,PTH,ComponentDrill
T2C0.0315
; #@! TA.AperFunction,Plated,PTH,ComponentDrill
T3C0.0394
; #@! TA.AperFunction,Plated,PTH,ComponentDrill
T4C0.0429
%
G90
G05
T1
X3.7535Y-3.1654
X3.8201Y-2.8421
X3.8524Y-5.1091
X3.8634Y-3.6563
X3.865Y-1.9421
X3.8665Y-3.963
X3.9071Y-2.1543
X3.9516Y-1.9787
X3.9524Y-4.9559
X4.0094Y-2.1181
X4.0094Y-3.7591
X4.0335Y-4.0614
X4.0543Y-5.1051
X4.0583Y-2.7185
X4.0583Y-3.8122
X4.0697Y-4.8126
X4.102Y-2.0823
X4.102Y-3.874
X4.1535Y-3.1417
X4.1535Y-4.2575
X4.1594Y-1.774
X4.1594Y-3.0531
X4.1988Y-2.0496
X4.1988Y-3.6122
X4.202Y-4.5626
X4.202Y-4.9429
X4.2437Y-3.5634
X4.2488Y-3.215
X4.3024Y-4.8969
X4.3146Y-3.7028
X4.3189Y-2.4673
X4.3217Y-1.9425
X4.3228Y-2.3669
X4.3323Y-3.0531
X4.3327Y-3.4209
X4.3484Y-2.6673
X4.352Y-4.2835
X4.3547Y-2.4169
X4.3736Y-2.9315
X4.3736Y-3.0142
X4.374Y-3.3063
X4.374Y-3.9035
X4.4004Y-4.7685
X4.4024Y-4.8598
X4.4083Y-3.8618
X4.4165Y-3.7843
X4.4315Y-1.9787
X4.4315Y-2.298
X4.4531Y-4.6736
X4.4567Y-3.9374
X4.4575Y-2.9677
X4.5071Y-3.8122
X4.5075Y-3.1969
X4.5083Y-3.9366
X4.5091Y-5.0984
X4.5205Y-2.1543
X4.5209Y-2.4276
X4.5571Y-2.9728
X4.5571Y-4.4268
X4.5583Y-2.0146
X4.5583Y-2.3925
X4.5598Y-2.7181
X4.5815Y-5.4783
X4.6024Y-4.4988
X4.6024Y-4.6236
X4.6024Y-5.3201
X4.6051Y-3.6669
X4.6071Y-3.0142
X4.6071Y-3.5118
X4.6071Y-3.6205
X4.6079Y-2.9138
X4.6146Y-1.8622
X4.6146Y-2.5177
X4.6362Y-2.6169
X4.6528Y-4.2469
X4.6583Y-2.1177
X4.6583Y-2.3783
X4.6713Y-2.5665
X4.6713Y-3.7083
X4.702Y-3.139
X4.702Y-4.7165
X4.7075Y-2.0823
X4.7079Y-2.3972
X4.7106Y-3.0531
X4.711Y-2.5976
X4.7476Y-3.9118
X4.7476Y-4.4598
X4.752Y-4.6268
X4.7563Y-3.1094
X4.7563Y-3.8134
X4.7567Y-2.4173
X4.7866Y-4.424
X4.787Y-3.9626
X4.7957Y-2.7437
X4.7957Y-2.9484
X4.7961Y-3.8618
X4.8024Y-4.7185
X4.8024Y-5.0614
X4.824Y-4.2087
X4.8244Y-3.913
X4.8579Y-4.0224
X4.8579Y-4.8122
X4.8583Y-3.6366
X4.8583Y-3.963
X4.902Y-5.0646
X4.9051Y-2.2681
X4.9051Y-5.011
X4.9055Y-3.3551
X4.9429Y-4.1634
X4.9437Y-3.8634
X4.9484Y-4.5433
X4.9563Y-2.8579
X4.9563Y-3.552
X4.9839Y-3.7173
X4.9839Y-4.5874
X4.9925Y-2.015
X4.9925Y-2.2673
X4.9925Y-3.2406
X5.0228Y-4.022
X5.0232Y-4.548
X5.0256Y-2.6039
X5.0256Y-2.8894
X5.0555Y-2.3177
X5.0559Y-1.9787
X5.0567Y-2.3669
X5.0571Y-4.9598
X5.0858Y-1.8925
X5.0858Y-2.4685
X5.0965Y-2.8185
X5.0965Y-3.9484
X5.0969Y-3.2508
X5.102Y-4.7685
X5.1173Y-4.6268
X5.1213Y-2.7685
X5.1244Y-2.6181
X5.1252Y-1.976
X5.1524Y-4.8122
X5.1811Y-4.315
X5.1815Y-3.7886
X5.2028Y-5.0984
X5.2213Y-4.898
X5.2236Y-3.5571
X5.2236Y-3.8232
X5.2303Y-3.1087
X5.2353Y-4.1813
X5.2535Y-4.424
X5.2555Y-3.5047
X5.2555Y-3.863
X5.2602Y-3.9138
X5.2705Y-2.8185
X5.2713Y-3.0142
X5.2969Y-1.9437
X5.2972Y-2.3339
X5.3024Y-4.9276
X5.315Y-2.7449
X5.315Y-3.0528
X5.3161Y-2.5228
X5.3161Y-2.5937
X5.3461Y-2.4878
X5.3461Y-3.5043
X5.352Y-4.3508
X5.3764Y-3.5579
X5.3815Y-2.4236
X5.4024Y-5.0248
X5.4051Y-2.5488
X5.4051Y-4.0374
X5.4067Y-1.8134
X5.4067Y-2.3685
X5.4358Y-3.5583
X5.4358Y-4.4201
X5.4402Y-2.7945
X5.4406Y-3.2504
X5.4409Y-2.5835
X5.4409Y-2.7449
X5.4539Y-4.4598
X5.4665Y-3.9035
X5.4665Y-4.2142
X5.4685Y-1.9232
X5.4685Y-2.4185
X5.4685Y-3.8126
X5.5Y-2.6681
X5.5Y-4.037
X5.5252Y-2.524
X5.5264Y-2.0933
X5.5343Y-2.6091
X5.5346Y-3.9689
X5.5535Y-2.2685
X5.5654Y-3.624
X5.5654Y-4.1484
X5.5705Y-3.2311
X5.602Y-3.4437
X5.602Y-3.7626
X5.602Y-4.2835
X5.6272Y-2.1268
X5.6283Y-2.0236
X5.6417Y-4.4598
X5.6417Y-5.0248
X5.6563Y-3.8122
X5.6563Y-4.2827
X5.6614Y-3.5339
X5.6614Y-3.7272
X5.6681Y-1.8618
X5.6713Y-3.3543
X5.6957Y-3.4138
X5.6957Y-3.6933
X5.6972Y-4.013
X5.6972Y-4.1827
X5.7024Y-4.385
X5.7055Y-3.2618
X5.7059Y-2.5248
X5.7295Y-2.1386
X5.7299Y-1.976
X5.7319Y-4.2469
X5.7323Y-3.5941
X5.7417Y-3.3492
X5.7421Y-2.3181
X5.7567Y-5.0984
X5.7571Y-4.9177
X5.7661Y-4.548
X5.774Y-2.8894
X5.7744Y-2.587
X5.7748Y-1.8917
X5.7748Y-2.4634
X5.7866Y-3.5035
X5.8024Y-4.6268
X5.8024Y-4.9953
X5.8106Y-2.1689
X5.8106Y-2.9799
X5.8134Y-3.8622
X5.8161Y-3.9358
X5.8217Y-3.5634
X5.8217Y-3.7843
X5.85Y-2.4252
X5.85Y-2.75
X5.8504Y-2.9484
X5.8524Y-5.0953
X5.8843Y-2.2189
X5.885Y-4.4988
X5.8866Y-5.0283
X5.9177Y-4.8587
X5.9228Y-1.8543
X5.9228Y-2.3031
X5.9528Y-5.0512
X5.9531Y-3.9492
X5.9535Y-4.3508
X5.9543Y-2.8587
X5.9543Y-2.9815
X5.9803Y-3.0732
X5.9906Y-2.8177
X5.9941Y-1.952
X5.9945Y-2.3059
X6.0098Y-3.1965
X6.0386Y-4.2815
X6.0437Y-2.1386
X6.0449Y-3.6524
X6.0461Y-3.1378
X6.0461Y-3.2618
X6.0465Y-4.0634
X6.0465Y-4.1484
X6.0504Y-2.6327
X6.0591Y-2.3988
X6.0634Y-2.7248
X6.0634Y-3.7087
X6.0748Y-4.5874
X6.0799Y-2.4835
X6.0988Y-1.9815
X6.0988Y-2.3791
X6.1024Y-3.2594
X6.1035Y-3.1677
X6.1291Y-2.4185
X6.1402Y-2.6327
X6.1402Y-4.8736
X6.1512Y-2.0941
X6.1551Y-5.1366
X6.1701Y-2.5752
X6.1744Y-4.3866
X6.1748Y-2.7732
X6.1748Y-3.0142
X6.1748Y-3.9122
X6.1795Y-3.3799
X6.1996Y-2.3854
X6.2004Y-2.1695
X6.2047Y-4.028
X6.2047Y-4.6736
X6.2071Y-3.9642
X6.2311Y-3.0134
X6.2335Y-2.6047
X6.2343Y-2.6752
X6.2409Y-3.813
X6.2413Y-3.3803
X6.2492Y-2.0236
X6.2492Y-2.3839
X6.2709Y-2.5102
X6.287Y-5.1366
X6.2976Y-2.0661
X6.2976Y-2.3835
X6.3043Y-3.3488
X6.3043Y-3.9142
X6.3201Y-2.5374
X6.3201Y-2.6252
X6.324Y-2.7437
X6.335Y-4.8736
X6.335Y-5.1346
X6.3398Y-3.8146
X6.3406Y-3.8642
X6.3406Y-4.4201
X6.3516Y-5.3043
X6.3921Y-2.1295
X6.3921Y-2.3055
X6.4142Y-3.4134
X6.4142Y-3.7382
X6.4181Y-2.835
X6.4189Y-3.2906
X6.4362Y-4.3217
X6.4394Y-4.0283
X6.4504Y-3.5642
X6.4642Y-2.8744
X6.4642Y-2.9646
X6.4654Y-4.0764
X6.4654Y-4.4256
X6.4803Y-3.2913
X6.5031Y-1.9815
X6.5031Y-2.2697
X6.5031Y-3.1031
X6.5087Y-3.7031
X6.5102Y-3.5339
X6.5106Y-3.6524
X6.5339Y-3.0441
X6.5343Y-3.1965
X6.539Y-2.9724
X6.5524Y-2.4433
X6.5528Y-2.5248
X6.5701Y-4.7185
X6.5831Y-1.952
X6.5831Y-2.3193
X6.6024Y-3.0075
X6.613Y-2.874
X6.6165Y-1.8134
X6.6165Y-2.3681
X6.6331Y-3.3197
X6.6331Y-3.7878
X6.6472Y-2.7531
X6.6531Y-1.8925
X6.6531Y-2.4701
X6.6642Y-3.1996
X6.6665Y-2.6201
X6.6874Y-1.8543
X6.6874Y-2.3697
X6.6933Y-3.5244
X6.6933Y-3.7846
X6.7008Y-3.1382
X6.7028Y-2.5193
X6.7063Y-2.7693
X6.7063Y-2.902
X6.737Y-2.0969
X6.7382Y-2.9724
X6.7382Y-3.3488
X6.7433Y-3.911
X6.7433Y-3.9531
X6.7437Y-4.3504
X6.7445Y-3.8594
X6.7634Y-1.774
X6.7634Y-1.9724
X6.7929Y-4.5492
X6.798Y-3.4886
X6.8343Y-4.1154
X6.8343Y-4.737
X6.8382Y-3.3488
X6.8535Y-4.961
X6.8535Y-5.0669
X6.8732Y-2.6697
X6.8732Y-3.2917
X6.8772Y-2.3677
X6.8776Y-1.9232
X6.8776Y-2.5201
X6.8972Y-3.5634
X6.8972Y-3.8642
X6.9067Y-2.6193
X6.9343Y-4.9602
X6.939Y-2.6693
X6.939Y-3.2004
X6.9508Y-2.2693
X6.9516Y-2.1295
X6.9524Y-4.5299
X6.9697Y-2.5189
X7.0028Y-2.5717
X7.0138Y-4.4256
X7.0413Y-3.8154
X7.0413Y-4.5299
X7.0618Y-2.4189
X7.0728Y-2.8197
X7.0728Y-3.0732
X7.0748Y-5.0406
X7.0839Y-3.4244
X7.0846Y-3.7587
X7.1024Y-2.3197
X7.1028Y-4.0831
X7.1031Y-3.1673
X7.1035Y-3.8654
X7.1039Y-4.2421
X7.1398Y-3.9157
X7.1398Y-4.2815
X7.1728Y-5.0669
X7.1732Y-4.5559
X7.1736Y-3.6083
X7.1736Y-4.3866
X7.1969Y-3.2307
X7.2012Y-3.6898
X7.2031Y-4.4961
X7.2358Y-4.0831
X7.2472Y-3.2594
X7.2476Y-2.9358
X7.2492Y-4.1587
X7.2492Y-4.737
X7.2657Y-2.5193
X7.2681Y-2.7693
X7.2776Y-4.1138
X7.2854Y-5.137
X7.2953Y-2.1693
X7.3012Y-2.3693
X7.3012Y-3.0083
X7.3016Y-3.8654
X7.302Y-3.4543
X7.3118Y-3.9244
X7.3118Y-5.089
X7.3409Y-1.9331
X7.3409Y-2.5638
X7.3535Y-2.726
X7.3535Y-5.3063
X7.3697Y-1.8917
X7.3909Y-3.0441
X7.3913Y-2.7634
X7.4028Y-3.787
X7.4028Y-4.4598
X7.4268Y-3.9524
X7.4323Y-2.902
X7.4335Y-5.0083
X7.4689Y-3.3295
X7.4689Y-3.9157
X7.4693Y-2.6429
X7.4701Y-2.8441
X7.4701Y-3.2728
X7.478Y-4.2819
X7.478Y-4.9087
X7.4783Y-4.1366
X7.5165Y-3.0382
X7.5496Y-2.7441
X7.5681Y-4.3217
X7.5681Y-4.9594
X7.6142Y-4.0343
X7.6142Y-4.737
X7.626Y-2.8949
X7.626Y-3.2098
X7.6579Y-4.5555
X7.6583Y-3.8154
X7.6976Y-3.0764
X7.698Y-3.4882
X7.698Y-4.7882
X7.7374Y-3.0382
X7.7374Y-3.9654
X7.7539Y-5.0378
X7.8016Y-2.7937
X7.8031Y-5.0378
X7.8504Y-2.6429
X7.9504Y-2.7433
X7.9512Y-3.4346
X7.9677Y-4.3213
X8.0083Y-3.0764
X8.0106Y-2.8437
T2
X6.8498Y-1.7925
X6.9498Y-1.7925
X7.0498Y-1.7925
X7.4455Y-1.8291
X7.4455Y-1.9276
X7.8096Y-4.0341
X7.8096Y-4.1341
X7.8096Y-4.2341
X7.9096Y-3.5238
X7.9681Y-4.0341
X7.9681Y-4.1341
X7.9681Y-4.2341
X8.0081Y-3.5238
T3
X7.8504Y-1.913
X7.8504Y-2.013
X7.8504Y-2.113
X7.8504Y-2.213
X7.8504Y-2.313
X7.9504Y-1.913
X7.9504Y-2.013
X7.9504Y-2.113
X7.9504Y-2.213
X7.9504Y-2.313
T4
X3.8024Y-5.2075
X3.8024Y-5.4075
X3.9024Y-5.2075
X3.9024Y-5.4075
X4.0024Y-5.2075
X4.0024Y-5.4075
X4.1024Y-5.2075
X4.1024Y-5.4075
X4.2024Y-5.2075
X4.2024Y-5.4075
X4.3024Y-5.2075
X4.3024Y-5.4075
X4.4024Y-5.2075
X4.4024Y-5.4075
X4.5024Y-5.2075
X4.5024Y-5.4075
X4.6024Y-5.2075
X4.6024Y-5.4075
X4.7024Y-5.2075
X4.7024Y-5.4075
X4.8024Y-5.2075
X4.8024Y-5.4075
X4.9024Y-5.2075
X4.9024Y-5.4075
X5.0024Y-5.2075
X5.0024Y-5.4075
X5.1024Y-5.2075
X5.1024Y-5.4075
X5.2024Y-5.2075
X5.2024Y-5.4075
X5.3024Y-5.2075
X5.3024Y-5.4075
X5.4024Y-5.2075
X5.4024Y-5.4075
X5.5024Y-5.2075
X5.5024Y-5.4075
X5.6024Y-5.2075
X5.6024Y-5.4075
X5.7024Y-5.2075
X5.7024Y-5.4075
X5.8024Y-5.2075
X5.8024Y-5.4075
X5.9024Y-5.2075
X5.9024Y-5.4075
X6.0024Y-5.2075
X6.0024Y-5.4075
X6.1024Y-5.2075
X6.1024Y-5.4075
X6.2024Y-5.2075
X6.2024Y-5.4075
X6.3024Y-5.2075
X6.3024Y-5.4075
X6.4024Y-5.2075
X6.4024Y-5.4075
X6.5024Y-5.2075
X6.5024Y-5.4075
X6.6024Y-5.2075
X6.6024Y-5.4075
X6.7024Y-5.2075
X6.7024Y-5.4075
X6.8024Y-5.2075
X6.8024Y-5.4075
X6.9024Y-5.2075
X6.9024Y-5.4075
X7.0024Y-5.2075
X7.0024Y-5.4075
X7.1024Y-5.2075
X7.1024Y-5.4075
X7.2024Y-5.2075
X7.2024Y-5.4075
X7.3024Y-5.2075
X7.3024Y-5.4075
X7.4024Y-5.2075
X7.4024Y-5.4075
X7.5024Y-5.2075
X7.5024Y-5.4075
X7.6024Y-5.2075
X7.6024Y-5.4075
X7.7024Y-5.2075
X7.7024Y-5.4075
X7.8024Y-5.2075
X7.8024Y-5.4075
X7.9024Y-5.2075
X7.9024Y-5.4075
X8.0024Y-5.2075
X8.0024Y-5.4075
M30
