%TF.GenerationSoftware,KiCad,Pcbnew,8.0.3*%
%TF.CreationDate,2025-02-02T19:27:09+01:00*%
%TF.ProjectId,BBARIII,42424152-4949-4492-9e6b-696361645f70,rev?*%
%TF.SameCoordinates,Original*%
%TF.FileFunction,Legend,Top*%
%TF.FilePolarity,Positive*%
%FSLAX46Y46*%
G04 Gerber Fmt 4.6, Leading zero omitted, Abs format (unit mm)*
G04 Created by KiCad (PCBNEW 8.0.3) date 2025-02-02 19:27:09*
%MOMM*%
%LPD*%
G01*
G04 APERTURE LIST*
%ADD10C,0.300000*%
%ADD11C,0.100000*%
%ADD12C,0.150000*%
%ADD13C,0.254000*%
%ADD14C,0.120000*%
%ADD15C,0.152400*%
%ADD16C,0.400000*%
%ADD17C,0.000000*%
G04 APERTURE END LIST*
D10*
X183560225Y-44640828D02*
X183845939Y-44640828D01*
X183845939Y-44640828D02*
X183988796Y-44712257D01*
X183988796Y-44712257D02*
X184131653Y-44855114D01*
X184131653Y-44855114D02*
X184203082Y-45140828D01*
X184203082Y-45140828D02*
X184203082Y-45640828D01*
X184203082Y-45640828D02*
X184131653Y-45926542D01*
X184131653Y-45926542D02*
X183988796Y-46069400D01*
X183988796Y-46069400D02*
X183845939Y-46140828D01*
X183845939Y-46140828D02*
X183560225Y-46140828D01*
X183560225Y-46140828D02*
X183417368Y-46069400D01*
X183417368Y-46069400D02*
X183274510Y-45926542D01*
X183274510Y-45926542D02*
X183203082Y-45640828D01*
X183203082Y-45640828D02*
X183203082Y-45140828D01*
X183203082Y-45140828D02*
X183274510Y-44855114D01*
X183274510Y-44855114D02*
X183417368Y-44712257D01*
X183417368Y-44712257D02*
X183560225Y-44640828D01*
X184845939Y-45140828D02*
X184845939Y-46140828D01*
X184845939Y-45283685D02*
X184917368Y-45212257D01*
X184917368Y-45212257D02*
X185060225Y-45140828D01*
X185060225Y-45140828D02*
X185274511Y-45140828D01*
X185274511Y-45140828D02*
X185417368Y-45212257D01*
X185417368Y-45212257D02*
X185488797Y-45355114D01*
X185488797Y-45355114D02*
X185488797Y-46140828D01*
G36*
X100354159Y-65406371D02*
G01*
X100354159Y-65978632D01*
X96649483Y-65978632D01*
X96649483Y-64360767D01*
X97220279Y-64360767D01*
X97220279Y-65406371D01*
X98197006Y-65406371D01*
X98197006Y-64876608D01*
X98767801Y-64876608D01*
X98767801Y-65406371D01*
X100354159Y-65406371D01*
G37*
G36*
X98243900Y-62520153D02*
G01*
X99275582Y-62520153D01*
X99275582Y-62276154D01*
X100354159Y-62276154D01*
X100354159Y-62848415D01*
X99322477Y-62848415D01*
X99322477Y-63092414D01*
X98767801Y-63092414D01*
X98767801Y-63307836D01*
X100354159Y-63307836D01*
X100354159Y-63880097D01*
X96649483Y-63880097D01*
X96649483Y-63307836D01*
X97220279Y-63307836D01*
X98197006Y-63307836D01*
X98197006Y-62848415D01*
X97220279Y-62848415D01*
X97220279Y-63307836D01*
X96649483Y-63307836D01*
X96649483Y-62520153D01*
X97165324Y-62520153D01*
X97165324Y-62276154D01*
X98243900Y-62276154D01*
X98243900Y-62520153D01*
G37*
G36*
X99830258Y-60421618D02*
G01*
X100354159Y-60421618D01*
X100354159Y-61500195D01*
X99830258Y-61500195D01*
X99830258Y-61781563D01*
X97165324Y-61781563D01*
X97165324Y-61500195D01*
X96649483Y-61500195D01*
X96649483Y-61209302D01*
X97220279Y-61209302D01*
X99783363Y-61209302D01*
X99783363Y-60749881D01*
X97220279Y-60749881D01*
X97220279Y-61209302D01*
X96649483Y-61209302D01*
X96649483Y-60421618D01*
X97165324Y-60421618D01*
X97165324Y-60177620D01*
X99830258Y-60177620D01*
X99830258Y-60421618D01*
G37*
G36*
X98759741Y-58913663D02*
G01*
X98759741Y-59176713D01*
X98243900Y-59176713D01*
X98243900Y-59392135D01*
X100354159Y-59392135D01*
X100354159Y-59964396D01*
X96649483Y-59964396D01*
X96649483Y-59392135D01*
X97165324Y-59392135D01*
X97165324Y-59129818D01*
X97681165Y-59129818D01*
X97681165Y-58866769D01*
X98243900Y-58866769D01*
X98243900Y-58651346D01*
X96649483Y-58651346D01*
X96649483Y-58079085D01*
X100354159Y-58079085D01*
X100354159Y-58651346D01*
X99322477Y-58651346D01*
X99322477Y-58913663D01*
X98759741Y-58913663D01*
G37*
G36*
X97220279Y-57068653D02*
G01*
X97220279Y-57584494D01*
X96649483Y-57584494D01*
X96649483Y-55943182D01*
X97220279Y-55943182D01*
X97220279Y-56496392D01*
X100354159Y-56496392D01*
X100354159Y-57068653D01*
X97220279Y-57068653D01*
G37*
G36*
X98235840Y-52346217D02*
G01*
X98235840Y-52590216D01*
X97728060Y-52590216D01*
X97728060Y-52824689D01*
X98235840Y-52824689D01*
X98235840Y-53096531D01*
X98759741Y-53096531D01*
X98759741Y-53668792D01*
X98188946Y-53668792D01*
X98188946Y-53396950D01*
X97681165Y-53396950D01*
X97681165Y-53143426D01*
X97165324Y-53143426D01*
X97165324Y-52871584D01*
X96649483Y-52871584D01*
X96649483Y-52543321D01*
X97165324Y-52543321D01*
X97165324Y-52299323D01*
X97681165Y-52299323D01*
X97681165Y-52064849D01*
X98188946Y-52064849D01*
X98188946Y-51764431D01*
X98759741Y-51764431D01*
X98759741Y-52346217D01*
X98235840Y-52346217D01*
G37*
G36*
X131601311Y-81250324D02*
G01*
X131845310Y-81250324D01*
X131845310Y-84439159D01*
X131273049Y-84439159D01*
X131273049Y-82852801D01*
X130813628Y-82852801D01*
X130813628Y-84439159D01*
X130241367Y-84439159D01*
X130241367Y-82282006D01*
X130813628Y-82282006D01*
X131273049Y-82282006D01*
X131273049Y-81305279D01*
X130813628Y-81305279D01*
X130813628Y-82282006D01*
X130241367Y-82282006D01*
X130241367Y-81250324D01*
X130522735Y-81250324D01*
X130522735Y-80734483D01*
X131601311Y-80734483D01*
X131601311Y-81250324D01*
G37*
G36*
X132621270Y-81766165D02*
G01*
X133699846Y-81766165D01*
X133699846Y-82336960D01*
X132912163Y-82336960D01*
X132912163Y-83868363D01*
X133699846Y-83868363D01*
X133699846Y-84439159D01*
X132621270Y-84439159D01*
X132621270Y-83915258D01*
X132339902Y-83915258D01*
X132339902Y-82282006D01*
X132621270Y-82282006D01*
X132621270Y-81766165D01*
G37*
G36*
X135282540Y-83868363D02*
G01*
X135798381Y-83868363D01*
X135798381Y-84439159D01*
X134954277Y-84439159D01*
X134954277Y-83923318D01*
X134710279Y-83923318D01*
X134710279Y-82336960D01*
X134438436Y-82336960D01*
X134438436Y-81766165D01*
X134710279Y-81766165D01*
X134710279Y-80734483D01*
X135282540Y-80734483D01*
X135282540Y-81766165D01*
X135798381Y-81766165D01*
X135798381Y-82336960D01*
X135282540Y-82336960D01*
X135282540Y-83868363D01*
G37*
G36*
X137052812Y-81766165D02*
G01*
X137625073Y-81766165D01*
X137625073Y-83868363D01*
X137896915Y-83868363D01*
X137896915Y-84439159D01*
X137324654Y-84439159D01*
X137324654Y-83923318D01*
X137052812Y-83923318D01*
X137052812Y-81766165D01*
G37*
G36*
X137052812Y-80734483D02*
G01*
X137625073Y-80734483D01*
X137625073Y-81305279D01*
X137052812Y-81305279D01*
X137052812Y-80734483D01*
G37*
G36*
X139995450Y-82282006D02*
G01*
X140239448Y-82282006D01*
X140239448Y-83915258D01*
X139995450Y-83915258D01*
X139995450Y-84439159D01*
X138916873Y-84439159D01*
X138916873Y-83915258D01*
X138635505Y-83915258D01*
X138635505Y-83868363D01*
X139207766Y-83868363D01*
X139667187Y-83868363D01*
X139667187Y-82336960D01*
X139207766Y-82336960D01*
X139207766Y-83868363D01*
X138635505Y-83868363D01*
X138635505Y-82282006D01*
X138916873Y-82282006D01*
X138916873Y-81766165D01*
X139995450Y-81766165D01*
X139995450Y-82282006D01*
G37*
G36*
X141306301Y-84439159D02*
G01*
X140734040Y-84439159D01*
X140734040Y-81766165D01*
X142075666Y-81766165D01*
X142075666Y-82282006D01*
X142337983Y-82282006D01*
X142337983Y-84439159D01*
X141765722Y-84439159D01*
X141765722Y-82336960D01*
X141306301Y-82336960D01*
X141306301Y-84439159D01*
G37*
G36*
X146291053Y-81250324D02*
G01*
X146535052Y-81250324D01*
X146535052Y-82328900D01*
X146291053Y-82328900D01*
X146291053Y-83360582D01*
X146535052Y-83360582D01*
X146535052Y-84439159D01*
X145962791Y-84439159D01*
X145962791Y-83407477D01*
X145718792Y-83407477D01*
X145718792Y-82852801D01*
X145503370Y-82852801D01*
X145503370Y-84439159D01*
X144931109Y-84439159D01*
X144931109Y-82282006D01*
X145503370Y-82282006D01*
X145962791Y-82282006D01*
X145962791Y-81305279D01*
X145503370Y-81305279D01*
X145503370Y-82282006D01*
X144931109Y-82282006D01*
X144931109Y-80734483D01*
X146291053Y-80734483D01*
X146291053Y-81250324D01*
G37*
G36*
X148389588Y-82282006D02*
G01*
X148633586Y-82282006D01*
X148633586Y-83407477D01*
X147601905Y-83407477D01*
X147601905Y-83868363D01*
X148389588Y-83868363D01*
X148389588Y-84439159D01*
X147311011Y-84439159D01*
X147311011Y-83915258D01*
X147029644Y-83915258D01*
X147029644Y-82836681D01*
X147601905Y-82836681D01*
X148061325Y-82836681D01*
X148061325Y-82336960D01*
X147601905Y-82336960D01*
X147601905Y-82836681D01*
X147029644Y-82836681D01*
X147029644Y-82282006D01*
X147311011Y-82282006D01*
X147311011Y-81766165D01*
X148389588Y-81766165D01*
X148389588Y-82282006D01*
G37*
G36*
X150469804Y-82282006D02*
G01*
X150732121Y-82282006D01*
X150732121Y-83360582D01*
X150469804Y-83360582D01*
X150469804Y-83923318D01*
X149700439Y-83923318D01*
X149700439Y-84955000D01*
X149128178Y-84955000D01*
X149128178Y-83352522D01*
X149700439Y-83352522D01*
X150159860Y-83352522D01*
X150159860Y-82336960D01*
X149700439Y-82336960D01*
X149700439Y-83352522D01*
X149128178Y-83352522D01*
X149128178Y-81766165D01*
X150469804Y-81766165D01*
X150469804Y-82282006D01*
G37*
G36*
X151742554Y-80734483D02*
G01*
X152314815Y-80734483D01*
X152314815Y-83868363D01*
X152586657Y-83868363D01*
X152586657Y-84439159D01*
X152014396Y-84439159D01*
X152014396Y-83923318D01*
X151742554Y-83923318D01*
X151742554Y-80734483D01*
G37*
G36*
X154685191Y-82290066D02*
G01*
X154929190Y-82290066D01*
X154929190Y-84439159D01*
X153606615Y-84439159D01*
X153606615Y-83915258D01*
X153325247Y-83915258D01*
X153325247Y-83868363D01*
X153897508Y-83868363D01*
X154356929Y-83868363D01*
X154356929Y-83399417D01*
X153897508Y-83399417D01*
X153897508Y-83868363D01*
X153325247Y-83868363D01*
X153325247Y-83352522D01*
X153606615Y-83352522D01*
X153606615Y-82836681D01*
X154356929Y-82836681D01*
X154356929Y-82336960D01*
X153606615Y-82336960D01*
X153606615Y-81766165D01*
X154685191Y-81766165D01*
X154685191Y-82290066D01*
G37*
G36*
X156464989Y-81766165D02*
G01*
X157027725Y-81766165D01*
X157027725Y-83407477D01*
X156774200Y-83407477D01*
X156774200Y-83923318D01*
X156511884Y-83923318D01*
X156511884Y-84439159D01*
X156267885Y-84439159D01*
X156267885Y-84955000D01*
X155695624Y-84955000D01*
X155695624Y-84384204D01*
X155949148Y-84384204D01*
X155949148Y-83923318D01*
X155695624Y-83923318D01*
X155695624Y-83407477D01*
X155423782Y-83407477D01*
X155423782Y-81766165D01*
X155996043Y-81766165D01*
X155996043Y-83360582D01*
X156464989Y-83360582D01*
X156464989Y-81766165D01*
G37*
G36*
X159855324Y-80734483D02*
G01*
X160933900Y-80734483D01*
X160933900Y-81305279D01*
X160699427Y-81305279D01*
X160699427Y-83868363D01*
X160933900Y-83868363D01*
X160933900Y-84439159D01*
X159855324Y-84439159D01*
X159855324Y-83868363D01*
X160127166Y-83868363D01*
X160127166Y-81305279D01*
X159855324Y-81305279D01*
X159855324Y-80734483D01*
G37*
G36*
X161953859Y-80734483D02*
G01*
X163032435Y-80734483D01*
X163032435Y-81305279D01*
X162797962Y-81305279D01*
X162797962Y-83868363D01*
X163032435Y-83868363D01*
X163032435Y-84439159D01*
X161953859Y-84439159D01*
X161953859Y-83868363D01*
X162225701Y-83868363D01*
X162225701Y-81305279D01*
X161953859Y-81305279D01*
X161953859Y-80734483D01*
G37*
G36*
X164052393Y-80734483D02*
G01*
X165130969Y-80734483D01*
X165130969Y-81305279D01*
X164896496Y-81305279D01*
X164896496Y-83868363D01*
X165130969Y-83868363D01*
X165130969Y-84439159D01*
X164052393Y-84439159D01*
X164052393Y-83868363D01*
X164324235Y-83868363D01*
X164324235Y-81305279D01*
X164052393Y-81305279D01*
X164052393Y-80734483D01*
G37*
D11*
X96643884Y-47192475D02*
X96643884Y-46525808D01*
X96643884Y-46716284D02*
X96691503Y-46621046D01*
X96691503Y-46621046D02*
X96739122Y-46573427D01*
X96739122Y-46573427D02*
X96834360Y-46525808D01*
X96834360Y-46525808D02*
X96929598Y-46525808D01*
X97643884Y-47144856D02*
X97548646Y-47192475D01*
X97548646Y-47192475D02*
X97358170Y-47192475D01*
X97358170Y-47192475D02*
X97262932Y-47144856D01*
X97262932Y-47144856D02*
X97215313Y-47049617D01*
X97215313Y-47049617D02*
X97215313Y-46668665D01*
X97215313Y-46668665D02*
X97262932Y-46573427D01*
X97262932Y-46573427D02*
X97358170Y-46525808D01*
X97358170Y-46525808D02*
X97548646Y-46525808D01*
X97548646Y-46525808D02*
X97643884Y-46573427D01*
X97643884Y-46573427D02*
X97691503Y-46668665D01*
X97691503Y-46668665D02*
X97691503Y-46763903D01*
X97691503Y-46763903D02*
X97215313Y-46859141D01*
X98024837Y-46525808D02*
X98262932Y-47192475D01*
X98262932Y-47192475D02*
X98501027Y-46525808D01*
X99262932Y-47144856D02*
X99167694Y-47192475D01*
X99167694Y-47192475D02*
X98977218Y-47192475D01*
X98977218Y-47192475D02*
X98881980Y-47144856D01*
X98881980Y-47144856D02*
X98834361Y-47049617D01*
X98834361Y-47049617D02*
X98834361Y-46668665D01*
X98834361Y-46668665D02*
X98881980Y-46573427D01*
X98881980Y-46573427D02*
X98977218Y-46525808D01*
X98977218Y-46525808D02*
X99167694Y-46525808D01*
X99167694Y-46525808D02*
X99262932Y-46573427D01*
X99262932Y-46573427D02*
X99310551Y-46668665D01*
X99310551Y-46668665D02*
X99310551Y-46763903D01*
X99310551Y-46763903D02*
X98834361Y-46859141D01*
X99739123Y-47192475D02*
X99739123Y-46525808D01*
X99739123Y-46716284D02*
X99786742Y-46621046D01*
X99786742Y-46621046D02*
X99834361Y-46573427D01*
X99834361Y-46573427D02*
X99929599Y-46525808D01*
X99929599Y-46525808D02*
X100024837Y-46525808D01*
X100310552Y-47144856D02*
X100405790Y-47192475D01*
X100405790Y-47192475D02*
X100596266Y-47192475D01*
X100596266Y-47192475D02*
X100691504Y-47144856D01*
X100691504Y-47144856D02*
X100739123Y-47049617D01*
X100739123Y-47049617D02*
X100739123Y-47001998D01*
X100739123Y-47001998D02*
X100691504Y-46906760D01*
X100691504Y-46906760D02*
X100596266Y-46859141D01*
X100596266Y-46859141D02*
X100453409Y-46859141D01*
X100453409Y-46859141D02*
X100358171Y-46811522D01*
X100358171Y-46811522D02*
X100310552Y-46716284D01*
X100310552Y-46716284D02*
X100310552Y-46668665D01*
X100310552Y-46668665D02*
X100358171Y-46573427D01*
X100358171Y-46573427D02*
X100453409Y-46525808D01*
X100453409Y-46525808D02*
X100596266Y-46525808D01*
X100596266Y-46525808D02*
X100691504Y-46573427D01*
X101548647Y-47144856D02*
X101453409Y-47192475D01*
X101453409Y-47192475D02*
X101262933Y-47192475D01*
X101262933Y-47192475D02*
X101167695Y-47144856D01*
X101167695Y-47144856D02*
X101120076Y-47049617D01*
X101120076Y-47049617D02*
X101120076Y-46668665D01*
X101120076Y-46668665D02*
X101167695Y-46573427D01*
X101167695Y-46573427D02*
X101262933Y-46525808D01*
X101262933Y-46525808D02*
X101453409Y-46525808D01*
X101453409Y-46525808D02*
X101548647Y-46573427D01*
X101548647Y-46573427D02*
X101596266Y-46668665D01*
X101596266Y-46668665D02*
X101596266Y-46763903D01*
X101596266Y-46763903D02*
X101120076Y-46859141D01*
X103167695Y-47144856D02*
X103072457Y-47192475D01*
X103072457Y-47192475D02*
X102881981Y-47192475D01*
X102881981Y-47192475D02*
X102786743Y-47144856D01*
X102786743Y-47144856D02*
X102739124Y-47049617D01*
X102739124Y-47049617D02*
X102739124Y-46668665D01*
X102739124Y-46668665D02*
X102786743Y-46573427D01*
X102786743Y-46573427D02*
X102881981Y-46525808D01*
X102881981Y-46525808D02*
X103072457Y-46525808D01*
X103072457Y-46525808D02*
X103167695Y-46573427D01*
X103167695Y-46573427D02*
X103215314Y-46668665D01*
X103215314Y-46668665D02*
X103215314Y-46763903D01*
X103215314Y-46763903D02*
X102739124Y-46859141D01*
X103643886Y-46525808D02*
X103643886Y-47192475D01*
X103643886Y-46621046D02*
X103691505Y-46573427D01*
X103691505Y-46573427D02*
X103786743Y-46525808D01*
X103786743Y-46525808D02*
X103929600Y-46525808D01*
X103929600Y-46525808D02*
X104024838Y-46573427D01*
X104024838Y-46573427D02*
X104072457Y-46668665D01*
X104072457Y-46668665D02*
X104072457Y-47192475D01*
X104977219Y-46525808D02*
X104977219Y-47335332D01*
X104977219Y-47335332D02*
X104929600Y-47430570D01*
X104929600Y-47430570D02*
X104881981Y-47478189D01*
X104881981Y-47478189D02*
X104786743Y-47525808D01*
X104786743Y-47525808D02*
X104643886Y-47525808D01*
X104643886Y-47525808D02*
X104548648Y-47478189D01*
X104977219Y-47144856D02*
X104881981Y-47192475D01*
X104881981Y-47192475D02*
X104691505Y-47192475D01*
X104691505Y-47192475D02*
X104596267Y-47144856D01*
X104596267Y-47144856D02*
X104548648Y-47097236D01*
X104548648Y-47097236D02*
X104501029Y-47001998D01*
X104501029Y-47001998D02*
X104501029Y-46716284D01*
X104501029Y-46716284D02*
X104548648Y-46621046D01*
X104548648Y-46621046D02*
X104596267Y-46573427D01*
X104596267Y-46573427D02*
X104691505Y-46525808D01*
X104691505Y-46525808D02*
X104881981Y-46525808D01*
X104881981Y-46525808D02*
X104977219Y-46573427D01*
X105453410Y-47192475D02*
X105453410Y-46525808D01*
X105453410Y-46192475D02*
X105405791Y-46240094D01*
X105405791Y-46240094D02*
X105453410Y-46287713D01*
X105453410Y-46287713D02*
X105501029Y-46240094D01*
X105501029Y-46240094D02*
X105453410Y-46192475D01*
X105453410Y-46192475D02*
X105453410Y-46287713D01*
X105929600Y-46525808D02*
X105929600Y-47192475D01*
X105929600Y-46621046D02*
X105977219Y-46573427D01*
X105977219Y-46573427D02*
X106072457Y-46525808D01*
X106072457Y-46525808D02*
X106215314Y-46525808D01*
X106215314Y-46525808D02*
X106310552Y-46573427D01*
X106310552Y-46573427D02*
X106358171Y-46668665D01*
X106358171Y-46668665D02*
X106358171Y-47192475D01*
X107215314Y-47144856D02*
X107120076Y-47192475D01*
X107120076Y-47192475D02*
X106929600Y-47192475D01*
X106929600Y-47192475D02*
X106834362Y-47144856D01*
X106834362Y-47144856D02*
X106786743Y-47049617D01*
X106786743Y-47049617D02*
X106786743Y-46668665D01*
X106786743Y-46668665D02*
X106834362Y-46573427D01*
X106834362Y-46573427D02*
X106929600Y-46525808D01*
X106929600Y-46525808D02*
X107120076Y-46525808D01*
X107120076Y-46525808D02*
X107215314Y-46573427D01*
X107215314Y-46573427D02*
X107262933Y-46668665D01*
X107262933Y-46668665D02*
X107262933Y-46763903D01*
X107262933Y-46763903D02*
X106786743Y-46859141D01*
X108072457Y-47144856D02*
X107977219Y-47192475D01*
X107977219Y-47192475D02*
X107786743Y-47192475D01*
X107786743Y-47192475D02*
X107691505Y-47144856D01*
X107691505Y-47144856D02*
X107643886Y-47049617D01*
X107643886Y-47049617D02*
X107643886Y-46668665D01*
X107643886Y-46668665D02*
X107691505Y-46573427D01*
X107691505Y-46573427D02*
X107786743Y-46525808D01*
X107786743Y-46525808D02*
X107977219Y-46525808D01*
X107977219Y-46525808D02*
X108072457Y-46573427D01*
X108072457Y-46573427D02*
X108120076Y-46668665D01*
X108120076Y-46668665D02*
X108120076Y-46763903D01*
X108120076Y-46763903D02*
X107643886Y-46859141D01*
X108548648Y-47192475D02*
X108548648Y-46525808D01*
X108548648Y-46716284D02*
X108596267Y-46621046D01*
X108596267Y-46621046D02*
X108643886Y-46573427D01*
X108643886Y-46573427D02*
X108739124Y-46525808D01*
X108739124Y-46525808D02*
X108834362Y-46525808D01*
X109167696Y-47192475D02*
X109167696Y-46525808D01*
X109167696Y-46192475D02*
X109120077Y-46240094D01*
X109120077Y-46240094D02*
X109167696Y-46287713D01*
X109167696Y-46287713D02*
X109215315Y-46240094D01*
X109215315Y-46240094D02*
X109167696Y-46192475D01*
X109167696Y-46192475D02*
X109167696Y-46287713D01*
X109643886Y-46525808D02*
X109643886Y-47192475D01*
X109643886Y-46621046D02*
X109691505Y-46573427D01*
X109691505Y-46573427D02*
X109786743Y-46525808D01*
X109786743Y-46525808D02*
X109929600Y-46525808D01*
X109929600Y-46525808D02*
X110024838Y-46573427D01*
X110024838Y-46573427D02*
X110072457Y-46668665D01*
X110072457Y-46668665D02*
X110072457Y-47192475D01*
X110977219Y-46525808D02*
X110977219Y-47335332D01*
X110977219Y-47335332D02*
X110929600Y-47430570D01*
X110929600Y-47430570D02*
X110881981Y-47478189D01*
X110881981Y-47478189D02*
X110786743Y-47525808D01*
X110786743Y-47525808D02*
X110643886Y-47525808D01*
X110643886Y-47525808D02*
X110548648Y-47478189D01*
X110977219Y-47144856D02*
X110881981Y-47192475D01*
X110881981Y-47192475D02*
X110691505Y-47192475D01*
X110691505Y-47192475D02*
X110596267Y-47144856D01*
X110596267Y-47144856D02*
X110548648Y-47097236D01*
X110548648Y-47097236D02*
X110501029Y-47001998D01*
X110501029Y-47001998D02*
X110501029Y-46716284D01*
X110501029Y-46716284D02*
X110548648Y-46621046D01*
X110548648Y-46621046D02*
X110596267Y-46573427D01*
X110596267Y-46573427D02*
X110691505Y-46525808D01*
X110691505Y-46525808D02*
X110881981Y-46525808D01*
X110881981Y-46525808D02*
X110977219Y-46573427D01*
X112215315Y-47192475D02*
X112215315Y-46192475D01*
X112215315Y-46573427D02*
X112310553Y-46525808D01*
X112310553Y-46525808D02*
X112501029Y-46525808D01*
X112501029Y-46525808D02*
X112596267Y-46573427D01*
X112596267Y-46573427D02*
X112643886Y-46621046D01*
X112643886Y-46621046D02*
X112691505Y-46716284D01*
X112691505Y-46716284D02*
X112691505Y-47001998D01*
X112691505Y-47001998D02*
X112643886Y-47097236D01*
X112643886Y-47097236D02*
X112596267Y-47144856D01*
X112596267Y-47144856D02*
X112501029Y-47192475D01*
X112501029Y-47192475D02*
X112310553Y-47192475D01*
X112310553Y-47192475D02*
X112215315Y-47144856D01*
X113024839Y-46525808D02*
X113262934Y-47192475D01*
X113501029Y-46525808D02*
X113262934Y-47192475D01*
X113262934Y-47192475D02*
X113167696Y-47430570D01*
X113167696Y-47430570D02*
X113120077Y-47478189D01*
X113120077Y-47478189D02*
X113024839Y-47525808D01*
X114643887Y-46525808D02*
X114643887Y-47192475D01*
X114643887Y-46621046D02*
X114691506Y-46573427D01*
X114691506Y-46573427D02*
X114786744Y-46525808D01*
X114786744Y-46525808D02*
X114929601Y-46525808D01*
X114929601Y-46525808D02*
X115024839Y-46573427D01*
X115024839Y-46573427D02*
X115072458Y-46668665D01*
X115072458Y-46668665D02*
X115072458Y-47192475D01*
X115977220Y-47192475D02*
X115977220Y-46668665D01*
X115977220Y-46668665D02*
X115929601Y-46573427D01*
X115929601Y-46573427D02*
X115834363Y-46525808D01*
X115834363Y-46525808D02*
X115643887Y-46525808D01*
X115643887Y-46525808D02*
X115548649Y-46573427D01*
X115977220Y-47144856D02*
X115881982Y-47192475D01*
X115881982Y-47192475D02*
X115643887Y-47192475D01*
X115643887Y-47192475D02*
X115548649Y-47144856D01*
X115548649Y-47144856D02*
X115501030Y-47049617D01*
X115501030Y-47049617D02*
X115501030Y-46954379D01*
X115501030Y-46954379D02*
X115548649Y-46859141D01*
X115548649Y-46859141D02*
X115643887Y-46811522D01*
X115643887Y-46811522D02*
X115881982Y-46811522D01*
X115881982Y-46811522D02*
X115977220Y-46763903D01*
X116977220Y-47192475D02*
X116405792Y-47192475D01*
X116691506Y-47192475D02*
X116691506Y-46192475D01*
X116691506Y-46192475D02*
X116596268Y-46335332D01*
X116596268Y-46335332D02*
X116501030Y-46430570D01*
X116501030Y-46430570D02*
X116405792Y-46478189D01*
X117596268Y-46192475D02*
X117691506Y-46192475D01*
X117691506Y-46192475D02*
X117786744Y-46240094D01*
X117786744Y-46240094D02*
X117834363Y-46287713D01*
X117834363Y-46287713D02*
X117881982Y-46382951D01*
X117881982Y-46382951D02*
X117929601Y-46573427D01*
X117929601Y-46573427D02*
X117929601Y-46811522D01*
X117929601Y-46811522D02*
X117881982Y-47001998D01*
X117881982Y-47001998D02*
X117834363Y-47097236D01*
X117834363Y-47097236D02*
X117786744Y-47144856D01*
X117786744Y-47144856D02*
X117691506Y-47192475D01*
X117691506Y-47192475D02*
X117596268Y-47192475D01*
X117596268Y-47192475D02*
X117501030Y-47144856D01*
X117501030Y-47144856D02*
X117453411Y-47097236D01*
X117453411Y-47097236D02*
X117405792Y-47001998D01*
X117405792Y-47001998D02*
X117358173Y-46811522D01*
X117358173Y-46811522D02*
X117358173Y-46573427D01*
X117358173Y-46573427D02*
X117405792Y-46382951D01*
X117405792Y-46382951D02*
X117453411Y-46287713D01*
X117453411Y-46287713D02*
X117501030Y-46240094D01*
X117501030Y-46240094D02*
X117596268Y-46192475D01*
X118262935Y-46192475D02*
X118881982Y-46192475D01*
X118881982Y-46192475D02*
X118548649Y-46573427D01*
X118548649Y-46573427D02*
X118691506Y-46573427D01*
X118691506Y-46573427D02*
X118786744Y-46621046D01*
X118786744Y-46621046D02*
X118834363Y-46668665D01*
X118834363Y-46668665D02*
X118881982Y-46763903D01*
X118881982Y-46763903D02*
X118881982Y-47001998D01*
X118881982Y-47001998D02*
X118834363Y-47097236D01*
X118834363Y-47097236D02*
X118786744Y-47144856D01*
X118786744Y-47144856D02*
X118691506Y-47192475D01*
X118691506Y-47192475D02*
X118405792Y-47192475D01*
X118405792Y-47192475D02*
X118310554Y-47144856D01*
X118310554Y-47144856D02*
X118262935Y-47097236D01*
X97072455Y-48135752D02*
X97072455Y-48945276D01*
X97072455Y-48945276D02*
X97024836Y-49040514D01*
X97024836Y-49040514D02*
X96977217Y-49088133D01*
X96977217Y-49088133D02*
X96881979Y-49135752D01*
X96881979Y-49135752D02*
X96739122Y-49135752D01*
X96739122Y-49135752D02*
X96643884Y-49088133D01*
X97072455Y-48754800D02*
X96977217Y-48802419D01*
X96977217Y-48802419D02*
X96786741Y-48802419D01*
X96786741Y-48802419D02*
X96691503Y-48754800D01*
X96691503Y-48754800D02*
X96643884Y-48707180D01*
X96643884Y-48707180D02*
X96596265Y-48611942D01*
X96596265Y-48611942D02*
X96596265Y-48326228D01*
X96596265Y-48326228D02*
X96643884Y-48230990D01*
X96643884Y-48230990D02*
X96691503Y-48183371D01*
X96691503Y-48183371D02*
X96786741Y-48135752D01*
X96786741Y-48135752D02*
X96977217Y-48135752D01*
X96977217Y-48135752D02*
X97072455Y-48183371D01*
X97548646Y-48802419D02*
X97548646Y-48135752D01*
X97548646Y-47802419D02*
X97501027Y-47850038D01*
X97501027Y-47850038D02*
X97548646Y-47897657D01*
X97548646Y-47897657D02*
X97596265Y-47850038D01*
X97596265Y-47850038D02*
X97548646Y-47802419D01*
X97548646Y-47802419D02*
X97548646Y-47897657D01*
X97881979Y-48135752D02*
X98262931Y-48135752D01*
X98024836Y-47802419D02*
X98024836Y-48659561D01*
X98024836Y-48659561D02*
X98072455Y-48754800D01*
X98072455Y-48754800D02*
X98167693Y-48802419D01*
X98167693Y-48802419D02*
X98262931Y-48802419D01*
X98596265Y-48802419D02*
X98596265Y-47802419D01*
X99024836Y-48802419D02*
X99024836Y-48278609D01*
X99024836Y-48278609D02*
X98977217Y-48183371D01*
X98977217Y-48183371D02*
X98881979Y-48135752D01*
X98881979Y-48135752D02*
X98739122Y-48135752D01*
X98739122Y-48135752D02*
X98643884Y-48183371D01*
X98643884Y-48183371D02*
X98596265Y-48230990D01*
X99929598Y-48135752D02*
X99929598Y-48802419D01*
X99501027Y-48135752D02*
X99501027Y-48659561D01*
X99501027Y-48659561D02*
X99548646Y-48754800D01*
X99548646Y-48754800D02*
X99643884Y-48802419D01*
X99643884Y-48802419D02*
X99786741Y-48802419D01*
X99786741Y-48802419D02*
X99881979Y-48754800D01*
X99881979Y-48754800D02*
X99929598Y-48707180D01*
X100405789Y-48802419D02*
X100405789Y-47802419D01*
X100405789Y-48183371D02*
X100501027Y-48135752D01*
X100501027Y-48135752D02*
X100691503Y-48135752D01*
X100691503Y-48135752D02*
X100786741Y-48183371D01*
X100786741Y-48183371D02*
X100834360Y-48230990D01*
X100834360Y-48230990D02*
X100881979Y-48326228D01*
X100881979Y-48326228D02*
X100881979Y-48611942D01*
X100881979Y-48611942D02*
X100834360Y-48707180D01*
X100834360Y-48707180D02*
X100786741Y-48754800D01*
X100786741Y-48754800D02*
X100691503Y-48802419D01*
X100691503Y-48802419D02*
X100501027Y-48802419D01*
X100501027Y-48802419D02*
X100405789Y-48754800D01*
X101310551Y-48707180D02*
X101358170Y-48754800D01*
X101358170Y-48754800D02*
X101310551Y-48802419D01*
X101310551Y-48802419D02*
X101262932Y-48754800D01*
X101262932Y-48754800D02*
X101310551Y-48707180D01*
X101310551Y-48707180D02*
X101310551Y-48802419D01*
X102215312Y-48754800D02*
X102120074Y-48802419D01*
X102120074Y-48802419D02*
X101929598Y-48802419D01*
X101929598Y-48802419D02*
X101834360Y-48754800D01*
X101834360Y-48754800D02*
X101786741Y-48707180D01*
X101786741Y-48707180D02*
X101739122Y-48611942D01*
X101739122Y-48611942D02*
X101739122Y-48326228D01*
X101739122Y-48326228D02*
X101786741Y-48230990D01*
X101786741Y-48230990D02*
X101834360Y-48183371D01*
X101834360Y-48183371D02*
X101929598Y-48135752D01*
X101929598Y-48135752D02*
X102120074Y-48135752D01*
X102120074Y-48135752D02*
X102215312Y-48183371D01*
X102786741Y-48802419D02*
X102691503Y-48754800D01*
X102691503Y-48754800D02*
X102643884Y-48707180D01*
X102643884Y-48707180D02*
X102596265Y-48611942D01*
X102596265Y-48611942D02*
X102596265Y-48326228D01*
X102596265Y-48326228D02*
X102643884Y-48230990D01*
X102643884Y-48230990D02*
X102691503Y-48183371D01*
X102691503Y-48183371D02*
X102786741Y-48135752D01*
X102786741Y-48135752D02*
X102929598Y-48135752D01*
X102929598Y-48135752D02*
X103024836Y-48183371D01*
X103024836Y-48183371D02*
X103072455Y-48230990D01*
X103072455Y-48230990D02*
X103120074Y-48326228D01*
X103120074Y-48326228D02*
X103120074Y-48611942D01*
X103120074Y-48611942D02*
X103072455Y-48707180D01*
X103072455Y-48707180D02*
X103024836Y-48754800D01*
X103024836Y-48754800D02*
X102929598Y-48802419D01*
X102929598Y-48802419D02*
X102786741Y-48802419D01*
X103548646Y-48802419D02*
X103548646Y-48135752D01*
X103548646Y-48230990D02*
X103596265Y-48183371D01*
X103596265Y-48183371D02*
X103691503Y-48135752D01*
X103691503Y-48135752D02*
X103834360Y-48135752D01*
X103834360Y-48135752D02*
X103929598Y-48183371D01*
X103929598Y-48183371D02*
X103977217Y-48278609D01*
X103977217Y-48278609D02*
X103977217Y-48802419D01*
X103977217Y-48278609D02*
X104024836Y-48183371D01*
X104024836Y-48183371D02*
X104120074Y-48135752D01*
X104120074Y-48135752D02*
X104262931Y-48135752D01*
X104262931Y-48135752D02*
X104358170Y-48183371D01*
X104358170Y-48183371D02*
X104405789Y-48278609D01*
X104405789Y-48278609D02*
X104405789Y-48802419D01*
X105596264Y-47754800D02*
X104739122Y-49040514D01*
X105929598Y-48135752D02*
X105929598Y-48802419D01*
X105929598Y-48230990D02*
X105977217Y-48183371D01*
X105977217Y-48183371D02*
X106072455Y-48135752D01*
X106072455Y-48135752D02*
X106215312Y-48135752D01*
X106215312Y-48135752D02*
X106310550Y-48183371D01*
X106310550Y-48183371D02*
X106358169Y-48278609D01*
X106358169Y-48278609D02*
X106358169Y-48802419D01*
X107262931Y-48802419D02*
X107262931Y-48278609D01*
X107262931Y-48278609D02*
X107215312Y-48183371D01*
X107215312Y-48183371D02*
X107120074Y-48135752D01*
X107120074Y-48135752D02*
X106929598Y-48135752D01*
X106929598Y-48135752D02*
X106834360Y-48183371D01*
X107262931Y-48754800D02*
X107167693Y-48802419D01*
X107167693Y-48802419D02*
X106929598Y-48802419D01*
X106929598Y-48802419D02*
X106834360Y-48754800D01*
X106834360Y-48754800D02*
X106786741Y-48659561D01*
X106786741Y-48659561D02*
X106786741Y-48564323D01*
X106786741Y-48564323D02*
X106834360Y-48469085D01*
X106834360Y-48469085D02*
X106929598Y-48421466D01*
X106929598Y-48421466D02*
X107167693Y-48421466D01*
X107167693Y-48421466D02*
X107262931Y-48373847D01*
X108262931Y-48802419D02*
X107691503Y-48802419D01*
X107977217Y-48802419D02*
X107977217Y-47802419D01*
X107977217Y-47802419D02*
X107881979Y-47945276D01*
X107881979Y-47945276D02*
X107786741Y-48040514D01*
X107786741Y-48040514D02*
X107691503Y-48088133D01*
X108881979Y-47802419D02*
X108977217Y-47802419D01*
X108977217Y-47802419D02*
X109072455Y-47850038D01*
X109072455Y-47850038D02*
X109120074Y-47897657D01*
X109120074Y-47897657D02*
X109167693Y-47992895D01*
X109167693Y-47992895D02*
X109215312Y-48183371D01*
X109215312Y-48183371D02*
X109215312Y-48421466D01*
X109215312Y-48421466D02*
X109167693Y-48611942D01*
X109167693Y-48611942D02*
X109120074Y-48707180D01*
X109120074Y-48707180D02*
X109072455Y-48754800D01*
X109072455Y-48754800D02*
X108977217Y-48802419D01*
X108977217Y-48802419D02*
X108881979Y-48802419D01*
X108881979Y-48802419D02*
X108786741Y-48754800D01*
X108786741Y-48754800D02*
X108739122Y-48707180D01*
X108739122Y-48707180D02*
X108691503Y-48611942D01*
X108691503Y-48611942D02*
X108643884Y-48421466D01*
X108643884Y-48421466D02*
X108643884Y-48183371D01*
X108643884Y-48183371D02*
X108691503Y-47992895D01*
X108691503Y-47992895D02*
X108739122Y-47897657D01*
X108739122Y-47897657D02*
X108786741Y-47850038D01*
X108786741Y-47850038D02*
X108881979Y-47802419D01*
X109548646Y-47802419D02*
X110167693Y-47802419D01*
X110167693Y-47802419D02*
X109834360Y-48183371D01*
X109834360Y-48183371D02*
X109977217Y-48183371D01*
X109977217Y-48183371D02*
X110072455Y-48230990D01*
X110072455Y-48230990D02*
X110120074Y-48278609D01*
X110120074Y-48278609D02*
X110167693Y-48373847D01*
X110167693Y-48373847D02*
X110167693Y-48611942D01*
X110167693Y-48611942D02*
X110120074Y-48707180D01*
X110120074Y-48707180D02*
X110072455Y-48754800D01*
X110072455Y-48754800D02*
X109977217Y-48802419D01*
X109977217Y-48802419D02*
X109691503Y-48802419D01*
X109691503Y-48802419D02*
X109596265Y-48754800D01*
X109596265Y-48754800D02*
X109548646Y-48707180D01*
X111310550Y-47754800D02*
X110453408Y-49040514D01*
X111643884Y-48802419D02*
X111643884Y-47802419D01*
X111643884Y-48183371D02*
X111739122Y-48135752D01*
X111739122Y-48135752D02*
X111929598Y-48135752D01*
X111929598Y-48135752D02*
X112024836Y-48183371D01*
X112024836Y-48183371D02*
X112072455Y-48230990D01*
X112072455Y-48230990D02*
X112120074Y-48326228D01*
X112120074Y-48326228D02*
X112120074Y-48611942D01*
X112120074Y-48611942D02*
X112072455Y-48707180D01*
X112072455Y-48707180D02*
X112024836Y-48754800D01*
X112024836Y-48754800D02*
X111929598Y-48802419D01*
X111929598Y-48802419D02*
X111739122Y-48802419D01*
X111739122Y-48802419D02*
X111643884Y-48754800D01*
X112548646Y-48802419D02*
X112548646Y-47802419D01*
X112548646Y-48183371D02*
X112643884Y-48135752D01*
X112643884Y-48135752D02*
X112834360Y-48135752D01*
X112834360Y-48135752D02*
X112929598Y-48183371D01*
X112929598Y-48183371D02*
X112977217Y-48230990D01*
X112977217Y-48230990D02*
X113024836Y-48326228D01*
X113024836Y-48326228D02*
X113024836Y-48611942D01*
X113024836Y-48611942D02*
X112977217Y-48707180D01*
X112977217Y-48707180D02*
X112929598Y-48754800D01*
X112929598Y-48754800D02*
X112834360Y-48802419D01*
X112834360Y-48802419D02*
X112643884Y-48802419D01*
X112643884Y-48802419D02*
X112548646Y-48754800D01*
X113881979Y-48802419D02*
X113881979Y-48278609D01*
X113881979Y-48278609D02*
X113834360Y-48183371D01*
X113834360Y-48183371D02*
X113739122Y-48135752D01*
X113739122Y-48135752D02*
X113548646Y-48135752D01*
X113548646Y-48135752D02*
X113453408Y-48183371D01*
X113881979Y-48754800D02*
X113786741Y-48802419D01*
X113786741Y-48802419D02*
X113548646Y-48802419D01*
X113548646Y-48802419D02*
X113453408Y-48754800D01*
X113453408Y-48754800D02*
X113405789Y-48659561D01*
X113405789Y-48659561D02*
X113405789Y-48564323D01*
X113405789Y-48564323D02*
X113453408Y-48469085D01*
X113453408Y-48469085D02*
X113548646Y-48421466D01*
X113548646Y-48421466D02*
X113786741Y-48421466D01*
X113786741Y-48421466D02*
X113881979Y-48373847D01*
X114358170Y-48802419D02*
X114358170Y-48135752D01*
X114358170Y-48326228D02*
X114405789Y-48230990D01*
X114405789Y-48230990D02*
X114453408Y-48183371D01*
X114453408Y-48183371D02*
X114548646Y-48135752D01*
X114548646Y-48135752D02*
X114643884Y-48135752D01*
X114881980Y-47802419D02*
X115501027Y-47802419D01*
X115501027Y-47802419D02*
X115167694Y-48183371D01*
X115167694Y-48183371D02*
X115310551Y-48183371D01*
X115310551Y-48183371D02*
X115405789Y-48230990D01*
X115405789Y-48230990D02*
X115453408Y-48278609D01*
X115453408Y-48278609D02*
X115501027Y-48373847D01*
X115501027Y-48373847D02*
X115501027Y-48611942D01*
X115501027Y-48611942D02*
X115453408Y-48707180D01*
X115453408Y-48707180D02*
X115405789Y-48754800D01*
X115405789Y-48754800D02*
X115310551Y-48802419D01*
X115310551Y-48802419D02*
X115024837Y-48802419D01*
X115024837Y-48802419D02*
X114929599Y-48754800D01*
X114929599Y-48754800D02*
X114881980Y-48707180D01*
D10*
X167210225Y-44740828D02*
X167495939Y-44740828D01*
X167495939Y-44740828D02*
X167638796Y-44812257D01*
X167638796Y-44812257D02*
X167781653Y-44955114D01*
X167781653Y-44955114D02*
X167853082Y-45240828D01*
X167853082Y-45240828D02*
X167853082Y-45740828D01*
X167853082Y-45740828D02*
X167781653Y-46026542D01*
X167781653Y-46026542D02*
X167638796Y-46169400D01*
X167638796Y-46169400D02*
X167495939Y-46240828D01*
X167495939Y-46240828D02*
X167210225Y-46240828D01*
X167210225Y-46240828D02*
X167067368Y-46169400D01*
X167067368Y-46169400D02*
X166924510Y-46026542D01*
X166924510Y-46026542D02*
X166853082Y-45740828D01*
X166853082Y-45740828D02*
X166853082Y-45240828D01*
X166853082Y-45240828D02*
X166924510Y-44955114D01*
X166924510Y-44955114D02*
X167067368Y-44812257D01*
X167067368Y-44812257D02*
X167210225Y-44740828D01*
X168281654Y-45240828D02*
X168853082Y-45240828D01*
X168495939Y-46240828D02*
X168495939Y-44955114D01*
X168495939Y-44955114D02*
X168567368Y-44812257D01*
X168567368Y-44812257D02*
X168710225Y-44740828D01*
X168710225Y-44740828D02*
X168853082Y-44740828D01*
X169138797Y-45240828D02*
X169710225Y-45240828D01*
X169353082Y-46240828D02*
X169353082Y-44955114D01*
X169353082Y-44955114D02*
X169424511Y-44812257D01*
X169424511Y-44812257D02*
X169567368Y-44740828D01*
X169567368Y-44740828D02*
X169710225Y-44740828D01*
D12*
X101857142Y-103564819D02*
X101523809Y-103088628D01*
X101285714Y-103564819D02*
X101285714Y-102564819D01*
X101285714Y-102564819D02*
X101666666Y-102564819D01*
X101666666Y-102564819D02*
X101761904Y-102612438D01*
X101761904Y-102612438D02*
X101809523Y-102660057D01*
X101809523Y-102660057D02*
X101857142Y-102755295D01*
X101857142Y-102755295D02*
X101857142Y-102898152D01*
X101857142Y-102898152D02*
X101809523Y-102993390D01*
X101809523Y-102993390D02*
X101761904Y-103041009D01*
X101761904Y-103041009D02*
X101666666Y-103088628D01*
X101666666Y-103088628D02*
X101285714Y-103088628D01*
X102809523Y-103564819D02*
X102238095Y-103564819D01*
X102523809Y-103564819D02*
X102523809Y-102564819D01*
X102523809Y-102564819D02*
X102428571Y-102707676D01*
X102428571Y-102707676D02*
X102333333Y-102802914D01*
X102333333Y-102802914D02*
X102238095Y-102850533D01*
X103666666Y-102564819D02*
X103476190Y-102564819D01*
X103476190Y-102564819D02*
X103380952Y-102612438D01*
X103380952Y-102612438D02*
X103333333Y-102660057D01*
X103333333Y-102660057D02*
X103238095Y-102802914D01*
X103238095Y-102802914D02*
X103190476Y-102993390D01*
X103190476Y-102993390D02*
X103190476Y-103374342D01*
X103190476Y-103374342D02*
X103238095Y-103469580D01*
X103238095Y-103469580D02*
X103285714Y-103517200D01*
X103285714Y-103517200D02*
X103380952Y-103564819D01*
X103380952Y-103564819D02*
X103571428Y-103564819D01*
X103571428Y-103564819D02*
X103666666Y-103517200D01*
X103666666Y-103517200D02*
X103714285Y-103469580D01*
X103714285Y-103469580D02*
X103761904Y-103374342D01*
X103761904Y-103374342D02*
X103761904Y-103136247D01*
X103761904Y-103136247D02*
X103714285Y-103041009D01*
X103714285Y-103041009D02*
X103666666Y-102993390D01*
X103666666Y-102993390D02*
X103571428Y-102945771D01*
X103571428Y-102945771D02*
X103380952Y-102945771D01*
X103380952Y-102945771D02*
X103285714Y-102993390D01*
X103285714Y-102993390D02*
X103238095Y-103041009D01*
X103238095Y-103041009D02*
X103190476Y-103136247D01*
X101837142Y-108584819D02*
X101503809Y-108108628D01*
X101265714Y-108584819D02*
X101265714Y-107584819D01*
X101265714Y-107584819D02*
X101646666Y-107584819D01*
X101646666Y-107584819D02*
X101741904Y-107632438D01*
X101741904Y-107632438D02*
X101789523Y-107680057D01*
X101789523Y-107680057D02*
X101837142Y-107775295D01*
X101837142Y-107775295D02*
X101837142Y-107918152D01*
X101837142Y-107918152D02*
X101789523Y-108013390D01*
X101789523Y-108013390D02*
X101741904Y-108061009D01*
X101741904Y-108061009D02*
X101646666Y-108108628D01*
X101646666Y-108108628D02*
X101265714Y-108108628D01*
X102789523Y-108584819D02*
X102218095Y-108584819D01*
X102503809Y-108584819D02*
X102503809Y-107584819D01*
X102503809Y-107584819D02*
X102408571Y-107727676D01*
X102408571Y-107727676D02*
X102313333Y-107822914D01*
X102313333Y-107822914D02*
X102218095Y-107870533D01*
X103646666Y-107918152D02*
X103646666Y-108584819D01*
X103408571Y-107537200D02*
X103170476Y-108251485D01*
X103170476Y-108251485D02*
X103789523Y-108251485D01*
X175231667Y-48537200D02*
X175374524Y-48584819D01*
X175374524Y-48584819D02*
X175612619Y-48584819D01*
X175612619Y-48584819D02*
X175707857Y-48537200D01*
X175707857Y-48537200D02*
X175755476Y-48489580D01*
X175755476Y-48489580D02*
X175803095Y-48394342D01*
X175803095Y-48394342D02*
X175803095Y-48299104D01*
X175803095Y-48299104D02*
X175755476Y-48203866D01*
X175755476Y-48203866D02*
X175707857Y-48156247D01*
X175707857Y-48156247D02*
X175612619Y-48108628D01*
X175612619Y-48108628D02*
X175422143Y-48061009D01*
X175422143Y-48061009D02*
X175326905Y-48013390D01*
X175326905Y-48013390D02*
X175279286Y-47965771D01*
X175279286Y-47965771D02*
X175231667Y-47870533D01*
X175231667Y-47870533D02*
X175231667Y-47775295D01*
X175231667Y-47775295D02*
X175279286Y-47680057D01*
X175279286Y-47680057D02*
X175326905Y-47632438D01*
X175326905Y-47632438D02*
X175422143Y-47584819D01*
X175422143Y-47584819D02*
X175660238Y-47584819D01*
X175660238Y-47584819D02*
X175803095Y-47632438D01*
X176136429Y-47584819D02*
X176374524Y-48584819D01*
X176374524Y-48584819D02*
X176565000Y-47870533D01*
X176565000Y-47870533D02*
X176755476Y-48584819D01*
X176755476Y-48584819D02*
X176993572Y-47584819D01*
X177898333Y-48584819D02*
X177326905Y-48584819D01*
X177612619Y-48584819D02*
X177612619Y-47584819D01*
X177612619Y-47584819D02*
X177517381Y-47727676D01*
X177517381Y-47727676D02*
X177422143Y-47822914D01*
X177422143Y-47822914D02*
X177326905Y-47870533D01*
X188948333Y-52014581D02*
X188900714Y-52062201D01*
X188900714Y-52062201D02*
X188757857Y-52109820D01*
X188757857Y-52109820D02*
X188662619Y-52109820D01*
X188662619Y-52109820D02*
X188519762Y-52062201D01*
X188519762Y-52062201D02*
X188424524Y-51966962D01*
X188424524Y-51966962D02*
X188376905Y-51871724D01*
X188376905Y-51871724D02*
X188329286Y-51681248D01*
X188329286Y-51681248D02*
X188329286Y-51538391D01*
X188329286Y-51538391D02*
X188376905Y-51347915D01*
X188376905Y-51347915D02*
X188424524Y-51252677D01*
X188424524Y-51252677D02*
X188519762Y-51157439D01*
X188519762Y-51157439D02*
X188662619Y-51109820D01*
X188662619Y-51109820D02*
X188757857Y-51109820D01*
X188757857Y-51109820D02*
X188900714Y-51157439D01*
X188900714Y-51157439D02*
X188948333Y-51205058D01*
X189900714Y-52109820D02*
X189329286Y-52109820D01*
X189615000Y-52109820D02*
X189615000Y-51109820D01*
X189615000Y-51109820D02*
X189519762Y-51252677D01*
X189519762Y-51252677D02*
X189424524Y-51347915D01*
X189424524Y-51347915D02*
X189329286Y-51395534D01*
X156697295Y-73382319D02*
X156697295Y-74191842D01*
X156697295Y-74191842D02*
X156744914Y-74287080D01*
X156744914Y-74287080D02*
X156792533Y-74334700D01*
X156792533Y-74334700D02*
X156887771Y-74382319D01*
X156887771Y-74382319D02*
X157078247Y-74382319D01*
X157078247Y-74382319D02*
X157173485Y-74334700D01*
X157173485Y-74334700D02*
X157221104Y-74287080D01*
X157221104Y-74287080D02*
X157268723Y-74191842D01*
X157268723Y-74191842D02*
X157268723Y-73382319D01*
X157792533Y-74382319D02*
X157983009Y-74382319D01*
X157983009Y-74382319D02*
X158078247Y-74334700D01*
X158078247Y-74334700D02*
X158125866Y-74287080D01*
X158125866Y-74287080D02*
X158221104Y-74144223D01*
X158221104Y-74144223D02*
X158268723Y-73953747D01*
X158268723Y-73953747D02*
X158268723Y-73572795D01*
X158268723Y-73572795D02*
X158221104Y-73477557D01*
X158221104Y-73477557D02*
X158173485Y-73429938D01*
X158173485Y-73429938D02*
X158078247Y-73382319D01*
X158078247Y-73382319D02*
X157887771Y-73382319D01*
X157887771Y-73382319D02*
X157792533Y-73429938D01*
X157792533Y-73429938D02*
X157744914Y-73477557D01*
X157744914Y-73477557D02*
X157697295Y-73572795D01*
X157697295Y-73572795D02*
X157697295Y-73810890D01*
X157697295Y-73810890D02*
X157744914Y-73906128D01*
X157744914Y-73906128D02*
X157792533Y-73953747D01*
X157792533Y-73953747D02*
X157887771Y-74001366D01*
X157887771Y-74001366D02*
X158078247Y-74001366D01*
X158078247Y-74001366D02*
X158173485Y-73953747D01*
X158173485Y-73953747D02*
X158221104Y-73906128D01*
X158221104Y-73906128D02*
X158268723Y-73810890D01*
X195355057Y-105100238D02*
X195307438Y-105195476D01*
X195307438Y-105195476D02*
X195212200Y-105290714D01*
X195212200Y-105290714D02*
X195069342Y-105433571D01*
X195069342Y-105433571D02*
X195021723Y-105528809D01*
X195021723Y-105528809D02*
X195021723Y-105624047D01*
X195259819Y-105576428D02*
X195212200Y-105671666D01*
X195212200Y-105671666D02*
X195116961Y-105766904D01*
X195116961Y-105766904D02*
X194926485Y-105814523D01*
X194926485Y-105814523D02*
X194593152Y-105814523D01*
X194593152Y-105814523D02*
X194402676Y-105766904D01*
X194402676Y-105766904D02*
X194307438Y-105671666D01*
X194307438Y-105671666D02*
X194259819Y-105576428D01*
X194259819Y-105576428D02*
X194259819Y-105385952D01*
X194259819Y-105385952D02*
X194307438Y-105290714D01*
X194307438Y-105290714D02*
X194402676Y-105195476D01*
X194402676Y-105195476D02*
X194593152Y-105147857D01*
X194593152Y-105147857D02*
X194926485Y-105147857D01*
X194926485Y-105147857D02*
X195116961Y-105195476D01*
X195116961Y-105195476D02*
X195212200Y-105290714D01*
X195212200Y-105290714D02*
X195259819Y-105385952D01*
X195259819Y-105385952D02*
X195259819Y-105576428D01*
X195259819Y-104195476D02*
X195259819Y-104766904D01*
X195259819Y-104481190D02*
X194259819Y-104481190D01*
X194259819Y-104481190D02*
X194402676Y-104576428D01*
X194402676Y-104576428D02*
X194497914Y-104671666D01*
X194497914Y-104671666D02*
X194545533Y-104766904D01*
X101797142Y-101124819D02*
X101463809Y-100648628D01*
X101225714Y-101124819D02*
X101225714Y-100124819D01*
X101225714Y-100124819D02*
X101606666Y-100124819D01*
X101606666Y-100124819D02*
X101701904Y-100172438D01*
X101701904Y-100172438D02*
X101749523Y-100220057D01*
X101749523Y-100220057D02*
X101797142Y-100315295D01*
X101797142Y-100315295D02*
X101797142Y-100458152D01*
X101797142Y-100458152D02*
X101749523Y-100553390D01*
X101749523Y-100553390D02*
X101701904Y-100601009D01*
X101701904Y-100601009D02*
X101606666Y-100648628D01*
X101606666Y-100648628D02*
X101225714Y-100648628D01*
X102749523Y-101124819D02*
X102178095Y-101124819D01*
X102463809Y-101124819D02*
X102463809Y-100124819D01*
X102463809Y-100124819D02*
X102368571Y-100267676D01*
X102368571Y-100267676D02*
X102273333Y-100362914D01*
X102273333Y-100362914D02*
X102178095Y-100410533D01*
X103082857Y-100124819D02*
X103749523Y-100124819D01*
X103749523Y-100124819D02*
X103320952Y-101124819D01*
X168178095Y-103624819D02*
X168178095Y-104434342D01*
X168178095Y-104434342D02*
X168225714Y-104529580D01*
X168225714Y-104529580D02*
X168273333Y-104577200D01*
X168273333Y-104577200D02*
X168368571Y-104624819D01*
X168368571Y-104624819D02*
X168559047Y-104624819D01*
X168559047Y-104624819D02*
X168654285Y-104577200D01*
X168654285Y-104577200D02*
X168701904Y-104529580D01*
X168701904Y-104529580D02*
X168749523Y-104434342D01*
X168749523Y-104434342D02*
X168749523Y-103624819D01*
X169654285Y-103958152D02*
X169654285Y-104624819D01*
X169416190Y-103577200D02*
X169178095Y-104291485D01*
X169178095Y-104291485D02*
X169797142Y-104291485D01*
X106319819Y-85646666D02*
X105843628Y-85979999D01*
X106319819Y-86218094D02*
X105319819Y-86218094D01*
X105319819Y-86218094D02*
X105319819Y-85837142D01*
X105319819Y-85837142D02*
X105367438Y-85741904D01*
X105367438Y-85741904D02*
X105415057Y-85694285D01*
X105415057Y-85694285D02*
X105510295Y-85646666D01*
X105510295Y-85646666D02*
X105653152Y-85646666D01*
X105653152Y-85646666D02*
X105748390Y-85694285D01*
X105748390Y-85694285D02*
X105796009Y-85741904D01*
X105796009Y-85741904D02*
X105843628Y-85837142D01*
X105843628Y-85837142D02*
X105843628Y-86218094D01*
X105319819Y-85313332D02*
X105319819Y-84694285D01*
X105319819Y-84694285D02*
X105700771Y-85027618D01*
X105700771Y-85027618D02*
X105700771Y-84884761D01*
X105700771Y-84884761D02*
X105748390Y-84789523D01*
X105748390Y-84789523D02*
X105796009Y-84741904D01*
X105796009Y-84741904D02*
X105891247Y-84694285D01*
X105891247Y-84694285D02*
X106129342Y-84694285D01*
X106129342Y-84694285D02*
X106224580Y-84741904D01*
X106224580Y-84741904D02*
X106272200Y-84789523D01*
X106272200Y-84789523D02*
X106319819Y-84884761D01*
X106319819Y-84884761D02*
X106319819Y-85170475D01*
X106319819Y-85170475D02*
X106272200Y-85265713D01*
X106272200Y-85265713D02*
X106224580Y-85313332D01*
X187549580Y-63721666D02*
X187597200Y-63769285D01*
X187597200Y-63769285D02*
X187644819Y-63912142D01*
X187644819Y-63912142D02*
X187644819Y-64007380D01*
X187644819Y-64007380D02*
X187597200Y-64150237D01*
X187597200Y-64150237D02*
X187501961Y-64245475D01*
X187501961Y-64245475D02*
X187406723Y-64293094D01*
X187406723Y-64293094D02*
X187216247Y-64340713D01*
X187216247Y-64340713D02*
X187073390Y-64340713D01*
X187073390Y-64340713D02*
X186882914Y-64293094D01*
X186882914Y-64293094D02*
X186787676Y-64245475D01*
X186787676Y-64245475D02*
X186692438Y-64150237D01*
X186692438Y-64150237D02*
X186644819Y-64007380D01*
X186644819Y-64007380D02*
X186644819Y-63912142D01*
X186644819Y-63912142D02*
X186692438Y-63769285D01*
X186692438Y-63769285D02*
X186740057Y-63721666D01*
X186740057Y-63340713D02*
X186692438Y-63293094D01*
X186692438Y-63293094D02*
X186644819Y-63197856D01*
X186644819Y-63197856D02*
X186644819Y-62959761D01*
X186644819Y-62959761D02*
X186692438Y-62864523D01*
X186692438Y-62864523D02*
X186740057Y-62816904D01*
X186740057Y-62816904D02*
X186835295Y-62769285D01*
X186835295Y-62769285D02*
X186930533Y-62769285D01*
X186930533Y-62769285D02*
X187073390Y-62816904D01*
X187073390Y-62816904D02*
X187644819Y-63388332D01*
X187644819Y-63388332D02*
X187644819Y-62769285D01*
X204524286Y-138180057D02*
X204571905Y-138132438D01*
X204571905Y-138132438D02*
X204667143Y-138084819D01*
X204667143Y-138084819D02*
X204905238Y-138084819D01*
X204905238Y-138084819D02*
X205000476Y-138132438D01*
X205000476Y-138132438D02*
X205048095Y-138180057D01*
X205048095Y-138180057D02*
X205095714Y-138275295D01*
X205095714Y-138275295D02*
X205095714Y-138370533D01*
X205095714Y-138370533D02*
X205048095Y-138513390D01*
X205048095Y-138513390D02*
X204476667Y-139084819D01*
X204476667Y-139084819D02*
X205095714Y-139084819D01*
X94658571Y-138693390D02*
X94563333Y-138645771D01*
X94563333Y-138645771D02*
X94515714Y-138598152D01*
X94515714Y-138598152D02*
X94468095Y-138502914D01*
X94468095Y-138502914D02*
X94468095Y-138455295D01*
X94468095Y-138455295D02*
X94515714Y-138360057D01*
X94515714Y-138360057D02*
X94563333Y-138312438D01*
X94563333Y-138312438D02*
X94658571Y-138264819D01*
X94658571Y-138264819D02*
X94849047Y-138264819D01*
X94849047Y-138264819D02*
X94944285Y-138312438D01*
X94944285Y-138312438D02*
X94991904Y-138360057D01*
X94991904Y-138360057D02*
X95039523Y-138455295D01*
X95039523Y-138455295D02*
X95039523Y-138502914D01*
X95039523Y-138502914D02*
X94991904Y-138598152D01*
X94991904Y-138598152D02*
X94944285Y-138645771D01*
X94944285Y-138645771D02*
X94849047Y-138693390D01*
X94849047Y-138693390D02*
X94658571Y-138693390D01*
X94658571Y-138693390D02*
X94563333Y-138741009D01*
X94563333Y-138741009D02*
X94515714Y-138788628D01*
X94515714Y-138788628D02*
X94468095Y-138883866D01*
X94468095Y-138883866D02*
X94468095Y-139074342D01*
X94468095Y-139074342D02*
X94515714Y-139169580D01*
X94515714Y-139169580D02*
X94563333Y-139217200D01*
X94563333Y-139217200D02*
X94658571Y-139264819D01*
X94658571Y-139264819D02*
X94849047Y-139264819D01*
X94849047Y-139264819D02*
X94944285Y-139217200D01*
X94944285Y-139217200D02*
X94991904Y-139169580D01*
X94991904Y-139169580D02*
X95039523Y-139074342D01*
X95039523Y-139074342D02*
X95039523Y-138883866D01*
X95039523Y-138883866D02*
X94991904Y-138788628D01*
X94991904Y-138788628D02*
X94944285Y-138741009D01*
X94944285Y-138741009D02*
X94849047Y-138693390D01*
X95896666Y-138264819D02*
X95706190Y-138264819D01*
X95706190Y-138264819D02*
X95610952Y-138312438D01*
X95610952Y-138312438D02*
X95563333Y-138360057D01*
X95563333Y-138360057D02*
X95468095Y-138502914D01*
X95468095Y-138502914D02*
X95420476Y-138693390D01*
X95420476Y-138693390D02*
X95420476Y-139074342D01*
X95420476Y-139074342D02*
X95468095Y-139169580D01*
X95468095Y-139169580D02*
X95515714Y-139217200D01*
X95515714Y-139217200D02*
X95610952Y-139264819D01*
X95610952Y-139264819D02*
X95801428Y-139264819D01*
X95801428Y-139264819D02*
X95896666Y-139217200D01*
X95896666Y-139217200D02*
X95944285Y-139169580D01*
X95944285Y-139169580D02*
X95991904Y-139074342D01*
X95991904Y-139074342D02*
X95991904Y-138836247D01*
X95991904Y-138836247D02*
X95944285Y-138741009D01*
X95944285Y-138741009D02*
X95896666Y-138693390D01*
X95896666Y-138693390D02*
X95801428Y-138645771D01*
X95801428Y-138645771D02*
X95610952Y-138645771D01*
X95610952Y-138645771D02*
X95515714Y-138693390D01*
X95515714Y-138693390D02*
X95468095Y-138741009D01*
X95468095Y-138741009D02*
X95420476Y-138836247D01*
X142101904Y-138454819D02*
X141625714Y-138454819D01*
X141625714Y-138454819D02*
X141578095Y-138931009D01*
X141578095Y-138931009D02*
X141625714Y-138883390D01*
X141625714Y-138883390D02*
X141720952Y-138835771D01*
X141720952Y-138835771D02*
X141959047Y-138835771D01*
X141959047Y-138835771D02*
X142054285Y-138883390D01*
X142054285Y-138883390D02*
X142101904Y-138931009D01*
X142101904Y-138931009D02*
X142149523Y-139026247D01*
X142149523Y-139026247D02*
X142149523Y-139264342D01*
X142149523Y-139264342D02*
X142101904Y-139359580D01*
X142101904Y-139359580D02*
X142054285Y-139407200D01*
X142054285Y-139407200D02*
X141959047Y-139454819D01*
X141959047Y-139454819D02*
X141720952Y-139454819D01*
X141720952Y-139454819D02*
X141625714Y-139407200D01*
X141625714Y-139407200D02*
X141578095Y-139359580D01*
X142768571Y-138454819D02*
X142863809Y-138454819D01*
X142863809Y-138454819D02*
X142959047Y-138502438D01*
X142959047Y-138502438D02*
X143006666Y-138550057D01*
X143006666Y-138550057D02*
X143054285Y-138645295D01*
X143054285Y-138645295D02*
X143101904Y-138835771D01*
X143101904Y-138835771D02*
X143101904Y-139073866D01*
X143101904Y-139073866D02*
X143054285Y-139264342D01*
X143054285Y-139264342D02*
X143006666Y-139359580D01*
X143006666Y-139359580D02*
X142959047Y-139407200D01*
X142959047Y-139407200D02*
X142863809Y-139454819D01*
X142863809Y-139454819D02*
X142768571Y-139454819D01*
X142768571Y-139454819D02*
X142673333Y-139407200D01*
X142673333Y-139407200D02*
X142625714Y-139359580D01*
X142625714Y-139359580D02*
X142578095Y-139264342D01*
X142578095Y-139264342D02*
X142530476Y-139073866D01*
X142530476Y-139073866D02*
X142530476Y-138835771D01*
X142530476Y-138835771D02*
X142578095Y-138645295D01*
X142578095Y-138645295D02*
X142625714Y-138550057D01*
X142625714Y-138550057D02*
X142673333Y-138502438D01*
X142673333Y-138502438D02*
X142768571Y-138454819D01*
D13*
X150393095Y-135123365D02*
X150332619Y-135183842D01*
X150332619Y-135183842D02*
X150151190Y-135244318D01*
X150151190Y-135244318D02*
X150030238Y-135244318D01*
X150030238Y-135244318D02*
X149848809Y-135183842D01*
X149848809Y-135183842D02*
X149727857Y-135062889D01*
X149727857Y-135062889D02*
X149667380Y-134941937D01*
X149667380Y-134941937D02*
X149606904Y-134700032D01*
X149606904Y-134700032D02*
X149606904Y-134518603D01*
X149606904Y-134518603D02*
X149667380Y-134276699D01*
X149667380Y-134276699D02*
X149727857Y-134155746D01*
X149727857Y-134155746D02*
X149848809Y-134034794D01*
X149848809Y-134034794D02*
X150030238Y-133974318D01*
X150030238Y-133974318D02*
X150151190Y-133974318D01*
X150151190Y-133974318D02*
X150332619Y-134034794D01*
X150332619Y-134034794D02*
X150393095Y-134095270D01*
X150937380Y-135244318D02*
X150937380Y-133974318D01*
X150937380Y-133974318D02*
X151663095Y-135244318D01*
X151663095Y-135244318D02*
X151663095Y-133974318D01*
X152933095Y-135244318D02*
X152207380Y-135244318D01*
X152570237Y-135244318D02*
X152570237Y-133974318D01*
X152570237Y-133974318D02*
X152449285Y-134155746D01*
X152449285Y-134155746D02*
X152328333Y-134276699D01*
X152328333Y-134276699D02*
X152207380Y-134337175D01*
D12*
X102233333Y-121214819D02*
X101900000Y-120738628D01*
X101661905Y-121214819D02*
X101661905Y-120214819D01*
X101661905Y-120214819D02*
X102042857Y-120214819D01*
X102042857Y-120214819D02*
X102138095Y-120262438D01*
X102138095Y-120262438D02*
X102185714Y-120310057D01*
X102185714Y-120310057D02*
X102233333Y-120405295D01*
X102233333Y-120405295D02*
X102233333Y-120548152D01*
X102233333Y-120548152D02*
X102185714Y-120643390D01*
X102185714Y-120643390D02*
X102138095Y-120691009D01*
X102138095Y-120691009D02*
X102042857Y-120738628D01*
X102042857Y-120738628D02*
X101661905Y-120738628D01*
X102709524Y-121214819D02*
X102900000Y-121214819D01*
X102900000Y-121214819D02*
X102995238Y-121167200D01*
X102995238Y-121167200D02*
X103042857Y-121119580D01*
X103042857Y-121119580D02*
X103138095Y-120976723D01*
X103138095Y-120976723D02*
X103185714Y-120786247D01*
X103185714Y-120786247D02*
X103185714Y-120405295D01*
X103185714Y-120405295D02*
X103138095Y-120310057D01*
X103138095Y-120310057D02*
X103090476Y-120262438D01*
X103090476Y-120262438D02*
X102995238Y-120214819D01*
X102995238Y-120214819D02*
X102804762Y-120214819D01*
X102804762Y-120214819D02*
X102709524Y-120262438D01*
X102709524Y-120262438D02*
X102661905Y-120310057D01*
X102661905Y-120310057D02*
X102614286Y-120405295D01*
X102614286Y-120405295D02*
X102614286Y-120643390D01*
X102614286Y-120643390D02*
X102661905Y-120738628D01*
X102661905Y-120738628D02*
X102709524Y-120786247D01*
X102709524Y-120786247D02*
X102804762Y-120833866D01*
X102804762Y-120833866D02*
X102995238Y-120833866D01*
X102995238Y-120833866D02*
X103090476Y-120786247D01*
X103090476Y-120786247D02*
X103138095Y-120738628D01*
X103138095Y-120738628D02*
X103185714Y-120643390D01*
X101867142Y-113684819D02*
X101533809Y-113208628D01*
X101295714Y-113684819D02*
X101295714Y-112684819D01*
X101295714Y-112684819D02*
X101676666Y-112684819D01*
X101676666Y-112684819D02*
X101771904Y-112732438D01*
X101771904Y-112732438D02*
X101819523Y-112780057D01*
X101819523Y-112780057D02*
X101867142Y-112875295D01*
X101867142Y-112875295D02*
X101867142Y-113018152D01*
X101867142Y-113018152D02*
X101819523Y-113113390D01*
X101819523Y-113113390D02*
X101771904Y-113161009D01*
X101771904Y-113161009D02*
X101676666Y-113208628D01*
X101676666Y-113208628D02*
X101295714Y-113208628D01*
X102819523Y-113684819D02*
X102248095Y-113684819D01*
X102533809Y-113684819D02*
X102533809Y-112684819D01*
X102533809Y-112684819D02*
X102438571Y-112827676D01*
X102438571Y-112827676D02*
X102343333Y-112922914D01*
X102343333Y-112922914D02*
X102248095Y-112970533D01*
X103200476Y-112780057D02*
X103248095Y-112732438D01*
X103248095Y-112732438D02*
X103343333Y-112684819D01*
X103343333Y-112684819D02*
X103581428Y-112684819D01*
X103581428Y-112684819D02*
X103676666Y-112732438D01*
X103676666Y-112732438D02*
X103724285Y-112780057D01*
X103724285Y-112780057D02*
X103771904Y-112875295D01*
X103771904Y-112875295D02*
X103771904Y-112970533D01*
X103771904Y-112970533D02*
X103724285Y-113113390D01*
X103724285Y-113113390D02*
X103152857Y-113684819D01*
X103152857Y-113684819D02*
X103771904Y-113684819D01*
X136648095Y-73139819D02*
X136648095Y-73949342D01*
X136648095Y-73949342D02*
X136695714Y-74044580D01*
X136695714Y-74044580D02*
X136743333Y-74092200D01*
X136743333Y-74092200D02*
X136838571Y-74139819D01*
X136838571Y-74139819D02*
X137029047Y-74139819D01*
X137029047Y-74139819D02*
X137124285Y-74092200D01*
X137124285Y-74092200D02*
X137171904Y-74044580D01*
X137171904Y-74044580D02*
X137219523Y-73949342D01*
X137219523Y-73949342D02*
X137219523Y-73139819D01*
X137838571Y-73568390D02*
X137743333Y-73520771D01*
X137743333Y-73520771D02*
X137695714Y-73473152D01*
X137695714Y-73473152D02*
X137648095Y-73377914D01*
X137648095Y-73377914D02*
X137648095Y-73330295D01*
X137648095Y-73330295D02*
X137695714Y-73235057D01*
X137695714Y-73235057D02*
X137743333Y-73187438D01*
X137743333Y-73187438D02*
X137838571Y-73139819D01*
X137838571Y-73139819D02*
X138029047Y-73139819D01*
X138029047Y-73139819D02*
X138124285Y-73187438D01*
X138124285Y-73187438D02*
X138171904Y-73235057D01*
X138171904Y-73235057D02*
X138219523Y-73330295D01*
X138219523Y-73330295D02*
X138219523Y-73377914D01*
X138219523Y-73377914D02*
X138171904Y-73473152D01*
X138171904Y-73473152D02*
X138124285Y-73520771D01*
X138124285Y-73520771D02*
X138029047Y-73568390D01*
X138029047Y-73568390D02*
X137838571Y-73568390D01*
X137838571Y-73568390D02*
X137743333Y-73616009D01*
X137743333Y-73616009D02*
X137695714Y-73663628D01*
X137695714Y-73663628D02*
X137648095Y-73758866D01*
X137648095Y-73758866D02*
X137648095Y-73949342D01*
X137648095Y-73949342D02*
X137695714Y-74044580D01*
X137695714Y-74044580D02*
X137743333Y-74092200D01*
X137743333Y-74092200D02*
X137838571Y-74139819D01*
X137838571Y-74139819D02*
X138029047Y-74139819D01*
X138029047Y-74139819D02*
X138124285Y-74092200D01*
X138124285Y-74092200D02*
X138171904Y-74044580D01*
X138171904Y-74044580D02*
X138219523Y-73949342D01*
X138219523Y-73949342D02*
X138219523Y-73758866D01*
X138219523Y-73758866D02*
X138171904Y-73663628D01*
X138171904Y-73663628D02*
X138124285Y-73616009D01*
X138124285Y-73616009D02*
X138029047Y-73568390D01*
X135924819Y-123771666D02*
X135448628Y-124104999D01*
X135924819Y-124343094D02*
X134924819Y-124343094D01*
X134924819Y-124343094D02*
X134924819Y-123962142D01*
X134924819Y-123962142D02*
X134972438Y-123866904D01*
X134972438Y-123866904D02*
X135020057Y-123819285D01*
X135020057Y-123819285D02*
X135115295Y-123771666D01*
X135115295Y-123771666D02*
X135258152Y-123771666D01*
X135258152Y-123771666D02*
X135353390Y-123819285D01*
X135353390Y-123819285D02*
X135401009Y-123866904D01*
X135401009Y-123866904D02*
X135448628Y-123962142D01*
X135448628Y-123962142D02*
X135448628Y-124343094D01*
X135924819Y-122819285D02*
X135924819Y-123390713D01*
X135924819Y-123104999D02*
X134924819Y-123104999D01*
X134924819Y-123104999D02*
X135067676Y-123200237D01*
X135067676Y-123200237D02*
X135162914Y-123295475D01*
X135162914Y-123295475D02*
X135210533Y-123390713D01*
X102263333Y-123824819D02*
X101930000Y-123348628D01*
X101691905Y-123824819D02*
X101691905Y-122824819D01*
X101691905Y-122824819D02*
X102072857Y-122824819D01*
X102072857Y-122824819D02*
X102168095Y-122872438D01*
X102168095Y-122872438D02*
X102215714Y-122920057D01*
X102215714Y-122920057D02*
X102263333Y-123015295D01*
X102263333Y-123015295D02*
X102263333Y-123158152D01*
X102263333Y-123158152D02*
X102215714Y-123253390D01*
X102215714Y-123253390D02*
X102168095Y-123301009D01*
X102168095Y-123301009D02*
X102072857Y-123348628D01*
X102072857Y-123348628D02*
X101691905Y-123348628D01*
X102834762Y-123253390D02*
X102739524Y-123205771D01*
X102739524Y-123205771D02*
X102691905Y-123158152D01*
X102691905Y-123158152D02*
X102644286Y-123062914D01*
X102644286Y-123062914D02*
X102644286Y-123015295D01*
X102644286Y-123015295D02*
X102691905Y-122920057D01*
X102691905Y-122920057D02*
X102739524Y-122872438D01*
X102739524Y-122872438D02*
X102834762Y-122824819D01*
X102834762Y-122824819D02*
X103025238Y-122824819D01*
X103025238Y-122824819D02*
X103120476Y-122872438D01*
X103120476Y-122872438D02*
X103168095Y-122920057D01*
X103168095Y-122920057D02*
X103215714Y-123015295D01*
X103215714Y-123015295D02*
X103215714Y-123062914D01*
X103215714Y-123062914D02*
X103168095Y-123158152D01*
X103168095Y-123158152D02*
X103120476Y-123205771D01*
X103120476Y-123205771D02*
X103025238Y-123253390D01*
X103025238Y-123253390D02*
X102834762Y-123253390D01*
X102834762Y-123253390D02*
X102739524Y-123301009D01*
X102739524Y-123301009D02*
X102691905Y-123348628D01*
X102691905Y-123348628D02*
X102644286Y-123443866D01*
X102644286Y-123443866D02*
X102644286Y-123634342D01*
X102644286Y-123634342D02*
X102691905Y-123729580D01*
X102691905Y-123729580D02*
X102739524Y-123777200D01*
X102739524Y-123777200D02*
X102834762Y-123824819D01*
X102834762Y-123824819D02*
X103025238Y-123824819D01*
X103025238Y-123824819D02*
X103120476Y-123777200D01*
X103120476Y-123777200D02*
X103168095Y-123729580D01*
X103168095Y-123729580D02*
X103215714Y-123634342D01*
X103215714Y-123634342D02*
X103215714Y-123443866D01*
X103215714Y-123443866D02*
X103168095Y-123348628D01*
X103168095Y-123348628D02*
X103120476Y-123301009D01*
X103120476Y-123301009D02*
X103025238Y-123253390D01*
X101757142Y-93374819D02*
X101423809Y-92898628D01*
X101185714Y-93374819D02*
X101185714Y-92374819D01*
X101185714Y-92374819D02*
X101566666Y-92374819D01*
X101566666Y-92374819D02*
X101661904Y-92422438D01*
X101661904Y-92422438D02*
X101709523Y-92470057D01*
X101709523Y-92470057D02*
X101757142Y-92565295D01*
X101757142Y-92565295D02*
X101757142Y-92708152D01*
X101757142Y-92708152D02*
X101709523Y-92803390D01*
X101709523Y-92803390D02*
X101661904Y-92851009D01*
X101661904Y-92851009D02*
X101566666Y-92898628D01*
X101566666Y-92898628D02*
X101185714Y-92898628D01*
X102138095Y-92470057D02*
X102185714Y-92422438D01*
X102185714Y-92422438D02*
X102280952Y-92374819D01*
X102280952Y-92374819D02*
X102519047Y-92374819D01*
X102519047Y-92374819D02*
X102614285Y-92422438D01*
X102614285Y-92422438D02*
X102661904Y-92470057D01*
X102661904Y-92470057D02*
X102709523Y-92565295D01*
X102709523Y-92565295D02*
X102709523Y-92660533D01*
X102709523Y-92660533D02*
X102661904Y-92803390D01*
X102661904Y-92803390D02*
X102090476Y-93374819D01*
X102090476Y-93374819D02*
X102709523Y-93374819D01*
X103328571Y-92374819D02*
X103423809Y-92374819D01*
X103423809Y-92374819D02*
X103519047Y-92422438D01*
X103519047Y-92422438D02*
X103566666Y-92470057D01*
X103566666Y-92470057D02*
X103614285Y-92565295D01*
X103614285Y-92565295D02*
X103661904Y-92755771D01*
X103661904Y-92755771D02*
X103661904Y-92993866D01*
X103661904Y-92993866D02*
X103614285Y-93184342D01*
X103614285Y-93184342D02*
X103566666Y-93279580D01*
X103566666Y-93279580D02*
X103519047Y-93327200D01*
X103519047Y-93327200D02*
X103423809Y-93374819D01*
X103423809Y-93374819D02*
X103328571Y-93374819D01*
X103328571Y-93374819D02*
X103233333Y-93327200D01*
X103233333Y-93327200D02*
X103185714Y-93279580D01*
X103185714Y-93279580D02*
X103138095Y-93184342D01*
X103138095Y-93184342D02*
X103090476Y-92993866D01*
X103090476Y-92993866D02*
X103090476Y-92755771D01*
X103090476Y-92755771D02*
X103138095Y-92565295D01*
X103138095Y-92565295D02*
X103185714Y-92470057D01*
X103185714Y-92470057D02*
X103233333Y-92422438D01*
X103233333Y-92422438D02*
X103328571Y-92374819D01*
X101797142Y-98564819D02*
X101463809Y-98088628D01*
X101225714Y-98564819D02*
X101225714Y-97564819D01*
X101225714Y-97564819D02*
X101606666Y-97564819D01*
X101606666Y-97564819D02*
X101701904Y-97612438D01*
X101701904Y-97612438D02*
X101749523Y-97660057D01*
X101749523Y-97660057D02*
X101797142Y-97755295D01*
X101797142Y-97755295D02*
X101797142Y-97898152D01*
X101797142Y-97898152D02*
X101749523Y-97993390D01*
X101749523Y-97993390D02*
X101701904Y-98041009D01*
X101701904Y-98041009D02*
X101606666Y-98088628D01*
X101606666Y-98088628D02*
X101225714Y-98088628D01*
X102749523Y-98564819D02*
X102178095Y-98564819D01*
X102463809Y-98564819D02*
X102463809Y-97564819D01*
X102463809Y-97564819D02*
X102368571Y-97707676D01*
X102368571Y-97707676D02*
X102273333Y-97802914D01*
X102273333Y-97802914D02*
X102178095Y-97850533D01*
X103320952Y-97993390D02*
X103225714Y-97945771D01*
X103225714Y-97945771D02*
X103178095Y-97898152D01*
X103178095Y-97898152D02*
X103130476Y-97802914D01*
X103130476Y-97802914D02*
X103130476Y-97755295D01*
X103130476Y-97755295D02*
X103178095Y-97660057D01*
X103178095Y-97660057D02*
X103225714Y-97612438D01*
X103225714Y-97612438D02*
X103320952Y-97564819D01*
X103320952Y-97564819D02*
X103511428Y-97564819D01*
X103511428Y-97564819D02*
X103606666Y-97612438D01*
X103606666Y-97612438D02*
X103654285Y-97660057D01*
X103654285Y-97660057D02*
X103701904Y-97755295D01*
X103701904Y-97755295D02*
X103701904Y-97802914D01*
X103701904Y-97802914D02*
X103654285Y-97898152D01*
X103654285Y-97898152D02*
X103606666Y-97945771D01*
X103606666Y-97945771D02*
X103511428Y-97993390D01*
X103511428Y-97993390D02*
X103320952Y-97993390D01*
X103320952Y-97993390D02*
X103225714Y-98041009D01*
X103225714Y-98041009D02*
X103178095Y-98088628D01*
X103178095Y-98088628D02*
X103130476Y-98183866D01*
X103130476Y-98183866D02*
X103130476Y-98374342D01*
X103130476Y-98374342D02*
X103178095Y-98469580D01*
X103178095Y-98469580D02*
X103225714Y-98517200D01*
X103225714Y-98517200D02*
X103320952Y-98564819D01*
X103320952Y-98564819D02*
X103511428Y-98564819D01*
X103511428Y-98564819D02*
X103606666Y-98517200D01*
X103606666Y-98517200D02*
X103654285Y-98469580D01*
X103654285Y-98469580D02*
X103701904Y-98374342D01*
X103701904Y-98374342D02*
X103701904Y-98183866D01*
X103701904Y-98183866D02*
X103654285Y-98088628D01*
X103654285Y-98088628D02*
X103606666Y-98041009D01*
X103606666Y-98041009D02*
X103511428Y-97993390D01*
X134373333Y-108464580D02*
X134325714Y-108512200D01*
X134325714Y-108512200D02*
X134182857Y-108559819D01*
X134182857Y-108559819D02*
X134087619Y-108559819D01*
X134087619Y-108559819D02*
X133944762Y-108512200D01*
X133944762Y-108512200D02*
X133849524Y-108416961D01*
X133849524Y-108416961D02*
X133801905Y-108321723D01*
X133801905Y-108321723D02*
X133754286Y-108131247D01*
X133754286Y-108131247D02*
X133754286Y-107988390D01*
X133754286Y-107988390D02*
X133801905Y-107797914D01*
X133801905Y-107797914D02*
X133849524Y-107702676D01*
X133849524Y-107702676D02*
X133944762Y-107607438D01*
X133944762Y-107607438D02*
X134087619Y-107559819D01*
X134087619Y-107559819D02*
X134182857Y-107559819D01*
X134182857Y-107559819D02*
X134325714Y-107607438D01*
X134325714Y-107607438D02*
X134373333Y-107655057D01*
X135230476Y-107893152D02*
X135230476Y-108559819D01*
X134992381Y-107512200D02*
X134754286Y-108226485D01*
X134754286Y-108226485D02*
X135373333Y-108226485D01*
X101757142Y-88344819D02*
X101423809Y-87868628D01*
X101185714Y-88344819D02*
X101185714Y-87344819D01*
X101185714Y-87344819D02*
X101566666Y-87344819D01*
X101566666Y-87344819D02*
X101661904Y-87392438D01*
X101661904Y-87392438D02*
X101709523Y-87440057D01*
X101709523Y-87440057D02*
X101757142Y-87535295D01*
X101757142Y-87535295D02*
X101757142Y-87678152D01*
X101757142Y-87678152D02*
X101709523Y-87773390D01*
X101709523Y-87773390D02*
X101661904Y-87821009D01*
X101661904Y-87821009D02*
X101566666Y-87868628D01*
X101566666Y-87868628D02*
X101185714Y-87868628D01*
X102138095Y-87440057D02*
X102185714Y-87392438D01*
X102185714Y-87392438D02*
X102280952Y-87344819D01*
X102280952Y-87344819D02*
X102519047Y-87344819D01*
X102519047Y-87344819D02*
X102614285Y-87392438D01*
X102614285Y-87392438D02*
X102661904Y-87440057D01*
X102661904Y-87440057D02*
X102709523Y-87535295D01*
X102709523Y-87535295D02*
X102709523Y-87630533D01*
X102709523Y-87630533D02*
X102661904Y-87773390D01*
X102661904Y-87773390D02*
X102090476Y-88344819D01*
X102090476Y-88344819D02*
X102709523Y-88344819D01*
X103090476Y-87440057D02*
X103138095Y-87392438D01*
X103138095Y-87392438D02*
X103233333Y-87344819D01*
X103233333Y-87344819D02*
X103471428Y-87344819D01*
X103471428Y-87344819D02*
X103566666Y-87392438D01*
X103566666Y-87392438D02*
X103614285Y-87440057D01*
X103614285Y-87440057D02*
X103661904Y-87535295D01*
X103661904Y-87535295D02*
X103661904Y-87630533D01*
X103661904Y-87630533D02*
X103614285Y-87773390D01*
X103614285Y-87773390D02*
X103042857Y-88344819D01*
X103042857Y-88344819D02*
X103661904Y-88344819D01*
X198024819Y-83246666D02*
X197548628Y-83579999D01*
X198024819Y-83818094D02*
X197024819Y-83818094D01*
X197024819Y-83818094D02*
X197024819Y-83437142D01*
X197024819Y-83437142D02*
X197072438Y-83341904D01*
X197072438Y-83341904D02*
X197120057Y-83294285D01*
X197120057Y-83294285D02*
X197215295Y-83246666D01*
X197215295Y-83246666D02*
X197358152Y-83246666D01*
X197358152Y-83246666D02*
X197453390Y-83294285D01*
X197453390Y-83294285D02*
X197501009Y-83341904D01*
X197501009Y-83341904D02*
X197548628Y-83437142D01*
X197548628Y-83437142D02*
X197548628Y-83818094D01*
X197024819Y-82389523D02*
X197024819Y-82579999D01*
X197024819Y-82579999D02*
X197072438Y-82675237D01*
X197072438Y-82675237D02*
X197120057Y-82722856D01*
X197120057Y-82722856D02*
X197262914Y-82818094D01*
X197262914Y-82818094D02*
X197453390Y-82865713D01*
X197453390Y-82865713D02*
X197834342Y-82865713D01*
X197834342Y-82865713D02*
X197929580Y-82818094D01*
X197929580Y-82818094D02*
X197977200Y-82770475D01*
X197977200Y-82770475D02*
X198024819Y-82675237D01*
X198024819Y-82675237D02*
X198024819Y-82484761D01*
X198024819Y-82484761D02*
X197977200Y-82389523D01*
X197977200Y-82389523D02*
X197929580Y-82341904D01*
X197929580Y-82341904D02*
X197834342Y-82294285D01*
X197834342Y-82294285D02*
X197596247Y-82294285D01*
X197596247Y-82294285D02*
X197501009Y-82341904D01*
X197501009Y-82341904D02*
X197453390Y-82389523D01*
X197453390Y-82389523D02*
X197405771Y-82484761D01*
X197405771Y-82484761D02*
X197405771Y-82675237D01*
X197405771Y-82675237D02*
X197453390Y-82770475D01*
X197453390Y-82770475D02*
X197501009Y-82818094D01*
X197501009Y-82818094D02*
X197596247Y-82865713D01*
X101847142Y-111084819D02*
X101513809Y-110608628D01*
X101275714Y-111084819D02*
X101275714Y-110084819D01*
X101275714Y-110084819D02*
X101656666Y-110084819D01*
X101656666Y-110084819D02*
X101751904Y-110132438D01*
X101751904Y-110132438D02*
X101799523Y-110180057D01*
X101799523Y-110180057D02*
X101847142Y-110275295D01*
X101847142Y-110275295D02*
X101847142Y-110418152D01*
X101847142Y-110418152D02*
X101799523Y-110513390D01*
X101799523Y-110513390D02*
X101751904Y-110561009D01*
X101751904Y-110561009D02*
X101656666Y-110608628D01*
X101656666Y-110608628D02*
X101275714Y-110608628D01*
X102799523Y-111084819D02*
X102228095Y-111084819D01*
X102513809Y-111084819D02*
X102513809Y-110084819D01*
X102513809Y-110084819D02*
X102418571Y-110227676D01*
X102418571Y-110227676D02*
X102323333Y-110322914D01*
X102323333Y-110322914D02*
X102228095Y-110370533D01*
X103132857Y-110084819D02*
X103751904Y-110084819D01*
X103751904Y-110084819D02*
X103418571Y-110465771D01*
X103418571Y-110465771D02*
X103561428Y-110465771D01*
X103561428Y-110465771D02*
X103656666Y-110513390D01*
X103656666Y-110513390D02*
X103704285Y-110561009D01*
X103704285Y-110561009D02*
X103751904Y-110656247D01*
X103751904Y-110656247D02*
X103751904Y-110894342D01*
X103751904Y-110894342D02*
X103704285Y-110989580D01*
X103704285Y-110989580D02*
X103656666Y-111037200D01*
X103656666Y-111037200D02*
X103561428Y-111084819D01*
X103561428Y-111084819D02*
X103275714Y-111084819D01*
X103275714Y-111084819D02*
X103180476Y-111037200D01*
X103180476Y-111037200D02*
X103132857Y-110989580D01*
X201888220Y-93814580D02*
X201840601Y-93862200D01*
X201840601Y-93862200D02*
X201697744Y-93909819D01*
X201697744Y-93909819D02*
X201602506Y-93909819D01*
X201602506Y-93909819D02*
X201459649Y-93862200D01*
X201459649Y-93862200D02*
X201364411Y-93766961D01*
X201364411Y-93766961D02*
X201316792Y-93671723D01*
X201316792Y-93671723D02*
X201269173Y-93481247D01*
X201269173Y-93481247D02*
X201269173Y-93338390D01*
X201269173Y-93338390D02*
X201316792Y-93147914D01*
X201316792Y-93147914D02*
X201364411Y-93052676D01*
X201364411Y-93052676D02*
X201459649Y-92957438D01*
X201459649Y-92957438D02*
X201602506Y-92909819D01*
X201602506Y-92909819D02*
X201697744Y-92909819D01*
X201697744Y-92909819D02*
X201840601Y-92957438D01*
X201840601Y-92957438D02*
X201888220Y-93005057D01*
X202745363Y-92909819D02*
X202554887Y-92909819D01*
X202554887Y-92909819D02*
X202459649Y-92957438D01*
X202459649Y-92957438D02*
X202412030Y-93005057D01*
X202412030Y-93005057D02*
X202316792Y-93147914D01*
X202316792Y-93147914D02*
X202269173Y-93338390D01*
X202269173Y-93338390D02*
X202269173Y-93719342D01*
X202269173Y-93719342D02*
X202316792Y-93814580D01*
X202316792Y-93814580D02*
X202364411Y-93862200D01*
X202364411Y-93862200D02*
X202459649Y-93909819D01*
X202459649Y-93909819D02*
X202650125Y-93909819D01*
X202650125Y-93909819D02*
X202745363Y-93862200D01*
X202745363Y-93862200D02*
X202792982Y-93814580D01*
X202792982Y-93814580D02*
X202840601Y-93719342D01*
X202840601Y-93719342D02*
X202840601Y-93481247D01*
X202840601Y-93481247D02*
X202792982Y-93386009D01*
X202792982Y-93386009D02*
X202745363Y-93338390D01*
X202745363Y-93338390D02*
X202650125Y-93290771D01*
X202650125Y-93290771D02*
X202459649Y-93290771D01*
X202459649Y-93290771D02*
X202364411Y-93338390D01*
X202364411Y-93338390D02*
X202316792Y-93386009D01*
X202316792Y-93386009D02*
X202269173Y-93481247D01*
X149178095Y-103574819D02*
X149178095Y-104384342D01*
X149178095Y-104384342D02*
X149225714Y-104479580D01*
X149225714Y-104479580D02*
X149273333Y-104527200D01*
X149273333Y-104527200D02*
X149368571Y-104574819D01*
X149368571Y-104574819D02*
X149559047Y-104574819D01*
X149559047Y-104574819D02*
X149654285Y-104527200D01*
X149654285Y-104527200D02*
X149701904Y-104479580D01*
X149701904Y-104479580D02*
X149749523Y-104384342D01*
X149749523Y-104384342D02*
X149749523Y-103574819D01*
X150130476Y-103574819D02*
X150749523Y-103574819D01*
X150749523Y-103574819D02*
X150416190Y-103955771D01*
X150416190Y-103955771D02*
X150559047Y-103955771D01*
X150559047Y-103955771D02*
X150654285Y-104003390D01*
X150654285Y-104003390D02*
X150701904Y-104051009D01*
X150701904Y-104051009D02*
X150749523Y-104146247D01*
X150749523Y-104146247D02*
X150749523Y-104384342D01*
X150749523Y-104384342D02*
X150701904Y-104479580D01*
X150701904Y-104479580D02*
X150654285Y-104527200D01*
X150654285Y-104527200D02*
X150559047Y-104574819D01*
X150559047Y-104574819D02*
X150273333Y-104574819D01*
X150273333Y-104574819D02*
X150178095Y-104527200D01*
X150178095Y-104527200D02*
X150130476Y-104479580D01*
X112432295Y-103564819D02*
X112432295Y-104374342D01*
X112432295Y-104374342D02*
X112479914Y-104469580D01*
X112479914Y-104469580D02*
X112527533Y-104517200D01*
X112527533Y-104517200D02*
X112622771Y-104564819D01*
X112622771Y-104564819D02*
X112813247Y-104564819D01*
X112813247Y-104564819D02*
X112908485Y-104517200D01*
X112908485Y-104517200D02*
X112956104Y-104469580D01*
X112956104Y-104469580D02*
X113003723Y-104374342D01*
X113003723Y-104374342D02*
X113003723Y-103564819D01*
X114003723Y-104564819D02*
X113432295Y-104564819D01*
X113718009Y-104564819D02*
X113718009Y-103564819D01*
X113718009Y-103564819D02*
X113622771Y-103707676D01*
X113622771Y-103707676D02*
X113527533Y-103802914D01*
X113527533Y-103802914D02*
X113432295Y-103850533D01*
X101857142Y-106084819D02*
X101523809Y-105608628D01*
X101285714Y-106084819D02*
X101285714Y-105084819D01*
X101285714Y-105084819D02*
X101666666Y-105084819D01*
X101666666Y-105084819D02*
X101761904Y-105132438D01*
X101761904Y-105132438D02*
X101809523Y-105180057D01*
X101809523Y-105180057D02*
X101857142Y-105275295D01*
X101857142Y-105275295D02*
X101857142Y-105418152D01*
X101857142Y-105418152D02*
X101809523Y-105513390D01*
X101809523Y-105513390D02*
X101761904Y-105561009D01*
X101761904Y-105561009D02*
X101666666Y-105608628D01*
X101666666Y-105608628D02*
X101285714Y-105608628D01*
X102809523Y-106084819D02*
X102238095Y-106084819D01*
X102523809Y-106084819D02*
X102523809Y-105084819D01*
X102523809Y-105084819D02*
X102428571Y-105227676D01*
X102428571Y-105227676D02*
X102333333Y-105322914D01*
X102333333Y-105322914D02*
X102238095Y-105370533D01*
X103714285Y-105084819D02*
X103238095Y-105084819D01*
X103238095Y-105084819D02*
X103190476Y-105561009D01*
X103190476Y-105561009D02*
X103238095Y-105513390D01*
X103238095Y-105513390D02*
X103333333Y-105465771D01*
X103333333Y-105465771D02*
X103571428Y-105465771D01*
X103571428Y-105465771D02*
X103666666Y-105513390D01*
X103666666Y-105513390D02*
X103714285Y-105561009D01*
X103714285Y-105561009D02*
X103761904Y-105656247D01*
X103761904Y-105656247D02*
X103761904Y-105894342D01*
X103761904Y-105894342D02*
X103714285Y-105989580D01*
X103714285Y-105989580D02*
X103666666Y-106037200D01*
X103666666Y-106037200D02*
X103571428Y-106084819D01*
X103571428Y-106084819D02*
X103333333Y-106084819D01*
X103333333Y-106084819D02*
X103238095Y-106037200D01*
X103238095Y-106037200D02*
X103190476Y-105989580D01*
X186598095Y-103652319D02*
X186598095Y-104461842D01*
X186598095Y-104461842D02*
X186645714Y-104557080D01*
X186645714Y-104557080D02*
X186693333Y-104604700D01*
X186693333Y-104604700D02*
X186788571Y-104652319D01*
X186788571Y-104652319D02*
X186979047Y-104652319D01*
X186979047Y-104652319D02*
X187074285Y-104604700D01*
X187074285Y-104604700D02*
X187121904Y-104557080D01*
X187121904Y-104557080D02*
X187169523Y-104461842D01*
X187169523Y-104461842D02*
X187169523Y-103652319D01*
X188121904Y-103652319D02*
X187645714Y-103652319D01*
X187645714Y-103652319D02*
X187598095Y-104128509D01*
X187598095Y-104128509D02*
X187645714Y-104080890D01*
X187645714Y-104080890D02*
X187740952Y-104033271D01*
X187740952Y-104033271D02*
X187979047Y-104033271D01*
X187979047Y-104033271D02*
X188074285Y-104080890D01*
X188074285Y-104080890D02*
X188121904Y-104128509D01*
X188121904Y-104128509D02*
X188169523Y-104223747D01*
X188169523Y-104223747D02*
X188169523Y-104461842D01*
X188169523Y-104461842D02*
X188121904Y-104557080D01*
X188121904Y-104557080D02*
X188074285Y-104604700D01*
X188074285Y-104604700D02*
X187979047Y-104652319D01*
X187979047Y-104652319D02*
X187740952Y-104652319D01*
X187740952Y-104652319D02*
X187645714Y-104604700D01*
X187645714Y-104604700D02*
X187598095Y-104557080D01*
X200336666Y-45714819D02*
X200336666Y-46429104D01*
X200336666Y-46429104D02*
X200289047Y-46571961D01*
X200289047Y-46571961D02*
X200193809Y-46667200D01*
X200193809Y-46667200D02*
X200050952Y-46714819D01*
X200050952Y-46714819D02*
X199955714Y-46714819D01*
X201336666Y-46714819D02*
X200765238Y-46714819D01*
X201050952Y-46714819D02*
X201050952Y-45714819D01*
X201050952Y-45714819D02*
X200955714Y-45857676D01*
X200955714Y-45857676D02*
X200860476Y-45952914D01*
X200860476Y-45952914D02*
X200765238Y-46000533D01*
X106649580Y-69196666D02*
X106697200Y-69244285D01*
X106697200Y-69244285D02*
X106744819Y-69387142D01*
X106744819Y-69387142D02*
X106744819Y-69482380D01*
X106744819Y-69482380D02*
X106697200Y-69625237D01*
X106697200Y-69625237D02*
X106601961Y-69720475D01*
X106601961Y-69720475D02*
X106506723Y-69768094D01*
X106506723Y-69768094D02*
X106316247Y-69815713D01*
X106316247Y-69815713D02*
X106173390Y-69815713D01*
X106173390Y-69815713D02*
X105982914Y-69768094D01*
X105982914Y-69768094D02*
X105887676Y-69720475D01*
X105887676Y-69720475D02*
X105792438Y-69625237D01*
X105792438Y-69625237D02*
X105744819Y-69482380D01*
X105744819Y-69482380D02*
X105744819Y-69387142D01*
X105744819Y-69387142D02*
X105792438Y-69244285D01*
X105792438Y-69244285D02*
X105840057Y-69196666D01*
X105744819Y-68863332D02*
X105744819Y-68244285D01*
X105744819Y-68244285D02*
X106125771Y-68577618D01*
X106125771Y-68577618D02*
X106125771Y-68434761D01*
X106125771Y-68434761D02*
X106173390Y-68339523D01*
X106173390Y-68339523D02*
X106221009Y-68291904D01*
X106221009Y-68291904D02*
X106316247Y-68244285D01*
X106316247Y-68244285D02*
X106554342Y-68244285D01*
X106554342Y-68244285D02*
X106649580Y-68291904D01*
X106649580Y-68291904D02*
X106697200Y-68339523D01*
X106697200Y-68339523D02*
X106744819Y-68434761D01*
X106744819Y-68434761D02*
X106744819Y-68720475D01*
X106744819Y-68720475D02*
X106697200Y-68815713D01*
X106697200Y-68815713D02*
X106649580Y-68863332D01*
X168754819Y-121416904D02*
X169564342Y-121416904D01*
X169564342Y-121416904D02*
X169659580Y-121369285D01*
X169659580Y-121369285D02*
X169707200Y-121321666D01*
X169707200Y-121321666D02*
X169754819Y-121226428D01*
X169754819Y-121226428D02*
X169754819Y-121035952D01*
X169754819Y-121035952D02*
X169707200Y-120940714D01*
X169707200Y-120940714D02*
X169659580Y-120893095D01*
X169659580Y-120893095D02*
X169564342Y-120845476D01*
X169564342Y-120845476D02*
X168754819Y-120845476D01*
X168754819Y-119940714D02*
X168754819Y-120131190D01*
X168754819Y-120131190D02*
X168802438Y-120226428D01*
X168802438Y-120226428D02*
X168850057Y-120274047D01*
X168850057Y-120274047D02*
X168992914Y-120369285D01*
X168992914Y-120369285D02*
X169183390Y-120416904D01*
X169183390Y-120416904D02*
X169564342Y-120416904D01*
X169564342Y-120416904D02*
X169659580Y-120369285D01*
X169659580Y-120369285D02*
X169707200Y-120321666D01*
X169707200Y-120321666D02*
X169754819Y-120226428D01*
X169754819Y-120226428D02*
X169754819Y-120035952D01*
X169754819Y-120035952D02*
X169707200Y-119940714D01*
X169707200Y-119940714D02*
X169659580Y-119893095D01*
X169659580Y-119893095D02*
X169564342Y-119845476D01*
X169564342Y-119845476D02*
X169326247Y-119845476D01*
X169326247Y-119845476D02*
X169231009Y-119893095D01*
X169231009Y-119893095D02*
X169183390Y-119940714D01*
X169183390Y-119940714D02*
X169135771Y-120035952D01*
X169135771Y-120035952D02*
X169135771Y-120226428D01*
X169135771Y-120226428D02*
X169183390Y-120321666D01*
X169183390Y-120321666D02*
X169231009Y-120369285D01*
X169231009Y-120369285D02*
X169326247Y-120416904D01*
X199351905Y-73489819D02*
X199351905Y-74299342D01*
X199351905Y-74299342D02*
X199399524Y-74394580D01*
X199399524Y-74394580D02*
X199447143Y-74442200D01*
X199447143Y-74442200D02*
X199542381Y-74489819D01*
X199542381Y-74489819D02*
X199732857Y-74489819D01*
X199732857Y-74489819D02*
X199828095Y-74442200D01*
X199828095Y-74442200D02*
X199875714Y-74394580D01*
X199875714Y-74394580D02*
X199923333Y-74299342D01*
X199923333Y-74299342D02*
X199923333Y-73489819D01*
X200923333Y-74489819D02*
X200351905Y-74489819D01*
X200637619Y-74489819D02*
X200637619Y-73489819D01*
X200637619Y-73489819D02*
X200542381Y-73632676D01*
X200542381Y-73632676D02*
X200447143Y-73727914D01*
X200447143Y-73727914D02*
X200351905Y-73775533D01*
X201875714Y-74489819D02*
X201304286Y-74489819D01*
X201590000Y-74489819D02*
X201590000Y-73489819D01*
X201590000Y-73489819D02*
X201494762Y-73632676D01*
X201494762Y-73632676D02*
X201399524Y-73727914D01*
X201399524Y-73727914D02*
X201304286Y-73775533D01*
X101847142Y-116334819D02*
X101513809Y-115858628D01*
X101275714Y-116334819D02*
X101275714Y-115334819D01*
X101275714Y-115334819D02*
X101656666Y-115334819D01*
X101656666Y-115334819D02*
X101751904Y-115382438D01*
X101751904Y-115382438D02*
X101799523Y-115430057D01*
X101799523Y-115430057D02*
X101847142Y-115525295D01*
X101847142Y-115525295D02*
X101847142Y-115668152D01*
X101847142Y-115668152D02*
X101799523Y-115763390D01*
X101799523Y-115763390D02*
X101751904Y-115811009D01*
X101751904Y-115811009D02*
X101656666Y-115858628D01*
X101656666Y-115858628D02*
X101275714Y-115858628D01*
X102799523Y-116334819D02*
X102228095Y-116334819D01*
X102513809Y-116334819D02*
X102513809Y-115334819D01*
X102513809Y-115334819D02*
X102418571Y-115477676D01*
X102418571Y-115477676D02*
X102323333Y-115572914D01*
X102323333Y-115572914D02*
X102228095Y-115620533D01*
X103751904Y-116334819D02*
X103180476Y-116334819D01*
X103466190Y-116334819D02*
X103466190Y-115334819D01*
X103466190Y-115334819D02*
X103370952Y-115477676D01*
X103370952Y-115477676D02*
X103275714Y-115572914D01*
X103275714Y-115572914D02*
X103180476Y-115620533D01*
X201874819Y-83246666D02*
X201398628Y-83579999D01*
X201874819Y-83818094D02*
X200874819Y-83818094D01*
X200874819Y-83818094D02*
X200874819Y-83437142D01*
X200874819Y-83437142D02*
X200922438Y-83341904D01*
X200922438Y-83341904D02*
X200970057Y-83294285D01*
X200970057Y-83294285D02*
X201065295Y-83246666D01*
X201065295Y-83246666D02*
X201208152Y-83246666D01*
X201208152Y-83246666D02*
X201303390Y-83294285D01*
X201303390Y-83294285D02*
X201351009Y-83341904D01*
X201351009Y-83341904D02*
X201398628Y-83437142D01*
X201398628Y-83437142D02*
X201398628Y-83818094D01*
X200874819Y-82913332D02*
X200874819Y-82246666D01*
X200874819Y-82246666D02*
X201874819Y-82675237D01*
X190094819Y-83818094D02*
X189094819Y-83818094D01*
X189094819Y-83818094D02*
X189094819Y-83579999D01*
X189094819Y-83579999D02*
X189142438Y-83437142D01*
X189142438Y-83437142D02*
X189237676Y-83341904D01*
X189237676Y-83341904D02*
X189332914Y-83294285D01*
X189332914Y-83294285D02*
X189523390Y-83246666D01*
X189523390Y-83246666D02*
X189666247Y-83246666D01*
X189666247Y-83246666D02*
X189856723Y-83294285D01*
X189856723Y-83294285D02*
X189951961Y-83341904D01*
X189951961Y-83341904D02*
X190047200Y-83437142D01*
X190047200Y-83437142D02*
X190094819Y-83579999D01*
X190094819Y-83579999D02*
X190094819Y-83818094D01*
X189094819Y-82913332D02*
X189094819Y-82294285D01*
X189094819Y-82294285D02*
X189475771Y-82627618D01*
X189475771Y-82627618D02*
X189475771Y-82484761D01*
X189475771Y-82484761D02*
X189523390Y-82389523D01*
X189523390Y-82389523D02*
X189571009Y-82341904D01*
X189571009Y-82341904D02*
X189666247Y-82294285D01*
X189666247Y-82294285D02*
X189904342Y-82294285D01*
X189904342Y-82294285D02*
X189999580Y-82341904D01*
X189999580Y-82341904D02*
X190047200Y-82389523D01*
X190047200Y-82389523D02*
X190094819Y-82484761D01*
X190094819Y-82484761D02*
X190094819Y-82770475D01*
X190094819Y-82770475D02*
X190047200Y-82865713D01*
X190047200Y-82865713D02*
X189999580Y-82913332D01*
X106774819Y-76171666D02*
X106298628Y-76504999D01*
X106774819Y-76743094D02*
X105774819Y-76743094D01*
X105774819Y-76743094D02*
X105774819Y-76362142D01*
X105774819Y-76362142D02*
X105822438Y-76266904D01*
X105822438Y-76266904D02*
X105870057Y-76219285D01*
X105870057Y-76219285D02*
X105965295Y-76171666D01*
X105965295Y-76171666D02*
X106108152Y-76171666D01*
X106108152Y-76171666D02*
X106203390Y-76219285D01*
X106203390Y-76219285D02*
X106251009Y-76266904D01*
X106251009Y-76266904D02*
X106298628Y-76362142D01*
X106298628Y-76362142D02*
X106298628Y-76743094D01*
X106108152Y-75314523D02*
X106774819Y-75314523D01*
X105727200Y-75552618D02*
X106441485Y-75790713D01*
X106441485Y-75790713D02*
X106441485Y-75171666D01*
X101887142Y-118684819D02*
X101553809Y-118208628D01*
X101315714Y-118684819D02*
X101315714Y-117684819D01*
X101315714Y-117684819D02*
X101696666Y-117684819D01*
X101696666Y-117684819D02*
X101791904Y-117732438D01*
X101791904Y-117732438D02*
X101839523Y-117780057D01*
X101839523Y-117780057D02*
X101887142Y-117875295D01*
X101887142Y-117875295D02*
X101887142Y-118018152D01*
X101887142Y-118018152D02*
X101839523Y-118113390D01*
X101839523Y-118113390D02*
X101791904Y-118161009D01*
X101791904Y-118161009D02*
X101696666Y-118208628D01*
X101696666Y-118208628D02*
X101315714Y-118208628D01*
X102839523Y-118684819D02*
X102268095Y-118684819D01*
X102553809Y-118684819D02*
X102553809Y-117684819D01*
X102553809Y-117684819D02*
X102458571Y-117827676D01*
X102458571Y-117827676D02*
X102363333Y-117922914D01*
X102363333Y-117922914D02*
X102268095Y-117970533D01*
X103458571Y-117684819D02*
X103553809Y-117684819D01*
X103553809Y-117684819D02*
X103649047Y-117732438D01*
X103649047Y-117732438D02*
X103696666Y-117780057D01*
X103696666Y-117780057D02*
X103744285Y-117875295D01*
X103744285Y-117875295D02*
X103791904Y-118065771D01*
X103791904Y-118065771D02*
X103791904Y-118303866D01*
X103791904Y-118303866D02*
X103744285Y-118494342D01*
X103744285Y-118494342D02*
X103696666Y-118589580D01*
X103696666Y-118589580D02*
X103649047Y-118637200D01*
X103649047Y-118637200D02*
X103553809Y-118684819D01*
X103553809Y-118684819D02*
X103458571Y-118684819D01*
X103458571Y-118684819D02*
X103363333Y-118637200D01*
X103363333Y-118637200D02*
X103315714Y-118589580D01*
X103315714Y-118589580D02*
X103268095Y-118494342D01*
X103268095Y-118494342D02*
X103220476Y-118303866D01*
X103220476Y-118303866D02*
X103220476Y-118065771D01*
X103220476Y-118065771D02*
X103268095Y-117875295D01*
X103268095Y-117875295D02*
X103315714Y-117780057D01*
X103315714Y-117780057D02*
X103363333Y-117732438D01*
X103363333Y-117732438D02*
X103458571Y-117684819D01*
X101757142Y-95914819D02*
X101423809Y-95438628D01*
X101185714Y-95914819D02*
X101185714Y-94914819D01*
X101185714Y-94914819D02*
X101566666Y-94914819D01*
X101566666Y-94914819D02*
X101661904Y-94962438D01*
X101661904Y-94962438D02*
X101709523Y-95010057D01*
X101709523Y-95010057D02*
X101757142Y-95105295D01*
X101757142Y-95105295D02*
X101757142Y-95248152D01*
X101757142Y-95248152D02*
X101709523Y-95343390D01*
X101709523Y-95343390D02*
X101661904Y-95391009D01*
X101661904Y-95391009D02*
X101566666Y-95438628D01*
X101566666Y-95438628D02*
X101185714Y-95438628D01*
X102709523Y-95914819D02*
X102138095Y-95914819D01*
X102423809Y-95914819D02*
X102423809Y-94914819D01*
X102423809Y-94914819D02*
X102328571Y-95057676D01*
X102328571Y-95057676D02*
X102233333Y-95152914D01*
X102233333Y-95152914D02*
X102138095Y-95200533D01*
X103185714Y-95914819D02*
X103376190Y-95914819D01*
X103376190Y-95914819D02*
X103471428Y-95867200D01*
X103471428Y-95867200D02*
X103519047Y-95819580D01*
X103519047Y-95819580D02*
X103614285Y-95676723D01*
X103614285Y-95676723D02*
X103661904Y-95486247D01*
X103661904Y-95486247D02*
X103661904Y-95105295D01*
X103661904Y-95105295D02*
X103614285Y-95010057D01*
X103614285Y-95010057D02*
X103566666Y-94962438D01*
X103566666Y-94962438D02*
X103471428Y-94914819D01*
X103471428Y-94914819D02*
X103280952Y-94914819D01*
X103280952Y-94914819D02*
X103185714Y-94962438D01*
X103185714Y-94962438D02*
X103138095Y-95010057D01*
X103138095Y-95010057D02*
X103090476Y-95105295D01*
X103090476Y-95105295D02*
X103090476Y-95343390D01*
X103090476Y-95343390D02*
X103138095Y-95438628D01*
X103138095Y-95438628D02*
X103185714Y-95486247D01*
X103185714Y-95486247D02*
X103280952Y-95533866D01*
X103280952Y-95533866D02*
X103471428Y-95533866D01*
X103471428Y-95533866D02*
X103566666Y-95486247D01*
X103566666Y-95486247D02*
X103614285Y-95438628D01*
X103614285Y-95438628D02*
X103661904Y-95343390D01*
X139849819Y-123771666D02*
X139373628Y-124104999D01*
X139849819Y-124343094D02*
X138849819Y-124343094D01*
X138849819Y-124343094D02*
X138849819Y-123962142D01*
X138849819Y-123962142D02*
X138897438Y-123866904D01*
X138897438Y-123866904D02*
X138945057Y-123819285D01*
X138945057Y-123819285D02*
X139040295Y-123771666D01*
X139040295Y-123771666D02*
X139183152Y-123771666D01*
X139183152Y-123771666D02*
X139278390Y-123819285D01*
X139278390Y-123819285D02*
X139326009Y-123866904D01*
X139326009Y-123866904D02*
X139373628Y-123962142D01*
X139373628Y-123962142D02*
X139373628Y-124343094D01*
X138945057Y-123390713D02*
X138897438Y-123343094D01*
X138897438Y-123343094D02*
X138849819Y-123247856D01*
X138849819Y-123247856D02*
X138849819Y-123009761D01*
X138849819Y-123009761D02*
X138897438Y-122914523D01*
X138897438Y-122914523D02*
X138945057Y-122866904D01*
X138945057Y-122866904D02*
X139040295Y-122819285D01*
X139040295Y-122819285D02*
X139135533Y-122819285D01*
X139135533Y-122819285D02*
X139278390Y-122866904D01*
X139278390Y-122866904D02*
X139849819Y-123438332D01*
X139849819Y-123438332D02*
X139849819Y-122819285D01*
X117542295Y-73182319D02*
X117542295Y-73991842D01*
X117542295Y-73991842D02*
X117589914Y-74087080D01*
X117589914Y-74087080D02*
X117637533Y-74134700D01*
X117637533Y-74134700D02*
X117732771Y-74182319D01*
X117732771Y-74182319D02*
X117923247Y-74182319D01*
X117923247Y-74182319D02*
X118018485Y-74134700D01*
X118018485Y-74134700D02*
X118066104Y-74087080D01*
X118066104Y-74087080D02*
X118113723Y-73991842D01*
X118113723Y-73991842D02*
X118113723Y-73182319D01*
X118494676Y-73182319D02*
X119161342Y-73182319D01*
X119161342Y-73182319D02*
X118732771Y-74182319D01*
X130859795Y-103589819D02*
X130859795Y-104399342D01*
X130859795Y-104399342D02*
X130907414Y-104494580D01*
X130907414Y-104494580D02*
X130955033Y-104542200D01*
X130955033Y-104542200D02*
X131050271Y-104589819D01*
X131050271Y-104589819D02*
X131240747Y-104589819D01*
X131240747Y-104589819D02*
X131335985Y-104542200D01*
X131335985Y-104542200D02*
X131383604Y-104494580D01*
X131383604Y-104494580D02*
X131431223Y-104399342D01*
X131431223Y-104399342D02*
X131431223Y-103589819D01*
X131859795Y-103685057D02*
X131907414Y-103637438D01*
X131907414Y-103637438D02*
X132002652Y-103589819D01*
X132002652Y-103589819D02*
X132240747Y-103589819D01*
X132240747Y-103589819D02*
X132335985Y-103637438D01*
X132335985Y-103637438D02*
X132383604Y-103685057D01*
X132383604Y-103685057D02*
X132431223Y-103780295D01*
X132431223Y-103780295D02*
X132431223Y-103875533D01*
X132431223Y-103875533D02*
X132383604Y-104018390D01*
X132383604Y-104018390D02*
X131812176Y-104589819D01*
X131812176Y-104589819D02*
X132431223Y-104589819D01*
X202373333Y-126464580D02*
X202325714Y-126512200D01*
X202325714Y-126512200D02*
X202182857Y-126559819D01*
X202182857Y-126559819D02*
X202087619Y-126559819D01*
X202087619Y-126559819D02*
X201944762Y-126512200D01*
X201944762Y-126512200D02*
X201849524Y-126416961D01*
X201849524Y-126416961D02*
X201801905Y-126321723D01*
X201801905Y-126321723D02*
X201754286Y-126131247D01*
X201754286Y-126131247D02*
X201754286Y-125988390D01*
X201754286Y-125988390D02*
X201801905Y-125797914D01*
X201801905Y-125797914D02*
X201849524Y-125702676D01*
X201849524Y-125702676D02*
X201944762Y-125607438D01*
X201944762Y-125607438D02*
X202087619Y-125559819D01*
X202087619Y-125559819D02*
X202182857Y-125559819D01*
X202182857Y-125559819D02*
X202325714Y-125607438D01*
X202325714Y-125607438D02*
X202373333Y-125655057D01*
X203278095Y-125559819D02*
X202801905Y-125559819D01*
X202801905Y-125559819D02*
X202754286Y-126036009D01*
X202754286Y-126036009D02*
X202801905Y-125988390D01*
X202801905Y-125988390D02*
X202897143Y-125940771D01*
X202897143Y-125940771D02*
X203135238Y-125940771D01*
X203135238Y-125940771D02*
X203230476Y-125988390D01*
X203230476Y-125988390D02*
X203278095Y-126036009D01*
X203278095Y-126036009D02*
X203325714Y-126131247D01*
X203325714Y-126131247D02*
X203325714Y-126369342D01*
X203325714Y-126369342D02*
X203278095Y-126464580D01*
X203278095Y-126464580D02*
X203230476Y-126512200D01*
X203230476Y-126512200D02*
X203135238Y-126559819D01*
X203135238Y-126559819D02*
X202897143Y-126559819D01*
X202897143Y-126559819D02*
X202801905Y-126512200D01*
X202801905Y-126512200D02*
X202754286Y-126464580D01*
X101737142Y-90784819D02*
X101403809Y-90308628D01*
X101165714Y-90784819D02*
X101165714Y-89784819D01*
X101165714Y-89784819D02*
X101546666Y-89784819D01*
X101546666Y-89784819D02*
X101641904Y-89832438D01*
X101641904Y-89832438D02*
X101689523Y-89880057D01*
X101689523Y-89880057D02*
X101737142Y-89975295D01*
X101737142Y-89975295D02*
X101737142Y-90118152D01*
X101737142Y-90118152D02*
X101689523Y-90213390D01*
X101689523Y-90213390D02*
X101641904Y-90261009D01*
X101641904Y-90261009D02*
X101546666Y-90308628D01*
X101546666Y-90308628D02*
X101165714Y-90308628D01*
X102118095Y-89880057D02*
X102165714Y-89832438D01*
X102165714Y-89832438D02*
X102260952Y-89784819D01*
X102260952Y-89784819D02*
X102499047Y-89784819D01*
X102499047Y-89784819D02*
X102594285Y-89832438D01*
X102594285Y-89832438D02*
X102641904Y-89880057D01*
X102641904Y-89880057D02*
X102689523Y-89975295D01*
X102689523Y-89975295D02*
X102689523Y-90070533D01*
X102689523Y-90070533D02*
X102641904Y-90213390D01*
X102641904Y-90213390D02*
X102070476Y-90784819D01*
X102070476Y-90784819D02*
X102689523Y-90784819D01*
X103641904Y-90784819D02*
X103070476Y-90784819D01*
X103356190Y-90784819D02*
X103356190Y-89784819D01*
X103356190Y-89784819D02*
X103260952Y-89927676D01*
X103260952Y-89927676D02*
X103165714Y-90022914D01*
X103165714Y-90022914D02*
X103070476Y-90070533D01*
X176161905Y-73409819D02*
X176161905Y-74219342D01*
X176161905Y-74219342D02*
X176209524Y-74314580D01*
X176209524Y-74314580D02*
X176257143Y-74362200D01*
X176257143Y-74362200D02*
X176352381Y-74409819D01*
X176352381Y-74409819D02*
X176542857Y-74409819D01*
X176542857Y-74409819D02*
X176638095Y-74362200D01*
X176638095Y-74362200D02*
X176685714Y-74314580D01*
X176685714Y-74314580D02*
X176733333Y-74219342D01*
X176733333Y-74219342D02*
X176733333Y-73409819D01*
X177733333Y-74409819D02*
X177161905Y-74409819D01*
X177447619Y-74409819D02*
X177447619Y-73409819D01*
X177447619Y-73409819D02*
X177352381Y-73552676D01*
X177352381Y-73552676D02*
X177257143Y-73647914D01*
X177257143Y-73647914D02*
X177161905Y-73695533D01*
X178352381Y-73409819D02*
X178447619Y-73409819D01*
X178447619Y-73409819D02*
X178542857Y-73457438D01*
X178542857Y-73457438D02*
X178590476Y-73505057D01*
X178590476Y-73505057D02*
X178638095Y-73600295D01*
X178638095Y-73600295D02*
X178685714Y-73790771D01*
X178685714Y-73790771D02*
X178685714Y-74028866D01*
X178685714Y-74028866D02*
X178638095Y-74219342D01*
X178638095Y-74219342D02*
X178590476Y-74314580D01*
X178590476Y-74314580D02*
X178542857Y-74362200D01*
X178542857Y-74362200D02*
X178447619Y-74409819D01*
X178447619Y-74409819D02*
X178352381Y-74409819D01*
X178352381Y-74409819D02*
X178257143Y-74362200D01*
X178257143Y-74362200D02*
X178209524Y-74314580D01*
X178209524Y-74314580D02*
X178161905Y-74219342D01*
X178161905Y-74219342D02*
X178114286Y-74028866D01*
X178114286Y-74028866D02*
X178114286Y-73790771D01*
X178114286Y-73790771D02*
X178161905Y-73600295D01*
X178161905Y-73600295D02*
X178209524Y-73505057D01*
X178209524Y-73505057D02*
X178257143Y-73457438D01*
X178257143Y-73457438D02*
X178352381Y-73409819D01*
X194274819Y-83246666D02*
X193798628Y-83579999D01*
X194274819Y-83818094D02*
X193274819Y-83818094D01*
X193274819Y-83818094D02*
X193274819Y-83437142D01*
X193274819Y-83437142D02*
X193322438Y-83341904D01*
X193322438Y-83341904D02*
X193370057Y-83294285D01*
X193370057Y-83294285D02*
X193465295Y-83246666D01*
X193465295Y-83246666D02*
X193608152Y-83246666D01*
X193608152Y-83246666D02*
X193703390Y-83294285D01*
X193703390Y-83294285D02*
X193751009Y-83341904D01*
X193751009Y-83341904D02*
X193798628Y-83437142D01*
X193798628Y-83437142D02*
X193798628Y-83818094D01*
X193274819Y-82341904D02*
X193274819Y-82818094D01*
X193274819Y-82818094D02*
X193751009Y-82865713D01*
X193751009Y-82865713D02*
X193703390Y-82818094D01*
X193703390Y-82818094D02*
X193655771Y-82722856D01*
X193655771Y-82722856D02*
X193655771Y-82484761D01*
X193655771Y-82484761D02*
X193703390Y-82389523D01*
X193703390Y-82389523D02*
X193751009Y-82341904D01*
X193751009Y-82341904D02*
X193846247Y-82294285D01*
X193846247Y-82294285D02*
X194084342Y-82294285D01*
X194084342Y-82294285D02*
X194179580Y-82341904D01*
X194179580Y-82341904D02*
X194227200Y-82389523D01*
X194227200Y-82389523D02*
X194274819Y-82484761D01*
X194274819Y-82484761D02*
X194274819Y-82722856D01*
X194274819Y-82722856D02*
X194227200Y-82818094D01*
X194227200Y-82818094D02*
X194179580Y-82865713D01*
X101737142Y-85834819D02*
X101403809Y-85358628D01*
X101165714Y-85834819D02*
X101165714Y-84834819D01*
X101165714Y-84834819D02*
X101546666Y-84834819D01*
X101546666Y-84834819D02*
X101641904Y-84882438D01*
X101641904Y-84882438D02*
X101689523Y-84930057D01*
X101689523Y-84930057D02*
X101737142Y-85025295D01*
X101737142Y-85025295D02*
X101737142Y-85168152D01*
X101737142Y-85168152D02*
X101689523Y-85263390D01*
X101689523Y-85263390D02*
X101641904Y-85311009D01*
X101641904Y-85311009D02*
X101546666Y-85358628D01*
X101546666Y-85358628D02*
X101165714Y-85358628D01*
X102118095Y-84930057D02*
X102165714Y-84882438D01*
X102165714Y-84882438D02*
X102260952Y-84834819D01*
X102260952Y-84834819D02*
X102499047Y-84834819D01*
X102499047Y-84834819D02*
X102594285Y-84882438D01*
X102594285Y-84882438D02*
X102641904Y-84930057D01*
X102641904Y-84930057D02*
X102689523Y-85025295D01*
X102689523Y-85025295D02*
X102689523Y-85120533D01*
X102689523Y-85120533D02*
X102641904Y-85263390D01*
X102641904Y-85263390D02*
X102070476Y-85834819D01*
X102070476Y-85834819D02*
X102689523Y-85834819D01*
X103022857Y-84834819D02*
X103641904Y-84834819D01*
X103641904Y-84834819D02*
X103308571Y-85215771D01*
X103308571Y-85215771D02*
X103451428Y-85215771D01*
X103451428Y-85215771D02*
X103546666Y-85263390D01*
X103546666Y-85263390D02*
X103594285Y-85311009D01*
X103594285Y-85311009D02*
X103641904Y-85406247D01*
X103641904Y-85406247D02*
X103641904Y-85644342D01*
X103641904Y-85644342D02*
X103594285Y-85739580D01*
X103594285Y-85739580D02*
X103546666Y-85787200D01*
X103546666Y-85787200D02*
X103451428Y-85834819D01*
X103451428Y-85834819D02*
X103165714Y-85834819D01*
X103165714Y-85834819D02*
X103070476Y-85787200D01*
X103070476Y-85787200D02*
X103022857Y-85739580D01*
D14*
%TO.C,R16*%
X98817064Y-102220000D02*
X97362936Y-102220000D01*
X98817064Y-104040000D02*
X97362936Y-104040000D01*
%TO.C,R14*%
X98817064Y-107220000D02*
X97362936Y-107220000D01*
X98817064Y-109040000D02*
X97362936Y-109040000D01*
%TO.C,SW1*%
X171415000Y-44170000D02*
X181635000Y-44170000D01*
X181635000Y-46890000D01*
X171415000Y-46890000D01*
X171415000Y-44170000D01*
%TO.C,C1*%
X186535000Y-47670113D02*
X191695000Y-47670113D01*
X186535000Y-47710113D02*
X191695000Y-47710113D01*
X186536000Y-47630113D02*
X191694000Y-47630113D01*
X186537000Y-47590113D02*
X191693000Y-47590113D01*
X186539000Y-47550113D02*
X191691000Y-47550113D01*
X186542000Y-47510113D02*
X191688000Y-47510113D01*
X186546000Y-47470113D02*
X188075000Y-47470113D01*
X186550000Y-47430113D02*
X188075000Y-47430113D01*
X186554000Y-47390113D02*
X188075000Y-47390113D01*
X186559000Y-47350113D02*
X188075000Y-47350113D01*
X186565000Y-47310113D02*
X188075000Y-47310113D01*
X186572000Y-47270113D02*
X188075000Y-47270113D01*
X186579000Y-47230113D02*
X188075000Y-47230113D01*
X186587000Y-47190113D02*
X188075000Y-47190113D01*
X186595000Y-47150113D02*
X188075000Y-47150113D01*
X186604000Y-47110113D02*
X188075000Y-47110113D01*
X186614000Y-47070113D02*
X188075000Y-47070113D01*
X186624000Y-47030113D02*
X188075000Y-47030113D01*
X186635000Y-46989113D02*
X188075000Y-46989113D01*
X186647000Y-46949113D02*
X188075000Y-46949113D01*
X186660000Y-46909113D02*
X188075000Y-46909113D01*
X186673000Y-46869113D02*
X188075000Y-46869113D01*
X186687000Y-46829113D02*
X188075000Y-46829113D01*
X186701000Y-46789113D02*
X188075000Y-46789113D01*
X186717000Y-46749113D02*
X188075000Y-46749113D01*
X186733000Y-46709113D02*
X188075000Y-46709113D01*
X186750000Y-46669113D02*
X188075000Y-46669113D01*
X186767000Y-46629113D02*
X188075000Y-46629113D01*
X186786000Y-46589113D02*
X188075000Y-46589113D01*
X186805000Y-46549113D02*
X188075000Y-46549113D01*
X186825000Y-46509113D02*
X188075000Y-46509113D01*
X186847000Y-46469113D02*
X188075000Y-46469113D01*
X186868000Y-46429113D02*
X188075000Y-46429113D01*
X186891000Y-46389113D02*
X188075000Y-46389113D01*
X186915000Y-46349113D02*
X188075000Y-46349113D01*
X186940000Y-46309113D02*
X188075000Y-46309113D01*
X186966000Y-46269113D02*
X188075000Y-46269113D01*
X186993000Y-46229113D02*
X188075000Y-46229113D01*
X187020000Y-46189113D02*
X188075000Y-46189113D01*
X187050000Y-46149113D02*
X188075000Y-46149113D01*
X187080000Y-46109113D02*
X188075000Y-46109113D01*
X187111000Y-46069113D02*
X188075000Y-46069113D01*
X187144000Y-46029113D02*
X188075000Y-46029113D01*
X187178000Y-45989113D02*
X188075000Y-45989113D01*
X187214000Y-45949113D02*
X188075000Y-45949113D01*
X187251000Y-45909113D02*
X188075000Y-45909113D01*
X187289000Y-45869113D02*
X188075000Y-45869113D01*
X187330000Y-45829113D02*
X188075000Y-45829113D01*
X187372000Y-45789113D02*
X188075000Y-45789113D01*
X187390000Y-50264888D02*
X187890000Y-50264888D01*
X187416000Y-45749113D02*
X188075000Y-45749113D01*
X187462000Y-45709113D02*
X188075000Y-45709113D01*
X187510000Y-45669113D02*
X188075000Y-45669113D01*
X187561000Y-45629113D02*
X188075000Y-45629113D01*
X187615000Y-45589113D02*
X188075000Y-45589113D01*
X187640000Y-50514888D02*
X187640000Y-50014888D01*
X187672000Y-45549113D02*
X188075000Y-45549113D01*
X187732000Y-45509113D02*
X188075000Y-45509113D01*
X187796000Y-45469113D02*
X188075000Y-45469113D01*
X187864000Y-45429113D02*
X188075000Y-45429113D01*
X187937000Y-45389113D02*
X190293000Y-45389113D01*
X188017000Y-45349113D02*
X190213000Y-45349113D01*
X188104000Y-45309113D02*
X190126000Y-45309113D01*
X188200000Y-45269113D02*
X190030000Y-45269113D01*
X188310000Y-45229113D02*
X189920000Y-45229113D01*
X188438000Y-45189113D02*
X189792000Y-45189113D01*
X188597000Y-45149113D02*
X189633000Y-45149113D01*
X188831000Y-45109113D02*
X189399000Y-45109113D01*
X190155000Y-45429113D02*
X190366000Y-45429113D01*
X190155000Y-45469113D02*
X190434000Y-45469113D01*
X190155000Y-45509113D02*
X190498000Y-45509113D01*
X190155000Y-45549113D02*
X190558000Y-45549113D01*
X190155000Y-45589113D02*
X190615000Y-45589113D01*
X190155000Y-45629113D02*
X190669000Y-45629113D01*
X190155000Y-45669113D02*
X190720000Y-45669113D01*
X190155000Y-45709113D02*
X190768000Y-45709113D01*
X190155000Y-45749113D02*
X190814000Y-45749113D01*
X190155000Y-45789113D02*
X190858000Y-45789113D01*
X190155000Y-45829113D02*
X190900000Y-45829113D01*
X190155000Y-45869113D02*
X190941000Y-45869113D01*
X190155000Y-45909113D02*
X190979000Y-45909113D01*
X190155000Y-45949113D02*
X191016000Y-45949113D01*
X190155000Y-45989113D02*
X191052000Y-45989113D01*
X190155000Y-46029113D02*
X191086000Y-46029113D01*
X190155000Y-46069113D02*
X191119000Y-46069113D01*
X190155000Y-46109113D02*
X191150000Y-46109113D01*
X190155000Y-46149113D02*
X191180000Y-46149113D01*
X190155000Y-46189113D02*
X191210000Y-46189113D01*
X190155000Y-46229113D02*
X191237000Y-46229113D01*
X190155000Y-46269113D02*
X191264000Y-46269113D01*
X190155000Y-46309113D02*
X191290000Y-46309113D01*
X190155000Y-46349113D02*
X191315000Y-46349113D01*
X190155000Y-46389113D02*
X191339000Y-46389113D01*
X190155000Y-46429113D02*
X191362000Y-46429113D01*
X190155000Y-46469113D02*
X191383000Y-46469113D01*
X190155000Y-46509113D02*
X191405000Y-46509113D01*
X190155000Y-46549113D02*
X191425000Y-46549113D01*
X190155000Y-46589113D02*
X191444000Y-46589113D01*
X190155000Y-46629113D02*
X191463000Y-46629113D01*
X190155000Y-46669113D02*
X191480000Y-46669113D01*
X190155000Y-46709113D02*
X191497000Y-46709113D01*
X190155000Y-46749113D02*
X191513000Y-46749113D01*
X190155000Y-46789113D02*
X191529000Y-46789113D01*
X190155000Y-46829113D02*
X191543000Y-46829113D01*
X190155000Y-46869113D02*
X191557000Y-46869113D01*
X190155000Y-46909113D02*
X191570000Y-46909113D01*
X190155000Y-46949113D02*
X191583000Y-46949113D01*
X190155000Y-46989113D02*
X191595000Y-46989113D01*
X190155000Y-47030113D02*
X191606000Y-47030113D01*
X190155000Y-47070113D02*
X191616000Y-47070113D01*
X190155000Y-47110113D02*
X191626000Y-47110113D01*
X190155000Y-47150113D02*
X191635000Y-47150113D01*
X190155000Y-47190113D02*
X191643000Y-47190113D01*
X190155000Y-47230113D02*
X191651000Y-47230113D01*
X190155000Y-47270113D02*
X191658000Y-47270113D01*
X190155000Y-47310113D02*
X191665000Y-47310113D01*
X190155000Y-47350113D02*
X191671000Y-47350113D01*
X190155000Y-47390113D02*
X191676000Y-47390113D01*
X190155000Y-47430113D02*
X191680000Y-47430113D01*
X190155000Y-47470113D02*
X191684000Y-47470113D01*
X191735000Y-47710113D02*
G75*
G02*
X186495000Y-47710113I-2620000J0D01*
G01*
X186495000Y-47710113D02*
G75*
G02*
X191735000Y-47710113I2620000J0D01*
G01*
%TO.C,U9*%
X151634200Y-58312500D02*
X151634200Y-59767500D01*
X151634200Y-72502500D02*
X151634200Y-71047500D01*
X153089200Y-58312500D02*
X151634200Y-58312500D01*
X153089200Y-72502500D02*
X151634200Y-72502500D01*
X161829200Y-58312500D02*
X163284200Y-58312500D01*
X161829200Y-72502500D02*
X162111982Y-72502500D01*
X162111982Y-72502500D02*
X163284200Y-71330282D01*
X163284200Y-58312500D02*
X163284200Y-59767500D01*
X163284200Y-71330282D02*
X163284200Y-71047500D01*
%TO.C,Q1*%
X196365000Y-103205000D02*
X196365000Y-106805000D01*
X196365000Y-103205000D02*
G75*
G02*
X197092205Y-102680816I1850000J-1800000D01*
G01*
X197092205Y-107329184D02*
G75*
G02*
X196365000Y-106805000I1122795J2324184D01*
G01*
X199313807Y-102648600D02*
G75*
G02*
X200815000Y-105005000I-1098807J-2356400D01*
G01*
X200815000Y-105005000D02*
G75*
G02*
X199313807Y-107361400I-2600000J0D01*
G01*
%TO.C,R17*%
X98817064Y-99720000D02*
X97362936Y-99720000D01*
X98817064Y-101540000D02*
X97362936Y-101540000D01*
D11*
%TO.C,U4*%
X163775000Y-92990000D02*
X163775000Y-94640000D01*
X163775000Y-103320000D02*
X163775000Y-101670000D01*
X165425000Y-92990000D02*
X163775000Y-92990000D01*
X165425000Y-103320000D02*
X163775000Y-103320000D01*
X172455000Y-92990000D02*
X174105000Y-92990000D01*
X172455000Y-103320000D02*
X172955000Y-103320000D01*
X172955000Y-103320000D02*
X174105000Y-102170000D01*
X174105000Y-92990000D02*
X174105000Y-94640000D01*
X174105000Y-102170000D02*
X174105000Y-101670000D01*
D14*
%TO.C,R3*%
X107205000Y-84802936D02*
X107205000Y-86257064D01*
X109025000Y-84802936D02*
X109025000Y-86257064D01*
%TO.C,C2*%
X188130000Y-64266252D02*
X188130000Y-62843748D01*
X189950000Y-64266252D02*
X189950000Y-62843748D01*
%TO.C,R9*%
X98817064Y-119820000D02*
X97362936Y-119820000D01*
X98817064Y-121640000D02*
X97362936Y-121640000D01*
%TO.C,R12*%
X98817064Y-112320000D02*
X97362936Y-112320000D01*
X98817064Y-114140000D02*
X97362936Y-114140000D01*
D15*
%TO.C,U8*%
X133047100Y-53957400D02*
X133047100Y-54513660D01*
X133047100Y-72146340D02*
X133047100Y-72702600D01*
X133047100Y-72702600D02*
X141937100Y-72702600D01*
X141937100Y-53957400D02*
X133047100Y-53957400D01*
X141937100Y-54513660D02*
X141937100Y-53957400D01*
X141937100Y-72702600D02*
X141937100Y-72146340D01*
D14*
X143334100Y-72982000D02*
X142854100Y-72982000D01*
X143094100Y-72652000D01*
X143334100Y-72982000D01*
G36*
X143334100Y-72982000D02*
G01*
X142854100Y-72982000D01*
X143094100Y-72652000D01*
X143334100Y-72982000D01*
G37*
%TO.C,R1*%
X136380000Y-124332064D02*
X136380000Y-122877936D01*
X138200000Y-124332064D02*
X138200000Y-122877936D01*
%TO.C,R8*%
X98817064Y-122470000D02*
X97362936Y-122470000D01*
X98817064Y-124290000D02*
X97362936Y-124290000D01*
%TO.C,R20*%
X98817064Y-92020000D02*
X97362936Y-92020000D01*
X98817064Y-93840000D02*
X97362936Y-93840000D01*
%TO.C,R18*%
X98817064Y-97170000D02*
X97362936Y-97170000D01*
X98817064Y-98990000D02*
X97362936Y-98990000D01*
%TO.C,C4*%
X133828748Y-105295000D02*
X135251252Y-105295000D01*
X133828748Y-107115000D02*
X135251252Y-107115000D01*
D16*
%TO.C,REF\u002A\u002A*%
X126900000Y-47920000D02*
G75*
G02*
X121900000Y-47920000I-2500000J0D01*
G01*
X121900000Y-47920000D02*
G75*
G02*
X126900000Y-47920000I2500000J0D01*
G01*
D17*
G36*
X123516196Y-46874264D02*
G01*
X123590648Y-46879973D01*
X123662308Y-46889513D01*
X123731177Y-46902884D01*
X123797256Y-46920087D01*
X123860544Y-46941120D01*
X123921044Y-46965984D01*
X123978754Y-46994678D01*
X124033677Y-47027202D01*
X124085812Y-47063556D01*
X124135161Y-47103738D01*
X124181723Y-47147750D01*
X124225499Y-47195590D01*
X124266491Y-47247258D01*
X124304698Y-47302755D01*
X124340122Y-47362079D01*
X123886414Y-47597982D01*
X123877198Y-47579461D01*
X123867726Y-47561644D01*
X123857998Y-47544529D01*
X123848013Y-47528118D01*
X123837772Y-47512412D01*
X123827274Y-47497411D01*
X123816518Y-47483116D01*
X123805505Y-47469526D01*
X123794233Y-47456644D01*
X123782704Y-47444470D01*
X123770916Y-47433003D01*
X123758869Y-47422245D01*
X123746562Y-47412197D01*
X123733997Y-47402859D01*
X123721171Y-47394231D01*
X123708085Y-47386315D01*
X123694909Y-47379009D01*
X123681852Y-47372172D01*
X123668913Y-47365804D01*
X123656093Y-47359906D01*
X123643391Y-47354478D01*
X123630808Y-47349521D01*
X123618343Y-47345034D01*
X123605996Y-47341018D01*
X123593766Y-47337474D01*
X123581655Y-47334401D01*
X123569661Y-47331800D01*
X123557784Y-47329671D01*
X123546024Y-47328015D01*
X123534382Y-47326831D01*
X123522856Y-47326121D01*
X123511447Y-47325884D01*
X123483552Y-47326469D01*
X123456542Y-47328222D01*
X123430416Y-47331145D01*
X123405175Y-47335236D01*
X123380818Y-47340497D01*
X123357346Y-47346926D01*
X123334758Y-47354525D01*
X123313056Y-47363293D01*
X123292238Y-47373230D01*
X123272305Y-47384337D01*
X123253258Y-47396612D01*
X123235095Y-47410058D01*
X123217818Y-47424672D01*
X123201426Y-47440456D01*
X123185920Y-47457410D01*
X123171299Y-47475532D01*
X123157563Y-47494825D01*
X123144713Y-47515287D01*
X123132749Y-47536919D01*
X123121670Y-47559720D01*
X123111478Y-47583691D01*
X123102171Y-47608832D01*
X123093750Y-47635142D01*
X123086215Y-47662623D01*
X123079567Y-47691273D01*
X123073804Y-47721093D01*
X123068928Y-47752083D01*
X123064939Y-47784243D01*
X123061835Y-47817573D01*
X123059619Y-47852073D01*
X123058289Y-47887743D01*
X123057845Y-47924583D01*
X123058294Y-47958169D01*
X123059641Y-47990902D01*
X123061885Y-48022782D01*
X123065027Y-48053811D01*
X123069066Y-48083988D01*
X123074002Y-48113314D01*
X123079836Y-48141790D01*
X123086566Y-48169415D01*
X123094193Y-48196192D01*
X123102716Y-48222118D01*
X123112136Y-48247197D01*
X123122452Y-48271427D01*
X123133664Y-48294810D01*
X123145771Y-48317345D01*
X123158775Y-48339033D01*
X123172674Y-48359876D01*
X123187467Y-48379657D01*
X123203110Y-48398164D01*
X123219604Y-48415395D01*
X123236948Y-48431351D01*
X123245940Y-48438851D01*
X123255144Y-48446032D01*
X123264561Y-48452893D01*
X123274190Y-48459436D01*
X123284032Y-48465660D01*
X123294087Y-48471565D01*
X123304355Y-48477151D01*
X123314835Y-48482418D01*
X123336434Y-48491994D01*
X123358883Y-48500294D01*
X123382183Y-48507318D01*
X123406335Y-48513065D01*
X123431336Y-48517535D01*
X123457189Y-48520728D01*
X123483893Y-48522644D01*
X123511447Y-48523282D01*
X123547809Y-48522148D01*
X123582800Y-48518744D01*
X123616420Y-48513070D01*
X123648670Y-48505129D01*
X123679549Y-48494918D01*
X123709057Y-48482440D01*
X123737196Y-48467694D01*
X123763965Y-48450681D01*
X123789365Y-48431400D01*
X123813396Y-48409853D01*
X123836059Y-48386039D01*
X123857353Y-48359958D01*
X123877279Y-48331612D01*
X123895838Y-48301001D01*
X123913029Y-48268124D01*
X123928854Y-48232982D01*
X124346049Y-48444648D01*
X124329018Y-48475248D01*
X124311183Y-48505018D01*
X124292545Y-48533958D01*
X124273103Y-48562067D01*
X124252857Y-48589347D01*
X124231808Y-48615797D01*
X124209955Y-48641418D01*
X124187299Y-48666210D01*
X124163838Y-48690174D01*
X124139574Y-48713310D01*
X124114507Y-48735618D01*
X124088636Y-48757098D01*
X124061961Y-48777751D01*
X124034482Y-48797577D01*
X124006200Y-48816577D01*
X123977114Y-48834750D01*
X123947473Y-48851973D01*
X123917449Y-48868083D01*
X123887041Y-48883079D01*
X123856250Y-48896963D01*
X123825077Y-48909735D01*
X123793521Y-48921394D01*
X123761584Y-48931941D01*
X123729265Y-48941377D01*
X123696566Y-48949701D01*
X123663486Y-48956915D01*
X123630027Y-48963018D01*
X123596188Y-48968010D01*
X123561970Y-48971893D01*
X123527374Y-48974666D01*
X123492400Y-48976329D01*
X123457049Y-48976884D01*
X123401039Y-48975799D01*
X123346396Y-48972542D01*
X123293120Y-48967114D01*
X123241213Y-48959514D01*
X123190675Y-48949741D01*
X123141505Y-48937794D01*
X123093705Y-48923673D01*
X123047275Y-48907378D01*
X123002216Y-48888907D01*
X122958527Y-48868260D01*
X122916210Y-48845436D01*
X122875265Y-48820436D01*
X122835692Y-48793257D01*
X122797492Y-48763900D01*
X122760665Y-48732364D01*
X122725211Y-48698648D01*
X122691532Y-48663031D01*
X122660025Y-48625712D01*
X122630691Y-48586693D01*
X122603530Y-48545972D01*
X122578541Y-48503550D01*
X122555726Y-48459427D01*
X122535083Y-48413604D01*
X122516614Y-48366080D01*
X122500317Y-48316856D01*
X122486193Y-48265931D01*
X122474243Y-48213307D01*
X122464465Y-48158982D01*
X122456859Y-48102958D01*
X122451427Y-48045235D01*
X122448168Y-47985811D01*
X122447081Y-47924689D01*
X122448180Y-47864986D01*
X122451477Y-47806846D01*
X122456970Y-47750268D01*
X122464661Y-47695250D01*
X122474549Y-47641794D01*
X122486634Y-47589898D01*
X122500916Y-47539562D01*
X122517394Y-47490785D01*
X122536069Y-47443568D01*
X122556940Y-47397909D01*
X122580008Y-47353808D01*
X122605271Y-47311264D01*
X122632730Y-47270278D01*
X122662385Y-47230848D01*
X122694235Y-47192974D01*
X122728281Y-47156656D01*
X122764003Y-47122245D01*
X122800884Y-47090051D01*
X122838924Y-47060076D01*
X122878122Y-47032319D01*
X122918480Y-47006780D01*
X122959997Y-46983461D01*
X123002673Y-46962362D01*
X123046508Y-46943482D01*
X123091503Y-46926822D01*
X123137658Y-46912382D01*
X123184973Y-46900163D01*
X123233448Y-46890165D01*
X123283083Y-46882388D01*
X123333878Y-46876833D01*
X123385834Y-46873499D01*
X123438951Y-46872388D01*
X123516196Y-46874264D01*
G37*
G36*
X125475555Y-46874264D02*
G01*
X125549930Y-46879973D01*
X125621473Y-46889513D01*
X125690183Y-46902884D01*
X125756060Y-46920087D01*
X125819103Y-46941120D01*
X125879312Y-46965984D01*
X125936684Y-46994678D01*
X125991220Y-47027202D01*
X126042919Y-47063556D01*
X126091780Y-47103738D01*
X126137802Y-47147750D01*
X126180985Y-47195590D01*
X126221327Y-47247258D01*
X126258828Y-47302755D01*
X126293488Y-47362079D01*
X126293487Y-47362079D01*
X125845918Y-47597982D01*
X125836718Y-47579461D01*
X125827256Y-47561644D01*
X125817531Y-47544529D01*
X125807545Y-47528118D01*
X125797298Y-47512412D01*
X125786791Y-47497411D01*
X125776023Y-47483116D01*
X125764995Y-47469526D01*
X125753709Y-47456644D01*
X125742163Y-47444470D01*
X125730360Y-47433003D01*
X125718298Y-47422245D01*
X125705979Y-47412197D01*
X125693403Y-47402859D01*
X125680571Y-47394231D01*
X125667483Y-47386315D01*
X125654264Y-47379009D01*
X125641116Y-47372172D01*
X125628042Y-47365804D01*
X125615041Y-47359906D01*
X125602114Y-47354478D01*
X125589261Y-47349521D01*
X125576483Y-47345034D01*
X125563780Y-47341018D01*
X125551152Y-47337474D01*
X125538601Y-47334401D01*
X125526126Y-47331800D01*
X125513729Y-47329671D01*
X125501409Y-47328015D01*
X125489167Y-47326831D01*
X125477003Y-47326121D01*
X125464918Y-47325884D01*
X125437014Y-47326469D01*
X125409994Y-47328222D01*
X125383860Y-47331145D01*
X125358611Y-47335236D01*
X125334247Y-47340497D01*
X125310768Y-47346926D01*
X125288174Y-47354525D01*
X125266466Y-47363293D01*
X125245643Y-47373230D01*
X125225705Y-47384337D01*
X125206653Y-47396612D01*
X125188487Y-47410058D01*
X125171206Y-47424672D01*
X125154811Y-47440456D01*
X125139301Y-47457410D01*
X125124677Y-47475532D01*
X125110939Y-47494825D01*
X125098087Y-47515287D01*
X125086121Y-47536919D01*
X125075041Y-47559720D01*
X125064847Y-47583691D01*
X125055539Y-47608832D01*
X125047118Y-47635142D01*
X125039582Y-47662623D01*
X125032933Y-47691273D01*
X125027170Y-47721093D01*
X125022294Y-47752083D01*
X125018304Y-47784243D01*
X125015201Y-47817573D01*
X125012984Y-47852073D01*
X125011654Y-47887743D01*
X125011211Y-47924583D01*
X125011661Y-47958169D01*
X125013011Y-47990902D01*
X125015260Y-48022782D01*
X125018409Y-48053811D01*
X125022456Y-48083988D01*
X125027401Y-48113314D01*
X125033244Y-48141790D01*
X125039984Y-48169415D01*
X125047621Y-48196192D01*
X125056154Y-48222118D01*
X125065582Y-48247197D01*
X125075906Y-48271427D01*
X125087125Y-48294810D01*
X125099238Y-48317345D01*
X125112245Y-48339033D01*
X125126145Y-48359876D01*
X125140918Y-48379657D01*
X125156542Y-48398164D01*
X125173017Y-48415395D01*
X125181575Y-48423533D01*
X125190345Y-48431351D01*
X125199329Y-48438851D01*
X125208525Y-48446032D01*
X125217935Y-48452893D01*
X125227559Y-48459436D01*
X125237396Y-48465660D01*
X125247446Y-48471565D01*
X125257710Y-48477151D01*
X125268187Y-48482418D01*
X125289783Y-48491994D01*
X125312233Y-48500294D01*
X125335540Y-48507318D01*
X125359702Y-48513065D01*
X125384720Y-48517535D01*
X125410595Y-48520728D01*
X125437328Y-48522644D01*
X125464918Y-48523282D01*
X125501244Y-48522148D01*
X125536206Y-48518744D01*
X125569802Y-48513070D01*
X125602032Y-48505129D01*
X125632895Y-48494918D01*
X125662391Y-48482440D01*
X125690519Y-48467694D01*
X125717278Y-48450681D01*
X125742668Y-48431400D01*
X125766688Y-48409853D01*
X125789338Y-48386039D01*
X125810616Y-48359958D01*
X125830523Y-48331612D01*
X125849058Y-48301001D01*
X125866219Y-48268124D01*
X125882008Y-48232982D01*
X126305341Y-48444648D01*
X126287597Y-48475248D01*
X126269092Y-48505018D01*
X126249828Y-48533958D01*
X126229804Y-48562067D01*
X126209022Y-48589347D01*
X126187482Y-48615797D01*
X126165185Y-48641418D01*
X126142132Y-48666210D01*
X126118324Y-48690174D01*
X126093762Y-48713310D01*
X126068446Y-48735618D01*
X126042376Y-48757098D01*
X126015555Y-48777751D01*
X125987982Y-48797577D01*
X125959658Y-48816577D01*
X125930585Y-48834750D01*
X125900932Y-48851973D01*
X125870950Y-48868083D01*
X125840637Y-48883079D01*
X125809994Y-48896963D01*
X125779022Y-48909735D01*
X125747720Y-48921394D01*
X125716088Y-48931941D01*
X125684126Y-48941377D01*
X125651834Y-48949701D01*
X125619212Y-48956915D01*
X125586260Y-48963018D01*
X125552978Y-48968010D01*
X125519367Y-48971893D01*
X125485425Y-48974666D01*
X125451154Y-48976329D01*
X125416553Y-48976884D01*
X125359808Y-48975799D01*
X125304509Y-48972542D01*
X125250656Y-48967114D01*
X125198248Y-48959514D01*
X125147285Y-48949741D01*
X125097767Y-48937794D01*
X125049692Y-48923673D01*
X125003062Y-48907378D01*
X124957875Y-48888907D01*
X124914132Y-48868260D01*
X124871831Y-48845436D01*
X124830974Y-48820436D01*
X124791558Y-48793257D01*
X124753585Y-48763900D01*
X124717054Y-48732364D01*
X124681964Y-48698648D01*
X124648594Y-48663031D01*
X124617381Y-48625712D01*
X124588326Y-48586693D01*
X124561426Y-48545972D01*
X124536682Y-48503550D01*
X124514093Y-48459427D01*
X124493658Y-48413604D01*
X124475377Y-48366080D01*
X124459249Y-48316856D01*
X124445273Y-48265931D01*
X124433449Y-48213307D01*
X124423777Y-48158982D01*
X124416254Y-48102958D01*
X124410882Y-48045235D01*
X124407659Y-47985811D01*
X124406585Y-47924689D01*
X124407683Y-47864986D01*
X124410976Y-47806846D01*
X124416466Y-47750268D01*
X124424152Y-47695250D01*
X124434035Y-47641794D01*
X124446116Y-47589898D01*
X124460395Y-47539562D01*
X124476872Y-47490785D01*
X124495548Y-47443568D01*
X124516423Y-47397909D01*
X124539499Y-47353808D01*
X124564775Y-47311264D01*
X124592251Y-47270278D01*
X124621929Y-47230848D01*
X124653808Y-47192974D01*
X124687890Y-47156656D01*
X124723594Y-47122245D01*
X124760459Y-47090051D01*
X124798484Y-47060076D01*
X124837669Y-47032319D01*
X124878015Y-47006780D01*
X124919521Y-46983461D01*
X124962187Y-46962362D01*
X125006012Y-46943482D01*
X125050997Y-46926822D01*
X125097142Y-46912382D01*
X125144446Y-46900163D01*
X125192909Y-46890165D01*
X125242531Y-46882388D01*
X125293312Y-46876833D01*
X125345251Y-46873499D01*
X125398350Y-46872388D01*
X125475555Y-46874264D01*
G37*
D14*
%TO.C,R22*%
X98817064Y-86970000D02*
X97362936Y-86970000D01*
X98817064Y-88790000D02*
X97362936Y-88790000D01*
%TO.C,R6*%
X198480000Y-83807064D02*
X198480000Y-82352936D01*
X200300000Y-83807064D02*
X200300000Y-82352936D01*
%TO.C,R13*%
X98817064Y-109720000D02*
X97362936Y-109720000D01*
X98817064Y-111540000D02*
X97362936Y-111540000D01*
%TO.C,C6*%
X199350112Y-88030000D02*
X199850112Y-88030000D01*
X199600112Y-87780000D02*
X199600112Y-88280000D01*
X202154887Y-86925000D02*
X202154887Y-92085000D01*
X202194887Y-86925000D02*
X202194887Y-92085000D01*
X202234887Y-86926000D02*
X202234887Y-92084000D01*
X202274887Y-86927000D02*
X202274887Y-92083000D01*
X202314887Y-86929000D02*
X202314887Y-92081000D01*
X202354887Y-86932000D02*
X202354887Y-92078000D01*
X202394887Y-86936000D02*
X202394887Y-88465000D01*
X202394887Y-90545000D02*
X202394887Y-92074000D01*
X202434887Y-86940000D02*
X202434887Y-88465000D01*
X202434887Y-90545000D02*
X202434887Y-92070000D01*
X202474887Y-86944000D02*
X202474887Y-88465000D01*
X202474887Y-90545000D02*
X202474887Y-92066000D01*
X202514887Y-86949000D02*
X202514887Y-88465000D01*
X202514887Y-90545000D02*
X202514887Y-92061000D01*
X202554887Y-86955000D02*
X202554887Y-88465000D01*
X202554887Y-90545000D02*
X202554887Y-92055000D01*
X202594887Y-86962000D02*
X202594887Y-88465000D01*
X202594887Y-90545000D02*
X202594887Y-92048000D01*
X202634887Y-86969000D02*
X202634887Y-88465000D01*
X202634887Y-90545000D02*
X202634887Y-92041000D01*
X202674887Y-86977000D02*
X202674887Y-88465000D01*
X202674887Y-90545000D02*
X202674887Y-92033000D01*
X202714887Y-86985000D02*
X202714887Y-88465000D01*
X202714887Y-90545000D02*
X202714887Y-92025000D01*
X202754887Y-86994000D02*
X202754887Y-88465000D01*
X202754887Y-90545000D02*
X202754887Y-92016000D01*
X202794887Y-87004000D02*
X202794887Y-88465000D01*
X202794887Y-90545000D02*
X202794887Y-92006000D01*
X202834887Y-87014000D02*
X202834887Y-88465000D01*
X202834887Y-90545000D02*
X202834887Y-91996000D01*
X202875887Y-87025000D02*
X202875887Y-88465000D01*
X202875887Y-90545000D02*
X202875887Y-91985000D01*
X202915887Y-87037000D02*
X202915887Y-88465000D01*
X202915887Y-90545000D02*
X202915887Y-91973000D01*
X202955887Y-87050000D02*
X202955887Y-88465000D01*
X202955887Y-90545000D02*
X202955887Y-91960000D01*
X202995887Y-87063000D02*
X202995887Y-88465000D01*
X202995887Y-90545000D02*
X202995887Y-91947000D01*
X203035887Y-87077000D02*
X203035887Y-88465000D01*
X203035887Y-90545000D02*
X203035887Y-91933000D01*
X203075887Y-87091000D02*
X203075887Y-88465000D01*
X203075887Y-90545000D02*
X203075887Y-91919000D01*
X203115887Y-87107000D02*
X203115887Y-88465000D01*
X203115887Y-90545000D02*
X203115887Y-91903000D01*
X203155887Y-87123000D02*
X203155887Y-88465000D01*
X203155887Y-90545000D02*
X203155887Y-91887000D01*
X203195887Y-87140000D02*
X203195887Y-88465000D01*
X203195887Y-90545000D02*
X203195887Y-91870000D01*
X203235887Y-87157000D02*
X203235887Y-88465000D01*
X203235887Y-90545000D02*
X203235887Y-91853000D01*
X203275887Y-87176000D02*
X203275887Y-88465000D01*
X203275887Y-90545000D02*
X203275887Y-91834000D01*
X203315887Y-87195000D02*
X203315887Y-88465000D01*
X203315887Y-90545000D02*
X203315887Y-91815000D01*
X203355887Y-87215000D02*
X203355887Y-88465000D01*
X203355887Y-90545000D02*
X203355887Y-91795000D01*
X203395887Y-87237000D02*
X203395887Y-88465000D01*
X203395887Y-90545000D02*
X203395887Y-91773000D01*
X203435887Y-87258000D02*
X203435887Y-88465000D01*
X203435887Y-90545000D02*
X203435887Y-91752000D01*
X203475887Y-87281000D02*
X203475887Y-88465000D01*
X203475887Y-90545000D02*
X203475887Y-91729000D01*
X203515887Y-87305000D02*
X203515887Y-88465000D01*
X203515887Y-90545000D02*
X203515887Y-91705000D01*
X203555887Y-87330000D02*
X203555887Y-88465000D01*
X203555887Y-90545000D02*
X203555887Y-91680000D01*
X203595887Y-87356000D02*
X203595887Y-88465000D01*
X203595887Y-90545000D02*
X203595887Y-91654000D01*
X203635887Y-87383000D02*
X203635887Y-88465000D01*
X203635887Y-90545000D02*
X203635887Y-91627000D01*
X203675887Y-87410000D02*
X203675887Y-88465000D01*
X203675887Y-90545000D02*
X203675887Y-91600000D01*
X203715887Y-87440000D02*
X203715887Y-88465000D01*
X203715887Y-90545000D02*
X203715887Y-91570000D01*
X203755887Y-87470000D02*
X203755887Y-88465000D01*
X203755887Y-90545000D02*
X203755887Y-91540000D01*
X203795887Y-87501000D02*
X203795887Y-88465000D01*
X203795887Y-90545000D02*
X203795887Y-91509000D01*
X203835887Y-87534000D02*
X203835887Y-88465000D01*
X203835887Y-90545000D02*
X203835887Y-91476000D01*
X203875887Y-87568000D02*
X203875887Y-88465000D01*
X203875887Y-90545000D02*
X203875887Y-91442000D01*
X203915887Y-87604000D02*
X203915887Y-88465000D01*
X203915887Y-90545000D02*
X203915887Y-91406000D01*
X203955887Y-87641000D02*
X203955887Y-88465000D01*
X203955887Y-90545000D02*
X203955887Y-91369000D01*
X203995887Y-87679000D02*
X203995887Y-88465000D01*
X203995887Y-90545000D02*
X203995887Y-91331000D01*
X204035887Y-87720000D02*
X204035887Y-88465000D01*
X204035887Y-90545000D02*
X204035887Y-91290000D01*
X204075887Y-87762000D02*
X204075887Y-88465000D01*
X204075887Y-90545000D02*
X204075887Y-91248000D01*
X204115887Y-87806000D02*
X204115887Y-88465000D01*
X204115887Y-90545000D02*
X204115887Y-91204000D01*
X204155887Y-87852000D02*
X204155887Y-88465000D01*
X204155887Y-90545000D02*
X204155887Y-91158000D01*
X204195887Y-87900000D02*
X204195887Y-88465000D01*
X204195887Y-90545000D02*
X204195887Y-91110000D01*
X204235887Y-87951000D02*
X204235887Y-88465000D01*
X204235887Y-90545000D02*
X204235887Y-91059000D01*
X204275887Y-88005000D02*
X204275887Y-88465000D01*
X204275887Y-90545000D02*
X204275887Y-91005000D01*
X204315887Y-88062000D02*
X204315887Y-88465000D01*
X204315887Y-90545000D02*
X204315887Y-90948000D01*
X204355887Y-88122000D02*
X204355887Y-88465000D01*
X204355887Y-90545000D02*
X204355887Y-90888000D01*
X204395887Y-88186000D02*
X204395887Y-88465000D01*
X204395887Y-90545000D02*
X204395887Y-90824000D01*
X204435887Y-88254000D02*
X204435887Y-88465000D01*
X204435887Y-90545000D02*
X204435887Y-90756000D01*
X204475887Y-88327000D02*
X204475887Y-90683000D01*
X204515887Y-88407000D02*
X204515887Y-90603000D01*
X204555887Y-88494000D02*
X204555887Y-90516000D01*
X204595887Y-88590000D02*
X204595887Y-90420000D01*
X204635887Y-88700000D02*
X204635887Y-90310000D01*
X204675887Y-88828000D02*
X204675887Y-90182000D01*
X204715887Y-88987000D02*
X204715887Y-90023000D01*
X204755887Y-89221000D02*
X204755887Y-89789000D01*
X204774887Y-89505000D02*
G75*
G02*
X199534887Y-89505000I-2620000J0D01*
G01*
X199534887Y-89505000D02*
G75*
G02*
X204774887Y-89505000I2620000J0D01*
G01*
D11*
%TO.C,U3*%
X144775000Y-92940000D02*
X144775000Y-94590000D01*
X144775000Y-103270000D02*
X144775000Y-101620000D01*
X146425000Y-92940000D02*
X144775000Y-92940000D01*
X146425000Y-103270000D02*
X144775000Y-103270000D01*
X153455000Y-92940000D02*
X155105000Y-92940000D01*
X153455000Y-103270000D02*
X153955000Y-103270000D01*
X153955000Y-103270000D02*
X155105000Y-102120000D01*
X155105000Y-92940000D02*
X155105000Y-94590000D01*
X155105000Y-102120000D02*
X155105000Y-101620000D01*
%TO.C,U1*%
X108029200Y-92930000D02*
X108029200Y-94580000D01*
X108029200Y-103260000D02*
X108029200Y-101610000D01*
X109679200Y-92930000D02*
X108029200Y-92930000D01*
X109679200Y-103260000D02*
X108029200Y-103260000D01*
X116709200Y-92930000D02*
X118359200Y-92930000D01*
X116709200Y-103260000D02*
X117209200Y-103260000D01*
X117209200Y-103260000D02*
X118359200Y-102110000D01*
X118359200Y-92930000D02*
X118359200Y-94580000D01*
X118359200Y-102110000D02*
X118359200Y-101610000D01*
D14*
%TO.C,R15*%
X98817064Y-104720000D02*
X97362936Y-104720000D01*
X98817064Y-106540000D02*
X97362936Y-106540000D01*
D11*
%TO.C,U5*%
X182195000Y-93017500D02*
X182195000Y-94667500D01*
X182195000Y-103347500D02*
X182195000Y-101697500D01*
X183845000Y-93017500D02*
X182195000Y-93017500D01*
X183845000Y-103347500D02*
X182195000Y-103347500D01*
X190875000Y-93017500D02*
X192525000Y-93017500D01*
X190875000Y-103347500D02*
X191375000Y-103347500D01*
X191375000Y-103347500D02*
X192525000Y-102197500D01*
X192525000Y-93017500D02*
X192525000Y-94667500D01*
X192525000Y-102197500D02*
X192525000Y-101697500D01*
D14*
%TO.C,J1*%
X198070000Y-47260000D02*
X199400000Y-47260000D01*
X198070000Y-48590000D02*
X198070000Y-47260000D01*
X198070000Y-49860000D02*
X198070000Y-60080000D01*
X198070000Y-49860000D02*
X200670000Y-49860000D01*
X198070000Y-60080000D02*
X203270000Y-60080000D01*
X200670000Y-47260000D02*
X203270000Y-47260000D01*
X200670000Y-49860000D02*
X200670000Y-47260000D01*
X203270000Y-47260000D02*
X203270000Y-60080000D01*
%TO.C,C3*%
X107230000Y-69741252D02*
X107230000Y-68318748D01*
X109050000Y-69741252D02*
X109050000Y-68318748D01*
%TO.C,U6*%
X170140000Y-117895000D02*
X170980000Y-117895000D01*
X170140000Y-120655000D02*
X170140000Y-117895000D01*
X170140000Y-120655000D02*
X170140000Y-123415000D01*
X170140000Y-123415000D02*
X170980000Y-123415000D01*
X180560000Y-117895000D02*
X179720000Y-117895000D01*
X180560000Y-120655000D02*
X180560000Y-117895000D01*
X180560000Y-120655000D02*
X180560000Y-123415000D01*
X180560000Y-123415000D02*
X179720000Y-123415000D01*
X170980000Y-124205000D02*
X170650000Y-124445000D01*
X170650000Y-123965000D01*
X170980000Y-124205000D01*
G36*
X170980000Y-124205000D02*
G01*
X170650000Y-124445000D01*
X170650000Y-123965000D01*
X170980000Y-124205000D01*
G37*
%TO.C,U11*%
X197340000Y-67775000D02*
X195390000Y-67775000D01*
X197340000Y-67775000D02*
X199290000Y-67775000D01*
X197340000Y-72895000D02*
X195390000Y-72895000D01*
X197340000Y-72895000D02*
X199290000Y-72895000D01*
X200280000Y-73130000D02*
X199800000Y-73130000D01*
X200040000Y-72800000D01*
X200280000Y-73130000D01*
G36*
X200280000Y-73130000D02*
G01*
X199800000Y-73130000D01*
X200040000Y-72800000D01*
X200280000Y-73130000D01*
G37*
%TO.C,R11*%
X98817064Y-114970000D02*
X97362936Y-114970000D01*
X98817064Y-116790000D02*
X97362936Y-116790000D01*
%TO.C,R7*%
X202330000Y-83807064D02*
X202330000Y-82352936D01*
X204150000Y-83807064D02*
X204150000Y-82352936D01*
%TO.C,D3*%
X190605000Y-80620000D02*
X190605000Y-84680000D01*
X192875000Y-80620000D02*
X190605000Y-80620000D01*
X192875000Y-84680000D02*
X192875000Y-80620000D01*
%TO.C,R4*%
X107230000Y-76732064D02*
X107230000Y-75277936D01*
X109050000Y-76732064D02*
X109050000Y-75277936D01*
%TO.C,R10*%
X98817064Y-117320000D02*
X97362936Y-117320000D01*
X98817064Y-119140000D02*
X97362936Y-119140000D01*
%TO.C,R19*%
X98817064Y-94570000D02*
X97362936Y-94570000D01*
X98817064Y-96390000D02*
X97362936Y-96390000D01*
%TO.C,R2*%
X140305000Y-124332064D02*
X140305000Y-122877936D01*
X142125000Y-124332064D02*
X142125000Y-122877936D01*
%TO.C,U7*%
X112479200Y-58112500D02*
X112479200Y-59567500D01*
X112479200Y-72302500D02*
X112479200Y-70847500D01*
X113934200Y-58112500D02*
X112479200Y-58112500D01*
X113934200Y-72302500D02*
X112479200Y-72302500D01*
X122674200Y-58112500D02*
X124129200Y-58112500D01*
X122674200Y-72302500D02*
X122956982Y-72302500D01*
X122956982Y-72302500D02*
X124129200Y-71130282D01*
X124129200Y-58112500D02*
X124129200Y-59567500D01*
X124129200Y-71130282D02*
X124129200Y-70847500D01*
D11*
%TO.C,U2*%
X126456700Y-92955000D02*
X126456700Y-94605000D01*
X126456700Y-103285000D02*
X126456700Y-101635000D01*
X128106700Y-92955000D02*
X126456700Y-92955000D01*
X128106700Y-103285000D02*
X126456700Y-103285000D01*
X135136700Y-92955000D02*
X136786700Y-92955000D01*
X135136700Y-103285000D02*
X135636700Y-103285000D01*
X135636700Y-103285000D02*
X136786700Y-102135000D01*
X136786700Y-92955000D02*
X136786700Y-94605000D01*
X136786700Y-102135000D02*
X136786700Y-101635000D01*
D14*
%TO.C,C5*%
X201828748Y-127045000D02*
X203251252Y-127045000D01*
X201828748Y-128865000D02*
X203251252Y-128865000D01*
%TO.C,R21*%
X98817064Y-89420000D02*
X97362936Y-89420000D01*
X98817064Y-91240000D02*
X97362936Y-91240000D01*
D15*
%TO.C,U10*%
X172972100Y-53987400D02*
X172972100Y-54543660D01*
X172972100Y-72176340D02*
X172972100Y-72732600D01*
X172972100Y-72732600D02*
X181862100Y-72732600D01*
X181862100Y-53987400D02*
X172972100Y-53987400D01*
X181862100Y-54543660D02*
X181862100Y-53987400D01*
X181862100Y-72732600D02*
X181862100Y-72176340D01*
D14*
X183259100Y-73012000D02*
X182779100Y-73012000D01*
X183019100Y-72682000D01*
X183259100Y-73012000D01*
G36*
X183259100Y-73012000D02*
G01*
X182779100Y-73012000D01*
X183019100Y-72682000D01*
X183259100Y-73012000D01*
G37*
%TO.C,R5*%
X194730000Y-83807064D02*
X194730000Y-82352936D01*
X196550000Y-83807064D02*
X196550000Y-82352936D01*
%TO.C,R23*%
X98817064Y-84470000D02*
X97362936Y-84470000D01*
X98817064Y-86290000D02*
X97362936Y-86290000D01*
%TD*%
M02*
