%TF.GenerationSoftware,KiCad,Pcbnew,8.0.3*%
%TF.CreationDate,2025-02-02T19:32:23+01:00*%
%TF.ProjectId,RC,52432e6b-6963-4616-945f-706362585858,rev?*%
%TF.SameCoordinates,Original*%
%TF.FileFunction,Legend,Top*%
%TF.FilePolarity,Positive*%
%FSLAX46Y46*%
G04 Gerber Fmt 4.6, Leading zero omitted, Abs format (unit mm)*
G04 Created by KiCad (PCBNEW 8.0.3) date 2025-02-02 19:32:23*
%MOMM*%
%LPD*%
G01*
G04 APERTURE LIST*
%ADD10C,0.100000*%
%ADD11C,0.150000*%
%ADD12C,0.254000*%
%ADD13C,0.120000*%
%ADD14C,1.800000*%
%ADD15C,4.575000*%
G04 APERTURE END LIST*
D10*
X142428571Y-98976760D02*
X142904761Y-98976760D01*
X142333333Y-99262475D02*
X142666666Y-98262475D01*
X142666666Y-98262475D02*
X142999999Y-99262475D01*
X143333333Y-99262475D02*
X143333333Y-98595808D01*
X143333333Y-98691046D02*
X143380952Y-98643427D01*
X143380952Y-98643427D02*
X143476190Y-98595808D01*
X143476190Y-98595808D02*
X143619047Y-98595808D01*
X143619047Y-98595808D02*
X143714285Y-98643427D01*
X143714285Y-98643427D02*
X143761904Y-98738665D01*
X143761904Y-98738665D02*
X143761904Y-99262475D01*
X143761904Y-98738665D02*
X143809523Y-98643427D01*
X143809523Y-98643427D02*
X143904761Y-98595808D01*
X143904761Y-98595808D02*
X144047618Y-98595808D01*
X144047618Y-98595808D02*
X144142857Y-98643427D01*
X144142857Y-98643427D02*
X144190476Y-98738665D01*
X144190476Y-98738665D02*
X144190476Y-99262475D01*
X144666666Y-99262475D02*
X144666666Y-98595808D01*
X144666666Y-98262475D02*
X144619047Y-98310094D01*
X144619047Y-98310094D02*
X144666666Y-98357713D01*
X144666666Y-98357713D02*
X144714285Y-98310094D01*
X144714285Y-98310094D02*
X144666666Y-98262475D01*
X144666666Y-98262475D02*
X144666666Y-98357713D01*
X145571427Y-98595808D02*
X145571427Y-99405332D01*
X145571427Y-99405332D02*
X145523808Y-99500570D01*
X145523808Y-99500570D02*
X145476189Y-99548189D01*
X145476189Y-99548189D02*
X145380951Y-99595808D01*
X145380951Y-99595808D02*
X145238094Y-99595808D01*
X145238094Y-99595808D02*
X145142856Y-99548189D01*
X145571427Y-99214856D02*
X145476189Y-99262475D01*
X145476189Y-99262475D02*
X145285713Y-99262475D01*
X145285713Y-99262475D02*
X145190475Y-99214856D01*
X145190475Y-99214856D02*
X145142856Y-99167236D01*
X145142856Y-99167236D02*
X145095237Y-99071998D01*
X145095237Y-99071998D02*
X145095237Y-98786284D01*
X145095237Y-98786284D02*
X145142856Y-98691046D01*
X145142856Y-98691046D02*
X145190475Y-98643427D01*
X145190475Y-98643427D02*
X145285713Y-98595808D01*
X145285713Y-98595808D02*
X145476189Y-98595808D01*
X145476189Y-98595808D02*
X145571427Y-98643427D01*
X146476189Y-99262475D02*
X146476189Y-98738665D01*
X146476189Y-98738665D02*
X146428570Y-98643427D01*
X146428570Y-98643427D02*
X146333332Y-98595808D01*
X146333332Y-98595808D02*
X146142856Y-98595808D01*
X146142856Y-98595808D02*
X146047618Y-98643427D01*
X146476189Y-99214856D02*
X146380951Y-99262475D01*
X146380951Y-99262475D02*
X146142856Y-99262475D01*
X146142856Y-99262475D02*
X146047618Y-99214856D01*
X146047618Y-99214856D02*
X145999999Y-99119617D01*
X145999999Y-99119617D02*
X145999999Y-99024379D01*
X145999999Y-99024379D02*
X146047618Y-98929141D01*
X146047618Y-98929141D02*
X146142856Y-98881522D01*
X146142856Y-98881522D02*
X146380951Y-98881522D01*
X146380951Y-98881522D02*
X146476189Y-98833903D01*
X147666666Y-98976760D02*
X148142856Y-98976760D01*
X147571428Y-99262475D02*
X147904761Y-98262475D01*
X147904761Y-98262475D02*
X148238094Y-99262475D01*
X148999999Y-99214856D02*
X148904761Y-99262475D01*
X148904761Y-99262475D02*
X148714285Y-99262475D01*
X148714285Y-99262475D02*
X148619047Y-99214856D01*
X148619047Y-99214856D02*
X148571428Y-99167236D01*
X148571428Y-99167236D02*
X148523809Y-99071998D01*
X148523809Y-99071998D02*
X148523809Y-98786284D01*
X148523809Y-98786284D02*
X148571428Y-98691046D01*
X148571428Y-98691046D02*
X148619047Y-98643427D01*
X148619047Y-98643427D02*
X148714285Y-98595808D01*
X148714285Y-98595808D02*
X148904761Y-98595808D01*
X148904761Y-98595808D02*
X148999999Y-98643427D01*
X149285714Y-98595808D02*
X149666666Y-98595808D01*
X149428571Y-98262475D02*
X149428571Y-99119617D01*
X149428571Y-99119617D02*
X149476190Y-99214856D01*
X149476190Y-99214856D02*
X149571428Y-99262475D01*
X149571428Y-99262475D02*
X149666666Y-99262475D01*
X150000000Y-99262475D02*
X150000000Y-98595808D01*
X150000000Y-98262475D02*
X149952381Y-98310094D01*
X149952381Y-98310094D02*
X150000000Y-98357713D01*
X150000000Y-98357713D02*
X150047619Y-98310094D01*
X150047619Y-98310094D02*
X150000000Y-98262475D01*
X150000000Y-98262475D02*
X150000000Y-98357713D01*
X150619047Y-99262475D02*
X150523809Y-99214856D01*
X150523809Y-99214856D02*
X150476190Y-99167236D01*
X150476190Y-99167236D02*
X150428571Y-99071998D01*
X150428571Y-99071998D02*
X150428571Y-98786284D01*
X150428571Y-98786284D02*
X150476190Y-98691046D01*
X150476190Y-98691046D02*
X150523809Y-98643427D01*
X150523809Y-98643427D02*
X150619047Y-98595808D01*
X150619047Y-98595808D02*
X150761904Y-98595808D01*
X150761904Y-98595808D02*
X150857142Y-98643427D01*
X150857142Y-98643427D02*
X150904761Y-98691046D01*
X150904761Y-98691046D02*
X150952380Y-98786284D01*
X150952380Y-98786284D02*
X150952380Y-99071998D01*
X150952380Y-99071998D02*
X150904761Y-99167236D01*
X150904761Y-99167236D02*
X150857142Y-99214856D01*
X150857142Y-99214856D02*
X150761904Y-99262475D01*
X150761904Y-99262475D02*
X150619047Y-99262475D01*
X151380952Y-98595808D02*
X151380952Y-99262475D01*
X151380952Y-98691046D02*
X151428571Y-98643427D01*
X151428571Y-98643427D02*
X151523809Y-98595808D01*
X151523809Y-98595808D02*
X151666666Y-98595808D01*
X151666666Y-98595808D02*
X151761904Y-98643427D01*
X151761904Y-98643427D02*
X151809523Y-98738665D01*
X151809523Y-98738665D02*
X151809523Y-99262475D01*
X153619047Y-99262475D02*
X153285714Y-98786284D01*
X153047619Y-99262475D02*
X153047619Y-98262475D01*
X153047619Y-98262475D02*
X153428571Y-98262475D01*
X153428571Y-98262475D02*
X153523809Y-98310094D01*
X153523809Y-98310094D02*
X153571428Y-98357713D01*
X153571428Y-98357713D02*
X153619047Y-98452951D01*
X153619047Y-98452951D02*
X153619047Y-98595808D01*
X153619047Y-98595808D02*
X153571428Y-98691046D01*
X153571428Y-98691046D02*
X153523809Y-98738665D01*
X153523809Y-98738665D02*
X153428571Y-98786284D01*
X153428571Y-98786284D02*
X153047619Y-98786284D01*
X154428571Y-99214856D02*
X154333333Y-99262475D01*
X154333333Y-99262475D02*
X154142857Y-99262475D01*
X154142857Y-99262475D02*
X154047619Y-99214856D01*
X154047619Y-99214856D02*
X154000000Y-99119617D01*
X154000000Y-99119617D02*
X154000000Y-98738665D01*
X154000000Y-98738665D02*
X154047619Y-98643427D01*
X154047619Y-98643427D02*
X154142857Y-98595808D01*
X154142857Y-98595808D02*
X154333333Y-98595808D01*
X154333333Y-98595808D02*
X154428571Y-98643427D01*
X154428571Y-98643427D02*
X154476190Y-98738665D01*
X154476190Y-98738665D02*
X154476190Y-98833903D01*
X154476190Y-98833903D02*
X154000000Y-98929141D01*
X154904762Y-98595808D02*
X154904762Y-99595808D01*
X154904762Y-98643427D02*
X155000000Y-98595808D01*
X155000000Y-98595808D02*
X155190476Y-98595808D01*
X155190476Y-98595808D02*
X155285714Y-98643427D01*
X155285714Y-98643427D02*
X155333333Y-98691046D01*
X155333333Y-98691046D02*
X155380952Y-98786284D01*
X155380952Y-98786284D02*
X155380952Y-99071998D01*
X155380952Y-99071998D02*
X155333333Y-99167236D01*
X155333333Y-99167236D02*
X155285714Y-99214856D01*
X155285714Y-99214856D02*
X155190476Y-99262475D01*
X155190476Y-99262475D02*
X155000000Y-99262475D01*
X155000000Y-99262475D02*
X154904762Y-99214856D01*
X155952381Y-99262475D02*
X155857143Y-99214856D01*
X155857143Y-99214856D02*
X155809524Y-99119617D01*
X155809524Y-99119617D02*
X155809524Y-98262475D01*
X156761905Y-99262475D02*
X156761905Y-98738665D01*
X156761905Y-98738665D02*
X156714286Y-98643427D01*
X156714286Y-98643427D02*
X156619048Y-98595808D01*
X156619048Y-98595808D02*
X156428572Y-98595808D01*
X156428572Y-98595808D02*
X156333334Y-98643427D01*
X156761905Y-99214856D02*
X156666667Y-99262475D01*
X156666667Y-99262475D02*
X156428572Y-99262475D01*
X156428572Y-99262475D02*
X156333334Y-99214856D01*
X156333334Y-99214856D02*
X156285715Y-99119617D01*
X156285715Y-99119617D02*
X156285715Y-99024379D01*
X156285715Y-99024379D02*
X156333334Y-98929141D01*
X156333334Y-98929141D02*
X156428572Y-98881522D01*
X156428572Y-98881522D02*
X156666667Y-98881522D01*
X156666667Y-98881522D02*
X156761905Y-98833903D01*
X157142858Y-98595808D02*
X157380953Y-99262475D01*
X157619048Y-98595808D02*
X157380953Y-99262475D01*
X157380953Y-99262475D02*
X157285715Y-99500570D01*
X157285715Y-99500570D02*
X157238096Y-99548189D01*
X157238096Y-99548189D02*
X157142858Y-99595808D01*
X144642856Y-100872419D02*
X144642856Y-100205752D01*
X144642856Y-100396228D02*
X144690475Y-100300990D01*
X144690475Y-100300990D02*
X144738094Y-100253371D01*
X144738094Y-100253371D02*
X144833332Y-100205752D01*
X144833332Y-100205752D02*
X144928570Y-100205752D01*
X145642856Y-100824800D02*
X145547618Y-100872419D01*
X145547618Y-100872419D02*
X145357142Y-100872419D01*
X145357142Y-100872419D02*
X145261904Y-100824800D01*
X145261904Y-100824800D02*
X145214285Y-100729561D01*
X145214285Y-100729561D02*
X145214285Y-100348609D01*
X145214285Y-100348609D02*
X145261904Y-100253371D01*
X145261904Y-100253371D02*
X145357142Y-100205752D01*
X145357142Y-100205752D02*
X145547618Y-100205752D01*
X145547618Y-100205752D02*
X145642856Y-100253371D01*
X145642856Y-100253371D02*
X145690475Y-100348609D01*
X145690475Y-100348609D02*
X145690475Y-100443847D01*
X145690475Y-100443847D02*
X145214285Y-100539085D01*
X146119047Y-100872419D02*
X146119047Y-100205752D01*
X146119047Y-100300990D02*
X146166666Y-100253371D01*
X146166666Y-100253371D02*
X146261904Y-100205752D01*
X146261904Y-100205752D02*
X146404761Y-100205752D01*
X146404761Y-100205752D02*
X146499999Y-100253371D01*
X146499999Y-100253371D02*
X146547618Y-100348609D01*
X146547618Y-100348609D02*
X146547618Y-100872419D01*
X146547618Y-100348609D02*
X146595237Y-100253371D01*
X146595237Y-100253371D02*
X146690475Y-100205752D01*
X146690475Y-100205752D02*
X146833332Y-100205752D01*
X146833332Y-100205752D02*
X146928571Y-100253371D01*
X146928571Y-100253371D02*
X146976190Y-100348609D01*
X146976190Y-100348609D02*
X146976190Y-100872419D01*
X147595237Y-100872419D02*
X147499999Y-100824800D01*
X147499999Y-100824800D02*
X147452380Y-100777180D01*
X147452380Y-100777180D02*
X147404761Y-100681942D01*
X147404761Y-100681942D02*
X147404761Y-100396228D01*
X147404761Y-100396228D02*
X147452380Y-100300990D01*
X147452380Y-100300990D02*
X147499999Y-100253371D01*
X147499999Y-100253371D02*
X147595237Y-100205752D01*
X147595237Y-100205752D02*
X147738094Y-100205752D01*
X147738094Y-100205752D02*
X147833332Y-100253371D01*
X147833332Y-100253371D02*
X147880951Y-100300990D01*
X147880951Y-100300990D02*
X147928570Y-100396228D01*
X147928570Y-100396228D02*
X147928570Y-100681942D01*
X147928570Y-100681942D02*
X147880951Y-100777180D01*
X147880951Y-100777180D02*
X147833332Y-100824800D01*
X147833332Y-100824800D02*
X147738094Y-100872419D01*
X147738094Y-100872419D02*
X147595237Y-100872419D01*
X148214285Y-100205752D02*
X148595237Y-100205752D01*
X148357142Y-99872419D02*
X148357142Y-100729561D01*
X148357142Y-100729561D02*
X148404761Y-100824800D01*
X148404761Y-100824800D02*
X148499999Y-100872419D01*
X148499999Y-100872419D02*
X148595237Y-100872419D01*
X149309523Y-100824800D02*
X149214285Y-100872419D01*
X149214285Y-100872419D02*
X149023809Y-100872419D01*
X149023809Y-100872419D02*
X148928571Y-100824800D01*
X148928571Y-100824800D02*
X148880952Y-100729561D01*
X148880952Y-100729561D02*
X148880952Y-100348609D01*
X148880952Y-100348609D02*
X148928571Y-100253371D01*
X148928571Y-100253371D02*
X149023809Y-100205752D01*
X149023809Y-100205752D02*
X149214285Y-100205752D01*
X149214285Y-100205752D02*
X149309523Y-100253371D01*
X149309523Y-100253371D02*
X149357142Y-100348609D01*
X149357142Y-100348609D02*
X149357142Y-100443847D01*
X149357142Y-100443847D02*
X148880952Y-100539085D01*
X150976190Y-100824800D02*
X150880952Y-100872419D01*
X150880952Y-100872419D02*
X150690476Y-100872419D01*
X150690476Y-100872419D02*
X150595238Y-100824800D01*
X150595238Y-100824800D02*
X150547619Y-100777180D01*
X150547619Y-100777180D02*
X150500000Y-100681942D01*
X150500000Y-100681942D02*
X150500000Y-100396228D01*
X150500000Y-100396228D02*
X150547619Y-100300990D01*
X150547619Y-100300990D02*
X150595238Y-100253371D01*
X150595238Y-100253371D02*
X150690476Y-100205752D01*
X150690476Y-100205752D02*
X150880952Y-100205752D01*
X150880952Y-100205752D02*
X150976190Y-100253371D01*
X151547619Y-100872419D02*
X151452381Y-100824800D01*
X151452381Y-100824800D02*
X151404762Y-100777180D01*
X151404762Y-100777180D02*
X151357143Y-100681942D01*
X151357143Y-100681942D02*
X151357143Y-100396228D01*
X151357143Y-100396228D02*
X151404762Y-100300990D01*
X151404762Y-100300990D02*
X151452381Y-100253371D01*
X151452381Y-100253371D02*
X151547619Y-100205752D01*
X151547619Y-100205752D02*
X151690476Y-100205752D01*
X151690476Y-100205752D02*
X151785714Y-100253371D01*
X151785714Y-100253371D02*
X151833333Y-100300990D01*
X151833333Y-100300990D02*
X151880952Y-100396228D01*
X151880952Y-100396228D02*
X151880952Y-100681942D01*
X151880952Y-100681942D02*
X151833333Y-100777180D01*
X151833333Y-100777180D02*
X151785714Y-100824800D01*
X151785714Y-100824800D02*
X151690476Y-100872419D01*
X151690476Y-100872419D02*
X151547619Y-100872419D01*
X152309524Y-100205752D02*
X152309524Y-100872419D01*
X152309524Y-100300990D02*
X152357143Y-100253371D01*
X152357143Y-100253371D02*
X152452381Y-100205752D01*
X152452381Y-100205752D02*
X152595238Y-100205752D01*
X152595238Y-100205752D02*
X152690476Y-100253371D01*
X152690476Y-100253371D02*
X152738095Y-100348609D01*
X152738095Y-100348609D02*
X152738095Y-100872419D01*
X153071429Y-100205752D02*
X153452381Y-100205752D01*
X153214286Y-99872419D02*
X153214286Y-100729561D01*
X153214286Y-100729561D02*
X153261905Y-100824800D01*
X153261905Y-100824800D02*
X153357143Y-100872419D01*
X153357143Y-100872419D02*
X153452381Y-100872419D01*
X153785715Y-100872419D02*
X153785715Y-100205752D01*
X153785715Y-100396228D02*
X153833334Y-100300990D01*
X153833334Y-100300990D02*
X153880953Y-100253371D01*
X153880953Y-100253371D02*
X153976191Y-100205752D01*
X153976191Y-100205752D02*
X154071429Y-100205752D01*
X154547620Y-100872419D02*
X154452382Y-100824800D01*
X154452382Y-100824800D02*
X154404763Y-100777180D01*
X154404763Y-100777180D02*
X154357144Y-100681942D01*
X154357144Y-100681942D02*
X154357144Y-100396228D01*
X154357144Y-100396228D02*
X154404763Y-100300990D01*
X154404763Y-100300990D02*
X154452382Y-100253371D01*
X154452382Y-100253371D02*
X154547620Y-100205752D01*
X154547620Y-100205752D02*
X154690477Y-100205752D01*
X154690477Y-100205752D02*
X154785715Y-100253371D01*
X154785715Y-100253371D02*
X154833334Y-100300990D01*
X154833334Y-100300990D02*
X154880953Y-100396228D01*
X154880953Y-100396228D02*
X154880953Y-100681942D01*
X154880953Y-100681942D02*
X154833334Y-100777180D01*
X154833334Y-100777180D02*
X154785715Y-100824800D01*
X154785715Y-100824800D02*
X154690477Y-100872419D01*
X154690477Y-100872419D02*
X154547620Y-100872419D01*
X155452382Y-100872419D02*
X155357144Y-100824800D01*
X155357144Y-100824800D02*
X155309525Y-100729561D01*
X155309525Y-100729561D02*
X155309525Y-99872419D01*
X141262475Y-92696115D02*
X140595808Y-92696115D01*
X140786284Y-92696115D02*
X140691046Y-92648496D01*
X140691046Y-92648496D02*
X140643427Y-92600877D01*
X140643427Y-92600877D02*
X140595808Y-92505639D01*
X140595808Y-92505639D02*
X140595808Y-92410401D01*
X141214856Y-91696115D02*
X141262475Y-91791353D01*
X141262475Y-91791353D02*
X141262475Y-91981829D01*
X141262475Y-91981829D02*
X141214856Y-92077067D01*
X141214856Y-92077067D02*
X141119617Y-92124686D01*
X141119617Y-92124686D02*
X140738665Y-92124686D01*
X140738665Y-92124686D02*
X140643427Y-92077067D01*
X140643427Y-92077067D02*
X140595808Y-91981829D01*
X140595808Y-91981829D02*
X140595808Y-91791353D01*
X140595808Y-91791353D02*
X140643427Y-91696115D01*
X140643427Y-91696115D02*
X140738665Y-91648496D01*
X140738665Y-91648496D02*
X140833903Y-91648496D01*
X140833903Y-91648496D02*
X140929141Y-92124686D01*
X140595808Y-91315162D02*
X141262475Y-91077067D01*
X141262475Y-91077067D02*
X140595808Y-90838972D01*
X141214856Y-90077067D02*
X141262475Y-90172305D01*
X141262475Y-90172305D02*
X141262475Y-90362781D01*
X141262475Y-90362781D02*
X141214856Y-90458019D01*
X141214856Y-90458019D02*
X141119617Y-90505638D01*
X141119617Y-90505638D02*
X140738665Y-90505638D01*
X140738665Y-90505638D02*
X140643427Y-90458019D01*
X140643427Y-90458019D02*
X140595808Y-90362781D01*
X140595808Y-90362781D02*
X140595808Y-90172305D01*
X140595808Y-90172305D02*
X140643427Y-90077067D01*
X140643427Y-90077067D02*
X140738665Y-90029448D01*
X140738665Y-90029448D02*
X140833903Y-90029448D01*
X140833903Y-90029448D02*
X140929141Y-90505638D01*
X141262475Y-89600876D02*
X140595808Y-89600876D01*
X140786284Y-89600876D02*
X140691046Y-89553257D01*
X140691046Y-89553257D02*
X140643427Y-89505638D01*
X140643427Y-89505638D02*
X140595808Y-89410400D01*
X140595808Y-89410400D02*
X140595808Y-89315162D01*
X141214856Y-89029447D02*
X141262475Y-88934209D01*
X141262475Y-88934209D02*
X141262475Y-88743733D01*
X141262475Y-88743733D02*
X141214856Y-88648495D01*
X141214856Y-88648495D02*
X141119617Y-88600876D01*
X141119617Y-88600876D02*
X141071998Y-88600876D01*
X141071998Y-88600876D02*
X140976760Y-88648495D01*
X140976760Y-88648495D02*
X140929141Y-88743733D01*
X140929141Y-88743733D02*
X140929141Y-88886590D01*
X140929141Y-88886590D02*
X140881522Y-88981828D01*
X140881522Y-88981828D02*
X140786284Y-89029447D01*
X140786284Y-89029447D02*
X140738665Y-89029447D01*
X140738665Y-89029447D02*
X140643427Y-88981828D01*
X140643427Y-88981828D02*
X140595808Y-88886590D01*
X140595808Y-88886590D02*
X140595808Y-88743733D01*
X140595808Y-88743733D02*
X140643427Y-88648495D01*
X141214856Y-87791352D02*
X141262475Y-87886590D01*
X141262475Y-87886590D02*
X141262475Y-88077066D01*
X141262475Y-88077066D02*
X141214856Y-88172304D01*
X141214856Y-88172304D02*
X141119617Y-88219923D01*
X141119617Y-88219923D02*
X140738665Y-88219923D01*
X140738665Y-88219923D02*
X140643427Y-88172304D01*
X140643427Y-88172304D02*
X140595808Y-88077066D01*
X140595808Y-88077066D02*
X140595808Y-87886590D01*
X140595808Y-87886590D02*
X140643427Y-87791352D01*
X140643427Y-87791352D02*
X140738665Y-87743733D01*
X140738665Y-87743733D02*
X140833903Y-87743733D01*
X140833903Y-87743733D02*
X140929141Y-88219923D01*
X141214856Y-86172304D02*
X141262475Y-86267542D01*
X141262475Y-86267542D02*
X141262475Y-86458018D01*
X141262475Y-86458018D02*
X141214856Y-86553256D01*
X141214856Y-86553256D02*
X141119617Y-86600875D01*
X141119617Y-86600875D02*
X140738665Y-86600875D01*
X140738665Y-86600875D02*
X140643427Y-86553256D01*
X140643427Y-86553256D02*
X140595808Y-86458018D01*
X140595808Y-86458018D02*
X140595808Y-86267542D01*
X140595808Y-86267542D02*
X140643427Y-86172304D01*
X140643427Y-86172304D02*
X140738665Y-86124685D01*
X140738665Y-86124685D02*
X140833903Y-86124685D01*
X140833903Y-86124685D02*
X140929141Y-86600875D01*
X140595808Y-85696113D02*
X141262475Y-85696113D01*
X140691046Y-85696113D02*
X140643427Y-85648494D01*
X140643427Y-85648494D02*
X140595808Y-85553256D01*
X140595808Y-85553256D02*
X140595808Y-85410399D01*
X140595808Y-85410399D02*
X140643427Y-85315161D01*
X140643427Y-85315161D02*
X140738665Y-85267542D01*
X140738665Y-85267542D02*
X141262475Y-85267542D01*
X140595808Y-84362780D02*
X141405332Y-84362780D01*
X141405332Y-84362780D02*
X141500570Y-84410399D01*
X141500570Y-84410399D02*
X141548189Y-84458018D01*
X141548189Y-84458018D02*
X141595808Y-84553256D01*
X141595808Y-84553256D02*
X141595808Y-84696113D01*
X141595808Y-84696113D02*
X141548189Y-84791351D01*
X141214856Y-84362780D02*
X141262475Y-84458018D01*
X141262475Y-84458018D02*
X141262475Y-84648494D01*
X141262475Y-84648494D02*
X141214856Y-84743732D01*
X141214856Y-84743732D02*
X141167236Y-84791351D01*
X141167236Y-84791351D02*
X141071998Y-84838970D01*
X141071998Y-84838970D02*
X140786284Y-84838970D01*
X140786284Y-84838970D02*
X140691046Y-84791351D01*
X140691046Y-84791351D02*
X140643427Y-84743732D01*
X140643427Y-84743732D02*
X140595808Y-84648494D01*
X140595808Y-84648494D02*
X140595808Y-84458018D01*
X140595808Y-84458018D02*
X140643427Y-84362780D01*
X141262475Y-83886589D02*
X140595808Y-83886589D01*
X140262475Y-83886589D02*
X140310094Y-83934208D01*
X140310094Y-83934208D02*
X140357713Y-83886589D01*
X140357713Y-83886589D02*
X140310094Y-83838970D01*
X140310094Y-83838970D02*
X140262475Y-83886589D01*
X140262475Y-83886589D02*
X140357713Y-83886589D01*
X140595808Y-83410399D02*
X141262475Y-83410399D01*
X140691046Y-83410399D02*
X140643427Y-83362780D01*
X140643427Y-83362780D02*
X140595808Y-83267542D01*
X140595808Y-83267542D02*
X140595808Y-83124685D01*
X140595808Y-83124685D02*
X140643427Y-83029447D01*
X140643427Y-83029447D02*
X140738665Y-82981828D01*
X140738665Y-82981828D02*
X141262475Y-82981828D01*
X141214856Y-82124685D02*
X141262475Y-82219923D01*
X141262475Y-82219923D02*
X141262475Y-82410399D01*
X141262475Y-82410399D02*
X141214856Y-82505637D01*
X141214856Y-82505637D02*
X141119617Y-82553256D01*
X141119617Y-82553256D02*
X140738665Y-82553256D01*
X140738665Y-82553256D02*
X140643427Y-82505637D01*
X140643427Y-82505637D02*
X140595808Y-82410399D01*
X140595808Y-82410399D02*
X140595808Y-82219923D01*
X140595808Y-82219923D02*
X140643427Y-82124685D01*
X140643427Y-82124685D02*
X140738665Y-82077066D01*
X140738665Y-82077066D02*
X140833903Y-82077066D01*
X140833903Y-82077066D02*
X140929141Y-82553256D01*
X141214856Y-81267542D02*
X141262475Y-81362780D01*
X141262475Y-81362780D02*
X141262475Y-81553256D01*
X141262475Y-81553256D02*
X141214856Y-81648494D01*
X141214856Y-81648494D02*
X141119617Y-81696113D01*
X141119617Y-81696113D02*
X140738665Y-81696113D01*
X140738665Y-81696113D02*
X140643427Y-81648494D01*
X140643427Y-81648494D02*
X140595808Y-81553256D01*
X140595808Y-81553256D02*
X140595808Y-81362780D01*
X140595808Y-81362780D02*
X140643427Y-81267542D01*
X140643427Y-81267542D02*
X140738665Y-81219923D01*
X140738665Y-81219923D02*
X140833903Y-81219923D01*
X140833903Y-81219923D02*
X140929141Y-81696113D01*
X141262475Y-80791351D02*
X140595808Y-80791351D01*
X140786284Y-80791351D02*
X140691046Y-80743732D01*
X140691046Y-80743732D02*
X140643427Y-80696113D01*
X140643427Y-80696113D02*
X140595808Y-80600875D01*
X140595808Y-80600875D02*
X140595808Y-80505637D01*
X141262475Y-80172303D02*
X140595808Y-80172303D01*
X140262475Y-80172303D02*
X140310094Y-80219922D01*
X140310094Y-80219922D02*
X140357713Y-80172303D01*
X140357713Y-80172303D02*
X140310094Y-80124684D01*
X140310094Y-80124684D02*
X140262475Y-80172303D01*
X140262475Y-80172303D02*
X140357713Y-80172303D01*
X140595808Y-79696113D02*
X141262475Y-79696113D01*
X140691046Y-79696113D02*
X140643427Y-79648494D01*
X140643427Y-79648494D02*
X140595808Y-79553256D01*
X140595808Y-79553256D02*
X140595808Y-79410399D01*
X140595808Y-79410399D02*
X140643427Y-79315161D01*
X140643427Y-79315161D02*
X140738665Y-79267542D01*
X140738665Y-79267542D02*
X141262475Y-79267542D01*
X140595808Y-78362780D02*
X141405332Y-78362780D01*
X141405332Y-78362780D02*
X141500570Y-78410399D01*
X141500570Y-78410399D02*
X141548189Y-78458018D01*
X141548189Y-78458018D02*
X141595808Y-78553256D01*
X141595808Y-78553256D02*
X141595808Y-78696113D01*
X141595808Y-78696113D02*
X141548189Y-78791351D01*
X141214856Y-78362780D02*
X141262475Y-78458018D01*
X141262475Y-78458018D02*
X141262475Y-78648494D01*
X141262475Y-78648494D02*
X141214856Y-78743732D01*
X141214856Y-78743732D02*
X141167236Y-78791351D01*
X141167236Y-78791351D02*
X141071998Y-78838970D01*
X141071998Y-78838970D02*
X140786284Y-78838970D01*
X140786284Y-78838970D02*
X140691046Y-78791351D01*
X140691046Y-78791351D02*
X140643427Y-78743732D01*
X140643427Y-78743732D02*
X140595808Y-78648494D01*
X140595808Y-78648494D02*
X140595808Y-78458018D01*
X140595808Y-78458018D02*
X140643427Y-78362780D01*
X141262475Y-77124684D02*
X140262475Y-77124684D01*
X140643427Y-77124684D02*
X140595808Y-77029446D01*
X140595808Y-77029446D02*
X140595808Y-76838970D01*
X140595808Y-76838970D02*
X140643427Y-76743732D01*
X140643427Y-76743732D02*
X140691046Y-76696113D01*
X140691046Y-76696113D02*
X140786284Y-76648494D01*
X140786284Y-76648494D02*
X141071998Y-76648494D01*
X141071998Y-76648494D02*
X141167236Y-76696113D01*
X141167236Y-76696113D02*
X141214856Y-76743732D01*
X141214856Y-76743732D02*
X141262475Y-76838970D01*
X141262475Y-76838970D02*
X141262475Y-77029446D01*
X141262475Y-77029446D02*
X141214856Y-77124684D01*
X140595808Y-76315160D02*
X141262475Y-76077065D01*
X140595808Y-75838970D02*
X141262475Y-76077065D01*
X141262475Y-76077065D02*
X141500570Y-76172303D01*
X141500570Y-76172303D02*
X141548189Y-76219922D01*
X141548189Y-76219922D02*
X141595808Y-76315160D01*
X140595808Y-74696112D02*
X141262475Y-74696112D01*
X140691046Y-74696112D02*
X140643427Y-74648493D01*
X140643427Y-74648493D02*
X140595808Y-74553255D01*
X140595808Y-74553255D02*
X140595808Y-74410398D01*
X140595808Y-74410398D02*
X140643427Y-74315160D01*
X140643427Y-74315160D02*
X140738665Y-74267541D01*
X140738665Y-74267541D02*
X141262475Y-74267541D01*
X141262475Y-73362779D02*
X140738665Y-73362779D01*
X140738665Y-73362779D02*
X140643427Y-73410398D01*
X140643427Y-73410398D02*
X140595808Y-73505636D01*
X140595808Y-73505636D02*
X140595808Y-73696112D01*
X140595808Y-73696112D02*
X140643427Y-73791350D01*
X141214856Y-73362779D02*
X141262475Y-73458017D01*
X141262475Y-73458017D02*
X141262475Y-73696112D01*
X141262475Y-73696112D02*
X141214856Y-73791350D01*
X141214856Y-73791350D02*
X141119617Y-73838969D01*
X141119617Y-73838969D02*
X141024379Y-73838969D01*
X141024379Y-73838969D02*
X140929141Y-73791350D01*
X140929141Y-73791350D02*
X140881522Y-73696112D01*
X140881522Y-73696112D02*
X140881522Y-73458017D01*
X140881522Y-73458017D02*
X140833903Y-73362779D01*
X141262475Y-72362779D02*
X141262475Y-72934207D01*
X141262475Y-72648493D02*
X140262475Y-72648493D01*
X140262475Y-72648493D02*
X140405332Y-72743731D01*
X140405332Y-72743731D02*
X140500570Y-72838969D01*
X140500570Y-72838969D02*
X140548189Y-72934207D01*
X140262475Y-71743731D02*
X140262475Y-71648493D01*
X140262475Y-71648493D02*
X140310094Y-71553255D01*
X140310094Y-71553255D02*
X140357713Y-71505636D01*
X140357713Y-71505636D02*
X140452951Y-71458017D01*
X140452951Y-71458017D02*
X140643427Y-71410398D01*
X140643427Y-71410398D02*
X140881522Y-71410398D01*
X140881522Y-71410398D02*
X141071998Y-71458017D01*
X141071998Y-71458017D02*
X141167236Y-71505636D01*
X141167236Y-71505636D02*
X141214856Y-71553255D01*
X141214856Y-71553255D02*
X141262475Y-71648493D01*
X141262475Y-71648493D02*
X141262475Y-71743731D01*
X141262475Y-71743731D02*
X141214856Y-71838969D01*
X141214856Y-71838969D02*
X141167236Y-71886588D01*
X141167236Y-71886588D02*
X141071998Y-71934207D01*
X141071998Y-71934207D02*
X140881522Y-71981826D01*
X140881522Y-71981826D02*
X140643427Y-71981826D01*
X140643427Y-71981826D02*
X140452951Y-71934207D01*
X140452951Y-71934207D02*
X140357713Y-71886588D01*
X140357713Y-71886588D02*
X140310094Y-71838969D01*
X140310094Y-71838969D02*
X140262475Y-71743731D01*
X140262475Y-71077064D02*
X140262475Y-70458017D01*
X140262475Y-70458017D02*
X140643427Y-70791350D01*
X140643427Y-70791350D02*
X140643427Y-70648493D01*
X140643427Y-70648493D02*
X140691046Y-70553255D01*
X140691046Y-70553255D02*
X140738665Y-70505636D01*
X140738665Y-70505636D02*
X140833903Y-70458017D01*
X140833903Y-70458017D02*
X141071998Y-70458017D01*
X141071998Y-70458017D02*
X141167236Y-70505636D01*
X141167236Y-70505636D02*
X141214856Y-70553255D01*
X141214856Y-70553255D02*
X141262475Y-70648493D01*
X141262475Y-70648493D02*
X141262475Y-70934207D01*
X141262475Y-70934207D02*
X141214856Y-71029445D01*
X141214856Y-71029445D02*
X141167236Y-71077064D01*
X142205752Y-92267544D02*
X143015276Y-92267544D01*
X143015276Y-92267544D02*
X143110514Y-92315163D01*
X143110514Y-92315163D02*
X143158133Y-92362782D01*
X143158133Y-92362782D02*
X143205752Y-92458020D01*
X143205752Y-92458020D02*
X143205752Y-92600877D01*
X143205752Y-92600877D02*
X143158133Y-92696115D01*
X142824800Y-92267544D02*
X142872419Y-92362782D01*
X142872419Y-92362782D02*
X142872419Y-92553258D01*
X142872419Y-92553258D02*
X142824800Y-92648496D01*
X142824800Y-92648496D02*
X142777180Y-92696115D01*
X142777180Y-92696115D02*
X142681942Y-92743734D01*
X142681942Y-92743734D02*
X142396228Y-92743734D01*
X142396228Y-92743734D02*
X142300990Y-92696115D01*
X142300990Y-92696115D02*
X142253371Y-92648496D01*
X142253371Y-92648496D02*
X142205752Y-92553258D01*
X142205752Y-92553258D02*
X142205752Y-92362782D01*
X142205752Y-92362782D02*
X142253371Y-92267544D01*
X142872419Y-91791353D02*
X142205752Y-91791353D01*
X141872419Y-91791353D02*
X141920038Y-91838972D01*
X141920038Y-91838972D02*
X141967657Y-91791353D01*
X141967657Y-91791353D02*
X141920038Y-91743734D01*
X141920038Y-91743734D02*
X141872419Y-91791353D01*
X141872419Y-91791353D02*
X141967657Y-91791353D01*
X142205752Y-91458020D02*
X142205752Y-91077068D01*
X141872419Y-91315163D02*
X142729561Y-91315163D01*
X142729561Y-91315163D02*
X142824800Y-91267544D01*
X142824800Y-91267544D02*
X142872419Y-91172306D01*
X142872419Y-91172306D02*
X142872419Y-91077068D01*
X142872419Y-90743734D02*
X141872419Y-90743734D01*
X142872419Y-90315163D02*
X142348609Y-90315163D01*
X142348609Y-90315163D02*
X142253371Y-90362782D01*
X142253371Y-90362782D02*
X142205752Y-90458020D01*
X142205752Y-90458020D02*
X142205752Y-90600877D01*
X142205752Y-90600877D02*
X142253371Y-90696115D01*
X142253371Y-90696115D02*
X142300990Y-90743734D01*
X142205752Y-89410401D02*
X142872419Y-89410401D01*
X142205752Y-89838972D02*
X142729561Y-89838972D01*
X142729561Y-89838972D02*
X142824800Y-89791353D01*
X142824800Y-89791353D02*
X142872419Y-89696115D01*
X142872419Y-89696115D02*
X142872419Y-89553258D01*
X142872419Y-89553258D02*
X142824800Y-89458020D01*
X142824800Y-89458020D02*
X142777180Y-89410401D01*
X142872419Y-88934210D02*
X141872419Y-88934210D01*
X142253371Y-88934210D02*
X142205752Y-88838972D01*
X142205752Y-88838972D02*
X142205752Y-88648496D01*
X142205752Y-88648496D02*
X142253371Y-88553258D01*
X142253371Y-88553258D02*
X142300990Y-88505639D01*
X142300990Y-88505639D02*
X142396228Y-88458020D01*
X142396228Y-88458020D02*
X142681942Y-88458020D01*
X142681942Y-88458020D02*
X142777180Y-88505639D01*
X142777180Y-88505639D02*
X142824800Y-88553258D01*
X142824800Y-88553258D02*
X142872419Y-88648496D01*
X142872419Y-88648496D02*
X142872419Y-88838972D01*
X142872419Y-88838972D02*
X142824800Y-88934210D01*
X142777180Y-88029448D02*
X142824800Y-87981829D01*
X142824800Y-87981829D02*
X142872419Y-88029448D01*
X142872419Y-88029448D02*
X142824800Y-88077067D01*
X142824800Y-88077067D02*
X142777180Y-88029448D01*
X142777180Y-88029448D02*
X142872419Y-88029448D01*
X142824800Y-87124687D02*
X142872419Y-87219925D01*
X142872419Y-87219925D02*
X142872419Y-87410401D01*
X142872419Y-87410401D02*
X142824800Y-87505639D01*
X142824800Y-87505639D02*
X142777180Y-87553258D01*
X142777180Y-87553258D02*
X142681942Y-87600877D01*
X142681942Y-87600877D02*
X142396228Y-87600877D01*
X142396228Y-87600877D02*
X142300990Y-87553258D01*
X142300990Y-87553258D02*
X142253371Y-87505639D01*
X142253371Y-87505639D02*
X142205752Y-87410401D01*
X142205752Y-87410401D02*
X142205752Y-87219925D01*
X142205752Y-87219925D02*
X142253371Y-87124687D01*
X142872419Y-86553258D02*
X142824800Y-86648496D01*
X142824800Y-86648496D02*
X142777180Y-86696115D01*
X142777180Y-86696115D02*
X142681942Y-86743734D01*
X142681942Y-86743734D02*
X142396228Y-86743734D01*
X142396228Y-86743734D02*
X142300990Y-86696115D01*
X142300990Y-86696115D02*
X142253371Y-86648496D01*
X142253371Y-86648496D02*
X142205752Y-86553258D01*
X142205752Y-86553258D02*
X142205752Y-86410401D01*
X142205752Y-86410401D02*
X142253371Y-86315163D01*
X142253371Y-86315163D02*
X142300990Y-86267544D01*
X142300990Y-86267544D02*
X142396228Y-86219925D01*
X142396228Y-86219925D02*
X142681942Y-86219925D01*
X142681942Y-86219925D02*
X142777180Y-86267544D01*
X142777180Y-86267544D02*
X142824800Y-86315163D01*
X142824800Y-86315163D02*
X142872419Y-86410401D01*
X142872419Y-86410401D02*
X142872419Y-86553258D01*
X142872419Y-85791353D02*
X142205752Y-85791353D01*
X142300990Y-85791353D02*
X142253371Y-85743734D01*
X142253371Y-85743734D02*
X142205752Y-85648496D01*
X142205752Y-85648496D02*
X142205752Y-85505639D01*
X142205752Y-85505639D02*
X142253371Y-85410401D01*
X142253371Y-85410401D02*
X142348609Y-85362782D01*
X142348609Y-85362782D02*
X142872419Y-85362782D01*
X142348609Y-85362782D02*
X142253371Y-85315163D01*
X142253371Y-85315163D02*
X142205752Y-85219925D01*
X142205752Y-85219925D02*
X142205752Y-85077068D01*
X142205752Y-85077068D02*
X142253371Y-84981829D01*
X142253371Y-84981829D02*
X142348609Y-84934210D01*
X142348609Y-84934210D02*
X142872419Y-84934210D01*
X141824800Y-83743735D02*
X143110514Y-84600877D01*
X142205752Y-83410401D02*
X142872419Y-83410401D01*
X142300990Y-83410401D02*
X142253371Y-83362782D01*
X142253371Y-83362782D02*
X142205752Y-83267544D01*
X142205752Y-83267544D02*
X142205752Y-83124687D01*
X142205752Y-83124687D02*
X142253371Y-83029449D01*
X142253371Y-83029449D02*
X142348609Y-82981830D01*
X142348609Y-82981830D02*
X142872419Y-82981830D01*
X142872419Y-82077068D02*
X142348609Y-82077068D01*
X142348609Y-82077068D02*
X142253371Y-82124687D01*
X142253371Y-82124687D02*
X142205752Y-82219925D01*
X142205752Y-82219925D02*
X142205752Y-82410401D01*
X142205752Y-82410401D02*
X142253371Y-82505639D01*
X142824800Y-82077068D02*
X142872419Y-82172306D01*
X142872419Y-82172306D02*
X142872419Y-82410401D01*
X142872419Y-82410401D02*
X142824800Y-82505639D01*
X142824800Y-82505639D02*
X142729561Y-82553258D01*
X142729561Y-82553258D02*
X142634323Y-82553258D01*
X142634323Y-82553258D02*
X142539085Y-82505639D01*
X142539085Y-82505639D02*
X142491466Y-82410401D01*
X142491466Y-82410401D02*
X142491466Y-82172306D01*
X142491466Y-82172306D02*
X142443847Y-82077068D01*
X142872419Y-81077068D02*
X142872419Y-81648496D01*
X142872419Y-81362782D02*
X141872419Y-81362782D01*
X141872419Y-81362782D02*
X142015276Y-81458020D01*
X142015276Y-81458020D02*
X142110514Y-81553258D01*
X142110514Y-81553258D02*
X142158133Y-81648496D01*
X141872419Y-80458020D02*
X141872419Y-80362782D01*
X141872419Y-80362782D02*
X141920038Y-80267544D01*
X141920038Y-80267544D02*
X141967657Y-80219925D01*
X141967657Y-80219925D02*
X142062895Y-80172306D01*
X142062895Y-80172306D02*
X142253371Y-80124687D01*
X142253371Y-80124687D02*
X142491466Y-80124687D01*
X142491466Y-80124687D02*
X142681942Y-80172306D01*
X142681942Y-80172306D02*
X142777180Y-80219925D01*
X142777180Y-80219925D02*
X142824800Y-80267544D01*
X142824800Y-80267544D02*
X142872419Y-80362782D01*
X142872419Y-80362782D02*
X142872419Y-80458020D01*
X142872419Y-80458020D02*
X142824800Y-80553258D01*
X142824800Y-80553258D02*
X142777180Y-80600877D01*
X142777180Y-80600877D02*
X142681942Y-80648496D01*
X142681942Y-80648496D02*
X142491466Y-80696115D01*
X142491466Y-80696115D02*
X142253371Y-80696115D01*
X142253371Y-80696115D02*
X142062895Y-80648496D01*
X142062895Y-80648496D02*
X141967657Y-80600877D01*
X141967657Y-80600877D02*
X141920038Y-80553258D01*
X141920038Y-80553258D02*
X141872419Y-80458020D01*
X141872419Y-79791353D02*
X141872419Y-79172306D01*
X141872419Y-79172306D02*
X142253371Y-79505639D01*
X142253371Y-79505639D02*
X142253371Y-79362782D01*
X142253371Y-79362782D02*
X142300990Y-79267544D01*
X142300990Y-79267544D02*
X142348609Y-79219925D01*
X142348609Y-79219925D02*
X142443847Y-79172306D01*
X142443847Y-79172306D02*
X142681942Y-79172306D01*
X142681942Y-79172306D02*
X142777180Y-79219925D01*
X142777180Y-79219925D02*
X142824800Y-79267544D01*
X142824800Y-79267544D02*
X142872419Y-79362782D01*
X142872419Y-79362782D02*
X142872419Y-79648496D01*
X142872419Y-79648496D02*
X142824800Y-79743734D01*
X142824800Y-79743734D02*
X142777180Y-79791353D01*
X141824800Y-78029449D02*
X143110514Y-78886591D01*
X142872419Y-77696115D02*
X141872419Y-77696115D01*
X142253371Y-77696115D02*
X142205752Y-77600877D01*
X142205752Y-77600877D02*
X142205752Y-77410401D01*
X142205752Y-77410401D02*
X142253371Y-77315163D01*
X142253371Y-77315163D02*
X142300990Y-77267544D01*
X142300990Y-77267544D02*
X142396228Y-77219925D01*
X142396228Y-77219925D02*
X142681942Y-77219925D01*
X142681942Y-77219925D02*
X142777180Y-77267544D01*
X142777180Y-77267544D02*
X142824800Y-77315163D01*
X142824800Y-77315163D02*
X142872419Y-77410401D01*
X142872419Y-77410401D02*
X142872419Y-77600877D01*
X142872419Y-77600877D02*
X142824800Y-77696115D01*
X142872419Y-76791353D02*
X141872419Y-76791353D01*
X142253371Y-76791353D02*
X142205752Y-76696115D01*
X142205752Y-76696115D02*
X142205752Y-76505639D01*
X142205752Y-76505639D02*
X142253371Y-76410401D01*
X142253371Y-76410401D02*
X142300990Y-76362782D01*
X142300990Y-76362782D02*
X142396228Y-76315163D01*
X142396228Y-76315163D02*
X142681942Y-76315163D01*
X142681942Y-76315163D02*
X142777180Y-76362782D01*
X142777180Y-76362782D02*
X142824800Y-76410401D01*
X142824800Y-76410401D02*
X142872419Y-76505639D01*
X142872419Y-76505639D02*
X142872419Y-76696115D01*
X142872419Y-76696115D02*
X142824800Y-76791353D01*
X142872419Y-75458020D02*
X142348609Y-75458020D01*
X142348609Y-75458020D02*
X142253371Y-75505639D01*
X142253371Y-75505639D02*
X142205752Y-75600877D01*
X142205752Y-75600877D02*
X142205752Y-75791353D01*
X142205752Y-75791353D02*
X142253371Y-75886591D01*
X142824800Y-75458020D02*
X142872419Y-75553258D01*
X142872419Y-75553258D02*
X142872419Y-75791353D01*
X142872419Y-75791353D02*
X142824800Y-75886591D01*
X142824800Y-75886591D02*
X142729561Y-75934210D01*
X142729561Y-75934210D02*
X142634323Y-75934210D01*
X142634323Y-75934210D02*
X142539085Y-75886591D01*
X142539085Y-75886591D02*
X142491466Y-75791353D01*
X142491466Y-75791353D02*
X142491466Y-75553258D01*
X142491466Y-75553258D02*
X142443847Y-75458020D01*
X142872419Y-74981829D02*
X142205752Y-74981829D01*
X142396228Y-74981829D02*
X142300990Y-74934210D01*
X142300990Y-74934210D02*
X142253371Y-74886591D01*
X142253371Y-74886591D02*
X142205752Y-74791353D01*
X142205752Y-74791353D02*
X142205752Y-74696115D01*
X141872419Y-74458019D02*
X141872419Y-73838972D01*
X141872419Y-73838972D02*
X142253371Y-74172305D01*
X142253371Y-74172305D02*
X142253371Y-74029448D01*
X142253371Y-74029448D02*
X142300990Y-73934210D01*
X142300990Y-73934210D02*
X142348609Y-73886591D01*
X142348609Y-73886591D02*
X142443847Y-73838972D01*
X142443847Y-73838972D02*
X142681942Y-73838972D01*
X142681942Y-73838972D02*
X142777180Y-73886591D01*
X142777180Y-73886591D02*
X142824800Y-73934210D01*
X142824800Y-73934210D02*
X142872419Y-74029448D01*
X142872419Y-74029448D02*
X142872419Y-74315162D01*
X142872419Y-74315162D02*
X142824800Y-74410400D01*
X142824800Y-74410400D02*
X142777180Y-74458019D01*
D11*
X149666666Y-115454819D02*
X149666666Y-116169104D01*
X149666666Y-116169104D02*
X149619047Y-116311961D01*
X149619047Y-116311961D02*
X149523809Y-116407200D01*
X149523809Y-116407200D02*
X149380952Y-116454819D01*
X149380952Y-116454819D02*
X149285714Y-116454819D01*
X150666666Y-116454819D02*
X150095238Y-116454819D01*
X150380952Y-116454819D02*
X150380952Y-115454819D01*
X150380952Y-115454819D02*
X150285714Y-115597676D01*
X150285714Y-115597676D02*
X150190476Y-115692914D01*
X150190476Y-115692914D02*
X150095238Y-115740533D01*
X148126667Y-87867200D02*
X148269524Y-87914819D01*
X148269524Y-87914819D02*
X148507619Y-87914819D01*
X148507619Y-87914819D02*
X148602857Y-87867200D01*
X148602857Y-87867200D02*
X148650476Y-87819580D01*
X148650476Y-87819580D02*
X148698095Y-87724342D01*
X148698095Y-87724342D02*
X148698095Y-87629104D01*
X148698095Y-87629104D02*
X148650476Y-87533866D01*
X148650476Y-87533866D02*
X148602857Y-87486247D01*
X148602857Y-87486247D02*
X148507619Y-87438628D01*
X148507619Y-87438628D02*
X148317143Y-87391009D01*
X148317143Y-87391009D02*
X148221905Y-87343390D01*
X148221905Y-87343390D02*
X148174286Y-87295771D01*
X148174286Y-87295771D02*
X148126667Y-87200533D01*
X148126667Y-87200533D02*
X148126667Y-87105295D01*
X148126667Y-87105295D02*
X148174286Y-87010057D01*
X148174286Y-87010057D02*
X148221905Y-86962438D01*
X148221905Y-86962438D02*
X148317143Y-86914819D01*
X148317143Y-86914819D02*
X148555238Y-86914819D01*
X148555238Y-86914819D02*
X148698095Y-86962438D01*
X149031429Y-86914819D02*
X149269524Y-87914819D01*
X149269524Y-87914819D02*
X149460000Y-87200533D01*
X149460000Y-87200533D02*
X149650476Y-87914819D01*
X149650476Y-87914819D02*
X149888572Y-86914819D01*
X150221905Y-87010057D02*
X150269524Y-86962438D01*
X150269524Y-86962438D02*
X150364762Y-86914819D01*
X150364762Y-86914819D02*
X150602857Y-86914819D01*
X150602857Y-86914819D02*
X150698095Y-86962438D01*
X150698095Y-86962438D02*
X150745714Y-87010057D01*
X150745714Y-87010057D02*
X150793333Y-87105295D01*
X150793333Y-87105295D02*
X150793333Y-87200533D01*
X150793333Y-87200533D02*
X150745714Y-87343390D01*
X150745714Y-87343390D02*
X150174286Y-87914819D01*
X150174286Y-87914819D02*
X150793333Y-87914819D01*
X148166667Y-71657200D02*
X148309524Y-71704819D01*
X148309524Y-71704819D02*
X148547619Y-71704819D01*
X148547619Y-71704819D02*
X148642857Y-71657200D01*
X148642857Y-71657200D02*
X148690476Y-71609580D01*
X148690476Y-71609580D02*
X148738095Y-71514342D01*
X148738095Y-71514342D02*
X148738095Y-71419104D01*
X148738095Y-71419104D02*
X148690476Y-71323866D01*
X148690476Y-71323866D02*
X148642857Y-71276247D01*
X148642857Y-71276247D02*
X148547619Y-71228628D01*
X148547619Y-71228628D02*
X148357143Y-71181009D01*
X148357143Y-71181009D02*
X148261905Y-71133390D01*
X148261905Y-71133390D02*
X148214286Y-71085771D01*
X148214286Y-71085771D02*
X148166667Y-70990533D01*
X148166667Y-70990533D02*
X148166667Y-70895295D01*
X148166667Y-70895295D02*
X148214286Y-70800057D01*
X148214286Y-70800057D02*
X148261905Y-70752438D01*
X148261905Y-70752438D02*
X148357143Y-70704819D01*
X148357143Y-70704819D02*
X148595238Y-70704819D01*
X148595238Y-70704819D02*
X148738095Y-70752438D01*
X149071429Y-70704819D02*
X149309524Y-71704819D01*
X149309524Y-71704819D02*
X149500000Y-70990533D01*
X149500000Y-70990533D02*
X149690476Y-71704819D01*
X149690476Y-71704819D02*
X149928572Y-70704819D01*
X150833333Y-71704819D02*
X150261905Y-71704819D01*
X150547619Y-71704819D02*
X150547619Y-70704819D01*
X150547619Y-70704819D02*
X150452381Y-70847676D01*
X150452381Y-70847676D02*
X150357143Y-70942914D01*
X150357143Y-70942914D02*
X150261905Y-70990533D01*
D12*
X147836905Y-106279318D02*
X148260238Y-107549318D01*
X148260238Y-107549318D02*
X148683572Y-106279318D01*
X149832619Y-107549318D02*
X149409285Y-106944556D01*
X149106904Y-107549318D02*
X149106904Y-106279318D01*
X149106904Y-106279318D02*
X149590714Y-106279318D01*
X149590714Y-106279318D02*
X149711666Y-106339794D01*
X149711666Y-106339794D02*
X149772143Y-106400270D01*
X149772143Y-106400270D02*
X149832619Y-106521222D01*
X149832619Y-106521222D02*
X149832619Y-106702651D01*
X149832619Y-106702651D02*
X149772143Y-106823603D01*
X149772143Y-106823603D02*
X149711666Y-106884080D01*
X149711666Y-106884080D02*
X149590714Y-106944556D01*
X149590714Y-106944556D02*
X149106904Y-106944556D01*
X151042143Y-107549318D02*
X150316428Y-107549318D01*
X150679285Y-107549318D02*
X150679285Y-106279318D01*
X150679285Y-106279318D02*
X150558333Y-106460746D01*
X150558333Y-106460746D02*
X150437381Y-106581699D01*
X150437381Y-106581699D02*
X150316428Y-106642175D01*
D13*
%TO.C,J1*%
X143595000Y-117405000D02*
X156415000Y-117405000D01*
X143595000Y-120005000D02*
X143595000Y-117405000D01*
X143595000Y-122605000D02*
X143595000Y-121275000D01*
X144925000Y-122605000D02*
X143595000Y-122605000D01*
X146195000Y-120005000D02*
X143595000Y-120005000D01*
X146195000Y-122605000D02*
X146195000Y-120005000D01*
X146195000Y-122605000D02*
X156415000Y-122605000D01*
X156415000Y-122605000D02*
X156415000Y-117405000D01*
%TO.C,SW2*%
X144350000Y-88640000D02*
X154570000Y-88640000D01*
X154570000Y-91360000D01*
X144350000Y-91360000D01*
X144350000Y-88640000D01*
%TO.C,SW1*%
X144230000Y-73030000D02*
X144230000Y-72030000D01*
X144480000Y-81720000D02*
X144480000Y-72280000D01*
X145230000Y-72030000D02*
X144230000Y-72030000D01*
X147800000Y-75300000D02*
X147800000Y-78600000D01*
X151100000Y-75300000D02*
X147800000Y-75300000D01*
X151100000Y-75300000D02*
X151100000Y-78600000D01*
X151100000Y-78600000D02*
X147800000Y-78600000D01*
X154520000Y-72280000D02*
X144480000Y-72280000D01*
X154520000Y-81720000D02*
X144480000Y-81720000D01*
X154520000Y-81720000D02*
X154520000Y-72280000D01*
%TD*%
D14*
%TO.C,VR1*%
X147000000Y-112325000D03*
X149500000Y-112325000D03*
X152000000Y-112325000D03*
D15*
X145100000Y-105325000D03*
X153900000Y-105325000D03*
%TD*%
M02*
