%TF.GenerationSoftware,KiCad,Pcbnew,8.0.3*%
%TF.CreationDate,2025-02-14T11:31:17+01:00*%
%TF.ProjectId,RC,52432e6b-6963-4616-945f-706362585858,rev?*%
%TF.SameCoordinates,Original*%
%TF.FileFunction,Drillmap*%
%TF.FilePolarity,Positive*%
%FSLAX45Y45*%
G04 Gerber Fmt 4.5, Leading zero omitted, Abs format (unit mm)*
G04 Created by KiCad (PCBNEW 8.0.3) date 2025-02-14 11:31:17*
%MOMM*%
%LPD*%
G01*
G04 APERTURE LIST*
%ADD10C,0.050000*%
%ADD11C,0.200000*%
G04 APERTURE END LIST*
D10*
X15950000Y-12500000D02*
X13950000Y-12500000D01*
X14100000Y-9650000D02*
X13950000Y-9650000D01*
X15800000Y-9650000D02*
X15950000Y-9650000D01*
X14100000Y-9350000D02*
X13950000Y-9350000D01*
X14100000Y-9350000D02*
G75*
G02*
X14100000Y-9650000I0J-150000D01*
G01*
X15950000Y-7000000D02*
X15950000Y-9350000D01*
X15950000Y-9650000D02*
X15950000Y-12500000D01*
X15800000Y-9650000D02*
G75*
G02*
X15800000Y-9350000I0J150000D01*
G01*
X13950000Y-12500000D02*
X13950000Y-9650000D01*
X15800000Y-9350000D02*
X15950000Y-9350000D01*
X13950000Y-7000000D02*
X15950000Y-7000000D01*
X15150000Y-9500000D02*
G75*
G02*
X14750000Y-9500000I-200000J0D01*
G01*
X14750000Y-9500000D02*
G75*
G02*
X15150000Y-9500000I200000J0D01*
G01*
X13950000Y-9350000D02*
X13950000Y-7000000D01*
D11*
X14208277Y-12813984D02*
X14208277Y-12613984D01*
X14208277Y-12613984D02*
X14255896Y-12613984D01*
X14255896Y-12613984D02*
X14284467Y-12623508D01*
X14284467Y-12623508D02*
X14303515Y-12642555D01*
X14303515Y-12642555D02*
X14313039Y-12661603D01*
X14313039Y-12661603D02*
X14322562Y-12699698D01*
X14322562Y-12699698D02*
X14322562Y-12728269D01*
X14322562Y-12728269D02*
X14313039Y-12766365D01*
X14313039Y-12766365D02*
X14303515Y-12785412D01*
X14303515Y-12785412D02*
X14284467Y-12804460D01*
X14284467Y-12804460D02*
X14255896Y-12813984D01*
X14255896Y-12813984D02*
X14208277Y-12813984D01*
X14408277Y-12813984D02*
X14408277Y-12680650D01*
X14408277Y-12718746D02*
X14417801Y-12699698D01*
X14417801Y-12699698D02*
X14427324Y-12690174D01*
X14427324Y-12690174D02*
X14446372Y-12680650D01*
X14446372Y-12680650D02*
X14465420Y-12680650D01*
X14532086Y-12813984D02*
X14532086Y-12680650D01*
X14532086Y-12613984D02*
X14522562Y-12623508D01*
X14522562Y-12623508D02*
X14532086Y-12633031D01*
X14532086Y-12633031D02*
X14541610Y-12623508D01*
X14541610Y-12623508D02*
X14532086Y-12613984D01*
X14532086Y-12613984D02*
X14532086Y-12633031D01*
X14655896Y-12813984D02*
X14636848Y-12804460D01*
X14636848Y-12804460D02*
X14627324Y-12785412D01*
X14627324Y-12785412D02*
X14627324Y-12613984D01*
X14760658Y-12813984D02*
X14741610Y-12804460D01*
X14741610Y-12804460D02*
X14732086Y-12785412D01*
X14732086Y-12785412D02*
X14732086Y-12613984D01*
X14989229Y-12813984D02*
X14989229Y-12613984D01*
X14989229Y-12613984D02*
X15055896Y-12756841D01*
X15055896Y-12756841D02*
X15122562Y-12613984D01*
X15122562Y-12613984D02*
X15122562Y-12813984D01*
X15303515Y-12813984D02*
X15303515Y-12709222D01*
X15303515Y-12709222D02*
X15293991Y-12690174D01*
X15293991Y-12690174D02*
X15274943Y-12680650D01*
X15274943Y-12680650D02*
X15236848Y-12680650D01*
X15236848Y-12680650D02*
X15217801Y-12690174D01*
X15303515Y-12804460D02*
X15284467Y-12813984D01*
X15284467Y-12813984D02*
X15236848Y-12813984D01*
X15236848Y-12813984D02*
X15217801Y-12804460D01*
X15217801Y-12804460D02*
X15208277Y-12785412D01*
X15208277Y-12785412D02*
X15208277Y-12766365D01*
X15208277Y-12766365D02*
X15217801Y-12747317D01*
X15217801Y-12747317D02*
X15236848Y-12737793D01*
X15236848Y-12737793D02*
X15284467Y-12737793D01*
X15284467Y-12737793D02*
X15303515Y-12728269D01*
X15398753Y-12680650D02*
X15398753Y-12880650D01*
X15398753Y-12690174D02*
X15417801Y-12680650D01*
X15417801Y-12680650D02*
X15455896Y-12680650D01*
X15455896Y-12680650D02*
X15474943Y-12690174D01*
X15474943Y-12690174D02*
X15484467Y-12699698D01*
X15484467Y-12699698D02*
X15493991Y-12718746D01*
X15493991Y-12718746D02*
X15493991Y-12775888D01*
X15493991Y-12775888D02*
X15484467Y-12794936D01*
X15484467Y-12794936D02*
X15474943Y-12804460D01*
X15474943Y-12804460D02*
X15455896Y-12813984D01*
X15455896Y-12813984D02*
X15417801Y-12813984D01*
X15417801Y-12813984D02*
X15398753Y-12804460D01*
X15579705Y-12794936D02*
X15589229Y-12804460D01*
X15589229Y-12804460D02*
X15579705Y-12813984D01*
X15579705Y-12813984D02*
X15570182Y-12804460D01*
X15570182Y-12804460D02*
X15579705Y-12794936D01*
X15579705Y-12794936D02*
X15579705Y-12813984D01*
X15579705Y-12690174D02*
X15589229Y-12699698D01*
X15589229Y-12699698D02*
X15579705Y-12709222D01*
X15579705Y-12709222D02*
X15570182Y-12699698D01*
X15570182Y-12699698D02*
X15579705Y-12690174D01*
X15579705Y-12690174D02*
X15579705Y-12709222D01*
M02*
