%TF.GenerationSoftware,KiCad,Pcbnew,8.0.3*%
%TF.CreationDate,2025-02-04T11:13:50+01:00*%
%TF.ProjectId,RC,52432e6b-6963-4616-945f-706362585858,rev?*%
%TF.SameCoordinates,Original*%
%TF.FileFunction,Drillmap*%
%TF.FilePolarity,Positive*%
%FSLAX45Y45*%
G04 Gerber Fmt 4.5, Leading zero omitted, Abs format (unit mm)*
G04 Created by KiCad (PCBNEW 8.0.3) date 2025-02-04 11:13:50*
%MOMM*%
%LPD*%
G01*
G04 APERTURE LIST*
%ADD10C,0.050000*%
%ADD11C,0.200000*%
%ADD12C,0.100000*%
%ADD13C,0.120000*%
%ADD14C,0.305000*%
G04 APERTURE END LIST*
D10*
X15950000Y-12500000D02*
X13950000Y-12500000D01*
X14100000Y-9650000D02*
X13950000Y-9650000D01*
X15800000Y-9650000D02*
X15950000Y-9650000D01*
X14100000Y-9350000D02*
X13950000Y-9350000D01*
X14100000Y-9350000D02*
G75*
G02*
X14100000Y-9650000I0J-150000D01*
G01*
X15950000Y-7000000D02*
X15950000Y-9350000D01*
X15950000Y-9650000D02*
X15950000Y-12500000D01*
X15800000Y-9650000D02*
G75*
G02*
X15800000Y-9350000I0J150000D01*
G01*
X13950000Y-12500000D02*
X13950000Y-9650000D01*
X15800000Y-9350000D02*
X15950000Y-9350000D01*
X13950000Y-7000000D02*
X15950000Y-7000000D01*
X15150000Y-9500000D02*
G75*
G02*
X14750000Y-9500000I-200000J0D01*
G01*
X14750000Y-9500000D02*
G75*
G02*
X15150000Y-9500000I200000J0D01*
G01*
X13950000Y-9350000D02*
X13950000Y-7000000D01*
D11*
D12*
X14652000Y-8960000D02*
X14732000Y-9040000D01*
X14732000Y-8960000D02*
X14652000Y-9040000D01*
X14906000Y-8960000D02*
X14986000Y-9040000D01*
X14986000Y-8960000D02*
X14906000Y-9040000D01*
X15160000Y-8960000D02*
X15240000Y-9040000D01*
X15240000Y-8960000D02*
X15160000Y-9040000D01*
X14745000Y-7400000D02*
G75*
G02*
X14655000Y-7400000I-45000J0D01*
G01*
X14655000Y-7400000D02*
G75*
G02*
X14745000Y-7400000I45000J0D01*
G01*
X14745000Y-8000000D02*
G75*
G02*
X14655000Y-8000000I-45000J0D01*
G01*
X14655000Y-8000000D02*
G75*
G02*
X14745000Y-8000000I45000J0D01*
G01*
X15245000Y-7400000D02*
G75*
G02*
X15155000Y-7400000I-45000J0D01*
G01*
X15155000Y-7400000D02*
G75*
G02*
X15245000Y-7400000I45000J0D01*
G01*
X15245000Y-8000000D02*
G75*
G02*
X15155000Y-8000000I-45000J0D01*
G01*
X15155000Y-8000000D02*
G75*
G02*
X15245000Y-8000000I45000J0D01*
G01*
X14492500Y-11823500D02*
X14492500Y-11923500D01*
X14442500Y-11873500D02*
X14542500Y-11873500D01*
X14492500Y-12077500D02*
X14492500Y-12177500D01*
X14442500Y-12127500D02*
X14542500Y-12127500D01*
X14746500Y-11823500D02*
X14746500Y-11923500D01*
X14696500Y-11873500D02*
X14796500Y-11873500D01*
X14746500Y-12077500D02*
X14746500Y-12177500D01*
X14696500Y-12127500D02*
X14796500Y-12127500D01*
X15000500Y-11823500D02*
X15000500Y-11923500D01*
X14950500Y-11873500D02*
X15050500Y-11873500D01*
X15000500Y-12077500D02*
X15000500Y-12177500D01*
X14950500Y-12127500D02*
X15050500Y-12127500D01*
X15254500Y-11823500D02*
X15254500Y-11923500D01*
X15204500Y-11873500D02*
X15304500Y-11873500D01*
X15254500Y-12077500D02*
X15254500Y-12177500D01*
X15204500Y-12127500D02*
X15304500Y-12127500D01*
X15508500Y-11823500D02*
X15508500Y-11923500D01*
X15458500Y-11873500D02*
X15558500Y-11873500D01*
X15508500Y-12077500D02*
X15508500Y-12177500D01*
X15458500Y-12127500D02*
X15558500Y-12127500D01*
D13*
X14742427Y-11274927D02*
X14742427Y-11190073D01*
X14657573Y-11190073D01*
X14657573Y-11274927D01*
X14742427Y-11274927D01*
X14992427Y-11274927D02*
X14992427Y-11190073D01*
X14907573Y-11190073D01*
X14907573Y-11274927D01*
X14992427Y-11274927D01*
X15242427Y-11274927D02*
X15242427Y-11190073D01*
X15157573Y-11190073D01*
X15157573Y-11274927D01*
X15242427Y-11274927D01*
D14*
X14510000Y-10685000D02*
X14662500Y-10532500D01*
X14510000Y-10380000D01*
X14357500Y-10532500D01*
X14510000Y-10685000D01*
X15390000Y-10685000D02*
X15542500Y-10532500D01*
X15390000Y-10380000D01*
X15237500Y-10532500D01*
X15390000Y-10685000D01*
D11*
X14208277Y-12813984D02*
X14208277Y-12613984D01*
X14208277Y-12613984D02*
X14255896Y-12613984D01*
X14255896Y-12613984D02*
X14284467Y-12623508D01*
X14284467Y-12623508D02*
X14303515Y-12642555D01*
X14303515Y-12642555D02*
X14313039Y-12661603D01*
X14313039Y-12661603D02*
X14322562Y-12699698D01*
X14322562Y-12699698D02*
X14322562Y-12728269D01*
X14322562Y-12728269D02*
X14313039Y-12766365D01*
X14313039Y-12766365D02*
X14303515Y-12785412D01*
X14303515Y-12785412D02*
X14284467Y-12804460D01*
X14284467Y-12804460D02*
X14255896Y-12813984D01*
X14255896Y-12813984D02*
X14208277Y-12813984D01*
X14408277Y-12813984D02*
X14408277Y-12680650D01*
X14408277Y-12718746D02*
X14417801Y-12699698D01*
X14417801Y-12699698D02*
X14427324Y-12690174D01*
X14427324Y-12690174D02*
X14446372Y-12680650D01*
X14446372Y-12680650D02*
X14465420Y-12680650D01*
X14532086Y-12813984D02*
X14532086Y-12680650D01*
X14532086Y-12613984D02*
X14522562Y-12623508D01*
X14522562Y-12623508D02*
X14532086Y-12633031D01*
X14532086Y-12633031D02*
X14541610Y-12623508D01*
X14541610Y-12623508D02*
X14532086Y-12613984D01*
X14532086Y-12613984D02*
X14532086Y-12633031D01*
X14655896Y-12813984D02*
X14636848Y-12804460D01*
X14636848Y-12804460D02*
X14627324Y-12785412D01*
X14627324Y-12785412D02*
X14627324Y-12613984D01*
X14760658Y-12813984D02*
X14741610Y-12804460D01*
X14741610Y-12804460D02*
X14732086Y-12785412D01*
X14732086Y-12785412D02*
X14732086Y-12613984D01*
X14989229Y-12813984D02*
X14989229Y-12613984D01*
X14989229Y-12613984D02*
X15055896Y-12756841D01*
X15055896Y-12756841D02*
X15122562Y-12613984D01*
X15122562Y-12613984D02*
X15122562Y-12813984D01*
X15303515Y-12813984D02*
X15303515Y-12709222D01*
X15303515Y-12709222D02*
X15293991Y-12690174D01*
X15293991Y-12690174D02*
X15274943Y-12680650D01*
X15274943Y-12680650D02*
X15236848Y-12680650D01*
X15236848Y-12680650D02*
X15217801Y-12690174D01*
X15303515Y-12804460D02*
X15284467Y-12813984D01*
X15284467Y-12813984D02*
X15236848Y-12813984D01*
X15236848Y-12813984D02*
X15217801Y-12804460D01*
X15217801Y-12804460D02*
X15208277Y-12785412D01*
X15208277Y-12785412D02*
X15208277Y-12766365D01*
X15208277Y-12766365D02*
X15217801Y-12747317D01*
X15217801Y-12747317D02*
X15236848Y-12737793D01*
X15236848Y-12737793D02*
X15284467Y-12737793D01*
X15284467Y-12737793D02*
X15303515Y-12728269D01*
X15398753Y-12680650D02*
X15398753Y-12880650D01*
X15398753Y-12690174D02*
X15417801Y-12680650D01*
X15417801Y-12680650D02*
X15455896Y-12680650D01*
X15455896Y-12680650D02*
X15474943Y-12690174D01*
X15474943Y-12690174D02*
X15484467Y-12699698D01*
X15484467Y-12699698D02*
X15493991Y-12718746D01*
X15493991Y-12718746D02*
X15493991Y-12775888D01*
X15493991Y-12775888D02*
X15484467Y-12794936D01*
X15484467Y-12794936D02*
X15474943Y-12804460D01*
X15474943Y-12804460D02*
X15455896Y-12813984D01*
X15455896Y-12813984D02*
X15417801Y-12813984D01*
X15417801Y-12813984D02*
X15398753Y-12804460D01*
X15579705Y-12794936D02*
X15589229Y-12804460D01*
X15589229Y-12804460D02*
X15579705Y-12813984D01*
X15579705Y-12813984D02*
X15570182Y-12804460D01*
X15570182Y-12804460D02*
X15579705Y-12794936D01*
X15579705Y-12794936D02*
X15579705Y-12813984D01*
X15579705Y-12690174D02*
X15589229Y-12699698D01*
X15589229Y-12699698D02*
X15579705Y-12709222D01*
X15579705Y-12709222D02*
X15570182Y-12699698D01*
X15570182Y-12699698D02*
X15579705Y-12690174D01*
X15579705Y-12690174D02*
X15579705Y-12709222D01*
D12*
X13867500Y-13102500D02*
X13947500Y-13182500D01*
X13947500Y-13102500D02*
X13867500Y-13182500D01*
D11*
X14246372Y-13033984D02*
X14265420Y-13033984D01*
X14265420Y-13033984D02*
X14284467Y-13043508D01*
X14284467Y-13043508D02*
X14293991Y-13053031D01*
X14293991Y-13053031D02*
X14303515Y-13072079D01*
X14303515Y-13072079D02*
X14313039Y-13110174D01*
X14313039Y-13110174D02*
X14313039Y-13157793D01*
X14313039Y-13157793D02*
X14303515Y-13195888D01*
X14303515Y-13195888D02*
X14293991Y-13214936D01*
X14293991Y-13214936D02*
X14284467Y-13224460D01*
X14284467Y-13224460D02*
X14265420Y-13233984D01*
X14265420Y-13233984D02*
X14246372Y-13233984D01*
X14246372Y-13233984D02*
X14227324Y-13224460D01*
X14227324Y-13224460D02*
X14217801Y-13214936D01*
X14217801Y-13214936D02*
X14208277Y-13195888D01*
X14208277Y-13195888D02*
X14198753Y-13157793D01*
X14198753Y-13157793D02*
X14198753Y-13110174D01*
X14198753Y-13110174D02*
X14208277Y-13072079D01*
X14208277Y-13072079D02*
X14217801Y-13053031D01*
X14217801Y-13053031D02*
X14227324Y-13043508D01*
X14227324Y-13043508D02*
X14246372Y-13033984D01*
X14398753Y-13214936D02*
X14408277Y-13224460D01*
X14408277Y-13224460D02*
X14398753Y-13233984D01*
X14398753Y-13233984D02*
X14389229Y-13224460D01*
X14389229Y-13224460D02*
X14398753Y-13214936D01*
X14398753Y-13214936D02*
X14398753Y-13233984D01*
X14522562Y-13119698D02*
X14503515Y-13110174D01*
X14503515Y-13110174D02*
X14493991Y-13100650D01*
X14493991Y-13100650D02*
X14484467Y-13081603D01*
X14484467Y-13081603D02*
X14484467Y-13072079D01*
X14484467Y-13072079D02*
X14493991Y-13053031D01*
X14493991Y-13053031D02*
X14503515Y-13043508D01*
X14503515Y-13043508D02*
X14522562Y-13033984D01*
X14522562Y-13033984D02*
X14560658Y-13033984D01*
X14560658Y-13033984D02*
X14579705Y-13043508D01*
X14579705Y-13043508D02*
X14589229Y-13053031D01*
X14589229Y-13053031D02*
X14598753Y-13072079D01*
X14598753Y-13072079D02*
X14598753Y-13081603D01*
X14598753Y-13081603D02*
X14589229Y-13100650D01*
X14589229Y-13100650D02*
X14579705Y-13110174D01*
X14579705Y-13110174D02*
X14560658Y-13119698D01*
X14560658Y-13119698D02*
X14522562Y-13119698D01*
X14522562Y-13119698D02*
X14503515Y-13129222D01*
X14503515Y-13129222D02*
X14493991Y-13138746D01*
X14493991Y-13138746D02*
X14484467Y-13157793D01*
X14484467Y-13157793D02*
X14484467Y-13195888D01*
X14484467Y-13195888D02*
X14493991Y-13214936D01*
X14493991Y-13214936D02*
X14503515Y-13224460D01*
X14503515Y-13224460D02*
X14522562Y-13233984D01*
X14522562Y-13233984D02*
X14560658Y-13233984D01*
X14560658Y-13233984D02*
X14579705Y-13224460D01*
X14579705Y-13224460D02*
X14589229Y-13214936D01*
X14589229Y-13214936D02*
X14598753Y-13195888D01*
X14598753Y-13195888D02*
X14598753Y-13157793D01*
X14598753Y-13157793D02*
X14589229Y-13138746D01*
X14589229Y-13138746D02*
X14579705Y-13129222D01*
X14579705Y-13129222D02*
X14560658Y-13119698D01*
X14722562Y-13033984D02*
X14741610Y-13033984D01*
X14741610Y-13033984D02*
X14760658Y-13043508D01*
X14760658Y-13043508D02*
X14770182Y-13053031D01*
X14770182Y-13053031D02*
X14779705Y-13072079D01*
X14779705Y-13072079D02*
X14789229Y-13110174D01*
X14789229Y-13110174D02*
X14789229Y-13157793D01*
X14789229Y-13157793D02*
X14779705Y-13195888D01*
X14779705Y-13195888D02*
X14770182Y-13214936D01*
X14770182Y-13214936D02*
X14760658Y-13224460D01*
X14760658Y-13224460D02*
X14741610Y-13233984D01*
X14741610Y-13233984D02*
X14722562Y-13233984D01*
X14722562Y-13233984D02*
X14703515Y-13224460D01*
X14703515Y-13224460D02*
X14693991Y-13214936D01*
X14693991Y-13214936D02*
X14684467Y-13195888D01*
X14684467Y-13195888D02*
X14674943Y-13157793D01*
X14674943Y-13157793D02*
X14674943Y-13110174D01*
X14674943Y-13110174D02*
X14684467Y-13072079D01*
X14684467Y-13072079D02*
X14693991Y-13053031D01*
X14693991Y-13053031D02*
X14703515Y-13043508D01*
X14703515Y-13043508D02*
X14722562Y-13033984D01*
X14913039Y-13033984D02*
X14932086Y-13033984D01*
X14932086Y-13033984D02*
X14951134Y-13043508D01*
X14951134Y-13043508D02*
X14960658Y-13053031D01*
X14960658Y-13053031D02*
X14970182Y-13072079D01*
X14970182Y-13072079D02*
X14979705Y-13110174D01*
X14979705Y-13110174D02*
X14979705Y-13157793D01*
X14979705Y-13157793D02*
X14970182Y-13195888D01*
X14970182Y-13195888D02*
X14960658Y-13214936D01*
X14960658Y-13214936D02*
X14951134Y-13224460D01*
X14951134Y-13224460D02*
X14932086Y-13233984D01*
X14932086Y-13233984D02*
X14913039Y-13233984D01*
X14913039Y-13233984D02*
X14893991Y-13224460D01*
X14893991Y-13224460D02*
X14884467Y-13214936D01*
X14884467Y-13214936D02*
X14874943Y-13195888D01*
X14874943Y-13195888D02*
X14865420Y-13157793D01*
X14865420Y-13157793D02*
X14865420Y-13110174D01*
X14865420Y-13110174D02*
X14874943Y-13072079D01*
X14874943Y-13072079D02*
X14884467Y-13053031D01*
X14884467Y-13053031D02*
X14893991Y-13043508D01*
X14893991Y-13043508D02*
X14913039Y-13033984D01*
X15065420Y-13233984D02*
X15065420Y-13100650D01*
X15065420Y-13119698D02*
X15074943Y-13110174D01*
X15074943Y-13110174D02*
X15093991Y-13100650D01*
X15093991Y-13100650D02*
X15122563Y-13100650D01*
X15122563Y-13100650D02*
X15141610Y-13110174D01*
X15141610Y-13110174D02*
X15151134Y-13129222D01*
X15151134Y-13129222D02*
X15151134Y-13233984D01*
X15151134Y-13129222D02*
X15160658Y-13110174D01*
X15160658Y-13110174D02*
X15179705Y-13100650D01*
X15179705Y-13100650D02*
X15208277Y-13100650D01*
X15208277Y-13100650D02*
X15227324Y-13110174D01*
X15227324Y-13110174D02*
X15236848Y-13129222D01*
X15236848Y-13129222D02*
X15236848Y-13233984D01*
X15332086Y-13233984D02*
X15332086Y-13100650D01*
X15332086Y-13119698D02*
X15341610Y-13110174D01*
X15341610Y-13110174D02*
X15360658Y-13100650D01*
X15360658Y-13100650D02*
X15389229Y-13100650D01*
X15389229Y-13100650D02*
X15408277Y-13110174D01*
X15408277Y-13110174D02*
X15417801Y-13129222D01*
X15417801Y-13129222D02*
X15417801Y-13233984D01*
X15417801Y-13129222D02*
X15427324Y-13110174D01*
X15427324Y-13110174D02*
X15446372Y-13100650D01*
X15446372Y-13100650D02*
X15474943Y-13100650D01*
X15474943Y-13100650D02*
X15493991Y-13110174D01*
X15493991Y-13110174D02*
X15503515Y-13129222D01*
X15503515Y-13129222D02*
X15503515Y-13233984D01*
X15893991Y-13024460D02*
X15722563Y-13281603D01*
X16151134Y-13033984D02*
X16170182Y-13033984D01*
X16170182Y-13033984D02*
X16189229Y-13043508D01*
X16189229Y-13043508D02*
X16198753Y-13053031D01*
X16198753Y-13053031D02*
X16208277Y-13072079D01*
X16208277Y-13072079D02*
X16217801Y-13110174D01*
X16217801Y-13110174D02*
X16217801Y-13157793D01*
X16217801Y-13157793D02*
X16208277Y-13195888D01*
X16208277Y-13195888D02*
X16198753Y-13214936D01*
X16198753Y-13214936D02*
X16189229Y-13224460D01*
X16189229Y-13224460D02*
X16170182Y-13233984D01*
X16170182Y-13233984D02*
X16151134Y-13233984D01*
X16151134Y-13233984D02*
X16132086Y-13224460D01*
X16132086Y-13224460D02*
X16122563Y-13214936D01*
X16122563Y-13214936D02*
X16113039Y-13195888D01*
X16113039Y-13195888D02*
X16103515Y-13157793D01*
X16103515Y-13157793D02*
X16103515Y-13110174D01*
X16103515Y-13110174D02*
X16113039Y-13072079D01*
X16113039Y-13072079D02*
X16122563Y-13053031D01*
X16122563Y-13053031D02*
X16132086Y-13043508D01*
X16132086Y-13043508D02*
X16151134Y-13033984D01*
X16303515Y-13214936D02*
X16313039Y-13224460D01*
X16313039Y-13224460D02*
X16303515Y-13233984D01*
X16303515Y-13233984D02*
X16293991Y-13224460D01*
X16293991Y-13224460D02*
X16303515Y-13214936D01*
X16303515Y-13214936D02*
X16303515Y-13233984D01*
X16436848Y-13033984D02*
X16455896Y-13033984D01*
X16455896Y-13033984D02*
X16474944Y-13043508D01*
X16474944Y-13043508D02*
X16484467Y-13053031D01*
X16484467Y-13053031D02*
X16493991Y-13072079D01*
X16493991Y-13072079D02*
X16503515Y-13110174D01*
X16503515Y-13110174D02*
X16503515Y-13157793D01*
X16503515Y-13157793D02*
X16493991Y-13195888D01*
X16493991Y-13195888D02*
X16484467Y-13214936D01*
X16484467Y-13214936D02*
X16474944Y-13224460D01*
X16474944Y-13224460D02*
X16455896Y-13233984D01*
X16455896Y-13233984D02*
X16436848Y-13233984D01*
X16436848Y-13233984D02*
X16417801Y-13224460D01*
X16417801Y-13224460D02*
X16408277Y-13214936D01*
X16408277Y-13214936D02*
X16398753Y-13195888D01*
X16398753Y-13195888D02*
X16389229Y-13157793D01*
X16389229Y-13157793D02*
X16389229Y-13110174D01*
X16389229Y-13110174D02*
X16398753Y-13072079D01*
X16398753Y-13072079D02*
X16408277Y-13053031D01*
X16408277Y-13053031D02*
X16417801Y-13043508D01*
X16417801Y-13043508D02*
X16436848Y-13033984D01*
X16570182Y-13033984D02*
X16693991Y-13033984D01*
X16693991Y-13033984D02*
X16627325Y-13110174D01*
X16627325Y-13110174D02*
X16655896Y-13110174D01*
X16655896Y-13110174D02*
X16674944Y-13119698D01*
X16674944Y-13119698D02*
X16684467Y-13129222D01*
X16684467Y-13129222D02*
X16693991Y-13148269D01*
X16693991Y-13148269D02*
X16693991Y-13195888D01*
X16693991Y-13195888D02*
X16684467Y-13214936D01*
X16684467Y-13214936D02*
X16674944Y-13224460D01*
X16674944Y-13224460D02*
X16655896Y-13233984D01*
X16655896Y-13233984D02*
X16598753Y-13233984D01*
X16598753Y-13233984D02*
X16579706Y-13224460D01*
X16579706Y-13224460D02*
X16570182Y-13214936D01*
X16884468Y-13233984D02*
X16770182Y-13233984D01*
X16827325Y-13233984D02*
X16827325Y-13033984D01*
X16827325Y-13033984D02*
X16808277Y-13062555D01*
X16808277Y-13062555D02*
X16789229Y-13081603D01*
X16789229Y-13081603D02*
X16770182Y-13091127D01*
X17065420Y-13033984D02*
X16970182Y-13033984D01*
X16970182Y-13033984D02*
X16960658Y-13129222D01*
X16960658Y-13129222D02*
X16970182Y-13119698D01*
X16970182Y-13119698D02*
X16989229Y-13110174D01*
X16989229Y-13110174D02*
X17036849Y-13110174D01*
X17036849Y-13110174D02*
X17055896Y-13119698D01*
X17055896Y-13119698D02*
X17065420Y-13129222D01*
X17065420Y-13129222D02*
X17074944Y-13148269D01*
X17074944Y-13148269D02*
X17074944Y-13195888D01*
X17074944Y-13195888D02*
X17065420Y-13214936D01*
X17065420Y-13214936D02*
X17055896Y-13224460D01*
X17055896Y-13224460D02*
X17036849Y-13233984D01*
X17036849Y-13233984D02*
X16989229Y-13233984D01*
X16989229Y-13233984D02*
X16970182Y-13224460D01*
X16970182Y-13224460D02*
X16960658Y-13214936D01*
X17151134Y-13033984D02*
X17151134Y-13072079D01*
X17227325Y-13033984D02*
X17227325Y-13072079D01*
X17522563Y-13310174D02*
X17513039Y-13300650D01*
X17513039Y-13300650D02*
X17493991Y-13272079D01*
X17493991Y-13272079D02*
X17484468Y-13253031D01*
X17484468Y-13253031D02*
X17474944Y-13224460D01*
X17474944Y-13224460D02*
X17465420Y-13176841D01*
X17465420Y-13176841D02*
X17465420Y-13138746D01*
X17465420Y-13138746D02*
X17474944Y-13091127D01*
X17474944Y-13091127D02*
X17484468Y-13062555D01*
X17484468Y-13062555D02*
X17493991Y-13043508D01*
X17493991Y-13043508D02*
X17513039Y-13014936D01*
X17513039Y-13014936D02*
X17522563Y-13005412D01*
X17579706Y-13033984D02*
X17703515Y-13033984D01*
X17703515Y-13033984D02*
X17636849Y-13110174D01*
X17636849Y-13110174D02*
X17665420Y-13110174D01*
X17665420Y-13110174D02*
X17684468Y-13119698D01*
X17684468Y-13119698D02*
X17693991Y-13129222D01*
X17693991Y-13129222D02*
X17703515Y-13148269D01*
X17703515Y-13148269D02*
X17703515Y-13195888D01*
X17703515Y-13195888D02*
X17693991Y-13214936D01*
X17693991Y-13214936D02*
X17684468Y-13224460D01*
X17684468Y-13224460D02*
X17665420Y-13233984D01*
X17665420Y-13233984D02*
X17608277Y-13233984D01*
X17608277Y-13233984D02*
X17589230Y-13224460D01*
X17589230Y-13224460D02*
X17579706Y-13214936D01*
X17941611Y-13233984D02*
X17941611Y-13033984D01*
X18027325Y-13233984D02*
X18027325Y-13129222D01*
X18027325Y-13129222D02*
X18017801Y-13110174D01*
X18017801Y-13110174D02*
X17998753Y-13100650D01*
X17998753Y-13100650D02*
X17970182Y-13100650D01*
X17970182Y-13100650D02*
X17951134Y-13110174D01*
X17951134Y-13110174D02*
X17941611Y-13119698D01*
X18151134Y-13233984D02*
X18132087Y-13224460D01*
X18132087Y-13224460D02*
X18122563Y-13214936D01*
X18122563Y-13214936D02*
X18113039Y-13195888D01*
X18113039Y-13195888D02*
X18113039Y-13138746D01*
X18113039Y-13138746D02*
X18122563Y-13119698D01*
X18122563Y-13119698D02*
X18132087Y-13110174D01*
X18132087Y-13110174D02*
X18151134Y-13100650D01*
X18151134Y-13100650D02*
X18179706Y-13100650D01*
X18179706Y-13100650D02*
X18198753Y-13110174D01*
X18198753Y-13110174D02*
X18208277Y-13119698D01*
X18208277Y-13119698D02*
X18217801Y-13138746D01*
X18217801Y-13138746D02*
X18217801Y-13195888D01*
X18217801Y-13195888D02*
X18208277Y-13214936D01*
X18208277Y-13214936D02*
X18198753Y-13224460D01*
X18198753Y-13224460D02*
X18179706Y-13233984D01*
X18179706Y-13233984D02*
X18151134Y-13233984D01*
X18332087Y-13233984D02*
X18313039Y-13224460D01*
X18313039Y-13224460D02*
X18303515Y-13205412D01*
X18303515Y-13205412D02*
X18303515Y-13033984D01*
X18484468Y-13224460D02*
X18465420Y-13233984D01*
X18465420Y-13233984D02*
X18427325Y-13233984D01*
X18427325Y-13233984D02*
X18408277Y-13224460D01*
X18408277Y-13224460D02*
X18398753Y-13205412D01*
X18398753Y-13205412D02*
X18398753Y-13129222D01*
X18398753Y-13129222D02*
X18408277Y-13110174D01*
X18408277Y-13110174D02*
X18427325Y-13100650D01*
X18427325Y-13100650D02*
X18465420Y-13100650D01*
X18465420Y-13100650D02*
X18484468Y-13110174D01*
X18484468Y-13110174D02*
X18493992Y-13129222D01*
X18493992Y-13129222D02*
X18493992Y-13148269D01*
X18493992Y-13148269D02*
X18398753Y-13167317D01*
X18570182Y-13224460D02*
X18589230Y-13233984D01*
X18589230Y-13233984D02*
X18627325Y-13233984D01*
X18627325Y-13233984D02*
X18646373Y-13224460D01*
X18646373Y-13224460D02*
X18655896Y-13205412D01*
X18655896Y-13205412D02*
X18655896Y-13195888D01*
X18655896Y-13195888D02*
X18646373Y-13176841D01*
X18646373Y-13176841D02*
X18627325Y-13167317D01*
X18627325Y-13167317D02*
X18598753Y-13167317D01*
X18598753Y-13167317D02*
X18579706Y-13157793D01*
X18579706Y-13157793D02*
X18570182Y-13138746D01*
X18570182Y-13138746D02*
X18570182Y-13129222D01*
X18570182Y-13129222D02*
X18579706Y-13110174D01*
X18579706Y-13110174D02*
X18598753Y-13100650D01*
X18598753Y-13100650D02*
X18627325Y-13100650D01*
X18627325Y-13100650D02*
X18646373Y-13110174D01*
X18722563Y-13310174D02*
X18732087Y-13300650D01*
X18732087Y-13300650D02*
X18751134Y-13272079D01*
X18751134Y-13272079D02*
X18760658Y-13253031D01*
X18760658Y-13253031D02*
X18770182Y-13224460D01*
X18770182Y-13224460D02*
X18779706Y-13176841D01*
X18779706Y-13176841D02*
X18779706Y-13138746D01*
X18779706Y-13138746D02*
X18770182Y-13091127D01*
X18770182Y-13091127D02*
X18760658Y-13062555D01*
X18760658Y-13062555D02*
X18751134Y-13043508D01*
X18751134Y-13043508D02*
X18732087Y-13014936D01*
X18732087Y-13014936D02*
X18722563Y-13005412D01*
D12*
X13947500Y-13406500D02*
G75*
G02*
X13857500Y-13406500I-45000J0D01*
G01*
X13857500Y-13406500D02*
G75*
G02*
X13947500Y-13406500I45000J0D01*
G01*
D11*
X14246372Y-13297984D02*
X14265420Y-13297984D01*
X14265420Y-13297984D02*
X14284467Y-13307508D01*
X14284467Y-13307508D02*
X14293991Y-13317031D01*
X14293991Y-13317031D02*
X14303515Y-13336079D01*
X14303515Y-13336079D02*
X14313039Y-13374174D01*
X14313039Y-13374174D02*
X14313039Y-13421793D01*
X14313039Y-13421793D02*
X14303515Y-13459888D01*
X14303515Y-13459888D02*
X14293991Y-13478936D01*
X14293991Y-13478936D02*
X14284467Y-13488460D01*
X14284467Y-13488460D02*
X14265420Y-13497984D01*
X14265420Y-13497984D02*
X14246372Y-13497984D01*
X14246372Y-13497984D02*
X14227324Y-13488460D01*
X14227324Y-13488460D02*
X14217801Y-13478936D01*
X14217801Y-13478936D02*
X14208277Y-13459888D01*
X14208277Y-13459888D02*
X14198753Y-13421793D01*
X14198753Y-13421793D02*
X14198753Y-13374174D01*
X14198753Y-13374174D02*
X14208277Y-13336079D01*
X14208277Y-13336079D02*
X14217801Y-13317031D01*
X14217801Y-13317031D02*
X14227324Y-13307508D01*
X14227324Y-13307508D02*
X14246372Y-13297984D01*
X14398753Y-13478936D02*
X14408277Y-13488460D01*
X14408277Y-13488460D02*
X14398753Y-13497984D01*
X14398753Y-13497984D02*
X14389229Y-13488460D01*
X14389229Y-13488460D02*
X14398753Y-13478936D01*
X14398753Y-13478936D02*
X14398753Y-13497984D01*
X14503515Y-13497984D02*
X14541610Y-13497984D01*
X14541610Y-13497984D02*
X14560658Y-13488460D01*
X14560658Y-13488460D02*
X14570182Y-13478936D01*
X14570182Y-13478936D02*
X14589229Y-13450365D01*
X14589229Y-13450365D02*
X14598753Y-13412269D01*
X14598753Y-13412269D02*
X14598753Y-13336079D01*
X14598753Y-13336079D02*
X14589229Y-13317031D01*
X14589229Y-13317031D02*
X14579705Y-13307508D01*
X14579705Y-13307508D02*
X14560658Y-13297984D01*
X14560658Y-13297984D02*
X14522562Y-13297984D01*
X14522562Y-13297984D02*
X14503515Y-13307508D01*
X14503515Y-13307508D02*
X14493991Y-13317031D01*
X14493991Y-13317031D02*
X14484467Y-13336079D01*
X14484467Y-13336079D02*
X14484467Y-13383698D01*
X14484467Y-13383698D02*
X14493991Y-13402746D01*
X14493991Y-13402746D02*
X14503515Y-13412269D01*
X14503515Y-13412269D02*
X14522562Y-13421793D01*
X14522562Y-13421793D02*
X14560658Y-13421793D01*
X14560658Y-13421793D02*
X14579705Y-13412269D01*
X14579705Y-13412269D02*
X14589229Y-13402746D01*
X14589229Y-13402746D02*
X14598753Y-13383698D01*
X14722562Y-13297984D02*
X14741610Y-13297984D01*
X14741610Y-13297984D02*
X14760658Y-13307508D01*
X14760658Y-13307508D02*
X14770182Y-13317031D01*
X14770182Y-13317031D02*
X14779705Y-13336079D01*
X14779705Y-13336079D02*
X14789229Y-13374174D01*
X14789229Y-13374174D02*
X14789229Y-13421793D01*
X14789229Y-13421793D02*
X14779705Y-13459888D01*
X14779705Y-13459888D02*
X14770182Y-13478936D01*
X14770182Y-13478936D02*
X14760658Y-13488460D01*
X14760658Y-13488460D02*
X14741610Y-13497984D01*
X14741610Y-13497984D02*
X14722562Y-13497984D01*
X14722562Y-13497984D02*
X14703515Y-13488460D01*
X14703515Y-13488460D02*
X14693991Y-13478936D01*
X14693991Y-13478936D02*
X14684467Y-13459888D01*
X14684467Y-13459888D02*
X14674943Y-13421793D01*
X14674943Y-13421793D02*
X14674943Y-13374174D01*
X14674943Y-13374174D02*
X14684467Y-13336079D01*
X14684467Y-13336079D02*
X14693991Y-13317031D01*
X14693991Y-13317031D02*
X14703515Y-13307508D01*
X14703515Y-13307508D02*
X14722562Y-13297984D01*
X14913039Y-13297984D02*
X14932086Y-13297984D01*
X14932086Y-13297984D02*
X14951134Y-13307508D01*
X14951134Y-13307508D02*
X14960658Y-13317031D01*
X14960658Y-13317031D02*
X14970182Y-13336079D01*
X14970182Y-13336079D02*
X14979705Y-13374174D01*
X14979705Y-13374174D02*
X14979705Y-13421793D01*
X14979705Y-13421793D02*
X14970182Y-13459888D01*
X14970182Y-13459888D02*
X14960658Y-13478936D01*
X14960658Y-13478936D02*
X14951134Y-13488460D01*
X14951134Y-13488460D02*
X14932086Y-13497984D01*
X14932086Y-13497984D02*
X14913039Y-13497984D01*
X14913039Y-13497984D02*
X14893991Y-13488460D01*
X14893991Y-13488460D02*
X14884467Y-13478936D01*
X14884467Y-13478936D02*
X14874943Y-13459888D01*
X14874943Y-13459888D02*
X14865420Y-13421793D01*
X14865420Y-13421793D02*
X14865420Y-13374174D01*
X14865420Y-13374174D02*
X14874943Y-13336079D01*
X14874943Y-13336079D02*
X14884467Y-13317031D01*
X14884467Y-13317031D02*
X14893991Y-13307508D01*
X14893991Y-13307508D02*
X14913039Y-13297984D01*
X15065420Y-13497984D02*
X15065420Y-13364650D01*
X15065420Y-13383698D02*
X15074943Y-13374174D01*
X15074943Y-13374174D02*
X15093991Y-13364650D01*
X15093991Y-13364650D02*
X15122563Y-13364650D01*
X15122563Y-13364650D02*
X15141610Y-13374174D01*
X15141610Y-13374174D02*
X15151134Y-13393222D01*
X15151134Y-13393222D02*
X15151134Y-13497984D01*
X15151134Y-13393222D02*
X15160658Y-13374174D01*
X15160658Y-13374174D02*
X15179705Y-13364650D01*
X15179705Y-13364650D02*
X15208277Y-13364650D01*
X15208277Y-13364650D02*
X15227324Y-13374174D01*
X15227324Y-13374174D02*
X15236848Y-13393222D01*
X15236848Y-13393222D02*
X15236848Y-13497984D01*
X15332086Y-13497984D02*
X15332086Y-13364650D01*
X15332086Y-13383698D02*
X15341610Y-13374174D01*
X15341610Y-13374174D02*
X15360658Y-13364650D01*
X15360658Y-13364650D02*
X15389229Y-13364650D01*
X15389229Y-13364650D02*
X15408277Y-13374174D01*
X15408277Y-13374174D02*
X15417801Y-13393222D01*
X15417801Y-13393222D02*
X15417801Y-13497984D01*
X15417801Y-13393222D02*
X15427324Y-13374174D01*
X15427324Y-13374174D02*
X15446372Y-13364650D01*
X15446372Y-13364650D02*
X15474943Y-13364650D01*
X15474943Y-13364650D02*
X15493991Y-13374174D01*
X15493991Y-13374174D02*
X15503515Y-13393222D01*
X15503515Y-13393222D02*
X15503515Y-13497984D01*
X15893991Y-13288460D02*
X15722563Y-13545603D01*
X16151134Y-13297984D02*
X16170182Y-13297984D01*
X16170182Y-13297984D02*
X16189229Y-13307508D01*
X16189229Y-13307508D02*
X16198753Y-13317031D01*
X16198753Y-13317031D02*
X16208277Y-13336079D01*
X16208277Y-13336079D02*
X16217801Y-13374174D01*
X16217801Y-13374174D02*
X16217801Y-13421793D01*
X16217801Y-13421793D02*
X16208277Y-13459888D01*
X16208277Y-13459888D02*
X16198753Y-13478936D01*
X16198753Y-13478936D02*
X16189229Y-13488460D01*
X16189229Y-13488460D02*
X16170182Y-13497984D01*
X16170182Y-13497984D02*
X16151134Y-13497984D01*
X16151134Y-13497984D02*
X16132086Y-13488460D01*
X16132086Y-13488460D02*
X16122563Y-13478936D01*
X16122563Y-13478936D02*
X16113039Y-13459888D01*
X16113039Y-13459888D02*
X16103515Y-13421793D01*
X16103515Y-13421793D02*
X16103515Y-13374174D01*
X16103515Y-13374174D02*
X16113039Y-13336079D01*
X16113039Y-13336079D02*
X16122563Y-13317031D01*
X16122563Y-13317031D02*
X16132086Y-13307508D01*
X16132086Y-13307508D02*
X16151134Y-13297984D01*
X16303515Y-13478936D02*
X16313039Y-13488460D01*
X16313039Y-13488460D02*
X16303515Y-13497984D01*
X16303515Y-13497984D02*
X16293991Y-13488460D01*
X16293991Y-13488460D02*
X16303515Y-13478936D01*
X16303515Y-13478936D02*
X16303515Y-13497984D01*
X16436848Y-13297984D02*
X16455896Y-13297984D01*
X16455896Y-13297984D02*
X16474944Y-13307508D01*
X16474944Y-13307508D02*
X16484467Y-13317031D01*
X16484467Y-13317031D02*
X16493991Y-13336079D01*
X16493991Y-13336079D02*
X16503515Y-13374174D01*
X16503515Y-13374174D02*
X16503515Y-13421793D01*
X16503515Y-13421793D02*
X16493991Y-13459888D01*
X16493991Y-13459888D02*
X16484467Y-13478936D01*
X16484467Y-13478936D02*
X16474944Y-13488460D01*
X16474944Y-13488460D02*
X16455896Y-13497984D01*
X16455896Y-13497984D02*
X16436848Y-13497984D01*
X16436848Y-13497984D02*
X16417801Y-13488460D01*
X16417801Y-13488460D02*
X16408277Y-13478936D01*
X16408277Y-13478936D02*
X16398753Y-13459888D01*
X16398753Y-13459888D02*
X16389229Y-13421793D01*
X16389229Y-13421793D02*
X16389229Y-13374174D01*
X16389229Y-13374174D02*
X16398753Y-13336079D01*
X16398753Y-13336079D02*
X16408277Y-13317031D01*
X16408277Y-13317031D02*
X16417801Y-13307508D01*
X16417801Y-13307508D02*
X16436848Y-13297984D01*
X16570182Y-13297984D02*
X16693991Y-13297984D01*
X16693991Y-13297984D02*
X16627325Y-13374174D01*
X16627325Y-13374174D02*
X16655896Y-13374174D01*
X16655896Y-13374174D02*
X16674944Y-13383698D01*
X16674944Y-13383698D02*
X16684467Y-13393222D01*
X16684467Y-13393222D02*
X16693991Y-13412269D01*
X16693991Y-13412269D02*
X16693991Y-13459888D01*
X16693991Y-13459888D02*
X16684467Y-13478936D01*
X16684467Y-13478936D02*
X16674944Y-13488460D01*
X16674944Y-13488460D02*
X16655896Y-13497984D01*
X16655896Y-13497984D02*
X16598753Y-13497984D01*
X16598753Y-13497984D02*
X16579706Y-13488460D01*
X16579706Y-13488460D02*
X16570182Y-13478936D01*
X16874944Y-13297984D02*
X16779706Y-13297984D01*
X16779706Y-13297984D02*
X16770182Y-13393222D01*
X16770182Y-13393222D02*
X16779706Y-13383698D01*
X16779706Y-13383698D02*
X16798753Y-13374174D01*
X16798753Y-13374174D02*
X16846372Y-13374174D01*
X16846372Y-13374174D02*
X16865420Y-13383698D01*
X16865420Y-13383698D02*
X16874944Y-13393222D01*
X16874944Y-13393222D02*
X16884468Y-13412269D01*
X16884468Y-13412269D02*
X16884468Y-13459888D01*
X16884468Y-13459888D02*
X16874944Y-13478936D01*
X16874944Y-13478936D02*
X16865420Y-13488460D01*
X16865420Y-13488460D02*
X16846372Y-13497984D01*
X16846372Y-13497984D02*
X16798753Y-13497984D01*
X16798753Y-13497984D02*
X16779706Y-13488460D01*
X16779706Y-13488460D02*
X16770182Y-13478936D01*
X17055896Y-13364650D02*
X17055896Y-13497984D01*
X17008277Y-13288460D02*
X16960658Y-13431317D01*
X16960658Y-13431317D02*
X17084468Y-13431317D01*
X17151134Y-13297984D02*
X17151134Y-13336079D01*
X17227325Y-13297984D02*
X17227325Y-13336079D01*
X17522563Y-13574174D02*
X17513039Y-13564650D01*
X17513039Y-13564650D02*
X17493991Y-13536079D01*
X17493991Y-13536079D02*
X17484468Y-13517031D01*
X17484468Y-13517031D02*
X17474944Y-13488460D01*
X17474944Y-13488460D02*
X17465420Y-13440841D01*
X17465420Y-13440841D02*
X17465420Y-13402746D01*
X17465420Y-13402746D02*
X17474944Y-13355127D01*
X17474944Y-13355127D02*
X17484468Y-13326555D01*
X17484468Y-13326555D02*
X17493991Y-13307508D01*
X17493991Y-13307508D02*
X17513039Y-13278936D01*
X17513039Y-13278936D02*
X17522563Y-13269412D01*
X17684468Y-13364650D02*
X17684468Y-13497984D01*
X17636849Y-13288460D02*
X17589230Y-13431317D01*
X17589230Y-13431317D02*
X17713039Y-13431317D01*
X17941611Y-13497984D02*
X17941611Y-13297984D01*
X18027325Y-13497984D02*
X18027325Y-13393222D01*
X18027325Y-13393222D02*
X18017801Y-13374174D01*
X18017801Y-13374174D02*
X17998753Y-13364650D01*
X17998753Y-13364650D02*
X17970182Y-13364650D01*
X17970182Y-13364650D02*
X17951134Y-13374174D01*
X17951134Y-13374174D02*
X17941611Y-13383698D01*
X18151134Y-13497984D02*
X18132087Y-13488460D01*
X18132087Y-13488460D02*
X18122563Y-13478936D01*
X18122563Y-13478936D02*
X18113039Y-13459888D01*
X18113039Y-13459888D02*
X18113039Y-13402746D01*
X18113039Y-13402746D02*
X18122563Y-13383698D01*
X18122563Y-13383698D02*
X18132087Y-13374174D01*
X18132087Y-13374174D02*
X18151134Y-13364650D01*
X18151134Y-13364650D02*
X18179706Y-13364650D01*
X18179706Y-13364650D02*
X18198753Y-13374174D01*
X18198753Y-13374174D02*
X18208277Y-13383698D01*
X18208277Y-13383698D02*
X18217801Y-13402746D01*
X18217801Y-13402746D02*
X18217801Y-13459888D01*
X18217801Y-13459888D02*
X18208277Y-13478936D01*
X18208277Y-13478936D02*
X18198753Y-13488460D01*
X18198753Y-13488460D02*
X18179706Y-13497984D01*
X18179706Y-13497984D02*
X18151134Y-13497984D01*
X18332087Y-13497984D02*
X18313039Y-13488460D01*
X18313039Y-13488460D02*
X18303515Y-13469412D01*
X18303515Y-13469412D02*
X18303515Y-13297984D01*
X18484468Y-13488460D02*
X18465420Y-13497984D01*
X18465420Y-13497984D02*
X18427325Y-13497984D01*
X18427325Y-13497984D02*
X18408277Y-13488460D01*
X18408277Y-13488460D02*
X18398753Y-13469412D01*
X18398753Y-13469412D02*
X18398753Y-13393222D01*
X18398753Y-13393222D02*
X18408277Y-13374174D01*
X18408277Y-13374174D02*
X18427325Y-13364650D01*
X18427325Y-13364650D02*
X18465420Y-13364650D01*
X18465420Y-13364650D02*
X18484468Y-13374174D01*
X18484468Y-13374174D02*
X18493992Y-13393222D01*
X18493992Y-13393222D02*
X18493992Y-13412269D01*
X18493992Y-13412269D02*
X18398753Y-13431317D01*
X18570182Y-13488460D02*
X18589230Y-13497984D01*
X18589230Y-13497984D02*
X18627325Y-13497984D01*
X18627325Y-13497984D02*
X18646373Y-13488460D01*
X18646373Y-13488460D02*
X18655896Y-13469412D01*
X18655896Y-13469412D02*
X18655896Y-13459888D01*
X18655896Y-13459888D02*
X18646373Y-13440841D01*
X18646373Y-13440841D02*
X18627325Y-13431317D01*
X18627325Y-13431317D02*
X18598753Y-13431317D01*
X18598753Y-13431317D02*
X18579706Y-13421793D01*
X18579706Y-13421793D02*
X18570182Y-13402746D01*
X18570182Y-13402746D02*
X18570182Y-13393222D01*
X18570182Y-13393222D02*
X18579706Y-13374174D01*
X18579706Y-13374174D02*
X18598753Y-13364650D01*
X18598753Y-13364650D02*
X18627325Y-13364650D01*
X18627325Y-13364650D02*
X18646373Y-13374174D01*
X18722563Y-13574174D02*
X18732087Y-13564650D01*
X18732087Y-13564650D02*
X18751134Y-13536079D01*
X18751134Y-13536079D02*
X18760658Y-13517031D01*
X18760658Y-13517031D02*
X18770182Y-13488460D01*
X18770182Y-13488460D02*
X18779706Y-13440841D01*
X18779706Y-13440841D02*
X18779706Y-13402746D01*
X18779706Y-13402746D02*
X18770182Y-13355127D01*
X18770182Y-13355127D02*
X18760658Y-13326555D01*
X18760658Y-13326555D02*
X18751134Y-13307508D01*
X18751134Y-13307508D02*
X18732087Y-13278936D01*
X18732087Y-13278936D02*
X18722563Y-13269412D01*
D12*
X13897500Y-13620500D02*
X13897500Y-13720500D01*
X13847500Y-13670500D02*
X13947500Y-13670500D01*
D11*
X14313039Y-13761984D02*
X14198753Y-13761984D01*
X14255896Y-13761984D02*
X14255896Y-13561984D01*
X14255896Y-13561984D02*
X14236848Y-13590555D01*
X14236848Y-13590555D02*
X14217801Y-13609603D01*
X14217801Y-13609603D02*
X14198753Y-13619127D01*
X14398753Y-13742936D02*
X14408277Y-13752460D01*
X14408277Y-13752460D02*
X14398753Y-13761984D01*
X14398753Y-13761984D02*
X14389229Y-13752460D01*
X14389229Y-13752460D02*
X14398753Y-13742936D01*
X14398753Y-13742936D02*
X14398753Y-13761984D01*
X14532086Y-13561984D02*
X14551134Y-13561984D01*
X14551134Y-13561984D02*
X14570182Y-13571508D01*
X14570182Y-13571508D02*
X14579705Y-13581031D01*
X14579705Y-13581031D02*
X14589229Y-13600079D01*
X14589229Y-13600079D02*
X14598753Y-13638174D01*
X14598753Y-13638174D02*
X14598753Y-13685793D01*
X14598753Y-13685793D02*
X14589229Y-13723888D01*
X14589229Y-13723888D02*
X14579705Y-13742936D01*
X14579705Y-13742936D02*
X14570182Y-13752460D01*
X14570182Y-13752460D02*
X14551134Y-13761984D01*
X14551134Y-13761984D02*
X14532086Y-13761984D01*
X14532086Y-13761984D02*
X14513039Y-13752460D01*
X14513039Y-13752460D02*
X14503515Y-13742936D01*
X14503515Y-13742936D02*
X14493991Y-13723888D01*
X14493991Y-13723888D02*
X14484467Y-13685793D01*
X14484467Y-13685793D02*
X14484467Y-13638174D01*
X14484467Y-13638174D02*
X14493991Y-13600079D01*
X14493991Y-13600079D02*
X14503515Y-13581031D01*
X14503515Y-13581031D02*
X14513039Y-13571508D01*
X14513039Y-13571508D02*
X14532086Y-13561984D01*
X14722562Y-13561984D02*
X14741610Y-13561984D01*
X14741610Y-13561984D02*
X14760658Y-13571508D01*
X14760658Y-13571508D02*
X14770182Y-13581031D01*
X14770182Y-13581031D02*
X14779705Y-13600079D01*
X14779705Y-13600079D02*
X14789229Y-13638174D01*
X14789229Y-13638174D02*
X14789229Y-13685793D01*
X14789229Y-13685793D02*
X14779705Y-13723888D01*
X14779705Y-13723888D02*
X14770182Y-13742936D01*
X14770182Y-13742936D02*
X14760658Y-13752460D01*
X14760658Y-13752460D02*
X14741610Y-13761984D01*
X14741610Y-13761984D02*
X14722562Y-13761984D01*
X14722562Y-13761984D02*
X14703515Y-13752460D01*
X14703515Y-13752460D02*
X14693991Y-13742936D01*
X14693991Y-13742936D02*
X14684467Y-13723888D01*
X14684467Y-13723888D02*
X14674943Y-13685793D01*
X14674943Y-13685793D02*
X14674943Y-13638174D01*
X14674943Y-13638174D02*
X14684467Y-13600079D01*
X14684467Y-13600079D02*
X14693991Y-13581031D01*
X14693991Y-13581031D02*
X14703515Y-13571508D01*
X14703515Y-13571508D02*
X14722562Y-13561984D01*
X14913039Y-13561984D02*
X14932086Y-13561984D01*
X14932086Y-13561984D02*
X14951134Y-13571508D01*
X14951134Y-13571508D02*
X14960658Y-13581031D01*
X14960658Y-13581031D02*
X14970182Y-13600079D01*
X14970182Y-13600079D02*
X14979705Y-13638174D01*
X14979705Y-13638174D02*
X14979705Y-13685793D01*
X14979705Y-13685793D02*
X14970182Y-13723888D01*
X14970182Y-13723888D02*
X14960658Y-13742936D01*
X14960658Y-13742936D02*
X14951134Y-13752460D01*
X14951134Y-13752460D02*
X14932086Y-13761984D01*
X14932086Y-13761984D02*
X14913039Y-13761984D01*
X14913039Y-13761984D02*
X14893991Y-13752460D01*
X14893991Y-13752460D02*
X14884467Y-13742936D01*
X14884467Y-13742936D02*
X14874943Y-13723888D01*
X14874943Y-13723888D02*
X14865420Y-13685793D01*
X14865420Y-13685793D02*
X14865420Y-13638174D01*
X14865420Y-13638174D02*
X14874943Y-13600079D01*
X14874943Y-13600079D02*
X14884467Y-13581031D01*
X14884467Y-13581031D02*
X14893991Y-13571508D01*
X14893991Y-13571508D02*
X14913039Y-13561984D01*
X15065420Y-13761984D02*
X15065420Y-13628650D01*
X15065420Y-13647698D02*
X15074943Y-13638174D01*
X15074943Y-13638174D02*
X15093991Y-13628650D01*
X15093991Y-13628650D02*
X15122563Y-13628650D01*
X15122563Y-13628650D02*
X15141610Y-13638174D01*
X15141610Y-13638174D02*
X15151134Y-13657222D01*
X15151134Y-13657222D02*
X15151134Y-13761984D01*
X15151134Y-13657222D02*
X15160658Y-13638174D01*
X15160658Y-13638174D02*
X15179705Y-13628650D01*
X15179705Y-13628650D02*
X15208277Y-13628650D01*
X15208277Y-13628650D02*
X15227324Y-13638174D01*
X15227324Y-13638174D02*
X15236848Y-13657222D01*
X15236848Y-13657222D02*
X15236848Y-13761984D01*
X15332086Y-13761984D02*
X15332086Y-13628650D01*
X15332086Y-13647698D02*
X15341610Y-13638174D01*
X15341610Y-13638174D02*
X15360658Y-13628650D01*
X15360658Y-13628650D02*
X15389229Y-13628650D01*
X15389229Y-13628650D02*
X15408277Y-13638174D01*
X15408277Y-13638174D02*
X15417801Y-13657222D01*
X15417801Y-13657222D02*
X15417801Y-13761984D01*
X15417801Y-13657222D02*
X15427324Y-13638174D01*
X15427324Y-13638174D02*
X15446372Y-13628650D01*
X15446372Y-13628650D02*
X15474943Y-13628650D01*
X15474943Y-13628650D02*
X15493991Y-13638174D01*
X15493991Y-13638174D02*
X15503515Y-13657222D01*
X15503515Y-13657222D02*
X15503515Y-13761984D01*
X15893991Y-13552460D02*
X15722563Y-13809603D01*
X16151134Y-13561984D02*
X16170182Y-13561984D01*
X16170182Y-13561984D02*
X16189229Y-13571508D01*
X16189229Y-13571508D02*
X16198753Y-13581031D01*
X16198753Y-13581031D02*
X16208277Y-13600079D01*
X16208277Y-13600079D02*
X16217801Y-13638174D01*
X16217801Y-13638174D02*
X16217801Y-13685793D01*
X16217801Y-13685793D02*
X16208277Y-13723888D01*
X16208277Y-13723888D02*
X16198753Y-13742936D01*
X16198753Y-13742936D02*
X16189229Y-13752460D01*
X16189229Y-13752460D02*
X16170182Y-13761984D01*
X16170182Y-13761984D02*
X16151134Y-13761984D01*
X16151134Y-13761984D02*
X16132086Y-13752460D01*
X16132086Y-13752460D02*
X16122563Y-13742936D01*
X16122563Y-13742936D02*
X16113039Y-13723888D01*
X16113039Y-13723888D02*
X16103515Y-13685793D01*
X16103515Y-13685793D02*
X16103515Y-13638174D01*
X16103515Y-13638174D02*
X16113039Y-13600079D01*
X16113039Y-13600079D02*
X16122563Y-13581031D01*
X16122563Y-13581031D02*
X16132086Y-13571508D01*
X16132086Y-13571508D02*
X16151134Y-13561984D01*
X16303515Y-13742936D02*
X16313039Y-13752460D01*
X16313039Y-13752460D02*
X16303515Y-13761984D01*
X16303515Y-13761984D02*
X16293991Y-13752460D01*
X16293991Y-13752460D02*
X16303515Y-13742936D01*
X16303515Y-13742936D02*
X16303515Y-13761984D01*
X16436848Y-13561984D02*
X16455896Y-13561984D01*
X16455896Y-13561984D02*
X16474944Y-13571508D01*
X16474944Y-13571508D02*
X16484467Y-13581031D01*
X16484467Y-13581031D02*
X16493991Y-13600079D01*
X16493991Y-13600079D02*
X16503515Y-13638174D01*
X16503515Y-13638174D02*
X16503515Y-13685793D01*
X16503515Y-13685793D02*
X16493991Y-13723888D01*
X16493991Y-13723888D02*
X16484467Y-13742936D01*
X16484467Y-13742936D02*
X16474944Y-13752460D01*
X16474944Y-13752460D02*
X16455896Y-13761984D01*
X16455896Y-13761984D02*
X16436848Y-13761984D01*
X16436848Y-13761984D02*
X16417801Y-13752460D01*
X16417801Y-13752460D02*
X16408277Y-13742936D01*
X16408277Y-13742936D02*
X16398753Y-13723888D01*
X16398753Y-13723888D02*
X16389229Y-13685793D01*
X16389229Y-13685793D02*
X16389229Y-13638174D01*
X16389229Y-13638174D02*
X16398753Y-13600079D01*
X16398753Y-13600079D02*
X16408277Y-13581031D01*
X16408277Y-13581031D02*
X16417801Y-13571508D01*
X16417801Y-13571508D02*
X16436848Y-13561984D01*
X16570182Y-13561984D02*
X16693991Y-13561984D01*
X16693991Y-13561984D02*
X16627325Y-13638174D01*
X16627325Y-13638174D02*
X16655896Y-13638174D01*
X16655896Y-13638174D02*
X16674944Y-13647698D01*
X16674944Y-13647698D02*
X16684467Y-13657222D01*
X16684467Y-13657222D02*
X16693991Y-13676269D01*
X16693991Y-13676269D02*
X16693991Y-13723888D01*
X16693991Y-13723888D02*
X16684467Y-13742936D01*
X16684467Y-13742936D02*
X16674944Y-13752460D01*
X16674944Y-13752460D02*
X16655896Y-13761984D01*
X16655896Y-13761984D02*
X16598753Y-13761984D01*
X16598753Y-13761984D02*
X16579706Y-13752460D01*
X16579706Y-13752460D02*
X16570182Y-13742936D01*
X16789229Y-13761984D02*
X16827325Y-13761984D01*
X16827325Y-13761984D02*
X16846372Y-13752460D01*
X16846372Y-13752460D02*
X16855896Y-13742936D01*
X16855896Y-13742936D02*
X16874944Y-13714365D01*
X16874944Y-13714365D02*
X16884468Y-13676269D01*
X16884468Y-13676269D02*
X16884468Y-13600079D01*
X16884468Y-13600079D02*
X16874944Y-13581031D01*
X16874944Y-13581031D02*
X16865420Y-13571508D01*
X16865420Y-13571508D02*
X16846372Y-13561984D01*
X16846372Y-13561984D02*
X16808277Y-13561984D01*
X16808277Y-13561984D02*
X16789229Y-13571508D01*
X16789229Y-13571508D02*
X16779706Y-13581031D01*
X16779706Y-13581031D02*
X16770182Y-13600079D01*
X16770182Y-13600079D02*
X16770182Y-13647698D01*
X16770182Y-13647698D02*
X16779706Y-13666746D01*
X16779706Y-13666746D02*
X16789229Y-13676269D01*
X16789229Y-13676269D02*
X16808277Y-13685793D01*
X16808277Y-13685793D02*
X16846372Y-13685793D01*
X16846372Y-13685793D02*
X16865420Y-13676269D01*
X16865420Y-13676269D02*
X16874944Y-13666746D01*
X16874944Y-13666746D02*
X16884468Y-13647698D01*
X17055896Y-13628650D02*
X17055896Y-13761984D01*
X17008277Y-13552460D02*
X16960658Y-13695317D01*
X16960658Y-13695317D02*
X17084468Y-13695317D01*
X17151134Y-13561984D02*
X17151134Y-13600079D01*
X17227325Y-13561984D02*
X17227325Y-13600079D01*
X17522563Y-13838174D02*
X17513039Y-13828650D01*
X17513039Y-13828650D02*
X17493991Y-13800079D01*
X17493991Y-13800079D02*
X17484468Y-13781031D01*
X17484468Y-13781031D02*
X17474944Y-13752460D01*
X17474944Y-13752460D02*
X17465420Y-13704841D01*
X17465420Y-13704841D02*
X17465420Y-13666746D01*
X17465420Y-13666746D02*
X17474944Y-13619127D01*
X17474944Y-13619127D02*
X17484468Y-13590555D01*
X17484468Y-13590555D02*
X17493991Y-13571508D01*
X17493991Y-13571508D02*
X17513039Y-13542936D01*
X17513039Y-13542936D02*
X17522563Y-13533412D01*
X17703515Y-13761984D02*
X17589230Y-13761984D01*
X17646372Y-13761984D02*
X17646372Y-13561984D01*
X17646372Y-13561984D02*
X17627325Y-13590555D01*
X17627325Y-13590555D02*
X17608277Y-13609603D01*
X17608277Y-13609603D02*
X17589230Y-13619127D01*
X17827325Y-13561984D02*
X17846372Y-13561984D01*
X17846372Y-13561984D02*
X17865420Y-13571508D01*
X17865420Y-13571508D02*
X17874944Y-13581031D01*
X17874944Y-13581031D02*
X17884468Y-13600079D01*
X17884468Y-13600079D02*
X17893991Y-13638174D01*
X17893991Y-13638174D02*
X17893991Y-13685793D01*
X17893991Y-13685793D02*
X17884468Y-13723888D01*
X17884468Y-13723888D02*
X17874944Y-13742936D01*
X17874944Y-13742936D02*
X17865420Y-13752460D01*
X17865420Y-13752460D02*
X17846372Y-13761984D01*
X17846372Y-13761984D02*
X17827325Y-13761984D01*
X17827325Y-13761984D02*
X17808277Y-13752460D01*
X17808277Y-13752460D02*
X17798753Y-13742936D01*
X17798753Y-13742936D02*
X17789230Y-13723888D01*
X17789230Y-13723888D02*
X17779706Y-13685793D01*
X17779706Y-13685793D02*
X17779706Y-13638174D01*
X17779706Y-13638174D02*
X17789230Y-13600079D01*
X17789230Y-13600079D02*
X17798753Y-13581031D01*
X17798753Y-13581031D02*
X17808277Y-13571508D01*
X17808277Y-13571508D02*
X17827325Y-13561984D01*
X18132087Y-13761984D02*
X18132087Y-13561984D01*
X18217801Y-13761984D02*
X18217801Y-13657222D01*
X18217801Y-13657222D02*
X18208277Y-13638174D01*
X18208277Y-13638174D02*
X18189230Y-13628650D01*
X18189230Y-13628650D02*
X18160658Y-13628650D01*
X18160658Y-13628650D02*
X18141611Y-13638174D01*
X18141611Y-13638174D02*
X18132087Y-13647698D01*
X18341611Y-13761984D02*
X18322563Y-13752460D01*
X18322563Y-13752460D02*
X18313039Y-13742936D01*
X18313039Y-13742936D02*
X18303515Y-13723888D01*
X18303515Y-13723888D02*
X18303515Y-13666746D01*
X18303515Y-13666746D02*
X18313039Y-13647698D01*
X18313039Y-13647698D02*
X18322563Y-13638174D01*
X18322563Y-13638174D02*
X18341611Y-13628650D01*
X18341611Y-13628650D02*
X18370182Y-13628650D01*
X18370182Y-13628650D02*
X18389230Y-13638174D01*
X18389230Y-13638174D02*
X18398753Y-13647698D01*
X18398753Y-13647698D02*
X18408277Y-13666746D01*
X18408277Y-13666746D02*
X18408277Y-13723888D01*
X18408277Y-13723888D02*
X18398753Y-13742936D01*
X18398753Y-13742936D02*
X18389230Y-13752460D01*
X18389230Y-13752460D02*
X18370182Y-13761984D01*
X18370182Y-13761984D02*
X18341611Y-13761984D01*
X18522563Y-13761984D02*
X18503515Y-13752460D01*
X18503515Y-13752460D02*
X18493992Y-13733412D01*
X18493992Y-13733412D02*
X18493992Y-13561984D01*
X18674944Y-13752460D02*
X18655896Y-13761984D01*
X18655896Y-13761984D02*
X18617801Y-13761984D01*
X18617801Y-13761984D02*
X18598753Y-13752460D01*
X18598753Y-13752460D02*
X18589230Y-13733412D01*
X18589230Y-13733412D02*
X18589230Y-13657222D01*
X18589230Y-13657222D02*
X18598753Y-13638174D01*
X18598753Y-13638174D02*
X18617801Y-13628650D01*
X18617801Y-13628650D02*
X18655896Y-13628650D01*
X18655896Y-13628650D02*
X18674944Y-13638174D01*
X18674944Y-13638174D02*
X18684468Y-13657222D01*
X18684468Y-13657222D02*
X18684468Y-13676269D01*
X18684468Y-13676269D02*
X18589230Y-13695317D01*
X18760658Y-13752460D02*
X18779706Y-13761984D01*
X18779706Y-13761984D02*
X18817801Y-13761984D01*
X18817801Y-13761984D02*
X18836849Y-13752460D01*
X18836849Y-13752460D02*
X18846373Y-13733412D01*
X18846373Y-13733412D02*
X18846373Y-13723888D01*
X18846373Y-13723888D02*
X18836849Y-13704841D01*
X18836849Y-13704841D02*
X18817801Y-13695317D01*
X18817801Y-13695317D02*
X18789230Y-13695317D01*
X18789230Y-13695317D02*
X18770182Y-13685793D01*
X18770182Y-13685793D02*
X18760658Y-13666746D01*
X18760658Y-13666746D02*
X18760658Y-13657222D01*
X18760658Y-13657222D02*
X18770182Y-13638174D01*
X18770182Y-13638174D02*
X18789230Y-13628650D01*
X18789230Y-13628650D02*
X18817801Y-13628650D01*
X18817801Y-13628650D02*
X18836849Y-13638174D01*
X18913039Y-13838174D02*
X18922563Y-13828650D01*
X18922563Y-13828650D02*
X18941611Y-13800079D01*
X18941611Y-13800079D02*
X18951134Y-13781031D01*
X18951134Y-13781031D02*
X18960658Y-13752460D01*
X18960658Y-13752460D02*
X18970182Y-13704841D01*
X18970182Y-13704841D02*
X18970182Y-13666746D01*
X18970182Y-13666746D02*
X18960658Y-13619127D01*
X18960658Y-13619127D02*
X18951134Y-13590555D01*
X18951134Y-13590555D02*
X18941611Y-13571508D01*
X18941611Y-13571508D02*
X18922563Y-13542936D01*
X18922563Y-13542936D02*
X18913039Y-13533412D01*
D13*
X13929927Y-13976927D02*
X13929927Y-13892073D01*
X13845073Y-13892073D01*
X13845073Y-13976927D01*
X13929927Y-13976927D01*
D11*
X14313039Y-14025984D02*
X14198753Y-14025984D01*
X14255896Y-14025984D02*
X14255896Y-13825984D01*
X14255896Y-13825984D02*
X14236848Y-13854555D01*
X14236848Y-13854555D02*
X14217801Y-13873603D01*
X14217801Y-13873603D02*
X14198753Y-13883127D01*
X14398753Y-14006936D02*
X14408277Y-14016460D01*
X14408277Y-14016460D02*
X14398753Y-14025984D01*
X14398753Y-14025984D02*
X14389229Y-14016460D01*
X14389229Y-14016460D02*
X14398753Y-14006936D01*
X14398753Y-14006936D02*
X14398753Y-14025984D01*
X14484467Y-13845031D02*
X14493991Y-13835508D01*
X14493991Y-13835508D02*
X14513039Y-13825984D01*
X14513039Y-13825984D02*
X14560658Y-13825984D01*
X14560658Y-13825984D02*
X14579705Y-13835508D01*
X14579705Y-13835508D02*
X14589229Y-13845031D01*
X14589229Y-13845031D02*
X14598753Y-13864079D01*
X14598753Y-13864079D02*
X14598753Y-13883127D01*
X14598753Y-13883127D02*
X14589229Y-13911698D01*
X14589229Y-13911698D02*
X14474943Y-14025984D01*
X14474943Y-14025984D02*
X14598753Y-14025984D01*
X14722562Y-13825984D02*
X14741610Y-13825984D01*
X14741610Y-13825984D02*
X14760658Y-13835508D01*
X14760658Y-13835508D02*
X14770182Y-13845031D01*
X14770182Y-13845031D02*
X14779705Y-13864079D01*
X14779705Y-13864079D02*
X14789229Y-13902174D01*
X14789229Y-13902174D02*
X14789229Y-13949793D01*
X14789229Y-13949793D02*
X14779705Y-13987888D01*
X14779705Y-13987888D02*
X14770182Y-14006936D01*
X14770182Y-14006936D02*
X14760658Y-14016460D01*
X14760658Y-14016460D02*
X14741610Y-14025984D01*
X14741610Y-14025984D02*
X14722562Y-14025984D01*
X14722562Y-14025984D02*
X14703515Y-14016460D01*
X14703515Y-14016460D02*
X14693991Y-14006936D01*
X14693991Y-14006936D02*
X14684467Y-13987888D01*
X14684467Y-13987888D02*
X14674943Y-13949793D01*
X14674943Y-13949793D02*
X14674943Y-13902174D01*
X14674943Y-13902174D02*
X14684467Y-13864079D01*
X14684467Y-13864079D02*
X14693991Y-13845031D01*
X14693991Y-13845031D02*
X14703515Y-13835508D01*
X14703515Y-13835508D02*
X14722562Y-13825984D01*
X14913039Y-13825984D02*
X14932086Y-13825984D01*
X14932086Y-13825984D02*
X14951134Y-13835508D01*
X14951134Y-13835508D02*
X14960658Y-13845031D01*
X14960658Y-13845031D02*
X14970182Y-13864079D01*
X14970182Y-13864079D02*
X14979705Y-13902174D01*
X14979705Y-13902174D02*
X14979705Y-13949793D01*
X14979705Y-13949793D02*
X14970182Y-13987888D01*
X14970182Y-13987888D02*
X14960658Y-14006936D01*
X14960658Y-14006936D02*
X14951134Y-14016460D01*
X14951134Y-14016460D02*
X14932086Y-14025984D01*
X14932086Y-14025984D02*
X14913039Y-14025984D01*
X14913039Y-14025984D02*
X14893991Y-14016460D01*
X14893991Y-14016460D02*
X14884467Y-14006936D01*
X14884467Y-14006936D02*
X14874943Y-13987888D01*
X14874943Y-13987888D02*
X14865420Y-13949793D01*
X14865420Y-13949793D02*
X14865420Y-13902174D01*
X14865420Y-13902174D02*
X14874943Y-13864079D01*
X14874943Y-13864079D02*
X14884467Y-13845031D01*
X14884467Y-13845031D02*
X14893991Y-13835508D01*
X14893991Y-13835508D02*
X14913039Y-13825984D01*
X15065420Y-14025984D02*
X15065420Y-13892650D01*
X15065420Y-13911698D02*
X15074943Y-13902174D01*
X15074943Y-13902174D02*
X15093991Y-13892650D01*
X15093991Y-13892650D02*
X15122563Y-13892650D01*
X15122563Y-13892650D02*
X15141610Y-13902174D01*
X15141610Y-13902174D02*
X15151134Y-13921222D01*
X15151134Y-13921222D02*
X15151134Y-14025984D01*
X15151134Y-13921222D02*
X15160658Y-13902174D01*
X15160658Y-13902174D02*
X15179705Y-13892650D01*
X15179705Y-13892650D02*
X15208277Y-13892650D01*
X15208277Y-13892650D02*
X15227324Y-13902174D01*
X15227324Y-13902174D02*
X15236848Y-13921222D01*
X15236848Y-13921222D02*
X15236848Y-14025984D01*
X15332086Y-14025984D02*
X15332086Y-13892650D01*
X15332086Y-13911698D02*
X15341610Y-13902174D01*
X15341610Y-13902174D02*
X15360658Y-13892650D01*
X15360658Y-13892650D02*
X15389229Y-13892650D01*
X15389229Y-13892650D02*
X15408277Y-13902174D01*
X15408277Y-13902174D02*
X15417801Y-13921222D01*
X15417801Y-13921222D02*
X15417801Y-14025984D01*
X15417801Y-13921222D02*
X15427324Y-13902174D01*
X15427324Y-13902174D02*
X15446372Y-13892650D01*
X15446372Y-13892650D02*
X15474943Y-13892650D01*
X15474943Y-13892650D02*
X15493991Y-13902174D01*
X15493991Y-13902174D02*
X15503515Y-13921222D01*
X15503515Y-13921222D02*
X15503515Y-14025984D01*
X15893991Y-13816460D02*
X15722563Y-14073603D01*
X16151134Y-13825984D02*
X16170182Y-13825984D01*
X16170182Y-13825984D02*
X16189229Y-13835508D01*
X16189229Y-13835508D02*
X16198753Y-13845031D01*
X16198753Y-13845031D02*
X16208277Y-13864079D01*
X16208277Y-13864079D02*
X16217801Y-13902174D01*
X16217801Y-13902174D02*
X16217801Y-13949793D01*
X16217801Y-13949793D02*
X16208277Y-13987888D01*
X16208277Y-13987888D02*
X16198753Y-14006936D01*
X16198753Y-14006936D02*
X16189229Y-14016460D01*
X16189229Y-14016460D02*
X16170182Y-14025984D01*
X16170182Y-14025984D02*
X16151134Y-14025984D01*
X16151134Y-14025984D02*
X16132086Y-14016460D01*
X16132086Y-14016460D02*
X16122563Y-14006936D01*
X16122563Y-14006936D02*
X16113039Y-13987888D01*
X16113039Y-13987888D02*
X16103515Y-13949793D01*
X16103515Y-13949793D02*
X16103515Y-13902174D01*
X16103515Y-13902174D02*
X16113039Y-13864079D01*
X16113039Y-13864079D02*
X16122563Y-13845031D01*
X16122563Y-13845031D02*
X16132086Y-13835508D01*
X16132086Y-13835508D02*
X16151134Y-13825984D01*
X16303515Y-14006936D02*
X16313039Y-14016460D01*
X16313039Y-14016460D02*
X16303515Y-14025984D01*
X16303515Y-14025984D02*
X16293991Y-14016460D01*
X16293991Y-14016460D02*
X16303515Y-14006936D01*
X16303515Y-14006936D02*
X16303515Y-14025984D01*
X16436848Y-13825984D02*
X16455896Y-13825984D01*
X16455896Y-13825984D02*
X16474944Y-13835508D01*
X16474944Y-13835508D02*
X16484467Y-13845031D01*
X16484467Y-13845031D02*
X16493991Y-13864079D01*
X16493991Y-13864079D02*
X16503515Y-13902174D01*
X16503515Y-13902174D02*
X16503515Y-13949793D01*
X16503515Y-13949793D02*
X16493991Y-13987888D01*
X16493991Y-13987888D02*
X16484467Y-14006936D01*
X16484467Y-14006936D02*
X16474944Y-14016460D01*
X16474944Y-14016460D02*
X16455896Y-14025984D01*
X16455896Y-14025984D02*
X16436848Y-14025984D01*
X16436848Y-14025984D02*
X16417801Y-14016460D01*
X16417801Y-14016460D02*
X16408277Y-14006936D01*
X16408277Y-14006936D02*
X16398753Y-13987888D01*
X16398753Y-13987888D02*
X16389229Y-13949793D01*
X16389229Y-13949793D02*
X16389229Y-13902174D01*
X16389229Y-13902174D02*
X16398753Y-13864079D01*
X16398753Y-13864079D02*
X16408277Y-13845031D01*
X16408277Y-13845031D02*
X16417801Y-13835508D01*
X16417801Y-13835508D02*
X16436848Y-13825984D01*
X16674944Y-13892650D02*
X16674944Y-14025984D01*
X16627325Y-13816460D02*
X16579706Y-13959317D01*
X16579706Y-13959317D02*
X16703515Y-13959317D01*
X16760658Y-13825984D02*
X16893991Y-13825984D01*
X16893991Y-13825984D02*
X16808277Y-14025984D01*
X16960658Y-13845031D02*
X16970182Y-13835508D01*
X16970182Y-13835508D02*
X16989229Y-13825984D01*
X16989229Y-13825984D02*
X17036849Y-13825984D01*
X17036849Y-13825984D02*
X17055896Y-13835508D01*
X17055896Y-13835508D02*
X17065420Y-13845031D01*
X17065420Y-13845031D02*
X17074944Y-13864079D01*
X17074944Y-13864079D02*
X17074944Y-13883127D01*
X17074944Y-13883127D02*
X17065420Y-13911698D01*
X17065420Y-13911698D02*
X16951134Y-14025984D01*
X16951134Y-14025984D02*
X17074944Y-14025984D01*
X17151134Y-13825984D02*
X17151134Y-13864079D01*
X17227325Y-13825984D02*
X17227325Y-13864079D01*
X17522563Y-14102174D02*
X17513039Y-14092650D01*
X17513039Y-14092650D02*
X17493991Y-14064079D01*
X17493991Y-14064079D02*
X17484468Y-14045031D01*
X17484468Y-14045031D02*
X17474944Y-14016460D01*
X17474944Y-14016460D02*
X17465420Y-13968841D01*
X17465420Y-13968841D02*
X17465420Y-13930746D01*
X17465420Y-13930746D02*
X17474944Y-13883127D01*
X17474944Y-13883127D02*
X17484468Y-13854555D01*
X17484468Y-13854555D02*
X17493991Y-13835508D01*
X17493991Y-13835508D02*
X17513039Y-13806936D01*
X17513039Y-13806936D02*
X17522563Y-13797412D01*
X17579706Y-13825984D02*
X17703515Y-13825984D01*
X17703515Y-13825984D02*
X17636849Y-13902174D01*
X17636849Y-13902174D02*
X17665420Y-13902174D01*
X17665420Y-13902174D02*
X17684468Y-13911698D01*
X17684468Y-13911698D02*
X17693991Y-13921222D01*
X17693991Y-13921222D02*
X17703515Y-13940269D01*
X17703515Y-13940269D02*
X17703515Y-13987888D01*
X17703515Y-13987888D02*
X17693991Y-14006936D01*
X17693991Y-14006936D02*
X17684468Y-14016460D01*
X17684468Y-14016460D02*
X17665420Y-14025984D01*
X17665420Y-14025984D02*
X17608277Y-14025984D01*
X17608277Y-14025984D02*
X17589230Y-14016460D01*
X17589230Y-14016460D02*
X17579706Y-14006936D01*
X17941611Y-14025984D02*
X17941611Y-13825984D01*
X18027325Y-14025984D02*
X18027325Y-13921222D01*
X18027325Y-13921222D02*
X18017801Y-13902174D01*
X18017801Y-13902174D02*
X17998753Y-13892650D01*
X17998753Y-13892650D02*
X17970182Y-13892650D01*
X17970182Y-13892650D02*
X17951134Y-13902174D01*
X17951134Y-13902174D02*
X17941611Y-13911698D01*
X18151134Y-14025984D02*
X18132087Y-14016460D01*
X18132087Y-14016460D02*
X18122563Y-14006936D01*
X18122563Y-14006936D02*
X18113039Y-13987888D01*
X18113039Y-13987888D02*
X18113039Y-13930746D01*
X18113039Y-13930746D02*
X18122563Y-13911698D01*
X18122563Y-13911698D02*
X18132087Y-13902174D01*
X18132087Y-13902174D02*
X18151134Y-13892650D01*
X18151134Y-13892650D02*
X18179706Y-13892650D01*
X18179706Y-13892650D02*
X18198753Y-13902174D01*
X18198753Y-13902174D02*
X18208277Y-13911698D01*
X18208277Y-13911698D02*
X18217801Y-13930746D01*
X18217801Y-13930746D02*
X18217801Y-13987888D01*
X18217801Y-13987888D02*
X18208277Y-14006936D01*
X18208277Y-14006936D02*
X18198753Y-14016460D01*
X18198753Y-14016460D02*
X18179706Y-14025984D01*
X18179706Y-14025984D02*
X18151134Y-14025984D01*
X18332087Y-14025984D02*
X18313039Y-14016460D01*
X18313039Y-14016460D02*
X18303515Y-13997412D01*
X18303515Y-13997412D02*
X18303515Y-13825984D01*
X18484468Y-14016460D02*
X18465420Y-14025984D01*
X18465420Y-14025984D02*
X18427325Y-14025984D01*
X18427325Y-14025984D02*
X18408277Y-14016460D01*
X18408277Y-14016460D02*
X18398753Y-13997412D01*
X18398753Y-13997412D02*
X18398753Y-13921222D01*
X18398753Y-13921222D02*
X18408277Y-13902174D01*
X18408277Y-13902174D02*
X18427325Y-13892650D01*
X18427325Y-13892650D02*
X18465420Y-13892650D01*
X18465420Y-13892650D02*
X18484468Y-13902174D01*
X18484468Y-13902174D02*
X18493992Y-13921222D01*
X18493992Y-13921222D02*
X18493992Y-13940269D01*
X18493992Y-13940269D02*
X18398753Y-13959317D01*
X18570182Y-14016460D02*
X18589230Y-14025984D01*
X18589230Y-14025984D02*
X18627325Y-14025984D01*
X18627325Y-14025984D02*
X18646373Y-14016460D01*
X18646373Y-14016460D02*
X18655896Y-13997412D01*
X18655896Y-13997412D02*
X18655896Y-13987888D01*
X18655896Y-13987888D02*
X18646373Y-13968841D01*
X18646373Y-13968841D02*
X18627325Y-13959317D01*
X18627325Y-13959317D02*
X18598753Y-13959317D01*
X18598753Y-13959317D02*
X18579706Y-13949793D01*
X18579706Y-13949793D02*
X18570182Y-13930746D01*
X18570182Y-13930746D02*
X18570182Y-13921222D01*
X18570182Y-13921222D02*
X18579706Y-13902174D01*
X18579706Y-13902174D02*
X18598753Y-13892650D01*
X18598753Y-13892650D02*
X18627325Y-13892650D01*
X18627325Y-13892650D02*
X18646373Y-13902174D01*
X18722563Y-14102174D02*
X18732087Y-14092650D01*
X18732087Y-14092650D02*
X18751134Y-14064079D01*
X18751134Y-14064079D02*
X18760658Y-14045031D01*
X18760658Y-14045031D02*
X18770182Y-14016460D01*
X18770182Y-14016460D02*
X18779706Y-13968841D01*
X18779706Y-13968841D02*
X18779706Y-13930746D01*
X18779706Y-13930746D02*
X18770182Y-13883127D01*
X18770182Y-13883127D02*
X18760658Y-13854555D01*
X18760658Y-13854555D02*
X18751134Y-13835508D01*
X18751134Y-13835508D02*
X18732087Y-13806936D01*
X18732087Y-13806936D02*
X18722563Y-13797412D01*
X13847500Y-14298500D02*
X13947500Y-14198500D01*
X13847500Y-14098500D01*
X13747500Y-14198500D01*
X13847500Y-14298500D01*
X14189229Y-14089984D02*
X14313039Y-14089984D01*
X14313039Y-14089984D02*
X14246372Y-14166174D01*
X14246372Y-14166174D02*
X14274943Y-14166174D01*
X14274943Y-14166174D02*
X14293991Y-14175698D01*
X14293991Y-14175698D02*
X14303515Y-14185222D01*
X14303515Y-14185222D02*
X14313039Y-14204269D01*
X14313039Y-14204269D02*
X14313039Y-14251888D01*
X14313039Y-14251888D02*
X14303515Y-14270936D01*
X14303515Y-14270936D02*
X14293991Y-14280460D01*
X14293991Y-14280460D02*
X14274943Y-14289984D01*
X14274943Y-14289984D02*
X14217801Y-14289984D01*
X14217801Y-14289984D02*
X14198753Y-14280460D01*
X14198753Y-14280460D02*
X14189229Y-14270936D01*
X14398753Y-14270936D02*
X14408277Y-14280460D01*
X14408277Y-14280460D02*
X14398753Y-14289984D01*
X14398753Y-14289984D02*
X14389229Y-14280460D01*
X14389229Y-14280460D02*
X14398753Y-14270936D01*
X14398753Y-14270936D02*
X14398753Y-14289984D01*
X14532086Y-14089984D02*
X14551134Y-14089984D01*
X14551134Y-14089984D02*
X14570182Y-14099508D01*
X14570182Y-14099508D02*
X14579705Y-14109031D01*
X14579705Y-14109031D02*
X14589229Y-14128079D01*
X14589229Y-14128079D02*
X14598753Y-14166174D01*
X14598753Y-14166174D02*
X14598753Y-14213793D01*
X14598753Y-14213793D02*
X14589229Y-14251888D01*
X14589229Y-14251888D02*
X14579705Y-14270936D01*
X14579705Y-14270936D02*
X14570182Y-14280460D01*
X14570182Y-14280460D02*
X14551134Y-14289984D01*
X14551134Y-14289984D02*
X14532086Y-14289984D01*
X14532086Y-14289984D02*
X14513039Y-14280460D01*
X14513039Y-14280460D02*
X14503515Y-14270936D01*
X14503515Y-14270936D02*
X14493991Y-14251888D01*
X14493991Y-14251888D02*
X14484467Y-14213793D01*
X14484467Y-14213793D02*
X14484467Y-14166174D01*
X14484467Y-14166174D02*
X14493991Y-14128079D01*
X14493991Y-14128079D02*
X14503515Y-14109031D01*
X14503515Y-14109031D02*
X14513039Y-14099508D01*
X14513039Y-14099508D02*
X14532086Y-14089984D01*
X14779705Y-14089984D02*
X14684467Y-14089984D01*
X14684467Y-14089984D02*
X14674943Y-14185222D01*
X14674943Y-14185222D02*
X14684467Y-14175698D01*
X14684467Y-14175698D02*
X14703515Y-14166174D01*
X14703515Y-14166174D02*
X14751134Y-14166174D01*
X14751134Y-14166174D02*
X14770182Y-14175698D01*
X14770182Y-14175698D02*
X14779705Y-14185222D01*
X14779705Y-14185222D02*
X14789229Y-14204269D01*
X14789229Y-14204269D02*
X14789229Y-14251888D01*
X14789229Y-14251888D02*
X14779705Y-14270936D01*
X14779705Y-14270936D02*
X14770182Y-14280460D01*
X14770182Y-14280460D02*
X14751134Y-14289984D01*
X14751134Y-14289984D02*
X14703515Y-14289984D01*
X14703515Y-14289984D02*
X14684467Y-14280460D01*
X14684467Y-14280460D02*
X14674943Y-14270936D01*
X14913039Y-14089984D02*
X14932086Y-14089984D01*
X14932086Y-14089984D02*
X14951134Y-14099508D01*
X14951134Y-14099508D02*
X14960658Y-14109031D01*
X14960658Y-14109031D02*
X14970182Y-14128079D01*
X14970182Y-14128079D02*
X14979705Y-14166174D01*
X14979705Y-14166174D02*
X14979705Y-14213793D01*
X14979705Y-14213793D02*
X14970182Y-14251888D01*
X14970182Y-14251888D02*
X14960658Y-14270936D01*
X14960658Y-14270936D02*
X14951134Y-14280460D01*
X14951134Y-14280460D02*
X14932086Y-14289984D01*
X14932086Y-14289984D02*
X14913039Y-14289984D01*
X14913039Y-14289984D02*
X14893991Y-14280460D01*
X14893991Y-14280460D02*
X14884467Y-14270936D01*
X14884467Y-14270936D02*
X14874943Y-14251888D01*
X14874943Y-14251888D02*
X14865420Y-14213793D01*
X14865420Y-14213793D02*
X14865420Y-14166174D01*
X14865420Y-14166174D02*
X14874943Y-14128079D01*
X14874943Y-14128079D02*
X14884467Y-14109031D01*
X14884467Y-14109031D02*
X14893991Y-14099508D01*
X14893991Y-14099508D02*
X14913039Y-14089984D01*
X15065420Y-14289984D02*
X15065420Y-14156650D01*
X15065420Y-14175698D02*
X15074943Y-14166174D01*
X15074943Y-14166174D02*
X15093991Y-14156650D01*
X15093991Y-14156650D02*
X15122563Y-14156650D01*
X15122563Y-14156650D02*
X15141610Y-14166174D01*
X15141610Y-14166174D02*
X15151134Y-14185222D01*
X15151134Y-14185222D02*
X15151134Y-14289984D01*
X15151134Y-14185222D02*
X15160658Y-14166174D01*
X15160658Y-14166174D02*
X15179705Y-14156650D01*
X15179705Y-14156650D02*
X15208277Y-14156650D01*
X15208277Y-14156650D02*
X15227324Y-14166174D01*
X15227324Y-14166174D02*
X15236848Y-14185222D01*
X15236848Y-14185222D02*
X15236848Y-14289984D01*
X15332086Y-14289984D02*
X15332086Y-14156650D01*
X15332086Y-14175698D02*
X15341610Y-14166174D01*
X15341610Y-14166174D02*
X15360658Y-14156650D01*
X15360658Y-14156650D02*
X15389229Y-14156650D01*
X15389229Y-14156650D02*
X15408277Y-14166174D01*
X15408277Y-14166174D02*
X15417801Y-14185222D01*
X15417801Y-14185222D02*
X15417801Y-14289984D01*
X15417801Y-14185222D02*
X15427324Y-14166174D01*
X15427324Y-14166174D02*
X15446372Y-14156650D01*
X15446372Y-14156650D02*
X15474943Y-14156650D01*
X15474943Y-14156650D02*
X15493991Y-14166174D01*
X15493991Y-14166174D02*
X15503515Y-14185222D01*
X15503515Y-14185222D02*
X15503515Y-14289984D01*
X15893991Y-14080460D02*
X15722563Y-14337603D01*
X16151134Y-14089984D02*
X16170182Y-14089984D01*
X16170182Y-14089984D02*
X16189229Y-14099508D01*
X16189229Y-14099508D02*
X16198753Y-14109031D01*
X16198753Y-14109031D02*
X16208277Y-14128079D01*
X16208277Y-14128079D02*
X16217801Y-14166174D01*
X16217801Y-14166174D02*
X16217801Y-14213793D01*
X16217801Y-14213793D02*
X16208277Y-14251888D01*
X16208277Y-14251888D02*
X16198753Y-14270936D01*
X16198753Y-14270936D02*
X16189229Y-14280460D01*
X16189229Y-14280460D02*
X16170182Y-14289984D01*
X16170182Y-14289984D02*
X16151134Y-14289984D01*
X16151134Y-14289984D02*
X16132086Y-14280460D01*
X16132086Y-14280460D02*
X16122563Y-14270936D01*
X16122563Y-14270936D02*
X16113039Y-14251888D01*
X16113039Y-14251888D02*
X16103515Y-14213793D01*
X16103515Y-14213793D02*
X16103515Y-14166174D01*
X16103515Y-14166174D02*
X16113039Y-14128079D01*
X16113039Y-14128079D02*
X16122563Y-14109031D01*
X16122563Y-14109031D02*
X16132086Y-14099508D01*
X16132086Y-14099508D02*
X16151134Y-14089984D01*
X16303515Y-14270936D02*
X16313039Y-14280460D01*
X16313039Y-14280460D02*
X16303515Y-14289984D01*
X16303515Y-14289984D02*
X16293991Y-14280460D01*
X16293991Y-14280460D02*
X16303515Y-14270936D01*
X16303515Y-14270936D02*
X16303515Y-14289984D01*
X16503515Y-14289984D02*
X16389229Y-14289984D01*
X16446372Y-14289984D02*
X16446372Y-14089984D01*
X16446372Y-14089984D02*
X16427325Y-14118555D01*
X16427325Y-14118555D02*
X16408277Y-14137603D01*
X16408277Y-14137603D02*
X16389229Y-14147127D01*
X16579706Y-14109031D02*
X16589229Y-14099508D01*
X16589229Y-14099508D02*
X16608277Y-14089984D01*
X16608277Y-14089984D02*
X16655896Y-14089984D01*
X16655896Y-14089984D02*
X16674944Y-14099508D01*
X16674944Y-14099508D02*
X16684467Y-14109031D01*
X16684467Y-14109031D02*
X16693991Y-14128079D01*
X16693991Y-14128079D02*
X16693991Y-14147127D01*
X16693991Y-14147127D02*
X16684467Y-14175698D01*
X16684467Y-14175698D02*
X16570182Y-14289984D01*
X16570182Y-14289984D02*
X16693991Y-14289984D01*
X16817801Y-14089984D02*
X16836849Y-14089984D01*
X16836849Y-14089984D02*
X16855896Y-14099508D01*
X16855896Y-14099508D02*
X16865420Y-14109031D01*
X16865420Y-14109031D02*
X16874944Y-14128079D01*
X16874944Y-14128079D02*
X16884468Y-14166174D01*
X16884468Y-14166174D02*
X16884468Y-14213793D01*
X16884468Y-14213793D02*
X16874944Y-14251888D01*
X16874944Y-14251888D02*
X16865420Y-14270936D01*
X16865420Y-14270936D02*
X16855896Y-14280460D01*
X16855896Y-14280460D02*
X16836849Y-14289984D01*
X16836849Y-14289984D02*
X16817801Y-14289984D01*
X16817801Y-14289984D02*
X16798753Y-14280460D01*
X16798753Y-14280460D02*
X16789229Y-14270936D01*
X16789229Y-14270936D02*
X16779706Y-14251888D01*
X16779706Y-14251888D02*
X16770182Y-14213793D01*
X16770182Y-14213793D02*
X16770182Y-14166174D01*
X16770182Y-14166174D02*
X16779706Y-14128079D01*
X16779706Y-14128079D02*
X16789229Y-14109031D01*
X16789229Y-14109031D02*
X16798753Y-14099508D01*
X16798753Y-14099508D02*
X16817801Y-14089984D01*
X17074944Y-14289984D02*
X16960658Y-14289984D01*
X17017801Y-14289984D02*
X17017801Y-14089984D01*
X17017801Y-14089984D02*
X16998753Y-14118555D01*
X16998753Y-14118555D02*
X16979706Y-14137603D01*
X16979706Y-14137603D02*
X16960658Y-14147127D01*
X17151134Y-14089984D02*
X17151134Y-14128079D01*
X17227325Y-14089984D02*
X17227325Y-14128079D01*
X17522563Y-14366174D02*
X17513039Y-14356650D01*
X17513039Y-14356650D02*
X17493991Y-14328079D01*
X17493991Y-14328079D02*
X17484468Y-14309031D01*
X17484468Y-14309031D02*
X17474944Y-14280460D01*
X17474944Y-14280460D02*
X17465420Y-14232841D01*
X17465420Y-14232841D02*
X17465420Y-14194746D01*
X17465420Y-14194746D02*
X17474944Y-14147127D01*
X17474944Y-14147127D02*
X17484468Y-14118555D01*
X17484468Y-14118555D02*
X17493991Y-14099508D01*
X17493991Y-14099508D02*
X17513039Y-14070936D01*
X17513039Y-14070936D02*
X17522563Y-14061412D01*
X17589230Y-14109031D02*
X17598753Y-14099508D01*
X17598753Y-14099508D02*
X17617801Y-14089984D01*
X17617801Y-14089984D02*
X17665420Y-14089984D01*
X17665420Y-14089984D02*
X17684468Y-14099508D01*
X17684468Y-14099508D02*
X17693991Y-14109031D01*
X17693991Y-14109031D02*
X17703515Y-14128079D01*
X17703515Y-14128079D02*
X17703515Y-14147127D01*
X17703515Y-14147127D02*
X17693991Y-14175698D01*
X17693991Y-14175698D02*
X17579706Y-14289984D01*
X17579706Y-14289984D02*
X17703515Y-14289984D01*
X17941611Y-14289984D02*
X17941611Y-14089984D01*
X18027325Y-14289984D02*
X18027325Y-14185222D01*
X18027325Y-14185222D02*
X18017801Y-14166174D01*
X18017801Y-14166174D02*
X17998753Y-14156650D01*
X17998753Y-14156650D02*
X17970182Y-14156650D01*
X17970182Y-14156650D02*
X17951134Y-14166174D01*
X17951134Y-14166174D02*
X17941611Y-14175698D01*
X18151134Y-14289984D02*
X18132087Y-14280460D01*
X18132087Y-14280460D02*
X18122563Y-14270936D01*
X18122563Y-14270936D02*
X18113039Y-14251888D01*
X18113039Y-14251888D02*
X18113039Y-14194746D01*
X18113039Y-14194746D02*
X18122563Y-14175698D01*
X18122563Y-14175698D02*
X18132087Y-14166174D01*
X18132087Y-14166174D02*
X18151134Y-14156650D01*
X18151134Y-14156650D02*
X18179706Y-14156650D01*
X18179706Y-14156650D02*
X18198753Y-14166174D01*
X18198753Y-14166174D02*
X18208277Y-14175698D01*
X18208277Y-14175698D02*
X18217801Y-14194746D01*
X18217801Y-14194746D02*
X18217801Y-14251888D01*
X18217801Y-14251888D02*
X18208277Y-14270936D01*
X18208277Y-14270936D02*
X18198753Y-14280460D01*
X18198753Y-14280460D02*
X18179706Y-14289984D01*
X18179706Y-14289984D02*
X18151134Y-14289984D01*
X18332087Y-14289984D02*
X18313039Y-14280460D01*
X18313039Y-14280460D02*
X18303515Y-14261412D01*
X18303515Y-14261412D02*
X18303515Y-14089984D01*
X18484468Y-14280460D02*
X18465420Y-14289984D01*
X18465420Y-14289984D02*
X18427325Y-14289984D01*
X18427325Y-14289984D02*
X18408277Y-14280460D01*
X18408277Y-14280460D02*
X18398753Y-14261412D01*
X18398753Y-14261412D02*
X18398753Y-14185222D01*
X18398753Y-14185222D02*
X18408277Y-14166174D01*
X18408277Y-14166174D02*
X18427325Y-14156650D01*
X18427325Y-14156650D02*
X18465420Y-14156650D01*
X18465420Y-14156650D02*
X18484468Y-14166174D01*
X18484468Y-14166174D02*
X18493992Y-14185222D01*
X18493992Y-14185222D02*
X18493992Y-14204269D01*
X18493992Y-14204269D02*
X18398753Y-14223317D01*
X18570182Y-14280460D02*
X18589230Y-14289984D01*
X18589230Y-14289984D02*
X18627325Y-14289984D01*
X18627325Y-14289984D02*
X18646373Y-14280460D01*
X18646373Y-14280460D02*
X18655896Y-14261412D01*
X18655896Y-14261412D02*
X18655896Y-14251888D01*
X18655896Y-14251888D02*
X18646373Y-14232841D01*
X18646373Y-14232841D02*
X18627325Y-14223317D01*
X18627325Y-14223317D02*
X18598753Y-14223317D01*
X18598753Y-14223317D02*
X18579706Y-14213793D01*
X18579706Y-14213793D02*
X18570182Y-14194746D01*
X18570182Y-14194746D02*
X18570182Y-14185222D01*
X18570182Y-14185222D02*
X18579706Y-14166174D01*
X18579706Y-14166174D02*
X18598753Y-14156650D01*
X18598753Y-14156650D02*
X18627325Y-14156650D01*
X18627325Y-14156650D02*
X18646373Y-14166174D01*
X18722563Y-14366174D02*
X18732087Y-14356650D01*
X18732087Y-14356650D02*
X18751134Y-14328079D01*
X18751134Y-14328079D02*
X18760658Y-14309031D01*
X18760658Y-14309031D02*
X18770182Y-14280460D01*
X18770182Y-14280460D02*
X18779706Y-14232841D01*
X18779706Y-14232841D02*
X18779706Y-14194746D01*
X18779706Y-14194746D02*
X18770182Y-14147127D01*
X18770182Y-14147127D02*
X18760658Y-14118555D01*
X18760658Y-14118555D02*
X18751134Y-14099508D01*
X18751134Y-14099508D02*
X18732087Y-14070936D01*
X18732087Y-14070936D02*
X18722563Y-14061412D01*
M02*
